%TF.GenerationSoftware,KiCad,Pcbnew,(5.1.9)-1*%
%TF.CreationDate,2021-11-17T21:41:55-08:00*%
%TF.ProjectId,MCL-102 Bridge,4d434c2d-3130-4322-9042-72696467652e,rev?*%
%TF.SameCoordinates,Original*%
%TF.FileFunction,Copper,L3,Inr*%
%TF.FilePolarity,Positive*%
%FSLAX46Y46*%
G04 Gerber Fmt 4.6, Leading zero omitted, Abs format (unit mm)*
G04 Created by KiCad (PCBNEW (5.1.9)-1) date 2021-11-17 21:41:55*
%MOMM*%
%LPD*%
G01*
G04 APERTURE LIST*
%TA.AperFunction,ComponentPad*%
%ADD10R,1.600000X1.600000*%
%TD*%
%TA.AperFunction,ComponentPad*%
%ADD11C,1.600000*%
%TD*%
%TA.AperFunction,ComponentPad*%
%ADD12O,1.700000X1.700000*%
%TD*%
%TA.AperFunction,ComponentPad*%
%ADD13R,1.700000X1.700000*%
%TD*%
%TA.AperFunction,ViaPad*%
%ADD14C,0.609600*%
%TD*%
%TA.AperFunction,Conductor*%
%ADD15C,0.254000*%
%TD*%
%TA.AperFunction,Conductor*%
%ADD16C,0.100000*%
%TD*%
G04 APERTURE END LIST*
D10*
%TO.N,VCC*%
%TO.C,C13*%
X149606000Y-84328000D03*
D11*
%TO.N,GND*%
X146106000Y-84328000D03*
%TD*%
%TO.N,GND*%
%TO.C,C1*%
X133294000Y-84328000D03*
D10*
%TO.N,VCC*%
X129794000Y-84328000D03*
%TD*%
D12*
%TO.N,/CL*%
%TO.C,J1*%
X128778000Y-125222000D03*
%TO.N,/BL*%
X128778000Y-122682000D03*
%TO.N,/AL*%
X128778000Y-120142000D03*
%TO.N,/CH*%
X128778000Y-117602000D03*
%TO.N,/BH*%
X128778000Y-115062000D03*
%TO.N,/AH*%
X128778000Y-112522000D03*
D13*
%TO.N,GND*%
X128778000Y-109982000D03*
%TD*%
D12*
%TO.N,/Temp*%
%TO.C,IO1*%
X150622000Y-125222000D03*
%TO.N,/VBAT*%
X150622000Y-122682000D03*
%TO.N,/IMON*%
X150622000Y-120142000D03*
%TO.N,+3V3*%
X150622000Y-117602000D03*
%TO.N,GND*%
X150622000Y-115062000D03*
X150622000Y-112522000D03*
D13*
%TO.N,VDD*%
X150622000Y-109982000D03*
%TD*%
D14*
%TO.N,GND*%
X137922000Y-94742000D03*
X135890000Y-94742000D03*
X135890000Y-95758000D03*
X137414000Y-98298000D03*
X137414000Y-97282000D03*
X136398000Y-97282000D03*
X136398000Y-99314000D03*
X137922000Y-95758000D03*
X136398000Y-96266000D03*
X136906000Y-97790000D03*
X136906000Y-98806000D03*
X135890000Y-96774000D03*
X136906000Y-96774000D03*
X137414000Y-99314000D03*
X135890000Y-97790000D03*
X137414000Y-96266000D03*
X136398000Y-95250000D03*
X136906000Y-94742000D03*
X137414000Y-95250000D03*
X136906000Y-95758000D03*
X136398000Y-98298000D03*
X146050000Y-94742000D03*
X144018000Y-94742000D03*
X144018000Y-95758000D03*
X145542000Y-98298000D03*
X145542000Y-97282000D03*
X144526000Y-97282000D03*
X144526000Y-99314000D03*
X144526000Y-96266000D03*
X145034000Y-97790000D03*
X145034000Y-98806000D03*
X144018000Y-96774000D03*
X145034000Y-96774000D03*
X145542000Y-99314000D03*
X144018000Y-97790000D03*
X145542000Y-96266000D03*
X144526000Y-95250000D03*
X145034000Y-94742000D03*
X145542000Y-95250000D03*
X145034000Y-95758000D03*
X144526000Y-98298000D03*
X128778000Y-93980000D03*
X129286000Y-93218000D03*
X137414000Y-93218000D03*
X136906000Y-93980000D03*
X136652000Y-93218000D03*
X136144000Y-93980000D03*
X145542000Y-93218000D03*
X144780000Y-93218000D03*
X145034000Y-93980000D03*
X144272000Y-93980000D03*
X135204200Y-111569500D03*
X135166100Y-110299500D03*
X131114800Y-123545600D03*
X134442200Y-122123200D03*
X147116800Y-122631200D03*
X147091400Y-118237000D03*
X135128000Y-114821000D03*
X147574000Y-84328000D03*
X132842000Y-86106000D03*
X147320000Y-115849402D03*
X127762000Y-94742000D03*
X128778000Y-94742000D03*
X129794000Y-94742000D03*
X129286000Y-95250000D03*
X128270000Y-95250000D03*
X127762000Y-95758000D03*
X128778000Y-95758000D03*
X129794000Y-95758000D03*
X129286000Y-96266000D03*
X128270000Y-96266000D03*
X127762000Y-96774000D03*
X128778000Y-96774000D03*
X129286000Y-97282000D03*
X128270000Y-97282000D03*
X127762000Y-97790000D03*
X128778000Y-97790000D03*
X129286000Y-98298000D03*
X128270000Y-98298000D03*
X127762000Y-98806000D03*
X128778000Y-98806000D03*
X129286000Y-99314000D03*
X128270000Y-99314000D03*
X128016000Y-100838000D03*
X128016000Y-102108000D03*
X129286000Y-102108000D03*
X129286000Y-100838000D03*
X146050000Y-93980000D03*
X143510000Y-94234000D03*
X143510000Y-93472000D03*
X135382000Y-94234000D03*
X135382000Y-93472000D03*
X137922000Y-93980000D03*
X129794000Y-93980000D03*
X127762000Y-93980000D03*
X127762000Y-93218000D03*
X146050000Y-95758000D03*
X145796000Y-124841000D03*
X131064000Y-124460000D03*
X144780000Y-125222000D03*
X143256000Y-125222000D03*
X142240000Y-125222000D03*
X132080000Y-125222000D03*
X148844000Y-119888000D03*
X138430000Y-112268000D03*
X136906000Y-111506000D03*
X137668000Y-109982000D03*
X136652000Y-109220000D03*
X135636000Y-108966000D03*
X133858000Y-111252000D03*
X130810000Y-125222000D03*
X145542000Y-122428000D03*
X144272000Y-123698000D03*
X143002000Y-110236000D03*
X144526000Y-120904000D03*
%TO.N,VCC*%
X147091400Y-119913400D03*
%TO.N,/MA*%
X131572000Y-98806000D03*
X133604000Y-98806000D03*
X130556000Y-98806000D03*
X132588000Y-98806000D03*
X134620000Y-98806000D03*
X132080000Y-99314000D03*
X134112000Y-99314000D03*
X131064000Y-99314000D03*
X133096000Y-99314000D03*
X131572000Y-99822000D03*
X133604000Y-99822000D03*
X130556000Y-99822000D03*
X132588000Y-99822000D03*
X132080000Y-98298000D03*
X131064000Y-98298000D03*
X133096000Y-98298000D03*
X131572000Y-100838000D03*
X133604000Y-100838000D03*
X130556000Y-100838000D03*
X132588000Y-100838000D03*
X134620000Y-100838000D03*
X131572000Y-101600000D03*
X133604000Y-101600000D03*
X130556000Y-101600000D03*
X132588000Y-101600000D03*
X134620000Y-101600000D03*
X131572000Y-102362000D03*
X133604000Y-102362000D03*
X130556000Y-102362000D03*
X132588000Y-102362000D03*
X134620000Y-102362000D03*
X131572000Y-103124000D03*
X133604000Y-103124000D03*
X130556000Y-103124000D03*
X132588000Y-103124000D03*
X134620000Y-103124000D03*
X134620000Y-99822000D03*
X134620000Y-103886000D03*
X133604000Y-103886000D03*
X132588000Y-103886000D03*
X131572000Y-103886000D03*
X130556000Y-103886000D03*
X141020800Y-118364000D03*
%TO.N,/MB*%
X138684000Y-102362000D03*
X140716000Y-103124000D03*
X138684000Y-101600000D03*
X139700000Y-102362000D03*
X141732000Y-102362000D03*
X139700000Y-101600000D03*
X142748000Y-102362000D03*
X138684000Y-98806000D03*
X140716000Y-102362000D03*
X140716000Y-99822000D03*
X141732000Y-101600000D03*
X139700000Y-99822000D03*
X142748000Y-98806000D03*
X141732000Y-103124000D03*
X138684000Y-103124000D03*
X141732000Y-99822000D03*
X141732000Y-98806000D03*
X139700000Y-98806000D03*
X142748000Y-99822000D03*
X140208000Y-99314000D03*
X140716000Y-98806000D03*
X142240000Y-99314000D03*
X139192000Y-99314000D03*
X141224000Y-99314000D03*
X138684000Y-99822000D03*
X139700000Y-103124000D03*
X142748000Y-103124000D03*
X139700000Y-103886000D03*
X140716000Y-100838000D03*
X138684000Y-100838000D03*
X142748000Y-101600000D03*
X141224000Y-98298000D03*
X141732000Y-100838000D03*
X140208000Y-98298000D03*
X140716000Y-101600000D03*
X142748000Y-100838000D03*
X139192000Y-98298000D03*
X139700000Y-100838000D03*
X141732000Y-103886000D03*
X138684000Y-103886000D03*
X140716000Y-103886000D03*
X142748000Y-103886000D03*
X140970000Y-120675400D03*
%TO.N,/MC*%
X147066000Y-102362000D03*
X149098000Y-103124000D03*
X147066000Y-101600000D03*
X148082000Y-102362000D03*
X150114000Y-102362000D03*
X148082000Y-101600000D03*
X151130000Y-102362000D03*
X147066000Y-98806000D03*
X149098000Y-102362000D03*
X149098000Y-99822000D03*
X150114000Y-101600000D03*
X148082000Y-99822000D03*
X151130000Y-98806000D03*
X150114000Y-103124000D03*
X147066000Y-103124000D03*
X150114000Y-99822000D03*
X150114000Y-98806000D03*
X148082000Y-98806000D03*
X151130000Y-99822000D03*
X148590000Y-99314000D03*
X149098000Y-98806000D03*
X150622000Y-99314000D03*
X147574000Y-99314000D03*
X149606000Y-99314000D03*
X147066000Y-99822000D03*
X148082000Y-103124000D03*
X151130000Y-103124000D03*
X148082000Y-103886000D03*
X149098000Y-100838000D03*
X147066000Y-100838000D03*
X151130000Y-101600000D03*
X149606000Y-98298000D03*
X150114000Y-100838000D03*
X148590000Y-98298000D03*
X149098000Y-101600000D03*
X151130000Y-100838000D03*
X147574000Y-98298000D03*
X148082000Y-100838000D03*
X150114000Y-103886000D03*
X147066000Y-103886000D03*
X149098000Y-103886000D03*
X151130000Y-103886000D03*
X140233400Y-123291600D03*
%TO.N,/IMON*%
X149301200Y-86918800D03*
X143383000Y-108737400D03*
%TO.N,/AHO*%
X137033000Y-118110000D03*
X132918200Y-109728000D03*
%TO.N,/ALO*%
X130556002Y-108889800D03*
X138176000Y-124764800D03*
%TO.N,/BHO*%
X137287000Y-120065800D03*
X139446000Y-109982000D03*
%TO.N,/BLO*%
X138480800Y-108585000D03*
X133273800Y-123952000D03*
%TO.N,/CHO*%
X137312400Y-121996200D03*
X146989800Y-109067600D03*
%TO.N,/CLO*%
X134391400Y-123240800D03*
X146354800Y-110642400D03*
%TO.N,Net-(J2-Pad1)*%
X141732000Y-87630000D03*
X143764000Y-87630000D03*
X142748000Y-87630000D03*
X140716000Y-87630000D03*
X141224000Y-88138000D03*
X143256000Y-88138000D03*
X142240000Y-88138000D03*
X140208000Y-88138000D03*
X140208000Y-87122000D03*
X144399000Y-84328000D03*
X143764000Y-84582000D03*
X144272000Y-85090000D03*
X140208000Y-86106000D03*
X144272000Y-87122000D03*
X144272000Y-86106000D03*
X143256000Y-87122000D03*
X142240000Y-87122000D03*
X141224000Y-87122000D03*
X140462000Y-84836000D03*
X143002000Y-84328000D03*
X141732000Y-84582000D03*
X141097000Y-84455000D03*
X142367000Y-84328000D03*
X142748000Y-85598000D03*
X143764000Y-85598000D03*
X142240000Y-85090000D03*
X143256000Y-85090000D03*
X141732000Y-85598000D03*
X141224000Y-85090000D03*
X140716000Y-85598000D03*
X143764000Y-86614000D03*
X143256000Y-86106000D03*
X142748000Y-86614000D03*
X142240000Y-86106000D03*
X141732000Y-86614000D03*
X141224000Y-86106000D03*
X140716000Y-86614000D03*
%TD*%
D15*
%TO.N,GND*%
X132480903Y-83335298D02*
X133294000Y-84148395D01*
X134107097Y-83335298D01*
X134070333Y-83210000D01*
X145329667Y-83210000D01*
X145292903Y-83335298D01*
X146106000Y-84148395D01*
X146919097Y-83335298D01*
X146882333Y-83210000D01*
X148592912Y-83210000D01*
X148535289Y-83257289D01*
X148487678Y-83315304D01*
X148452299Y-83381492D01*
X148430513Y-83453311D01*
X148423157Y-83528000D01*
X148423157Y-85128000D01*
X148430513Y-85202689D01*
X148452299Y-85274508D01*
X148487678Y-85340696D01*
X148535289Y-85398711D01*
X148593304Y-85446322D01*
X148659492Y-85481701D01*
X148731311Y-85503487D01*
X148806000Y-85510843D01*
X150406000Y-85510843D01*
X150480689Y-85503487D01*
X150552508Y-85481701D01*
X150618696Y-85446322D01*
X150676711Y-85398711D01*
X150724322Y-85340696D01*
X150759701Y-85274508D01*
X150781487Y-85202689D01*
X150788843Y-85128000D01*
X150788843Y-83640209D01*
X150812983Y-83653044D01*
X151212272Y-83978696D01*
X151540704Y-84375701D01*
X151785768Y-84828938D01*
X151938130Y-85321142D01*
X151994000Y-85852700D01*
X151994000Y-85852837D01*
X151994001Y-111965783D01*
X151893641Y-111755080D01*
X151719588Y-111521731D01*
X151503355Y-111326822D01*
X151315367Y-111214843D01*
X151472000Y-111214843D01*
X151546689Y-111207487D01*
X151618508Y-111185701D01*
X151684696Y-111150322D01*
X151742711Y-111102711D01*
X151790322Y-111044696D01*
X151825701Y-110978508D01*
X151847487Y-110906689D01*
X151854843Y-110832000D01*
X151854843Y-109132000D01*
X151847487Y-109057311D01*
X151825701Y-108985492D01*
X151790322Y-108919304D01*
X151742711Y-108861289D01*
X151684696Y-108813678D01*
X151618508Y-108778299D01*
X151546689Y-108756513D01*
X151472000Y-108749157D01*
X149772000Y-108749157D01*
X149697311Y-108756513D01*
X149625492Y-108778299D01*
X149559304Y-108813678D01*
X149501289Y-108861289D01*
X149453678Y-108919304D01*
X149418299Y-108985492D01*
X149396513Y-109057311D01*
X149389157Y-109132000D01*
X149389157Y-110832000D01*
X149396513Y-110906689D01*
X149418299Y-110978508D01*
X149453678Y-111044696D01*
X149501289Y-111102711D01*
X149559304Y-111150322D01*
X149625492Y-111185701D01*
X149697311Y-111207487D01*
X149772000Y-111214843D01*
X149928633Y-111214843D01*
X149740645Y-111326822D01*
X149524412Y-111521731D01*
X149350359Y-111755080D01*
X149225175Y-112017901D01*
X149180524Y-112165110D01*
X149301845Y-112395000D01*
X150495000Y-112395000D01*
X150495000Y-112375000D01*
X150749000Y-112375000D01*
X150749000Y-112395000D01*
X150769000Y-112395000D01*
X150769000Y-112649000D01*
X150749000Y-112649000D01*
X150749000Y-114935000D01*
X150769000Y-114935000D01*
X150769000Y-115189000D01*
X150749000Y-115189000D01*
X150749000Y-115209000D01*
X150495000Y-115209000D01*
X150495000Y-115189000D01*
X149301845Y-115189000D01*
X149180524Y-115418890D01*
X149225175Y-115566099D01*
X149350359Y-115828920D01*
X149524412Y-116062269D01*
X149740645Y-116257178D01*
X149990748Y-116406157D01*
X150153168Y-116463772D01*
X150038903Y-116511102D01*
X149837283Y-116645820D01*
X149665820Y-116817283D01*
X149531102Y-117018903D01*
X149438307Y-117242931D01*
X149391000Y-117480757D01*
X149391000Y-117723243D01*
X149438307Y-117961069D01*
X149531102Y-118185097D01*
X149665820Y-118386717D01*
X149837283Y-118558180D01*
X150038903Y-118692898D01*
X150262931Y-118785693D01*
X150500757Y-118833000D01*
X150743243Y-118833000D01*
X150981069Y-118785693D01*
X151205097Y-118692898D01*
X151406717Y-118558180D01*
X151578180Y-118386717D01*
X151712898Y-118185097D01*
X151805693Y-117961069D01*
X151853000Y-117723243D01*
X151853000Y-117480757D01*
X151805693Y-117242931D01*
X151712898Y-117018903D01*
X151578180Y-116817283D01*
X151406717Y-116645820D01*
X151205097Y-116511102D01*
X151090832Y-116463772D01*
X151253252Y-116406157D01*
X151503355Y-116257178D01*
X151719588Y-116062269D01*
X151893641Y-115828920D01*
X151994001Y-115618217D01*
X151994001Y-123932136D01*
X151941774Y-124464786D01*
X151811998Y-124894626D01*
X151805693Y-124862931D01*
X151712898Y-124638903D01*
X151578180Y-124437283D01*
X151406717Y-124265820D01*
X151205097Y-124131102D01*
X150981069Y-124038307D01*
X150743243Y-123991000D01*
X150500757Y-123991000D01*
X150262931Y-124038307D01*
X150038903Y-124131102D01*
X149837283Y-124265820D01*
X149665820Y-124437283D01*
X149531102Y-124638903D01*
X149438307Y-124862931D01*
X149391000Y-125100757D01*
X149391000Y-125343243D01*
X149438307Y-125581069D01*
X149531102Y-125805097D01*
X149665820Y-126006717D01*
X149837283Y-126178180D01*
X150038903Y-126312898D01*
X150262931Y-126405693D01*
X150292009Y-126411477D01*
X149882858Y-126538130D01*
X149351300Y-126594000D01*
X130067854Y-126594000D01*
X129535214Y-126541774D01*
X129105374Y-126411998D01*
X129137069Y-126405693D01*
X129361097Y-126312898D01*
X129562717Y-126178180D01*
X129734180Y-126006717D01*
X129868898Y-125805097D01*
X129961693Y-125581069D01*
X130009000Y-125343243D01*
X130009000Y-125100757D01*
X129961693Y-124862931D01*
X129893069Y-124697255D01*
X137490200Y-124697255D01*
X137490200Y-124832345D01*
X137516555Y-124964840D01*
X137568252Y-125089648D01*
X137643305Y-125201972D01*
X137738828Y-125297495D01*
X137851152Y-125372548D01*
X137975960Y-125424245D01*
X138108455Y-125450600D01*
X138243545Y-125450600D01*
X138376040Y-125424245D01*
X138500848Y-125372548D01*
X138613172Y-125297495D01*
X138708695Y-125201972D01*
X138783748Y-125089648D01*
X138835445Y-124964840D01*
X138861800Y-124832345D01*
X138861800Y-124697255D01*
X138835445Y-124564760D01*
X138783748Y-124439952D01*
X138708695Y-124327628D01*
X138613172Y-124232105D01*
X138500848Y-124157052D01*
X138376040Y-124105355D01*
X138243545Y-124079000D01*
X138108455Y-124079000D01*
X137975960Y-124105355D01*
X137851152Y-124157052D01*
X137738828Y-124232105D01*
X137643305Y-124327628D01*
X137568252Y-124439952D01*
X137516555Y-124564760D01*
X137490200Y-124697255D01*
X129893069Y-124697255D01*
X129868898Y-124638903D01*
X129734180Y-124437283D01*
X129562717Y-124265820D01*
X129361097Y-124131102D01*
X129137069Y-124038307D01*
X128899243Y-123991000D01*
X128656757Y-123991000D01*
X128418931Y-124038307D01*
X128194903Y-124131102D01*
X127993283Y-124265820D01*
X127821820Y-124437283D01*
X127687102Y-124638903D01*
X127594307Y-124862931D01*
X127588523Y-124892009D01*
X127461870Y-124482858D01*
X127406000Y-123951300D01*
X127406000Y-122560757D01*
X127547000Y-122560757D01*
X127547000Y-122803243D01*
X127594307Y-123041069D01*
X127687102Y-123265097D01*
X127821820Y-123466717D01*
X127993283Y-123638180D01*
X128194903Y-123772898D01*
X128418931Y-123865693D01*
X128656757Y-123913000D01*
X128899243Y-123913000D01*
X129042746Y-123884455D01*
X132588000Y-123884455D01*
X132588000Y-124019545D01*
X132614355Y-124152040D01*
X132666052Y-124276848D01*
X132741105Y-124389172D01*
X132836628Y-124484695D01*
X132948952Y-124559748D01*
X133073760Y-124611445D01*
X133206255Y-124637800D01*
X133341345Y-124637800D01*
X133473840Y-124611445D01*
X133598648Y-124559748D01*
X133710972Y-124484695D01*
X133806495Y-124389172D01*
X133881548Y-124276848D01*
X133933245Y-124152040D01*
X133959600Y-124019545D01*
X133959600Y-123884455D01*
X133933382Y-123752649D01*
X133954228Y-123773495D01*
X134066552Y-123848548D01*
X134191360Y-123900245D01*
X134323855Y-123926600D01*
X134458945Y-123926600D01*
X134591440Y-123900245D01*
X134716248Y-123848548D01*
X134828572Y-123773495D01*
X134924095Y-123677972D01*
X134999148Y-123565648D01*
X135050845Y-123440840D01*
X135077200Y-123308345D01*
X135077200Y-123224055D01*
X139547600Y-123224055D01*
X139547600Y-123359145D01*
X139573955Y-123491640D01*
X139625652Y-123616448D01*
X139700705Y-123728772D01*
X139796228Y-123824295D01*
X139908552Y-123899348D01*
X140033360Y-123951045D01*
X140165855Y-123977400D01*
X140300945Y-123977400D01*
X140433440Y-123951045D01*
X140558248Y-123899348D01*
X140670572Y-123824295D01*
X140766095Y-123728772D01*
X140841148Y-123616448D01*
X140892845Y-123491640D01*
X140919200Y-123359145D01*
X140919200Y-123224055D01*
X140892845Y-123091560D01*
X140841148Y-122966752D01*
X140766095Y-122854428D01*
X140670572Y-122758905D01*
X140558248Y-122683852D01*
X140433440Y-122632155D01*
X140300945Y-122605800D01*
X140165855Y-122605800D01*
X140033360Y-122632155D01*
X139908552Y-122683852D01*
X139796228Y-122758905D01*
X139700705Y-122854428D01*
X139625652Y-122966752D01*
X139573955Y-123091560D01*
X139547600Y-123224055D01*
X135077200Y-123224055D01*
X135077200Y-123173255D01*
X135050845Y-123040760D01*
X134999148Y-122915952D01*
X134924095Y-122803628D01*
X134828572Y-122708105D01*
X134716248Y-122633052D01*
X134591440Y-122581355D01*
X134458945Y-122555000D01*
X134323855Y-122555000D01*
X134191360Y-122581355D01*
X134066552Y-122633052D01*
X133954228Y-122708105D01*
X133858705Y-122803628D01*
X133783652Y-122915952D01*
X133731955Y-123040760D01*
X133705600Y-123173255D01*
X133705600Y-123308345D01*
X133731818Y-123440151D01*
X133710972Y-123419305D01*
X133598648Y-123344252D01*
X133473840Y-123292555D01*
X133341345Y-123266200D01*
X133206255Y-123266200D01*
X133073760Y-123292555D01*
X132948952Y-123344252D01*
X132836628Y-123419305D01*
X132741105Y-123514828D01*
X132666052Y-123627152D01*
X132614355Y-123751960D01*
X132588000Y-123884455D01*
X129042746Y-123884455D01*
X129137069Y-123865693D01*
X129361097Y-123772898D01*
X129562717Y-123638180D01*
X129734180Y-123466717D01*
X129868898Y-123265097D01*
X129961693Y-123041069D01*
X130009000Y-122803243D01*
X130009000Y-122560757D01*
X129961693Y-122322931D01*
X129868898Y-122098903D01*
X129755143Y-121928655D01*
X136626600Y-121928655D01*
X136626600Y-122063745D01*
X136652955Y-122196240D01*
X136704652Y-122321048D01*
X136779705Y-122433372D01*
X136875228Y-122528895D01*
X136987552Y-122603948D01*
X137112360Y-122655645D01*
X137244855Y-122682000D01*
X137379945Y-122682000D01*
X137512440Y-122655645D01*
X137637248Y-122603948D01*
X137701887Y-122560757D01*
X149391000Y-122560757D01*
X149391000Y-122803243D01*
X149438307Y-123041069D01*
X149531102Y-123265097D01*
X149665820Y-123466717D01*
X149837283Y-123638180D01*
X150038903Y-123772898D01*
X150262931Y-123865693D01*
X150500757Y-123913000D01*
X150743243Y-123913000D01*
X150981069Y-123865693D01*
X151205097Y-123772898D01*
X151406717Y-123638180D01*
X151578180Y-123466717D01*
X151712898Y-123265097D01*
X151805693Y-123041069D01*
X151853000Y-122803243D01*
X151853000Y-122560757D01*
X151805693Y-122322931D01*
X151712898Y-122098903D01*
X151578180Y-121897283D01*
X151406717Y-121725820D01*
X151205097Y-121591102D01*
X150981069Y-121498307D01*
X150743243Y-121451000D01*
X150500757Y-121451000D01*
X150262931Y-121498307D01*
X150038903Y-121591102D01*
X149837283Y-121725820D01*
X149665820Y-121897283D01*
X149531102Y-122098903D01*
X149438307Y-122322931D01*
X149391000Y-122560757D01*
X137701887Y-122560757D01*
X137749572Y-122528895D01*
X137845095Y-122433372D01*
X137920148Y-122321048D01*
X137971845Y-122196240D01*
X137998200Y-122063745D01*
X137998200Y-121928655D01*
X137971845Y-121796160D01*
X137920148Y-121671352D01*
X137845095Y-121559028D01*
X137749572Y-121463505D01*
X137637248Y-121388452D01*
X137512440Y-121336755D01*
X137379945Y-121310400D01*
X137244855Y-121310400D01*
X137112360Y-121336755D01*
X136987552Y-121388452D01*
X136875228Y-121463505D01*
X136779705Y-121559028D01*
X136704652Y-121671352D01*
X136652955Y-121796160D01*
X136626600Y-121928655D01*
X129755143Y-121928655D01*
X129734180Y-121897283D01*
X129562717Y-121725820D01*
X129361097Y-121591102D01*
X129137069Y-121498307D01*
X128899243Y-121451000D01*
X128656757Y-121451000D01*
X128418931Y-121498307D01*
X128194903Y-121591102D01*
X127993283Y-121725820D01*
X127821820Y-121897283D01*
X127687102Y-122098903D01*
X127594307Y-122322931D01*
X127547000Y-122560757D01*
X127406000Y-122560757D01*
X127406000Y-120020757D01*
X127547000Y-120020757D01*
X127547000Y-120263243D01*
X127594307Y-120501069D01*
X127687102Y-120725097D01*
X127821820Y-120926717D01*
X127993283Y-121098180D01*
X128194903Y-121232898D01*
X128418931Y-121325693D01*
X128656757Y-121373000D01*
X128899243Y-121373000D01*
X129137069Y-121325693D01*
X129361097Y-121232898D01*
X129562717Y-121098180D01*
X129734180Y-120926717D01*
X129868898Y-120725097D01*
X129961693Y-120501069D01*
X130009000Y-120263243D01*
X130009000Y-120020757D01*
X130004525Y-119998255D01*
X136601200Y-119998255D01*
X136601200Y-120133345D01*
X136627555Y-120265840D01*
X136679252Y-120390648D01*
X136754305Y-120502972D01*
X136849828Y-120598495D01*
X136962152Y-120673548D01*
X137086960Y-120725245D01*
X137219455Y-120751600D01*
X137354545Y-120751600D01*
X137487040Y-120725245D01*
X137611848Y-120673548D01*
X137710163Y-120607855D01*
X140284200Y-120607855D01*
X140284200Y-120742945D01*
X140310555Y-120875440D01*
X140362252Y-121000248D01*
X140437305Y-121112572D01*
X140532828Y-121208095D01*
X140645152Y-121283148D01*
X140769960Y-121334845D01*
X140902455Y-121361200D01*
X141037545Y-121361200D01*
X141170040Y-121334845D01*
X141294848Y-121283148D01*
X141407172Y-121208095D01*
X141502695Y-121112572D01*
X141577748Y-121000248D01*
X141629445Y-120875440D01*
X141655800Y-120742945D01*
X141655800Y-120607855D01*
X141629445Y-120475360D01*
X141577748Y-120350552D01*
X141502695Y-120238228D01*
X141407172Y-120142705D01*
X141294848Y-120067652D01*
X141170040Y-120015955D01*
X141037545Y-119989600D01*
X140902455Y-119989600D01*
X140769960Y-120015955D01*
X140645152Y-120067652D01*
X140532828Y-120142705D01*
X140437305Y-120238228D01*
X140362252Y-120350552D01*
X140310555Y-120475360D01*
X140284200Y-120607855D01*
X137710163Y-120607855D01*
X137724172Y-120598495D01*
X137819695Y-120502972D01*
X137894748Y-120390648D01*
X137946445Y-120265840D01*
X137972800Y-120133345D01*
X137972800Y-119998255D01*
X137946445Y-119865760D01*
X137938201Y-119845855D01*
X146405600Y-119845855D01*
X146405600Y-119980945D01*
X146431955Y-120113440D01*
X146483652Y-120238248D01*
X146558705Y-120350572D01*
X146654228Y-120446095D01*
X146766552Y-120521148D01*
X146891360Y-120572845D01*
X147023855Y-120599200D01*
X147158945Y-120599200D01*
X147291440Y-120572845D01*
X147416248Y-120521148D01*
X147528572Y-120446095D01*
X147624095Y-120350572D01*
X147699148Y-120238248D01*
X147750845Y-120113440D01*
X147769280Y-120020757D01*
X149391000Y-120020757D01*
X149391000Y-120263243D01*
X149438307Y-120501069D01*
X149531102Y-120725097D01*
X149665820Y-120926717D01*
X149837283Y-121098180D01*
X150038903Y-121232898D01*
X150262931Y-121325693D01*
X150500757Y-121373000D01*
X150743243Y-121373000D01*
X150981069Y-121325693D01*
X151205097Y-121232898D01*
X151406717Y-121098180D01*
X151578180Y-120926717D01*
X151712898Y-120725097D01*
X151805693Y-120501069D01*
X151853000Y-120263243D01*
X151853000Y-120020757D01*
X151805693Y-119782931D01*
X151712898Y-119558903D01*
X151578180Y-119357283D01*
X151406717Y-119185820D01*
X151205097Y-119051102D01*
X150981069Y-118958307D01*
X150743243Y-118911000D01*
X150500757Y-118911000D01*
X150262931Y-118958307D01*
X150038903Y-119051102D01*
X149837283Y-119185820D01*
X149665820Y-119357283D01*
X149531102Y-119558903D01*
X149438307Y-119782931D01*
X149391000Y-120020757D01*
X147769280Y-120020757D01*
X147777200Y-119980945D01*
X147777200Y-119845855D01*
X147750845Y-119713360D01*
X147699148Y-119588552D01*
X147624095Y-119476228D01*
X147528572Y-119380705D01*
X147416248Y-119305652D01*
X147291440Y-119253955D01*
X147158945Y-119227600D01*
X147023855Y-119227600D01*
X146891360Y-119253955D01*
X146766552Y-119305652D01*
X146654228Y-119380705D01*
X146558705Y-119476228D01*
X146483652Y-119588552D01*
X146431955Y-119713360D01*
X146405600Y-119845855D01*
X137938201Y-119845855D01*
X137894748Y-119740952D01*
X137819695Y-119628628D01*
X137724172Y-119533105D01*
X137611848Y-119458052D01*
X137487040Y-119406355D01*
X137354545Y-119380000D01*
X137219455Y-119380000D01*
X137086960Y-119406355D01*
X136962152Y-119458052D01*
X136849828Y-119533105D01*
X136754305Y-119628628D01*
X136679252Y-119740952D01*
X136627555Y-119865760D01*
X136601200Y-119998255D01*
X130004525Y-119998255D01*
X129961693Y-119782931D01*
X129868898Y-119558903D01*
X129734180Y-119357283D01*
X129562717Y-119185820D01*
X129361097Y-119051102D01*
X129137069Y-118958307D01*
X128899243Y-118911000D01*
X128656757Y-118911000D01*
X128418931Y-118958307D01*
X128194903Y-119051102D01*
X127993283Y-119185820D01*
X127821820Y-119357283D01*
X127687102Y-119558903D01*
X127594307Y-119782931D01*
X127547000Y-120020757D01*
X127406000Y-120020757D01*
X127406000Y-117480757D01*
X127547000Y-117480757D01*
X127547000Y-117723243D01*
X127594307Y-117961069D01*
X127687102Y-118185097D01*
X127821820Y-118386717D01*
X127993283Y-118558180D01*
X128194903Y-118692898D01*
X128418931Y-118785693D01*
X128656757Y-118833000D01*
X128899243Y-118833000D01*
X129137069Y-118785693D01*
X129361097Y-118692898D01*
X129562717Y-118558180D01*
X129734180Y-118386717D01*
X129868898Y-118185097D01*
X129927981Y-118042455D01*
X136347200Y-118042455D01*
X136347200Y-118177545D01*
X136373555Y-118310040D01*
X136425252Y-118434848D01*
X136500305Y-118547172D01*
X136595828Y-118642695D01*
X136708152Y-118717748D01*
X136832960Y-118769445D01*
X136965455Y-118795800D01*
X137100545Y-118795800D01*
X137233040Y-118769445D01*
X137357848Y-118717748D01*
X137470172Y-118642695D01*
X137565695Y-118547172D01*
X137640748Y-118434848D01*
X137692445Y-118310040D01*
X137695147Y-118296455D01*
X140335000Y-118296455D01*
X140335000Y-118431545D01*
X140361355Y-118564040D01*
X140413052Y-118688848D01*
X140488105Y-118801172D01*
X140583628Y-118896695D01*
X140695952Y-118971748D01*
X140820760Y-119023445D01*
X140953255Y-119049800D01*
X141088345Y-119049800D01*
X141220840Y-119023445D01*
X141345648Y-118971748D01*
X141457972Y-118896695D01*
X141553495Y-118801172D01*
X141628548Y-118688848D01*
X141680245Y-118564040D01*
X141706600Y-118431545D01*
X141706600Y-118296455D01*
X141680245Y-118163960D01*
X141628548Y-118039152D01*
X141553495Y-117926828D01*
X141457972Y-117831305D01*
X141345648Y-117756252D01*
X141220840Y-117704555D01*
X141088345Y-117678200D01*
X140953255Y-117678200D01*
X140820760Y-117704555D01*
X140695952Y-117756252D01*
X140583628Y-117831305D01*
X140488105Y-117926828D01*
X140413052Y-118039152D01*
X140361355Y-118163960D01*
X140335000Y-118296455D01*
X137695147Y-118296455D01*
X137718800Y-118177545D01*
X137718800Y-118042455D01*
X137692445Y-117909960D01*
X137640748Y-117785152D01*
X137565695Y-117672828D01*
X137470172Y-117577305D01*
X137357848Y-117502252D01*
X137233040Y-117450555D01*
X137100545Y-117424200D01*
X136965455Y-117424200D01*
X136832960Y-117450555D01*
X136708152Y-117502252D01*
X136595828Y-117577305D01*
X136500305Y-117672828D01*
X136425252Y-117785152D01*
X136373555Y-117909960D01*
X136347200Y-118042455D01*
X129927981Y-118042455D01*
X129961693Y-117961069D01*
X130009000Y-117723243D01*
X130009000Y-117480757D01*
X129961693Y-117242931D01*
X129868898Y-117018903D01*
X129734180Y-116817283D01*
X129562717Y-116645820D01*
X129361097Y-116511102D01*
X129137069Y-116418307D01*
X128899243Y-116371000D01*
X128656757Y-116371000D01*
X128418931Y-116418307D01*
X128194903Y-116511102D01*
X127993283Y-116645820D01*
X127821820Y-116817283D01*
X127687102Y-117018903D01*
X127594307Y-117242931D01*
X127547000Y-117480757D01*
X127406000Y-117480757D01*
X127406000Y-114940757D01*
X127547000Y-114940757D01*
X127547000Y-115183243D01*
X127594307Y-115421069D01*
X127687102Y-115645097D01*
X127821820Y-115846717D01*
X127993283Y-116018180D01*
X128194903Y-116152898D01*
X128418931Y-116245693D01*
X128656757Y-116293000D01*
X128899243Y-116293000D01*
X129137069Y-116245693D01*
X129361097Y-116152898D01*
X129562717Y-116018180D01*
X129734180Y-115846717D01*
X129868898Y-115645097D01*
X129961693Y-115421069D01*
X130009000Y-115183243D01*
X130009000Y-114940757D01*
X129961693Y-114702931D01*
X129868898Y-114478903D01*
X129734180Y-114277283D01*
X129562717Y-114105820D01*
X129361097Y-113971102D01*
X129137069Y-113878307D01*
X128899243Y-113831000D01*
X128656757Y-113831000D01*
X128418931Y-113878307D01*
X128194903Y-113971102D01*
X127993283Y-114105820D01*
X127821820Y-114277283D01*
X127687102Y-114478903D01*
X127594307Y-114702931D01*
X127547000Y-114940757D01*
X127406000Y-114940757D01*
X127406000Y-111196896D01*
X127476815Y-111283185D01*
X127573506Y-111362537D01*
X127683820Y-111421502D01*
X127803518Y-111457812D01*
X127928000Y-111470072D01*
X128138294Y-111468927D01*
X127993283Y-111565820D01*
X127821820Y-111737283D01*
X127687102Y-111938903D01*
X127594307Y-112162931D01*
X127547000Y-112400757D01*
X127547000Y-112643243D01*
X127594307Y-112881069D01*
X127687102Y-113105097D01*
X127821820Y-113306717D01*
X127993283Y-113478180D01*
X128194903Y-113612898D01*
X128418931Y-113705693D01*
X128656757Y-113753000D01*
X128899243Y-113753000D01*
X129137069Y-113705693D01*
X129361097Y-113612898D01*
X129562717Y-113478180D01*
X129734180Y-113306717D01*
X129868898Y-113105097D01*
X129961693Y-112881069D01*
X129962126Y-112878890D01*
X149180524Y-112878890D01*
X149225175Y-113026099D01*
X149350359Y-113288920D01*
X149524412Y-113522269D01*
X149740645Y-113717178D01*
X149866255Y-113792000D01*
X149740645Y-113866822D01*
X149524412Y-114061731D01*
X149350359Y-114295080D01*
X149225175Y-114557901D01*
X149180524Y-114705110D01*
X149301845Y-114935000D01*
X150495000Y-114935000D01*
X150495000Y-112649000D01*
X149301845Y-112649000D01*
X149180524Y-112878890D01*
X129962126Y-112878890D01*
X130009000Y-112643243D01*
X130009000Y-112400757D01*
X129961693Y-112162931D01*
X129868898Y-111938903D01*
X129734180Y-111737283D01*
X129562717Y-111565820D01*
X129417706Y-111468927D01*
X129628000Y-111470072D01*
X129752482Y-111457812D01*
X129872180Y-111421502D01*
X129982494Y-111362537D01*
X130079185Y-111283185D01*
X130158537Y-111186494D01*
X130217502Y-111076180D01*
X130253812Y-110956482D01*
X130266072Y-110832000D01*
X130263000Y-110267750D01*
X130104250Y-110109000D01*
X128905000Y-110109000D01*
X128905000Y-110129000D01*
X128651000Y-110129000D01*
X128651000Y-110109000D01*
X128631000Y-110109000D01*
X128631000Y-109855000D01*
X128651000Y-109855000D01*
X128651000Y-108655750D01*
X128905000Y-108655750D01*
X128905000Y-109855000D01*
X130104250Y-109855000D01*
X130263000Y-109696250D01*
X130263194Y-109660455D01*
X132232400Y-109660455D01*
X132232400Y-109795545D01*
X132258755Y-109928040D01*
X132310452Y-110052848D01*
X132385505Y-110165172D01*
X132481028Y-110260695D01*
X132593352Y-110335748D01*
X132718160Y-110387445D01*
X132850655Y-110413800D01*
X132985745Y-110413800D01*
X133118240Y-110387445D01*
X133243048Y-110335748D01*
X133355372Y-110260695D01*
X133450895Y-110165172D01*
X133525948Y-110052848D01*
X133577645Y-109928040D01*
X133580347Y-109914455D01*
X138760200Y-109914455D01*
X138760200Y-110049545D01*
X138786555Y-110182040D01*
X138838252Y-110306848D01*
X138913305Y-110419172D01*
X139008828Y-110514695D01*
X139121152Y-110589748D01*
X139245960Y-110641445D01*
X139378455Y-110667800D01*
X139513545Y-110667800D01*
X139646040Y-110641445D01*
X139770848Y-110589748D01*
X139793136Y-110574855D01*
X145669000Y-110574855D01*
X145669000Y-110709945D01*
X145695355Y-110842440D01*
X145747052Y-110967248D01*
X145822105Y-111079572D01*
X145917628Y-111175095D01*
X146029952Y-111250148D01*
X146154760Y-111301845D01*
X146287255Y-111328200D01*
X146422345Y-111328200D01*
X146554840Y-111301845D01*
X146679648Y-111250148D01*
X146791972Y-111175095D01*
X146887495Y-111079572D01*
X146962548Y-110967248D01*
X147014245Y-110842440D01*
X147040600Y-110709945D01*
X147040600Y-110574855D01*
X147014245Y-110442360D01*
X146962548Y-110317552D01*
X146887495Y-110205228D01*
X146791972Y-110109705D01*
X146679648Y-110034652D01*
X146554840Y-109982955D01*
X146422345Y-109956600D01*
X146287255Y-109956600D01*
X146154760Y-109982955D01*
X146029952Y-110034652D01*
X145917628Y-110109705D01*
X145822105Y-110205228D01*
X145747052Y-110317552D01*
X145695355Y-110442360D01*
X145669000Y-110574855D01*
X139793136Y-110574855D01*
X139883172Y-110514695D01*
X139978695Y-110419172D01*
X140053748Y-110306848D01*
X140105445Y-110182040D01*
X140131800Y-110049545D01*
X140131800Y-109914455D01*
X140105445Y-109781960D01*
X140053748Y-109657152D01*
X139978695Y-109544828D01*
X139883172Y-109449305D01*
X139770848Y-109374252D01*
X139646040Y-109322555D01*
X139513545Y-109296200D01*
X139378455Y-109296200D01*
X139245960Y-109322555D01*
X139121152Y-109374252D01*
X139008828Y-109449305D01*
X138913305Y-109544828D01*
X138838252Y-109657152D01*
X138786555Y-109781960D01*
X138760200Y-109914455D01*
X133580347Y-109914455D01*
X133604000Y-109795545D01*
X133604000Y-109660455D01*
X133577645Y-109527960D01*
X133525948Y-109403152D01*
X133450895Y-109290828D01*
X133355372Y-109195305D01*
X133243048Y-109120252D01*
X133118240Y-109068555D01*
X132985745Y-109042200D01*
X132850655Y-109042200D01*
X132718160Y-109068555D01*
X132593352Y-109120252D01*
X132481028Y-109195305D01*
X132385505Y-109290828D01*
X132310452Y-109403152D01*
X132258755Y-109527960D01*
X132232400Y-109660455D01*
X130263194Y-109660455D01*
X130264008Y-109511156D01*
X130355962Y-109549245D01*
X130488457Y-109575600D01*
X130623547Y-109575600D01*
X130756042Y-109549245D01*
X130880850Y-109497548D01*
X130993174Y-109422495D01*
X131088697Y-109326972D01*
X131163750Y-109214648D01*
X131215447Y-109089840D01*
X131241802Y-108957345D01*
X131241802Y-108822255D01*
X131215447Y-108689760D01*
X131163750Y-108564952D01*
X131132014Y-108517455D01*
X137795000Y-108517455D01*
X137795000Y-108652545D01*
X137821355Y-108785040D01*
X137873052Y-108909848D01*
X137948105Y-109022172D01*
X138043628Y-109117695D01*
X138155952Y-109192748D01*
X138280760Y-109244445D01*
X138413255Y-109270800D01*
X138548345Y-109270800D01*
X138680840Y-109244445D01*
X138805648Y-109192748D01*
X138917972Y-109117695D01*
X139013495Y-109022172D01*
X139088548Y-108909848D01*
X139140245Y-108785040D01*
X139163156Y-108669855D01*
X142697200Y-108669855D01*
X142697200Y-108804945D01*
X142723555Y-108937440D01*
X142775252Y-109062248D01*
X142850305Y-109174572D01*
X142945828Y-109270095D01*
X143058152Y-109345148D01*
X143182960Y-109396845D01*
X143315455Y-109423200D01*
X143450545Y-109423200D01*
X143583040Y-109396845D01*
X143707848Y-109345148D01*
X143820172Y-109270095D01*
X143915695Y-109174572D01*
X143990748Y-109062248D01*
X144016509Y-109000055D01*
X146304000Y-109000055D01*
X146304000Y-109135145D01*
X146330355Y-109267640D01*
X146382052Y-109392448D01*
X146457105Y-109504772D01*
X146552628Y-109600295D01*
X146664952Y-109675348D01*
X146789760Y-109727045D01*
X146922255Y-109753400D01*
X147057345Y-109753400D01*
X147189840Y-109727045D01*
X147314648Y-109675348D01*
X147426972Y-109600295D01*
X147522495Y-109504772D01*
X147597548Y-109392448D01*
X147649245Y-109267640D01*
X147675600Y-109135145D01*
X147675600Y-109000055D01*
X147649245Y-108867560D01*
X147597548Y-108742752D01*
X147522495Y-108630428D01*
X147426972Y-108534905D01*
X147314648Y-108459852D01*
X147189840Y-108408155D01*
X147057345Y-108381800D01*
X146922255Y-108381800D01*
X146789760Y-108408155D01*
X146664952Y-108459852D01*
X146552628Y-108534905D01*
X146457105Y-108630428D01*
X146382052Y-108742752D01*
X146330355Y-108867560D01*
X146304000Y-109000055D01*
X144016509Y-109000055D01*
X144042445Y-108937440D01*
X144068800Y-108804945D01*
X144068800Y-108669855D01*
X144042445Y-108537360D01*
X143990748Y-108412552D01*
X143915695Y-108300228D01*
X143820172Y-108204705D01*
X143707848Y-108129652D01*
X143583040Y-108077955D01*
X143450545Y-108051600D01*
X143315455Y-108051600D01*
X143182960Y-108077955D01*
X143058152Y-108129652D01*
X142945828Y-108204705D01*
X142850305Y-108300228D01*
X142775252Y-108412552D01*
X142723555Y-108537360D01*
X142697200Y-108669855D01*
X139163156Y-108669855D01*
X139166600Y-108652545D01*
X139166600Y-108517455D01*
X139140245Y-108384960D01*
X139088548Y-108260152D01*
X139013495Y-108147828D01*
X138917972Y-108052305D01*
X138805648Y-107977252D01*
X138680840Y-107925555D01*
X138548345Y-107899200D01*
X138413255Y-107899200D01*
X138280760Y-107925555D01*
X138155952Y-107977252D01*
X138043628Y-108052305D01*
X137948105Y-108147828D01*
X137873052Y-108260152D01*
X137821355Y-108384960D01*
X137795000Y-108517455D01*
X131132014Y-108517455D01*
X131088697Y-108452628D01*
X130993174Y-108357105D01*
X130880850Y-108282052D01*
X130756042Y-108230355D01*
X130623547Y-108204000D01*
X130488457Y-108204000D01*
X130355962Y-108230355D01*
X130231154Y-108282052D01*
X130118830Y-108357105D01*
X130023307Y-108452628D01*
X129948254Y-108564952D01*
X129942079Y-108579860D01*
X129872180Y-108542498D01*
X129752482Y-108506188D01*
X129628000Y-108493928D01*
X129063750Y-108497000D01*
X128905000Y-108655750D01*
X128651000Y-108655750D01*
X128492250Y-108497000D01*
X127928000Y-108493928D01*
X127803518Y-108506188D01*
X127683820Y-108542498D01*
X127573506Y-108601463D01*
X127476815Y-108680815D01*
X127406000Y-108767104D01*
X127406000Y-98738455D01*
X129870200Y-98738455D01*
X129870200Y-98873545D01*
X129896555Y-99006040D01*
X129948252Y-99130848D01*
X130023305Y-99243172D01*
X130094133Y-99314000D01*
X130023305Y-99384828D01*
X129948252Y-99497152D01*
X129896555Y-99621960D01*
X129870200Y-99754455D01*
X129870200Y-99889545D01*
X129896555Y-100022040D01*
X129948252Y-100146848D01*
X130023305Y-100259172D01*
X130094133Y-100330000D01*
X130023305Y-100400828D01*
X129948252Y-100513152D01*
X129896555Y-100637960D01*
X129870200Y-100770455D01*
X129870200Y-100905545D01*
X129896555Y-101038040D01*
X129948252Y-101162848D01*
X129985772Y-101219000D01*
X129948252Y-101275152D01*
X129896555Y-101399960D01*
X129870200Y-101532455D01*
X129870200Y-101667545D01*
X129896555Y-101800040D01*
X129948252Y-101924848D01*
X129985772Y-101981000D01*
X129948252Y-102037152D01*
X129896555Y-102161960D01*
X129870200Y-102294455D01*
X129870200Y-102429545D01*
X129896555Y-102562040D01*
X129948252Y-102686848D01*
X129985772Y-102743000D01*
X129948252Y-102799152D01*
X129896555Y-102923960D01*
X129870200Y-103056455D01*
X129870200Y-103191545D01*
X129896555Y-103324040D01*
X129948252Y-103448848D01*
X129985772Y-103505000D01*
X129948252Y-103561152D01*
X129896555Y-103685960D01*
X129870200Y-103818455D01*
X129870200Y-103953545D01*
X129896555Y-104086040D01*
X129948252Y-104210848D01*
X130023305Y-104323172D01*
X130118828Y-104418695D01*
X130231152Y-104493748D01*
X130355960Y-104545445D01*
X130488455Y-104571800D01*
X130623545Y-104571800D01*
X130756040Y-104545445D01*
X130880848Y-104493748D01*
X130993172Y-104418695D01*
X131064000Y-104347867D01*
X131134828Y-104418695D01*
X131247152Y-104493748D01*
X131371960Y-104545445D01*
X131504455Y-104571800D01*
X131639545Y-104571800D01*
X131772040Y-104545445D01*
X131896848Y-104493748D01*
X132009172Y-104418695D01*
X132080000Y-104347867D01*
X132150828Y-104418695D01*
X132263152Y-104493748D01*
X132387960Y-104545445D01*
X132520455Y-104571800D01*
X132655545Y-104571800D01*
X132788040Y-104545445D01*
X132912848Y-104493748D01*
X133025172Y-104418695D01*
X133096000Y-104347867D01*
X133166828Y-104418695D01*
X133279152Y-104493748D01*
X133403960Y-104545445D01*
X133536455Y-104571800D01*
X133671545Y-104571800D01*
X133804040Y-104545445D01*
X133928848Y-104493748D01*
X134041172Y-104418695D01*
X134112000Y-104347867D01*
X134182828Y-104418695D01*
X134295152Y-104493748D01*
X134419960Y-104545445D01*
X134552455Y-104571800D01*
X134687545Y-104571800D01*
X134820040Y-104545445D01*
X134944848Y-104493748D01*
X135057172Y-104418695D01*
X135152695Y-104323172D01*
X135227748Y-104210848D01*
X135279445Y-104086040D01*
X135305800Y-103953545D01*
X135305800Y-103818455D01*
X135279445Y-103685960D01*
X135227748Y-103561152D01*
X135190228Y-103505000D01*
X135227748Y-103448848D01*
X135279445Y-103324040D01*
X135305800Y-103191545D01*
X135305800Y-103056455D01*
X135279445Y-102923960D01*
X135227748Y-102799152D01*
X135190228Y-102743000D01*
X135227748Y-102686848D01*
X135279445Y-102562040D01*
X135305800Y-102429545D01*
X135305800Y-102294455D01*
X135279445Y-102161960D01*
X135227748Y-102037152D01*
X135190228Y-101981000D01*
X135227748Y-101924848D01*
X135279445Y-101800040D01*
X135305800Y-101667545D01*
X135305800Y-101532455D01*
X135279445Y-101399960D01*
X135227748Y-101275152D01*
X135190228Y-101219000D01*
X135227748Y-101162848D01*
X135279445Y-101038040D01*
X135305800Y-100905545D01*
X135305800Y-100770455D01*
X135279445Y-100637960D01*
X135227748Y-100513152D01*
X135152695Y-100400828D01*
X135081867Y-100330000D01*
X135152695Y-100259172D01*
X135227748Y-100146848D01*
X135279445Y-100022040D01*
X135305800Y-99889545D01*
X135305800Y-99754455D01*
X135279445Y-99621960D01*
X135227748Y-99497152D01*
X135152695Y-99384828D01*
X135081867Y-99314000D01*
X135152695Y-99243172D01*
X135227748Y-99130848D01*
X135279445Y-99006040D01*
X135305800Y-98873545D01*
X135305800Y-98738455D01*
X137998200Y-98738455D01*
X137998200Y-98873545D01*
X138024555Y-99006040D01*
X138076252Y-99130848D01*
X138151305Y-99243172D01*
X138222133Y-99314000D01*
X138151305Y-99384828D01*
X138076252Y-99497152D01*
X138024555Y-99621960D01*
X137998200Y-99754455D01*
X137998200Y-99889545D01*
X138024555Y-100022040D01*
X138076252Y-100146848D01*
X138151305Y-100259172D01*
X138222133Y-100330000D01*
X138151305Y-100400828D01*
X138076252Y-100513152D01*
X138024555Y-100637960D01*
X137998200Y-100770455D01*
X137998200Y-100905545D01*
X138024555Y-101038040D01*
X138076252Y-101162848D01*
X138113772Y-101219000D01*
X138076252Y-101275152D01*
X138024555Y-101399960D01*
X137998200Y-101532455D01*
X137998200Y-101667545D01*
X138024555Y-101800040D01*
X138076252Y-101924848D01*
X138113772Y-101981000D01*
X138076252Y-102037152D01*
X138024555Y-102161960D01*
X137998200Y-102294455D01*
X137998200Y-102429545D01*
X138024555Y-102562040D01*
X138076252Y-102686848D01*
X138113772Y-102743000D01*
X138076252Y-102799152D01*
X138024555Y-102923960D01*
X137998200Y-103056455D01*
X137998200Y-103191545D01*
X138024555Y-103324040D01*
X138076252Y-103448848D01*
X138113772Y-103505000D01*
X138076252Y-103561152D01*
X138024555Y-103685960D01*
X137998200Y-103818455D01*
X137998200Y-103953545D01*
X138024555Y-104086040D01*
X138076252Y-104210848D01*
X138151305Y-104323172D01*
X138246828Y-104418695D01*
X138359152Y-104493748D01*
X138483960Y-104545445D01*
X138616455Y-104571800D01*
X138751545Y-104571800D01*
X138884040Y-104545445D01*
X139008848Y-104493748D01*
X139121172Y-104418695D01*
X139192000Y-104347867D01*
X139262828Y-104418695D01*
X139375152Y-104493748D01*
X139499960Y-104545445D01*
X139632455Y-104571800D01*
X139767545Y-104571800D01*
X139900040Y-104545445D01*
X140024848Y-104493748D01*
X140137172Y-104418695D01*
X140208000Y-104347867D01*
X140278828Y-104418695D01*
X140391152Y-104493748D01*
X140515960Y-104545445D01*
X140648455Y-104571800D01*
X140783545Y-104571800D01*
X140916040Y-104545445D01*
X141040848Y-104493748D01*
X141153172Y-104418695D01*
X141224000Y-104347867D01*
X141294828Y-104418695D01*
X141407152Y-104493748D01*
X141531960Y-104545445D01*
X141664455Y-104571800D01*
X141799545Y-104571800D01*
X141932040Y-104545445D01*
X142056848Y-104493748D01*
X142169172Y-104418695D01*
X142240000Y-104347867D01*
X142310828Y-104418695D01*
X142423152Y-104493748D01*
X142547960Y-104545445D01*
X142680455Y-104571800D01*
X142815545Y-104571800D01*
X142948040Y-104545445D01*
X143072848Y-104493748D01*
X143185172Y-104418695D01*
X143280695Y-104323172D01*
X143355748Y-104210848D01*
X143407445Y-104086040D01*
X143433800Y-103953545D01*
X143433800Y-103818455D01*
X143407445Y-103685960D01*
X143355748Y-103561152D01*
X143318228Y-103505000D01*
X143355748Y-103448848D01*
X143407445Y-103324040D01*
X143433800Y-103191545D01*
X143433800Y-103056455D01*
X143407445Y-102923960D01*
X143355748Y-102799152D01*
X143318228Y-102743000D01*
X143355748Y-102686848D01*
X143407445Y-102562040D01*
X143433800Y-102429545D01*
X143433800Y-102294455D01*
X143407445Y-102161960D01*
X143355748Y-102037152D01*
X143318228Y-101981000D01*
X143355748Y-101924848D01*
X143407445Y-101800040D01*
X143433800Y-101667545D01*
X143433800Y-101532455D01*
X143407445Y-101399960D01*
X143355748Y-101275152D01*
X143318228Y-101219000D01*
X143355748Y-101162848D01*
X143407445Y-101038040D01*
X143433800Y-100905545D01*
X143433800Y-100770455D01*
X143407445Y-100637960D01*
X143355748Y-100513152D01*
X143280695Y-100400828D01*
X143209867Y-100330000D01*
X143280695Y-100259172D01*
X143355748Y-100146848D01*
X143407445Y-100022040D01*
X143433800Y-99889545D01*
X143433800Y-99754455D01*
X143407445Y-99621960D01*
X143355748Y-99497152D01*
X143280695Y-99384828D01*
X143209867Y-99314000D01*
X143280695Y-99243172D01*
X143355748Y-99130848D01*
X143407445Y-99006040D01*
X143433800Y-98873545D01*
X143433800Y-98738455D01*
X146380200Y-98738455D01*
X146380200Y-98873545D01*
X146406555Y-99006040D01*
X146458252Y-99130848D01*
X146533305Y-99243172D01*
X146604133Y-99314000D01*
X146533305Y-99384828D01*
X146458252Y-99497152D01*
X146406555Y-99621960D01*
X146380200Y-99754455D01*
X146380200Y-99889545D01*
X146406555Y-100022040D01*
X146458252Y-100146848D01*
X146533305Y-100259172D01*
X146604133Y-100330000D01*
X146533305Y-100400828D01*
X146458252Y-100513152D01*
X146406555Y-100637960D01*
X146380200Y-100770455D01*
X146380200Y-100905545D01*
X146406555Y-101038040D01*
X146458252Y-101162848D01*
X146495772Y-101219000D01*
X146458252Y-101275152D01*
X146406555Y-101399960D01*
X146380200Y-101532455D01*
X146380200Y-101667545D01*
X146406555Y-101800040D01*
X146458252Y-101924848D01*
X146495772Y-101981000D01*
X146458252Y-102037152D01*
X146406555Y-102161960D01*
X146380200Y-102294455D01*
X146380200Y-102429545D01*
X146406555Y-102562040D01*
X146458252Y-102686848D01*
X146495772Y-102743000D01*
X146458252Y-102799152D01*
X146406555Y-102923960D01*
X146380200Y-103056455D01*
X146380200Y-103191545D01*
X146406555Y-103324040D01*
X146458252Y-103448848D01*
X146495772Y-103505000D01*
X146458252Y-103561152D01*
X146406555Y-103685960D01*
X146380200Y-103818455D01*
X146380200Y-103953545D01*
X146406555Y-104086040D01*
X146458252Y-104210848D01*
X146533305Y-104323172D01*
X146628828Y-104418695D01*
X146741152Y-104493748D01*
X146865960Y-104545445D01*
X146998455Y-104571800D01*
X147133545Y-104571800D01*
X147266040Y-104545445D01*
X147390848Y-104493748D01*
X147503172Y-104418695D01*
X147574000Y-104347867D01*
X147644828Y-104418695D01*
X147757152Y-104493748D01*
X147881960Y-104545445D01*
X148014455Y-104571800D01*
X148149545Y-104571800D01*
X148282040Y-104545445D01*
X148406848Y-104493748D01*
X148519172Y-104418695D01*
X148590000Y-104347867D01*
X148660828Y-104418695D01*
X148773152Y-104493748D01*
X148897960Y-104545445D01*
X149030455Y-104571800D01*
X149165545Y-104571800D01*
X149298040Y-104545445D01*
X149422848Y-104493748D01*
X149535172Y-104418695D01*
X149606000Y-104347867D01*
X149676828Y-104418695D01*
X149789152Y-104493748D01*
X149913960Y-104545445D01*
X150046455Y-104571800D01*
X150181545Y-104571800D01*
X150314040Y-104545445D01*
X150438848Y-104493748D01*
X150551172Y-104418695D01*
X150622000Y-104347867D01*
X150692828Y-104418695D01*
X150805152Y-104493748D01*
X150929960Y-104545445D01*
X151062455Y-104571800D01*
X151197545Y-104571800D01*
X151330040Y-104545445D01*
X151454848Y-104493748D01*
X151567172Y-104418695D01*
X151662695Y-104323172D01*
X151737748Y-104210848D01*
X151789445Y-104086040D01*
X151815800Y-103953545D01*
X151815800Y-103818455D01*
X151789445Y-103685960D01*
X151737748Y-103561152D01*
X151700228Y-103505000D01*
X151737748Y-103448848D01*
X151789445Y-103324040D01*
X151815800Y-103191545D01*
X151815800Y-103056455D01*
X151789445Y-102923960D01*
X151737748Y-102799152D01*
X151700228Y-102743000D01*
X151737748Y-102686848D01*
X151789445Y-102562040D01*
X151815800Y-102429545D01*
X151815800Y-102294455D01*
X151789445Y-102161960D01*
X151737748Y-102037152D01*
X151700228Y-101981000D01*
X151737748Y-101924848D01*
X151789445Y-101800040D01*
X151815800Y-101667545D01*
X151815800Y-101532455D01*
X151789445Y-101399960D01*
X151737748Y-101275152D01*
X151700228Y-101219000D01*
X151737748Y-101162848D01*
X151789445Y-101038040D01*
X151815800Y-100905545D01*
X151815800Y-100770455D01*
X151789445Y-100637960D01*
X151737748Y-100513152D01*
X151662695Y-100400828D01*
X151591867Y-100330000D01*
X151662695Y-100259172D01*
X151737748Y-100146848D01*
X151789445Y-100022040D01*
X151815800Y-99889545D01*
X151815800Y-99754455D01*
X151789445Y-99621960D01*
X151737748Y-99497152D01*
X151662695Y-99384828D01*
X151591867Y-99314000D01*
X151662695Y-99243172D01*
X151737748Y-99130848D01*
X151789445Y-99006040D01*
X151815800Y-98873545D01*
X151815800Y-98738455D01*
X151789445Y-98605960D01*
X151737748Y-98481152D01*
X151662695Y-98368828D01*
X151567172Y-98273305D01*
X151454848Y-98198252D01*
X151330040Y-98146555D01*
X151197545Y-98120200D01*
X151062455Y-98120200D01*
X150929960Y-98146555D01*
X150805152Y-98198252D01*
X150692828Y-98273305D01*
X150622000Y-98344133D01*
X150551172Y-98273305D01*
X150438848Y-98198252D01*
X150314040Y-98146555D01*
X150273507Y-98138493D01*
X150265445Y-98097960D01*
X150213748Y-97973152D01*
X150138695Y-97860828D01*
X150043172Y-97765305D01*
X149930848Y-97690252D01*
X149806040Y-97638555D01*
X149673545Y-97612200D01*
X149538455Y-97612200D01*
X149405960Y-97638555D01*
X149281152Y-97690252D01*
X149168828Y-97765305D01*
X149098000Y-97836133D01*
X149027172Y-97765305D01*
X148914848Y-97690252D01*
X148790040Y-97638555D01*
X148657545Y-97612200D01*
X148522455Y-97612200D01*
X148389960Y-97638555D01*
X148265152Y-97690252D01*
X148152828Y-97765305D01*
X148082000Y-97836133D01*
X148011172Y-97765305D01*
X147898848Y-97690252D01*
X147774040Y-97638555D01*
X147641545Y-97612200D01*
X147506455Y-97612200D01*
X147373960Y-97638555D01*
X147249152Y-97690252D01*
X147136828Y-97765305D01*
X147041305Y-97860828D01*
X146966252Y-97973152D01*
X146914555Y-98097960D01*
X146906493Y-98138493D01*
X146865960Y-98146555D01*
X146741152Y-98198252D01*
X146628828Y-98273305D01*
X146533305Y-98368828D01*
X146458252Y-98481152D01*
X146406555Y-98605960D01*
X146380200Y-98738455D01*
X143433800Y-98738455D01*
X143407445Y-98605960D01*
X143355748Y-98481152D01*
X143280695Y-98368828D01*
X143185172Y-98273305D01*
X143072848Y-98198252D01*
X142948040Y-98146555D01*
X142815545Y-98120200D01*
X142680455Y-98120200D01*
X142547960Y-98146555D01*
X142423152Y-98198252D01*
X142310828Y-98273305D01*
X142240000Y-98344133D01*
X142169172Y-98273305D01*
X142056848Y-98198252D01*
X141932040Y-98146555D01*
X141891507Y-98138493D01*
X141883445Y-98097960D01*
X141831748Y-97973152D01*
X141756695Y-97860828D01*
X141661172Y-97765305D01*
X141548848Y-97690252D01*
X141424040Y-97638555D01*
X141291545Y-97612200D01*
X141156455Y-97612200D01*
X141023960Y-97638555D01*
X140899152Y-97690252D01*
X140786828Y-97765305D01*
X140716000Y-97836133D01*
X140645172Y-97765305D01*
X140532848Y-97690252D01*
X140408040Y-97638555D01*
X140275545Y-97612200D01*
X140140455Y-97612200D01*
X140007960Y-97638555D01*
X139883152Y-97690252D01*
X139770828Y-97765305D01*
X139700000Y-97836133D01*
X139629172Y-97765305D01*
X139516848Y-97690252D01*
X139392040Y-97638555D01*
X139259545Y-97612200D01*
X139124455Y-97612200D01*
X138991960Y-97638555D01*
X138867152Y-97690252D01*
X138754828Y-97765305D01*
X138659305Y-97860828D01*
X138584252Y-97973152D01*
X138532555Y-98097960D01*
X138524493Y-98138493D01*
X138483960Y-98146555D01*
X138359152Y-98198252D01*
X138246828Y-98273305D01*
X138151305Y-98368828D01*
X138076252Y-98481152D01*
X138024555Y-98605960D01*
X137998200Y-98738455D01*
X135305800Y-98738455D01*
X135279445Y-98605960D01*
X135227748Y-98481152D01*
X135152695Y-98368828D01*
X135057172Y-98273305D01*
X134944848Y-98198252D01*
X134820040Y-98146555D01*
X134687545Y-98120200D01*
X134552455Y-98120200D01*
X134419960Y-98146555D01*
X134295152Y-98198252D01*
X134182828Y-98273305D01*
X134112000Y-98344133D01*
X134041172Y-98273305D01*
X133928848Y-98198252D01*
X133804040Y-98146555D01*
X133763507Y-98138493D01*
X133755445Y-98097960D01*
X133703748Y-97973152D01*
X133628695Y-97860828D01*
X133533172Y-97765305D01*
X133420848Y-97690252D01*
X133296040Y-97638555D01*
X133163545Y-97612200D01*
X133028455Y-97612200D01*
X132895960Y-97638555D01*
X132771152Y-97690252D01*
X132658828Y-97765305D01*
X132588000Y-97836133D01*
X132517172Y-97765305D01*
X132404848Y-97690252D01*
X132280040Y-97638555D01*
X132147545Y-97612200D01*
X132012455Y-97612200D01*
X131879960Y-97638555D01*
X131755152Y-97690252D01*
X131642828Y-97765305D01*
X131572000Y-97836133D01*
X131501172Y-97765305D01*
X131388848Y-97690252D01*
X131264040Y-97638555D01*
X131131545Y-97612200D01*
X130996455Y-97612200D01*
X130863960Y-97638555D01*
X130739152Y-97690252D01*
X130626828Y-97765305D01*
X130531305Y-97860828D01*
X130456252Y-97973152D01*
X130404555Y-98097960D01*
X130396493Y-98138493D01*
X130355960Y-98146555D01*
X130231152Y-98198252D01*
X130118828Y-98273305D01*
X130023305Y-98368828D01*
X129948252Y-98481152D01*
X129896555Y-98605960D01*
X129870200Y-98738455D01*
X127406000Y-98738455D01*
X127406000Y-86038455D01*
X139522200Y-86038455D01*
X139522200Y-86173545D01*
X139548555Y-86306040D01*
X139600252Y-86430848D01*
X139675305Y-86543172D01*
X139746133Y-86614000D01*
X139675305Y-86684828D01*
X139600252Y-86797152D01*
X139548555Y-86921960D01*
X139522200Y-87054455D01*
X139522200Y-87189545D01*
X139548555Y-87322040D01*
X139600252Y-87446848D01*
X139675305Y-87559172D01*
X139746133Y-87630000D01*
X139675305Y-87700828D01*
X139600252Y-87813152D01*
X139548555Y-87937960D01*
X139522200Y-88070455D01*
X139522200Y-88205545D01*
X139548555Y-88338040D01*
X139600252Y-88462848D01*
X139675305Y-88575172D01*
X139770828Y-88670695D01*
X139883152Y-88745748D01*
X140007960Y-88797445D01*
X140140455Y-88823800D01*
X140275545Y-88823800D01*
X140408040Y-88797445D01*
X140532848Y-88745748D01*
X140645172Y-88670695D01*
X140716000Y-88599867D01*
X140786828Y-88670695D01*
X140899152Y-88745748D01*
X141023960Y-88797445D01*
X141156455Y-88823800D01*
X141291545Y-88823800D01*
X141424040Y-88797445D01*
X141548848Y-88745748D01*
X141661172Y-88670695D01*
X141732000Y-88599867D01*
X141802828Y-88670695D01*
X141915152Y-88745748D01*
X142039960Y-88797445D01*
X142172455Y-88823800D01*
X142307545Y-88823800D01*
X142440040Y-88797445D01*
X142564848Y-88745748D01*
X142677172Y-88670695D01*
X142748000Y-88599867D01*
X142818828Y-88670695D01*
X142931152Y-88745748D01*
X143055960Y-88797445D01*
X143188455Y-88823800D01*
X143323545Y-88823800D01*
X143456040Y-88797445D01*
X143580848Y-88745748D01*
X143693172Y-88670695D01*
X143788695Y-88575172D01*
X143863748Y-88462848D01*
X143915445Y-88338040D01*
X143923507Y-88297507D01*
X143964040Y-88289445D01*
X144088848Y-88237748D01*
X144201172Y-88162695D01*
X144296695Y-88067172D01*
X144371748Y-87954848D01*
X144423445Y-87830040D01*
X144431507Y-87789507D01*
X144472040Y-87781445D01*
X144596848Y-87729748D01*
X144709172Y-87654695D01*
X144804695Y-87559172D01*
X144879748Y-87446848D01*
X144931445Y-87322040D01*
X144957800Y-87189545D01*
X144957800Y-87054455D01*
X144931445Y-86921960D01*
X144902159Y-86851255D01*
X148615400Y-86851255D01*
X148615400Y-86986345D01*
X148641755Y-87118840D01*
X148693452Y-87243648D01*
X148768505Y-87355972D01*
X148864028Y-87451495D01*
X148976352Y-87526548D01*
X149101160Y-87578245D01*
X149233655Y-87604600D01*
X149368745Y-87604600D01*
X149501240Y-87578245D01*
X149626048Y-87526548D01*
X149738372Y-87451495D01*
X149833895Y-87355972D01*
X149908948Y-87243648D01*
X149960645Y-87118840D01*
X149987000Y-86986345D01*
X149987000Y-86851255D01*
X149960645Y-86718760D01*
X149908948Y-86593952D01*
X149833895Y-86481628D01*
X149738372Y-86386105D01*
X149626048Y-86311052D01*
X149501240Y-86259355D01*
X149368745Y-86233000D01*
X149233655Y-86233000D01*
X149101160Y-86259355D01*
X148976352Y-86311052D01*
X148864028Y-86386105D01*
X148768505Y-86481628D01*
X148693452Y-86593952D01*
X148641755Y-86718760D01*
X148615400Y-86851255D01*
X144902159Y-86851255D01*
X144879748Y-86797152D01*
X144804695Y-86684828D01*
X144733867Y-86614000D01*
X144804695Y-86543172D01*
X144879748Y-86430848D01*
X144931445Y-86306040D01*
X144957800Y-86173545D01*
X144957800Y-86038455D01*
X144931445Y-85905960D01*
X144879748Y-85781152D01*
X144804695Y-85668828D01*
X144733867Y-85598000D01*
X144804695Y-85527172D01*
X144879748Y-85414848D01*
X144918744Y-85320702D01*
X145292903Y-85320702D01*
X145364486Y-85564671D01*
X145619996Y-85685571D01*
X145894184Y-85754300D01*
X146176512Y-85768217D01*
X146456130Y-85726787D01*
X146722292Y-85631603D01*
X146847514Y-85564671D01*
X146919097Y-85320702D01*
X146106000Y-84507605D01*
X145292903Y-85320702D01*
X144918744Y-85320702D01*
X144931445Y-85290040D01*
X144957800Y-85157545D01*
X144957800Y-85095472D01*
X145113298Y-85141097D01*
X145926395Y-84328000D01*
X146285605Y-84328000D01*
X147098702Y-85141097D01*
X147342671Y-85069514D01*
X147463571Y-84814004D01*
X147532300Y-84539816D01*
X147546217Y-84257488D01*
X147504787Y-83977870D01*
X147409603Y-83711708D01*
X147342671Y-83586486D01*
X147098702Y-83514903D01*
X146285605Y-84328000D01*
X145926395Y-84328000D01*
X145113298Y-83514903D01*
X144869329Y-83586486D01*
X144786292Y-83761976D01*
X144723848Y-83720252D01*
X144599040Y-83668555D01*
X144466545Y-83642200D01*
X144331455Y-83642200D01*
X144198960Y-83668555D01*
X144074152Y-83720252D01*
X143961828Y-83795305D01*
X143866305Y-83890828D01*
X143859059Y-83901673D01*
X143831545Y-83896200D01*
X143696455Y-83896200D01*
X143563960Y-83922555D01*
X143557643Y-83925172D01*
X143534695Y-83890828D01*
X143439172Y-83795305D01*
X143326848Y-83720252D01*
X143202040Y-83668555D01*
X143069545Y-83642200D01*
X142934455Y-83642200D01*
X142801960Y-83668555D01*
X142684500Y-83717208D01*
X142567040Y-83668555D01*
X142434545Y-83642200D01*
X142299455Y-83642200D01*
X142166960Y-83668555D01*
X142042152Y-83720252D01*
X141929828Y-83795305D01*
X141834305Y-83890828D01*
X141827059Y-83901673D01*
X141799545Y-83896200D01*
X141664455Y-83896200D01*
X141533953Y-83922159D01*
X141421848Y-83847252D01*
X141297040Y-83795555D01*
X141164545Y-83769200D01*
X141029455Y-83769200D01*
X140896960Y-83795555D01*
X140772152Y-83847252D01*
X140659828Y-83922305D01*
X140564305Y-84017828D01*
X140489252Y-84130152D01*
X140480948Y-84150200D01*
X140394455Y-84150200D01*
X140261960Y-84176555D01*
X140137152Y-84228252D01*
X140024828Y-84303305D01*
X139929305Y-84398828D01*
X139854252Y-84511152D01*
X139802555Y-84635960D01*
X139776200Y-84768455D01*
X139776200Y-84903545D01*
X139802555Y-85036040D01*
X139854252Y-85160848D01*
X139929305Y-85273172D01*
X140024828Y-85368695D01*
X140059172Y-85391643D01*
X140056555Y-85397960D01*
X140048493Y-85438493D01*
X140007960Y-85446555D01*
X139883152Y-85498252D01*
X139770828Y-85573305D01*
X139675305Y-85668828D01*
X139600252Y-85781152D01*
X139548555Y-85905960D01*
X139522200Y-86038455D01*
X127406000Y-86038455D01*
X127406000Y-85871854D01*
X127458226Y-85339214D01*
X127607150Y-84845955D01*
X127849044Y-84391017D01*
X128174696Y-83991728D01*
X128571701Y-83663296D01*
X128611157Y-83641962D01*
X128611157Y-85128000D01*
X128618513Y-85202689D01*
X128640299Y-85274508D01*
X128675678Y-85340696D01*
X128723289Y-85398711D01*
X128781304Y-85446322D01*
X128847492Y-85481701D01*
X128919311Y-85503487D01*
X128994000Y-85510843D01*
X130594000Y-85510843D01*
X130668689Y-85503487D01*
X130740508Y-85481701D01*
X130806696Y-85446322D01*
X130864711Y-85398711D01*
X130912322Y-85340696D01*
X130923009Y-85320702D01*
X132480903Y-85320702D01*
X132552486Y-85564671D01*
X132807996Y-85685571D01*
X133082184Y-85754300D01*
X133364512Y-85768217D01*
X133644130Y-85726787D01*
X133910292Y-85631603D01*
X134035514Y-85564671D01*
X134107097Y-85320702D01*
X133294000Y-84507605D01*
X132480903Y-85320702D01*
X130923009Y-85320702D01*
X130947701Y-85274508D01*
X130969487Y-85202689D01*
X130976843Y-85128000D01*
X130976843Y-84398512D01*
X131853783Y-84398512D01*
X131895213Y-84678130D01*
X131990397Y-84944292D01*
X132057329Y-85069514D01*
X132301298Y-85141097D01*
X133114395Y-84328000D01*
X133473605Y-84328000D01*
X134286702Y-85141097D01*
X134530671Y-85069514D01*
X134651571Y-84814004D01*
X134720300Y-84539816D01*
X134734217Y-84257488D01*
X134692787Y-83977870D01*
X134597603Y-83711708D01*
X134530671Y-83586486D01*
X134286702Y-83514903D01*
X133473605Y-84328000D01*
X133114395Y-84328000D01*
X132301298Y-83514903D01*
X132057329Y-83586486D01*
X131936429Y-83841996D01*
X131867700Y-84116184D01*
X131853783Y-84398512D01*
X130976843Y-84398512D01*
X130976843Y-83528000D01*
X130969487Y-83453311D01*
X130947701Y-83381492D01*
X130912322Y-83315304D01*
X130864711Y-83257289D01*
X130807088Y-83210000D01*
X132517667Y-83210000D01*
X132480903Y-83335298D01*
%TA.AperFunction,Conductor*%
D16*
G36*
X132480903Y-83335298D02*
G01*
X133294000Y-84148395D01*
X134107097Y-83335298D01*
X134070333Y-83210000D01*
X145329667Y-83210000D01*
X145292903Y-83335298D01*
X146106000Y-84148395D01*
X146919097Y-83335298D01*
X146882333Y-83210000D01*
X148592912Y-83210000D01*
X148535289Y-83257289D01*
X148487678Y-83315304D01*
X148452299Y-83381492D01*
X148430513Y-83453311D01*
X148423157Y-83528000D01*
X148423157Y-85128000D01*
X148430513Y-85202689D01*
X148452299Y-85274508D01*
X148487678Y-85340696D01*
X148535289Y-85398711D01*
X148593304Y-85446322D01*
X148659492Y-85481701D01*
X148731311Y-85503487D01*
X148806000Y-85510843D01*
X150406000Y-85510843D01*
X150480689Y-85503487D01*
X150552508Y-85481701D01*
X150618696Y-85446322D01*
X150676711Y-85398711D01*
X150724322Y-85340696D01*
X150759701Y-85274508D01*
X150781487Y-85202689D01*
X150788843Y-85128000D01*
X150788843Y-83640209D01*
X150812983Y-83653044D01*
X151212272Y-83978696D01*
X151540704Y-84375701D01*
X151785768Y-84828938D01*
X151938130Y-85321142D01*
X151994000Y-85852700D01*
X151994000Y-85852837D01*
X151994001Y-111965783D01*
X151893641Y-111755080D01*
X151719588Y-111521731D01*
X151503355Y-111326822D01*
X151315367Y-111214843D01*
X151472000Y-111214843D01*
X151546689Y-111207487D01*
X151618508Y-111185701D01*
X151684696Y-111150322D01*
X151742711Y-111102711D01*
X151790322Y-111044696D01*
X151825701Y-110978508D01*
X151847487Y-110906689D01*
X151854843Y-110832000D01*
X151854843Y-109132000D01*
X151847487Y-109057311D01*
X151825701Y-108985492D01*
X151790322Y-108919304D01*
X151742711Y-108861289D01*
X151684696Y-108813678D01*
X151618508Y-108778299D01*
X151546689Y-108756513D01*
X151472000Y-108749157D01*
X149772000Y-108749157D01*
X149697311Y-108756513D01*
X149625492Y-108778299D01*
X149559304Y-108813678D01*
X149501289Y-108861289D01*
X149453678Y-108919304D01*
X149418299Y-108985492D01*
X149396513Y-109057311D01*
X149389157Y-109132000D01*
X149389157Y-110832000D01*
X149396513Y-110906689D01*
X149418299Y-110978508D01*
X149453678Y-111044696D01*
X149501289Y-111102711D01*
X149559304Y-111150322D01*
X149625492Y-111185701D01*
X149697311Y-111207487D01*
X149772000Y-111214843D01*
X149928633Y-111214843D01*
X149740645Y-111326822D01*
X149524412Y-111521731D01*
X149350359Y-111755080D01*
X149225175Y-112017901D01*
X149180524Y-112165110D01*
X149301845Y-112395000D01*
X150495000Y-112395000D01*
X150495000Y-112375000D01*
X150749000Y-112375000D01*
X150749000Y-112395000D01*
X150769000Y-112395000D01*
X150769000Y-112649000D01*
X150749000Y-112649000D01*
X150749000Y-114935000D01*
X150769000Y-114935000D01*
X150769000Y-115189000D01*
X150749000Y-115189000D01*
X150749000Y-115209000D01*
X150495000Y-115209000D01*
X150495000Y-115189000D01*
X149301845Y-115189000D01*
X149180524Y-115418890D01*
X149225175Y-115566099D01*
X149350359Y-115828920D01*
X149524412Y-116062269D01*
X149740645Y-116257178D01*
X149990748Y-116406157D01*
X150153168Y-116463772D01*
X150038903Y-116511102D01*
X149837283Y-116645820D01*
X149665820Y-116817283D01*
X149531102Y-117018903D01*
X149438307Y-117242931D01*
X149391000Y-117480757D01*
X149391000Y-117723243D01*
X149438307Y-117961069D01*
X149531102Y-118185097D01*
X149665820Y-118386717D01*
X149837283Y-118558180D01*
X150038903Y-118692898D01*
X150262931Y-118785693D01*
X150500757Y-118833000D01*
X150743243Y-118833000D01*
X150981069Y-118785693D01*
X151205097Y-118692898D01*
X151406717Y-118558180D01*
X151578180Y-118386717D01*
X151712898Y-118185097D01*
X151805693Y-117961069D01*
X151853000Y-117723243D01*
X151853000Y-117480757D01*
X151805693Y-117242931D01*
X151712898Y-117018903D01*
X151578180Y-116817283D01*
X151406717Y-116645820D01*
X151205097Y-116511102D01*
X151090832Y-116463772D01*
X151253252Y-116406157D01*
X151503355Y-116257178D01*
X151719588Y-116062269D01*
X151893641Y-115828920D01*
X151994001Y-115618217D01*
X151994001Y-123932136D01*
X151941774Y-124464786D01*
X151811998Y-124894626D01*
X151805693Y-124862931D01*
X151712898Y-124638903D01*
X151578180Y-124437283D01*
X151406717Y-124265820D01*
X151205097Y-124131102D01*
X150981069Y-124038307D01*
X150743243Y-123991000D01*
X150500757Y-123991000D01*
X150262931Y-124038307D01*
X150038903Y-124131102D01*
X149837283Y-124265820D01*
X149665820Y-124437283D01*
X149531102Y-124638903D01*
X149438307Y-124862931D01*
X149391000Y-125100757D01*
X149391000Y-125343243D01*
X149438307Y-125581069D01*
X149531102Y-125805097D01*
X149665820Y-126006717D01*
X149837283Y-126178180D01*
X150038903Y-126312898D01*
X150262931Y-126405693D01*
X150292009Y-126411477D01*
X149882858Y-126538130D01*
X149351300Y-126594000D01*
X130067854Y-126594000D01*
X129535214Y-126541774D01*
X129105374Y-126411998D01*
X129137069Y-126405693D01*
X129361097Y-126312898D01*
X129562717Y-126178180D01*
X129734180Y-126006717D01*
X129868898Y-125805097D01*
X129961693Y-125581069D01*
X130009000Y-125343243D01*
X130009000Y-125100757D01*
X129961693Y-124862931D01*
X129893069Y-124697255D01*
X137490200Y-124697255D01*
X137490200Y-124832345D01*
X137516555Y-124964840D01*
X137568252Y-125089648D01*
X137643305Y-125201972D01*
X137738828Y-125297495D01*
X137851152Y-125372548D01*
X137975960Y-125424245D01*
X138108455Y-125450600D01*
X138243545Y-125450600D01*
X138376040Y-125424245D01*
X138500848Y-125372548D01*
X138613172Y-125297495D01*
X138708695Y-125201972D01*
X138783748Y-125089648D01*
X138835445Y-124964840D01*
X138861800Y-124832345D01*
X138861800Y-124697255D01*
X138835445Y-124564760D01*
X138783748Y-124439952D01*
X138708695Y-124327628D01*
X138613172Y-124232105D01*
X138500848Y-124157052D01*
X138376040Y-124105355D01*
X138243545Y-124079000D01*
X138108455Y-124079000D01*
X137975960Y-124105355D01*
X137851152Y-124157052D01*
X137738828Y-124232105D01*
X137643305Y-124327628D01*
X137568252Y-124439952D01*
X137516555Y-124564760D01*
X137490200Y-124697255D01*
X129893069Y-124697255D01*
X129868898Y-124638903D01*
X129734180Y-124437283D01*
X129562717Y-124265820D01*
X129361097Y-124131102D01*
X129137069Y-124038307D01*
X128899243Y-123991000D01*
X128656757Y-123991000D01*
X128418931Y-124038307D01*
X128194903Y-124131102D01*
X127993283Y-124265820D01*
X127821820Y-124437283D01*
X127687102Y-124638903D01*
X127594307Y-124862931D01*
X127588523Y-124892009D01*
X127461870Y-124482858D01*
X127406000Y-123951300D01*
X127406000Y-122560757D01*
X127547000Y-122560757D01*
X127547000Y-122803243D01*
X127594307Y-123041069D01*
X127687102Y-123265097D01*
X127821820Y-123466717D01*
X127993283Y-123638180D01*
X128194903Y-123772898D01*
X128418931Y-123865693D01*
X128656757Y-123913000D01*
X128899243Y-123913000D01*
X129042746Y-123884455D01*
X132588000Y-123884455D01*
X132588000Y-124019545D01*
X132614355Y-124152040D01*
X132666052Y-124276848D01*
X132741105Y-124389172D01*
X132836628Y-124484695D01*
X132948952Y-124559748D01*
X133073760Y-124611445D01*
X133206255Y-124637800D01*
X133341345Y-124637800D01*
X133473840Y-124611445D01*
X133598648Y-124559748D01*
X133710972Y-124484695D01*
X133806495Y-124389172D01*
X133881548Y-124276848D01*
X133933245Y-124152040D01*
X133959600Y-124019545D01*
X133959600Y-123884455D01*
X133933382Y-123752649D01*
X133954228Y-123773495D01*
X134066552Y-123848548D01*
X134191360Y-123900245D01*
X134323855Y-123926600D01*
X134458945Y-123926600D01*
X134591440Y-123900245D01*
X134716248Y-123848548D01*
X134828572Y-123773495D01*
X134924095Y-123677972D01*
X134999148Y-123565648D01*
X135050845Y-123440840D01*
X135077200Y-123308345D01*
X135077200Y-123224055D01*
X139547600Y-123224055D01*
X139547600Y-123359145D01*
X139573955Y-123491640D01*
X139625652Y-123616448D01*
X139700705Y-123728772D01*
X139796228Y-123824295D01*
X139908552Y-123899348D01*
X140033360Y-123951045D01*
X140165855Y-123977400D01*
X140300945Y-123977400D01*
X140433440Y-123951045D01*
X140558248Y-123899348D01*
X140670572Y-123824295D01*
X140766095Y-123728772D01*
X140841148Y-123616448D01*
X140892845Y-123491640D01*
X140919200Y-123359145D01*
X140919200Y-123224055D01*
X140892845Y-123091560D01*
X140841148Y-122966752D01*
X140766095Y-122854428D01*
X140670572Y-122758905D01*
X140558248Y-122683852D01*
X140433440Y-122632155D01*
X140300945Y-122605800D01*
X140165855Y-122605800D01*
X140033360Y-122632155D01*
X139908552Y-122683852D01*
X139796228Y-122758905D01*
X139700705Y-122854428D01*
X139625652Y-122966752D01*
X139573955Y-123091560D01*
X139547600Y-123224055D01*
X135077200Y-123224055D01*
X135077200Y-123173255D01*
X135050845Y-123040760D01*
X134999148Y-122915952D01*
X134924095Y-122803628D01*
X134828572Y-122708105D01*
X134716248Y-122633052D01*
X134591440Y-122581355D01*
X134458945Y-122555000D01*
X134323855Y-122555000D01*
X134191360Y-122581355D01*
X134066552Y-122633052D01*
X133954228Y-122708105D01*
X133858705Y-122803628D01*
X133783652Y-122915952D01*
X133731955Y-123040760D01*
X133705600Y-123173255D01*
X133705600Y-123308345D01*
X133731818Y-123440151D01*
X133710972Y-123419305D01*
X133598648Y-123344252D01*
X133473840Y-123292555D01*
X133341345Y-123266200D01*
X133206255Y-123266200D01*
X133073760Y-123292555D01*
X132948952Y-123344252D01*
X132836628Y-123419305D01*
X132741105Y-123514828D01*
X132666052Y-123627152D01*
X132614355Y-123751960D01*
X132588000Y-123884455D01*
X129042746Y-123884455D01*
X129137069Y-123865693D01*
X129361097Y-123772898D01*
X129562717Y-123638180D01*
X129734180Y-123466717D01*
X129868898Y-123265097D01*
X129961693Y-123041069D01*
X130009000Y-122803243D01*
X130009000Y-122560757D01*
X129961693Y-122322931D01*
X129868898Y-122098903D01*
X129755143Y-121928655D01*
X136626600Y-121928655D01*
X136626600Y-122063745D01*
X136652955Y-122196240D01*
X136704652Y-122321048D01*
X136779705Y-122433372D01*
X136875228Y-122528895D01*
X136987552Y-122603948D01*
X137112360Y-122655645D01*
X137244855Y-122682000D01*
X137379945Y-122682000D01*
X137512440Y-122655645D01*
X137637248Y-122603948D01*
X137701887Y-122560757D01*
X149391000Y-122560757D01*
X149391000Y-122803243D01*
X149438307Y-123041069D01*
X149531102Y-123265097D01*
X149665820Y-123466717D01*
X149837283Y-123638180D01*
X150038903Y-123772898D01*
X150262931Y-123865693D01*
X150500757Y-123913000D01*
X150743243Y-123913000D01*
X150981069Y-123865693D01*
X151205097Y-123772898D01*
X151406717Y-123638180D01*
X151578180Y-123466717D01*
X151712898Y-123265097D01*
X151805693Y-123041069D01*
X151853000Y-122803243D01*
X151853000Y-122560757D01*
X151805693Y-122322931D01*
X151712898Y-122098903D01*
X151578180Y-121897283D01*
X151406717Y-121725820D01*
X151205097Y-121591102D01*
X150981069Y-121498307D01*
X150743243Y-121451000D01*
X150500757Y-121451000D01*
X150262931Y-121498307D01*
X150038903Y-121591102D01*
X149837283Y-121725820D01*
X149665820Y-121897283D01*
X149531102Y-122098903D01*
X149438307Y-122322931D01*
X149391000Y-122560757D01*
X137701887Y-122560757D01*
X137749572Y-122528895D01*
X137845095Y-122433372D01*
X137920148Y-122321048D01*
X137971845Y-122196240D01*
X137998200Y-122063745D01*
X137998200Y-121928655D01*
X137971845Y-121796160D01*
X137920148Y-121671352D01*
X137845095Y-121559028D01*
X137749572Y-121463505D01*
X137637248Y-121388452D01*
X137512440Y-121336755D01*
X137379945Y-121310400D01*
X137244855Y-121310400D01*
X137112360Y-121336755D01*
X136987552Y-121388452D01*
X136875228Y-121463505D01*
X136779705Y-121559028D01*
X136704652Y-121671352D01*
X136652955Y-121796160D01*
X136626600Y-121928655D01*
X129755143Y-121928655D01*
X129734180Y-121897283D01*
X129562717Y-121725820D01*
X129361097Y-121591102D01*
X129137069Y-121498307D01*
X128899243Y-121451000D01*
X128656757Y-121451000D01*
X128418931Y-121498307D01*
X128194903Y-121591102D01*
X127993283Y-121725820D01*
X127821820Y-121897283D01*
X127687102Y-122098903D01*
X127594307Y-122322931D01*
X127547000Y-122560757D01*
X127406000Y-122560757D01*
X127406000Y-120020757D01*
X127547000Y-120020757D01*
X127547000Y-120263243D01*
X127594307Y-120501069D01*
X127687102Y-120725097D01*
X127821820Y-120926717D01*
X127993283Y-121098180D01*
X128194903Y-121232898D01*
X128418931Y-121325693D01*
X128656757Y-121373000D01*
X128899243Y-121373000D01*
X129137069Y-121325693D01*
X129361097Y-121232898D01*
X129562717Y-121098180D01*
X129734180Y-120926717D01*
X129868898Y-120725097D01*
X129961693Y-120501069D01*
X130009000Y-120263243D01*
X130009000Y-120020757D01*
X130004525Y-119998255D01*
X136601200Y-119998255D01*
X136601200Y-120133345D01*
X136627555Y-120265840D01*
X136679252Y-120390648D01*
X136754305Y-120502972D01*
X136849828Y-120598495D01*
X136962152Y-120673548D01*
X137086960Y-120725245D01*
X137219455Y-120751600D01*
X137354545Y-120751600D01*
X137487040Y-120725245D01*
X137611848Y-120673548D01*
X137710163Y-120607855D01*
X140284200Y-120607855D01*
X140284200Y-120742945D01*
X140310555Y-120875440D01*
X140362252Y-121000248D01*
X140437305Y-121112572D01*
X140532828Y-121208095D01*
X140645152Y-121283148D01*
X140769960Y-121334845D01*
X140902455Y-121361200D01*
X141037545Y-121361200D01*
X141170040Y-121334845D01*
X141294848Y-121283148D01*
X141407172Y-121208095D01*
X141502695Y-121112572D01*
X141577748Y-121000248D01*
X141629445Y-120875440D01*
X141655800Y-120742945D01*
X141655800Y-120607855D01*
X141629445Y-120475360D01*
X141577748Y-120350552D01*
X141502695Y-120238228D01*
X141407172Y-120142705D01*
X141294848Y-120067652D01*
X141170040Y-120015955D01*
X141037545Y-119989600D01*
X140902455Y-119989600D01*
X140769960Y-120015955D01*
X140645152Y-120067652D01*
X140532828Y-120142705D01*
X140437305Y-120238228D01*
X140362252Y-120350552D01*
X140310555Y-120475360D01*
X140284200Y-120607855D01*
X137710163Y-120607855D01*
X137724172Y-120598495D01*
X137819695Y-120502972D01*
X137894748Y-120390648D01*
X137946445Y-120265840D01*
X137972800Y-120133345D01*
X137972800Y-119998255D01*
X137946445Y-119865760D01*
X137938201Y-119845855D01*
X146405600Y-119845855D01*
X146405600Y-119980945D01*
X146431955Y-120113440D01*
X146483652Y-120238248D01*
X146558705Y-120350572D01*
X146654228Y-120446095D01*
X146766552Y-120521148D01*
X146891360Y-120572845D01*
X147023855Y-120599200D01*
X147158945Y-120599200D01*
X147291440Y-120572845D01*
X147416248Y-120521148D01*
X147528572Y-120446095D01*
X147624095Y-120350572D01*
X147699148Y-120238248D01*
X147750845Y-120113440D01*
X147769280Y-120020757D01*
X149391000Y-120020757D01*
X149391000Y-120263243D01*
X149438307Y-120501069D01*
X149531102Y-120725097D01*
X149665820Y-120926717D01*
X149837283Y-121098180D01*
X150038903Y-121232898D01*
X150262931Y-121325693D01*
X150500757Y-121373000D01*
X150743243Y-121373000D01*
X150981069Y-121325693D01*
X151205097Y-121232898D01*
X151406717Y-121098180D01*
X151578180Y-120926717D01*
X151712898Y-120725097D01*
X151805693Y-120501069D01*
X151853000Y-120263243D01*
X151853000Y-120020757D01*
X151805693Y-119782931D01*
X151712898Y-119558903D01*
X151578180Y-119357283D01*
X151406717Y-119185820D01*
X151205097Y-119051102D01*
X150981069Y-118958307D01*
X150743243Y-118911000D01*
X150500757Y-118911000D01*
X150262931Y-118958307D01*
X150038903Y-119051102D01*
X149837283Y-119185820D01*
X149665820Y-119357283D01*
X149531102Y-119558903D01*
X149438307Y-119782931D01*
X149391000Y-120020757D01*
X147769280Y-120020757D01*
X147777200Y-119980945D01*
X147777200Y-119845855D01*
X147750845Y-119713360D01*
X147699148Y-119588552D01*
X147624095Y-119476228D01*
X147528572Y-119380705D01*
X147416248Y-119305652D01*
X147291440Y-119253955D01*
X147158945Y-119227600D01*
X147023855Y-119227600D01*
X146891360Y-119253955D01*
X146766552Y-119305652D01*
X146654228Y-119380705D01*
X146558705Y-119476228D01*
X146483652Y-119588552D01*
X146431955Y-119713360D01*
X146405600Y-119845855D01*
X137938201Y-119845855D01*
X137894748Y-119740952D01*
X137819695Y-119628628D01*
X137724172Y-119533105D01*
X137611848Y-119458052D01*
X137487040Y-119406355D01*
X137354545Y-119380000D01*
X137219455Y-119380000D01*
X137086960Y-119406355D01*
X136962152Y-119458052D01*
X136849828Y-119533105D01*
X136754305Y-119628628D01*
X136679252Y-119740952D01*
X136627555Y-119865760D01*
X136601200Y-119998255D01*
X130004525Y-119998255D01*
X129961693Y-119782931D01*
X129868898Y-119558903D01*
X129734180Y-119357283D01*
X129562717Y-119185820D01*
X129361097Y-119051102D01*
X129137069Y-118958307D01*
X128899243Y-118911000D01*
X128656757Y-118911000D01*
X128418931Y-118958307D01*
X128194903Y-119051102D01*
X127993283Y-119185820D01*
X127821820Y-119357283D01*
X127687102Y-119558903D01*
X127594307Y-119782931D01*
X127547000Y-120020757D01*
X127406000Y-120020757D01*
X127406000Y-117480757D01*
X127547000Y-117480757D01*
X127547000Y-117723243D01*
X127594307Y-117961069D01*
X127687102Y-118185097D01*
X127821820Y-118386717D01*
X127993283Y-118558180D01*
X128194903Y-118692898D01*
X128418931Y-118785693D01*
X128656757Y-118833000D01*
X128899243Y-118833000D01*
X129137069Y-118785693D01*
X129361097Y-118692898D01*
X129562717Y-118558180D01*
X129734180Y-118386717D01*
X129868898Y-118185097D01*
X129927981Y-118042455D01*
X136347200Y-118042455D01*
X136347200Y-118177545D01*
X136373555Y-118310040D01*
X136425252Y-118434848D01*
X136500305Y-118547172D01*
X136595828Y-118642695D01*
X136708152Y-118717748D01*
X136832960Y-118769445D01*
X136965455Y-118795800D01*
X137100545Y-118795800D01*
X137233040Y-118769445D01*
X137357848Y-118717748D01*
X137470172Y-118642695D01*
X137565695Y-118547172D01*
X137640748Y-118434848D01*
X137692445Y-118310040D01*
X137695147Y-118296455D01*
X140335000Y-118296455D01*
X140335000Y-118431545D01*
X140361355Y-118564040D01*
X140413052Y-118688848D01*
X140488105Y-118801172D01*
X140583628Y-118896695D01*
X140695952Y-118971748D01*
X140820760Y-119023445D01*
X140953255Y-119049800D01*
X141088345Y-119049800D01*
X141220840Y-119023445D01*
X141345648Y-118971748D01*
X141457972Y-118896695D01*
X141553495Y-118801172D01*
X141628548Y-118688848D01*
X141680245Y-118564040D01*
X141706600Y-118431545D01*
X141706600Y-118296455D01*
X141680245Y-118163960D01*
X141628548Y-118039152D01*
X141553495Y-117926828D01*
X141457972Y-117831305D01*
X141345648Y-117756252D01*
X141220840Y-117704555D01*
X141088345Y-117678200D01*
X140953255Y-117678200D01*
X140820760Y-117704555D01*
X140695952Y-117756252D01*
X140583628Y-117831305D01*
X140488105Y-117926828D01*
X140413052Y-118039152D01*
X140361355Y-118163960D01*
X140335000Y-118296455D01*
X137695147Y-118296455D01*
X137718800Y-118177545D01*
X137718800Y-118042455D01*
X137692445Y-117909960D01*
X137640748Y-117785152D01*
X137565695Y-117672828D01*
X137470172Y-117577305D01*
X137357848Y-117502252D01*
X137233040Y-117450555D01*
X137100545Y-117424200D01*
X136965455Y-117424200D01*
X136832960Y-117450555D01*
X136708152Y-117502252D01*
X136595828Y-117577305D01*
X136500305Y-117672828D01*
X136425252Y-117785152D01*
X136373555Y-117909960D01*
X136347200Y-118042455D01*
X129927981Y-118042455D01*
X129961693Y-117961069D01*
X130009000Y-117723243D01*
X130009000Y-117480757D01*
X129961693Y-117242931D01*
X129868898Y-117018903D01*
X129734180Y-116817283D01*
X129562717Y-116645820D01*
X129361097Y-116511102D01*
X129137069Y-116418307D01*
X128899243Y-116371000D01*
X128656757Y-116371000D01*
X128418931Y-116418307D01*
X128194903Y-116511102D01*
X127993283Y-116645820D01*
X127821820Y-116817283D01*
X127687102Y-117018903D01*
X127594307Y-117242931D01*
X127547000Y-117480757D01*
X127406000Y-117480757D01*
X127406000Y-114940757D01*
X127547000Y-114940757D01*
X127547000Y-115183243D01*
X127594307Y-115421069D01*
X127687102Y-115645097D01*
X127821820Y-115846717D01*
X127993283Y-116018180D01*
X128194903Y-116152898D01*
X128418931Y-116245693D01*
X128656757Y-116293000D01*
X128899243Y-116293000D01*
X129137069Y-116245693D01*
X129361097Y-116152898D01*
X129562717Y-116018180D01*
X129734180Y-115846717D01*
X129868898Y-115645097D01*
X129961693Y-115421069D01*
X130009000Y-115183243D01*
X130009000Y-114940757D01*
X129961693Y-114702931D01*
X129868898Y-114478903D01*
X129734180Y-114277283D01*
X129562717Y-114105820D01*
X129361097Y-113971102D01*
X129137069Y-113878307D01*
X128899243Y-113831000D01*
X128656757Y-113831000D01*
X128418931Y-113878307D01*
X128194903Y-113971102D01*
X127993283Y-114105820D01*
X127821820Y-114277283D01*
X127687102Y-114478903D01*
X127594307Y-114702931D01*
X127547000Y-114940757D01*
X127406000Y-114940757D01*
X127406000Y-111196896D01*
X127476815Y-111283185D01*
X127573506Y-111362537D01*
X127683820Y-111421502D01*
X127803518Y-111457812D01*
X127928000Y-111470072D01*
X128138294Y-111468927D01*
X127993283Y-111565820D01*
X127821820Y-111737283D01*
X127687102Y-111938903D01*
X127594307Y-112162931D01*
X127547000Y-112400757D01*
X127547000Y-112643243D01*
X127594307Y-112881069D01*
X127687102Y-113105097D01*
X127821820Y-113306717D01*
X127993283Y-113478180D01*
X128194903Y-113612898D01*
X128418931Y-113705693D01*
X128656757Y-113753000D01*
X128899243Y-113753000D01*
X129137069Y-113705693D01*
X129361097Y-113612898D01*
X129562717Y-113478180D01*
X129734180Y-113306717D01*
X129868898Y-113105097D01*
X129961693Y-112881069D01*
X129962126Y-112878890D01*
X149180524Y-112878890D01*
X149225175Y-113026099D01*
X149350359Y-113288920D01*
X149524412Y-113522269D01*
X149740645Y-113717178D01*
X149866255Y-113792000D01*
X149740645Y-113866822D01*
X149524412Y-114061731D01*
X149350359Y-114295080D01*
X149225175Y-114557901D01*
X149180524Y-114705110D01*
X149301845Y-114935000D01*
X150495000Y-114935000D01*
X150495000Y-112649000D01*
X149301845Y-112649000D01*
X149180524Y-112878890D01*
X129962126Y-112878890D01*
X130009000Y-112643243D01*
X130009000Y-112400757D01*
X129961693Y-112162931D01*
X129868898Y-111938903D01*
X129734180Y-111737283D01*
X129562717Y-111565820D01*
X129417706Y-111468927D01*
X129628000Y-111470072D01*
X129752482Y-111457812D01*
X129872180Y-111421502D01*
X129982494Y-111362537D01*
X130079185Y-111283185D01*
X130158537Y-111186494D01*
X130217502Y-111076180D01*
X130253812Y-110956482D01*
X130266072Y-110832000D01*
X130263000Y-110267750D01*
X130104250Y-110109000D01*
X128905000Y-110109000D01*
X128905000Y-110129000D01*
X128651000Y-110129000D01*
X128651000Y-110109000D01*
X128631000Y-110109000D01*
X128631000Y-109855000D01*
X128651000Y-109855000D01*
X128651000Y-108655750D01*
X128905000Y-108655750D01*
X128905000Y-109855000D01*
X130104250Y-109855000D01*
X130263000Y-109696250D01*
X130263194Y-109660455D01*
X132232400Y-109660455D01*
X132232400Y-109795545D01*
X132258755Y-109928040D01*
X132310452Y-110052848D01*
X132385505Y-110165172D01*
X132481028Y-110260695D01*
X132593352Y-110335748D01*
X132718160Y-110387445D01*
X132850655Y-110413800D01*
X132985745Y-110413800D01*
X133118240Y-110387445D01*
X133243048Y-110335748D01*
X133355372Y-110260695D01*
X133450895Y-110165172D01*
X133525948Y-110052848D01*
X133577645Y-109928040D01*
X133580347Y-109914455D01*
X138760200Y-109914455D01*
X138760200Y-110049545D01*
X138786555Y-110182040D01*
X138838252Y-110306848D01*
X138913305Y-110419172D01*
X139008828Y-110514695D01*
X139121152Y-110589748D01*
X139245960Y-110641445D01*
X139378455Y-110667800D01*
X139513545Y-110667800D01*
X139646040Y-110641445D01*
X139770848Y-110589748D01*
X139793136Y-110574855D01*
X145669000Y-110574855D01*
X145669000Y-110709945D01*
X145695355Y-110842440D01*
X145747052Y-110967248D01*
X145822105Y-111079572D01*
X145917628Y-111175095D01*
X146029952Y-111250148D01*
X146154760Y-111301845D01*
X146287255Y-111328200D01*
X146422345Y-111328200D01*
X146554840Y-111301845D01*
X146679648Y-111250148D01*
X146791972Y-111175095D01*
X146887495Y-111079572D01*
X146962548Y-110967248D01*
X147014245Y-110842440D01*
X147040600Y-110709945D01*
X147040600Y-110574855D01*
X147014245Y-110442360D01*
X146962548Y-110317552D01*
X146887495Y-110205228D01*
X146791972Y-110109705D01*
X146679648Y-110034652D01*
X146554840Y-109982955D01*
X146422345Y-109956600D01*
X146287255Y-109956600D01*
X146154760Y-109982955D01*
X146029952Y-110034652D01*
X145917628Y-110109705D01*
X145822105Y-110205228D01*
X145747052Y-110317552D01*
X145695355Y-110442360D01*
X145669000Y-110574855D01*
X139793136Y-110574855D01*
X139883172Y-110514695D01*
X139978695Y-110419172D01*
X140053748Y-110306848D01*
X140105445Y-110182040D01*
X140131800Y-110049545D01*
X140131800Y-109914455D01*
X140105445Y-109781960D01*
X140053748Y-109657152D01*
X139978695Y-109544828D01*
X139883172Y-109449305D01*
X139770848Y-109374252D01*
X139646040Y-109322555D01*
X139513545Y-109296200D01*
X139378455Y-109296200D01*
X139245960Y-109322555D01*
X139121152Y-109374252D01*
X139008828Y-109449305D01*
X138913305Y-109544828D01*
X138838252Y-109657152D01*
X138786555Y-109781960D01*
X138760200Y-109914455D01*
X133580347Y-109914455D01*
X133604000Y-109795545D01*
X133604000Y-109660455D01*
X133577645Y-109527960D01*
X133525948Y-109403152D01*
X133450895Y-109290828D01*
X133355372Y-109195305D01*
X133243048Y-109120252D01*
X133118240Y-109068555D01*
X132985745Y-109042200D01*
X132850655Y-109042200D01*
X132718160Y-109068555D01*
X132593352Y-109120252D01*
X132481028Y-109195305D01*
X132385505Y-109290828D01*
X132310452Y-109403152D01*
X132258755Y-109527960D01*
X132232400Y-109660455D01*
X130263194Y-109660455D01*
X130264008Y-109511156D01*
X130355962Y-109549245D01*
X130488457Y-109575600D01*
X130623547Y-109575600D01*
X130756042Y-109549245D01*
X130880850Y-109497548D01*
X130993174Y-109422495D01*
X131088697Y-109326972D01*
X131163750Y-109214648D01*
X131215447Y-109089840D01*
X131241802Y-108957345D01*
X131241802Y-108822255D01*
X131215447Y-108689760D01*
X131163750Y-108564952D01*
X131132014Y-108517455D01*
X137795000Y-108517455D01*
X137795000Y-108652545D01*
X137821355Y-108785040D01*
X137873052Y-108909848D01*
X137948105Y-109022172D01*
X138043628Y-109117695D01*
X138155952Y-109192748D01*
X138280760Y-109244445D01*
X138413255Y-109270800D01*
X138548345Y-109270800D01*
X138680840Y-109244445D01*
X138805648Y-109192748D01*
X138917972Y-109117695D01*
X139013495Y-109022172D01*
X139088548Y-108909848D01*
X139140245Y-108785040D01*
X139163156Y-108669855D01*
X142697200Y-108669855D01*
X142697200Y-108804945D01*
X142723555Y-108937440D01*
X142775252Y-109062248D01*
X142850305Y-109174572D01*
X142945828Y-109270095D01*
X143058152Y-109345148D01*
X143182960Y-109396845D01*
X143315455Y-109423200D01*
X143450545Y-109423200D01*
X143583040Y-109396845D01*
X143707848Y-109345148D01*
X143820172Y-109270095D01*
X143915695Y-109174572D01*
X143990748Y-109062248D01*
X144016509Y-109000055D01*
X146304000Y-109000055D01*
X146304000Y-109135145D01*
X146330355Y-109267640D01*
X146382052Y-109392448D01*
X146457105Y-109504772D01*
X146552628Y-109600295D01*
X146664952Y-109675348D01*
X146789760Y-109727045D01*
X146922255Y-109753400D01*
X147057345Y-109753400D01*
X147189840Y-109727045D01*
X147314648Y-109675348D01*
X147426972Y-109600295D01*
X147522495Y-109504772D01*
X147597548Y-109392448D01*
X147649245Y-109267640D01*
X147675600Y-109135145D01*
X147675600Y-109000055D01*
X147649245Y-108867560D01*
X147597548Y-108742752D01*
X147522495Y-108630428D01*
X147426972Y-108534905D01*
X147314648Y-108459852D01*
X147189840Y-108408155D01*
X147057345Y-108381800D01*
X146922255Y-108381800D01*
X146789760Y-108408155D01*
X146664952Y-108459852D01*
X146552628Y-108534905D01*
X146457105Y-108630428D01*
X146382052Y-108742752D01*
X146330355Y-108867560D01*
X146304000Y-109000055D01*
X144016509Y-109000055D01*
X144042445Y-108937440D01*
X144068800Y-108804945D01*
X144068800Y-108669855D01*
X144042445Y-108537360D01*
X143990748Y-108412552D01*
X143915695Y-108300228D01*
X143820172Y-108204705D01*
X143707848Y-108129652D01*
X143583040Y-108077955D01*
X143450545Y-108051600D01*
X143315455Y-108051600D01*
X143182960Y-108077955D01*
X143058152Y-108129652D01*
X142945828Y-108204705D01*
X142850305Y-108300228D01*
X142775252Y-108412552D01*
X142723555Y-108537360D01*
X142697200Y-108669855D01*
X139163156Y-108669855D01*
X139166600Y-108652545D01*
X139166600Y-108517455D01*
X139140245Y-108384960D01*
X139088548Y-108260152D01*
X139013495Y-108147828D01*
X138917972Y-108052305D01*
X138805648Y-107977252D01*
X138680840Y-107925555D01*
X138548345Y-107899200D01*
X138413255Y-107899200D01*
X138280760Y-107925555D01*
X138155952Y-107977252D01*
X138043628Y-108052305D01*
X137948105Y-108147828D01*
X137873052Y-108260152D01*
X137821355Y-108384960D01*
X137795000Y-108517455D01*
X131132014Y-108517455D01*
X131088697Y-108452628D01*
X130993174Y-108357105D01*
X130880850Y-108282052D01*
X130756042Y-108230355D01*
X130623547Y-108204000D01*
X130488457Y-108204000D01*
X130355962Y-108230355D01*
X130231154Y-108282052D01*
X130118830Y-108357105D01*
X130023307Y-108452628D01*
X129948254Y-108564952D01*
X129942079Y-108579860D01*
X129872180Y-108542498D01*
X129752482Y-108506188D01*
X129628000Y-108493928D01*
X129063750Y-108497000D01*
X128905000Y-108655750D01*
X128651000Y-108655750D01*
X128492250Y-108497000D01*
X127928000Y-108493928D01*
X127803518Y-108506188D01*
X127683820Y-108542498D01*
X127573506Y-108601463D01*
X127476815Y-108680815D01*
X127406000Y-108767104D01*
X127406000Y-98738455D01*
X129870200Y-98738455D01*
X129870200Y-98873545D01*
X129896555Y-99006040D01*
X129948252Y-99130848D01*
X130023305Y-99243172D01*
X130094133Y-99314000D01*
X130023305Y-99384828D01*
X129948252Y-99497152D01*
X129896555Y-99621960D01*
X129870200Y-99754455D01*
X129870200Y-99889545D01*
X129896555Y-100022040D01*
X129948252Y-100146848D01*
X130023305Y-100259172D01*
X130094133Y-100330000D01*
X130023305Y-100400828D01*
X129948252Y-100513152D01*
X129896555Y-100637960D01*
X129870200Y-100770455D01*
X129870200Y-100905545D01*
X129896555Y-101038040D01*
X129948252Y-101162848D01*
X129985772Y-101219000D01*
X129948252Y-101275152D01*
X129896555Y-101399960D01*
X129870200Y-101532455D01*
X129870200Y-101667545D01*
X129896555Y-101800040D01*
X129948252Y-101924848D01*
X129985772Y-101981000D01*
X129948252Y-102037152D01*
X129896555Y-102161960D01*
X129870200Y-102294455D01*
X129870200Y-102429545D01*
X129896555Y-102562040D01*
X129948252Y-102686848D01*
X129985772Y-102743000D01*
X129948252Y-102799152D01*
X129896555Y-102923960D01*
X129870200Y-103056455D01*
X129870200Y-103191545D01*
X129896555Y-103324040D01*
X129948252Y-103448848D01*
X129985772Y-103505000D01*
X129948252Y-103561152D01*
X129896555Y-103685960D01*
X129870200Y-103818455D01*
X129870200Y-103953545D01*
X129896555Y-104086040D01*
X129948252Y-104210848D01*
X130023305Y-104323172D01*
X130118828Y-104418695D01*
X130231152Y-104493748D01*
X130355960Y-104545445D01*
X130488455Y-104571800D01*
X130623545Y-104571800D01*
X130756040Y-104545445D01*
X130880848Y-104493748D01*
X130993172Y-104418695D01*
X131064000Y-104347867D01*
X131134828Y-104418695D01*
X131247152Y-104493748D01*
X131371960Y-104545445D01*
X131504455Y-104571800D01*
X131639545Y-104571800D01*
X131772040Y-104545445D01*
X131896848Y-104493748D01*
X132009172Y-104418695D01*
X132080000Y-104347867D01*
X132150828Y-104418695D01*
X132263152Y-104493748D01*
X132387960Y-104545445D01*
X132520455Y-104571800D01*
X132655545Y-104571800D01*
X132788040Y-104545445D01*
X132912848Y-104493748D01*
X133025172Y-104418695D01*
X133096000Y-104347867D01*
X133166828Y-104418695D01*
X133279152Y-104493748D01*
X133403960Y-104545445D01*
X133536455Y-104571800D01*
X133671545Y-104571800D01*
X133804040Y-104545445D01*
X133928848Y-104493748D01*
X134041172Y-104418695D01*
X134112000Y-104347867D01*
X134182828Y-104418695D01*
X134295152Y-104493748D01*
X134419960Y-104545445D01*
X134552455Y-104571800D01*
X134687545Y-104571800D01*
X134820040Y-104545445D01*
X134944848Y-104493748D01*
X135057172Y-104418695D01*
X135152695Y-104323172D01*
X135227748Y-104210848D01*
X135279445Y-104086040D01*
X135305800Y-103953545D01*
X135305800Y-103818455D01*
X135279445Y-103685960D01*
X135227748Y-103561152D01*
X135190228Y-103505000D01*
X135227748Y-103448848D01*
X135279445Y-103324040D01*
X135305800Y-103191545D01*
X135305800Y-103056455D01*
X135279445Y-102923960D01*
X135227748Y-102799152D01*
X135190228Y-102743000D01*
X135227748Y-102686848D01*
X135279445Y-102562040D01*
X135305800Y-102429545D01*
X135305800Y-102294455D01*
X135279445Y-102161960D01*
X135227748Y-102037152D01*
X135190228Y-101981000D01*
X135227748Y-101924848D01*
X135279445Y-101800040D01*
X135305800Y-101667545D01*
X135305800Y-101532455D01*
X135279445Y-101399960D01*
X135227748Y-101275152D01*
X135190228Y-101219000D01*
X135227748Y-101162848D01*
X135279445Y-101038040D01*
X135305800Y-100905545D01*
X135305800Y-100770455D01*
X135279445Y-100637960D01*
X135227748Y-100513152D01*
X135152695Y-100400828D01*
X135081867Y-100330000D01*
X135152695Y-100259172D01*
X135227748Y-100146848D01*
X135279445Y-100022040D01*
X135305800Y-99889545D01*
X135305800Y-99754455D01*
X135279445Y-99621960D01*
X135227748Y-99497152D01*
X135152695Y-99384828D01*
X135081867Y-99314000D01*
X135152695Y-99243172D01*
X135227748Y-99130848D01*
X135279445Y-99006040D01*
X135305800Y-98873545D01*
X135305800Y-98738455D01*
X137998200Y-98738455D01*
X137998200Y-98873545D01*
X138024555Y-99006040D01*
X138076252Y-99130848D01*
X138151305Y-99243172D01*
X138222133Y-99314000D01*
X138151305Y-99384828D01*
X138076252Y-99497152D01*
X138024555Y-99621960D01*
X137998200Y-99754455D01*
X137998200Y-99889545D01*
X138024555Y-100022040D01*
X138076252Y-100146848D01*
X138151305Y-100259172D01*
X138222133Y-100330000D01*
X138151305Y-100400828D01*
X138076252Y-100513152D01*
X138024555Y-100637960D01*
X137998200Y-100770455D01*
X137998200Y-100905545D01*
X138024555Y-101038040D01*
X138076252Y-101162848D01*
X138113772Y-101219000D01*
X138076252Y-101275152D01*
X138024555Y-101399960D01*
X137998200Y-101532455D01*
X137998200Y-101667545D01*
X138024555Y-101800040D01*
X138076252Y-101924848D01*
X138113772Y-101981000D01*
X138076252Y-102037152D01*
X138024555Y-102161960D01*
X137998200Y-102294455D01*
X137998200Y-102429545D01*
X138024555Y-102562040D01*
X138076252Y-102686848D01*
X138113772Y-102743000D01*
X138076252Y-102799152D01*
X138024555Y-102923960D01*
X137998200Y-103056455D01*
X137998200Y-103191545D01*
X138024555Y-103324040D01*
X138076252Y-103448848D01*
X138113772Y-103505000D01*
X138076252Y-103561152D01*
X138024555Y-103685960D01*
X137998200Y-103818455D01*
X137998200Y-103953545D01*
X138024555Y-104086040D01*
X138076252Y-104210848D01*
X138151305Y-104323172D01*
X138246828Y-104418695D01*
X138359152Y-104493748D01*
X138483960Y-104545445D01*
X138616455Y-104571800D01*
X138751545Y-104571800D01*
X138884040Y-104545445D01*
X139008848Y-104493748D01*
X139121172Y-104418695D01*
X139192000Y-104347867D01*
X139262828Y-104418695D01*
X139375152Y-104493748D01*
X139499960Y-104545445D01*
X139632455Y-104571800D01*
X139767545Y-104571800D01*
X139900040Y-104545445D01*
X140024848Y-104493748D01*
X140137172Y-104418695D01*
X140208000Y-104347867D01*
X140278828Y-104418695D01*
X140391152Y-104493748D01*
X140515960Y-104545445D01*
X140648455Y-104571800D01*
X140783545Y-104571800D01*
X140916040Y-104545445D01*
X141040848Y-104493748D01*
X141153172Y-104418695D01*
X141224000Y-104347867D01*
X141294828Y-104418695D01*
X141407152Y-104493748D01*
X141531960Y-104545445D01*
X141664455Y-104571800D01*
X141799545Y-104571800D01*
X141932040Y-104545445D01*
X142056848Y-104493748D01*
X142169172Y-104418695D01*
X142240000Y-104347867D01*
X142310828Y-104418695D01*
X142423152Y-104493748D01*
X142547960Y-104545445D01*
X142680455Y-104571800D01*
X142815545Y-104571800D01*
X142948040Y-104545445D01*
X143072848Y-104493748D01*
X143185172Y-104418695D01*
X143280695Y-104323172D01*
X143355748Y-104210848D01*
X143407445Y-104086040D01*
X143433800Y-103953545D01*
X143433800Y-103818455D01*
X143407445Y-103685960D01*
X143355748Y-103561152D01*
X143318228Y-103505000D01*
X143355748Y-103448848D01*
X143407445Y-103324040D01*
X143433800Y-103191545D01*
X143433800Y-103056455D01*
X143407445Y-102923960D01*
X143355748Y-102799152D01*
X143318228Y-102743000D01*
X143355748Y-102686848D01*
X143407445Y-102562040D01*
X143433800Y-102429545D01*
X143433800Y-102294455D01*
X143407445Y-102161960D01*
X143355748Y-102037152D01*
X143318228Y-101981000D01*
X143355748Y-101924848D01*
X143407445Y-101800040D01*
X143433800Y-101667545D01*
X143433800Y-101532455D01*
X143407445Y-101399960D01*
X143355748Y-101275152D01*
X143318228Y-101219000D01*
X143355748Y-101162848D01*
X143407445Y-101038040D01*
X143433800Y-100905545D01*
X143433800Y-100770455D01*
X143407445Y-100637960D01*
X143355748Y-100513152D01*
X143280695Y-100400828D01*
X143209867Y-100330000D01*
X143280695Y-100259172D01*
X143355748Y-100146848D01*
X143407445Y-100022040D01*
X143433800Y-99889545D01*
X143433800Y-99754455D01*
X143407445Y-99621960D01*
X143355748Y-99497152D01*
X143280695Y-99384828D01*
X143209867Y-99314000D01*
X143280695Y-99243172D01*
X143355748Y-99130848D01*
X143407445Y-99006040D01*
X143433800Y-98873545D01*
X143433800Y-98738455D01*
X146380200Y-98738455D01*
X146380200Y-98873545D01*
X146406555Y-99006040D01*
X146458252Y-99130848D01*
X146533305Y-99243172D01*
X146604133Y-99314000D01*
X146533305Y-99384828D01*
X146458252Y-99497152D01*
X146406555Y-99621960D01*
X146380200Y-99754455D01*
X146380200Y-99889545D01*
X146406555Y-100022040D01*
X146458252Y-100146848D01*
X146533305Y-100259172D01*
X146604133Y-100330000D01*
X146533305Y-100400828D01*
X146458252Y-100513152D01*
X146406555Y-100637960D01*
X146380200Y-100770455D01*
X146380200Y-100905545D01*
X146406555Y-101038040D01*
X146458252Y-101162848D01*
X146495772Y-101219000D01*
X146458252Y-101275152D01*
X146406555Y-101399960D01*
X146380200Y-101532455D01*
X146380200Y-101667545D01*
X146406555Y-101800040D01*
X146458252Y-101924848D01*
X146495772Y-101981000D01*
X146458252Y-102037152D01*
X146406555Y-102161960D01*
X146380200Y-102294455D01*
X146380200Y-102429545D01*
X146406555Y-102562040D01*
X146458252Y-102686848D01*
X146495772Y-102743000D01*
X146458252Y-102799152D01*
X146406555Y-102923960D01*
X146380200Y-103056455D01*
X146380200Y-103191545D01*
X146406555Y-103324040D01*
X146458252Y-103448848D01*
X146495772Y-103505000D01*
X146458252Y-103561152D01*
X146406555Y-103685960D01*
X146380200Y-103818455D01*
X146380200Y-103953545D01*
X146406555Y-104086040D01*
X146458252Y-104210848D01*
X146533305Y-104323172D01*
X146628828Y-104418695D01*
X146741152Y-104493748D01*
X146865960Y-104545445D01*
X146998455Y-104571800D01*
X147133545Y-104571800D01*
X147266040Y-104545445D01*
X147390848Y-104493748D01*
X147503172Y-104418695D01*
X147574000Y-104347867D01*
X147644828Y-104418695D01*
X147757152Y-104493748D01*
X147881960Y-104545445D01*
X148014455Y-104571800D01*
X148149545Y-104571800D01*
X148282040Y-104545445D01*
X148406848Y-104493748D01*
X148519172Y-104418695D01*
X148590000Y-104347867D01*
X148660828Y-104418695D01*
X148773152Y-104493748D01*
X148897960Y-104545445D01*
X149030455Y-104571800D01*
X149165545Y-104571800D01*
X149298040Y-104545445D01*
X149422848Y-104493748D01*
X149535172Y-104418695D01*
X149606000Y-104347867D01*
X149676828Y-104418695D01*
X149789152Y-104493748D01*
X149913960Y-104545445D01*
X150046455Y-104571800D01*
X150181545Y-104571800D01*
X150314040Y-104545445D01*
X150438848Y-104493748D01*
X150551172Y-104418695D01*
X150622000Y-104347867D01*
X150692828Y-104418695D01*
X150805152Y-104493748D01*
X150929960Y-104545445D01*
X151062455Y-104571800D01*
X151197545Y-104571800D01*
X151330040Y-104545445D01*
X151454848Y-104493748D01*
X151567172Y-104418695D01*
X151662695Y-104323172D01*
X151737748Y-104210848D01*
X151789445Y-104086040D01*
X151815800Y-103953545D01*
X151815800Y-103818455D01*
X151789445Y-103685960D01*
X151737748Y-103561152D01*
X151700228Y-103505000D01*
X151737748Y-103448848D01*
X151789445Y-103324040D01*
X151815800Y-103191545D01*
X151815800Y-103056455D01*
X151789445Y-102923960D01*
X151737748Y-102799152D01*
X151700228Y-102743000D01*
X151737748Y-102686848D01*
X151789445Y-102562040D01*
X151815800Y-102429545D01*
X151815800Y-102294455D01*
X151789445Y-102161960D01*
X151737748Y-102037152D01*
X151700228Y-101981000D01*
X151737748Y-101924848D01*
X151789445Y-101800040D01*
X151815800Y-101667545D01*
X151815800Y-101532455D01*
X151789445Y-101399960D01*
X151737748Y-101275152D01*
X151700228Y-101219000D01*
X151737748Y-101162848D01*
X151789445Y-101038040D01*
X151815800Y-100905545D01*
X151815800Y-100770455D01*
X151789445Y-100637960D01*
X151737748Y-100513152D01*
X151662695Y-100400828D01*
X151591867Y-100330000D01*
X151662695Y-100259172D01*
X151737748Y-100146848D01*
X151789445Y-100022040D01*
X151815800Y-99889545D01*
X151815800Y-99754455D01*
X151789445Y-99621960D01*
X151737748Y-99497152D01*
X151662695Y-99384828D01*
X151591867Y-99314000D01*
X151662695Y-99243172D01*
X151737748Y-99130848D01*
X151789445Y-99006040D01*
X151815800Y-98873545D01*
X151815800Y-98738455D01*
X151789445Y-98605960D01*
X151737748Y-98481152D01*
X151662695Y-98368828D01*
X151567172Y-98273305D01*
X151454848Y-98198252D01*
X151330040Y-98146555D01*
X151197545Y-98120200D01*
X151062455Y-98120200D01*
X150929960Y-98146555D01*
X150805152Y-98198252D01*
X150692828Y-98273305D01*
X150622000Y-98344133D01*
X150551172Y-98273305D01*
X150438848Y-98198252D01*
X150314040Y-98146555D01*
X150273507Y-98138493D01*
X150265445Y-98097960D01*
X150213748Y-97973152D01*
X150138695Y-97860828D01*
X150043172Y-97765305D01*
X149930848Y-97690252D01*
X149806040Y-97638555D01*
X149673545Y-97612200D01*
X149538455Y-97612200D01*
X149405960Y-97638555D01*
X149281152Y-97690252D01*
X149168828Y-97765305D01*
X149098000Y-97836133D01*
X149027172Y-97765305D01*
X148914848Y-97690252D01*
X148790040Y-97638555D01*
X148657545Y-97612200D01*
X148522455Y-97612200D01*
X148389960Y-97638555D01*
X148265152Y-97690252D01*
X148152828Y-97765305D01*
X148082000Y-97836133D01*
X148011172Y-97765305D01*
X147898848Y-97690252D01*
X147774040Y-97638555D01*
X147641545Y-97612200D01*
X147506455Y-97612200D01*
X147373960Y-97638555D01*
X147249152Y-97690252D01*
X147136828Y-97765305D01*
X147041305Y-97860828D01*
X146966252Y-97973152D01*
X146914555Y-98097960D01*
X146906493Y-98138493D01*
X146865960Y-98146555D01*
X146741152Y-98198252D01*
X146628828Y-98273305D01*
X146533305Y-98368828D01*
X146458252Y-98481152D01*
X146406555Y-98605960D01*
X146380200Y-98738455D01*
X143433800Y-98738455D01*
X143407445Y-98605960D01*
X143355748Y-98481152D01*
X143280695Y-98368828D01*
X143185172Y-98273305D01*
X143072848Y-98198252D01*
X142948040Y-98146555D01*
X142815545Y-98120200D01*
X142680455Y-98120200D01*
X142547960Y-98146555D01*
X142423152Y-98198252D01*
X142310828Y-98273305D01*
X142240000Y-98344133D01*
X142169172Y-98273305D01*
X142056848Y-98198252D01*
X141932040Y-98146555D01*
X141891507Y-98138493D01*
X141883445Y-98097960D01*
X141831748Y-97973152D01*
X141756695Y-97860828D01*
X141661172Y-97765305D01*
X141548848Y-97690252D01*
X141424040Y-97638555D01*
X141291545Y-97612200D01*
X141156455Y-97612200D01*
X141023960Y-97638555D01*
X140899152Y-97690252D01*
X140786828Y-97765305D01*
X140716000Y-97836133D01*
X140645172Y-97765305D01*
X140532848Y-97690252D01*
X140408040Y-97638555D01*
X140275545Y-97612200D01*
X140140455Y-97612200D01*
X140007960Y-97638555D01*
X139883152Y-97690252D01*
X139770828Y-97765305D01*
X139700000Y-97836133D01*
X139629172Y-97765305D01*
X139516848Y-97690252D01*
X139392040Y-97638555D01*
X139259545Y-97612200D01*
X139124455Y-97612200D01*
X138991960Y-97638555D01*
X138867152Y-97690252D01*
X138754828Y-97765305D01*
X138659305Y-97860828D01*
X138584252Y-97973152D01*
X138532555Y-98097960D01*
X138524493Y-98138493D01*
X138483960Y-98146555D01*
X138359152Y-98198252D01*
X138246828Y-98273305D01*
X138151305Y-98368828D01*
X138076252Y-98481152D01*
X138024555Y-98605960D01*
X137998200Y-98738455D01*
X135305800Y-98738455D01*
X135279445Y-98605960D01*
X135227748Y-98481152D01*
X135152695Y-98368828D01*
X135057172Y-98273305D01*
X134944848Y-98198252D01*
X134820040Y-98146555D01*
X134687545Y-98120200D01*
X134552455Y-98120200D01*
X134419960Y-98146555D01*
X134295152Y-98198252D01*
X134182828Y-98273305D01*
X134112000Y-98344133D01*
X134041172Y-98273305D01*
X133928848Y-98198252D01*
X133804040Y-98146555D01*
X133763507Y-98138493D01*
X133755445Y-98097960D01*
X133703748Y-97973152D01*
X133628695Y-97860828D01*
X133533172Y-97765305D01*
X133420848Y-97690252D01*
X133296040Y-97638555D01*
X133163545Y-97612200D01*
X133028455Y-97612200D01*
X132895960Y-97638555D01*
X132771152Y-97690252D01*
X132658828Y-97765305D01*
X132588000Y-97836133D01*
X132517172Y-97765305D01*
X132404848Y-97690252D01*
X132280040Y-97638555D01*
X132147545Y-97612200D01*
X132012455Y-97612200D01*
X131879960Y-97638555D01*
X131755152Y-97690252D01*
X131642828Y-97765305D01*
X131572000Y-97836133D01*
X131501172Y-97765305D01*
X131388848Y-97690252D01*
X131264040Y-97638555D01*
X131131545Y-97612200D01*
X130996455Y-97612200D01*
X130863960Y-97638555D01*
X130739152Y-97690252D01*
X130626828Y-97765305D01*
X130531305Y-97860828D01*
X130456252Y-97973152D01*
X130404555Y-98097960D01*
X130396493Y-98138493D01*
X130355960Y-98146555D01*
X130231152Y-98198252D01*
X130118828Y-98273305D01*
X130023305Y-98368828D01*
X129948252Y-98481152D01*
X129896555Y-98605960D01*
X129870200Y-98738455D01*
X127406000Y-98738455D01*
X127406000Y-86038455D01*
X139522200Y-86038455D01*
X139522200Y-86173545D01*
X139548555Y-86306040D01*
X139600252Y-86430848D01*
X139675305Y-86543172D01*
X139746133Y-86614000D01*
X139675305Y-86684828D01*
X139600252Y-86797152D01*
X139548555Y-86921960D01*
X139522200Y-87054455D01*
X139522200Y-87189545D01*
X139548555Y-87322040D01*
X139600252Y-87446848D01*
X139675305Y-87559172D01*
X139746133Y-87630000D01*
X139675305Y-87700828D01*
X139600252Y-87813152D01*
X139548555Y-87937960D01*
X139522200Y-88070455D01*
X139522200Y-88205545D01*
X139548555Y-88338040D01*
X139600252Y-88462848D01*
X139675305Y-88575172D01*
X139770828Y-88670695D01*
X139883152Y-88745748D01*
X140007960Y-88797445D01*
X140140455Y-88823800D01*
X140275545Y-88823800D01*
X140408040Y-88797445D01*
X140532848Y-88745748D01*
X140645172Y-88670695D01*
X140716000Y-88599867D01*
X140786828Y-88670695D01*
X140899152Y-88745748D01*
X141023960Y-88797445D01*
X141156455Y-88823800D01*
X141291545Y-88823800D01*
X141424040Y-88797445D01*
X141548848Y-88745748D01*
X141661172Y-88670695D01*
X141732000Y-88599867D01*
X141802828Y-88670695D01*
X141915152Y-88745748D01*
X142039960Y-88797445D01*
X142172455Y-88823800D01*
X142307545Y-88823800D01*
X142440040Y-88797445D01*
X142564848Y-88745748D01*
X142677172Y-88670695D01*
X142748000Y-88599867D01*
X142818828Y-88670695D01*
X142931152Y-88745748D01*
X143055960Y-88797445D01*
X143188455Y-88823800D01*
X143323545Y-88823800D01*
X143456040Y-88797445D01*
X143580848Y-88745748D01*
X143693172Y-88670695D01*
X143788695Y-88575172D01*
X143863748Y-88462848D01*
X143915445Y-88338040D01*
X143923507Y-88297507D01*
X143964040Y-88289445D01*
X144088848Y-88237748D01*
X144201172Y-88162695D01*
X144296695Y-88067172D01*
X144371748Y-87954848D01*
X144423445Y-87830040D01*
X144431507Y-87789507D01*
X144472040Y-87781445D01*
X144596848Y-87729748D01*
X144709172Y-87654695D01*
X144804695Y-87559172D01*
X144879748Y-87446848D01*
X144931445Y-87322040D01*
X144957800Y-87189545D01*
X144957800Y-87054455D01*
X144931445Y-86921960D01*
X144902159Y-86851255D01*
X148615400Y-86851255D01*
X148615400Y-86986345D01*
X148641755Y-87118840D01*
X148693452Y-87243648D01*
X148768505Y-87355972D01*
X148864028Y-87451495D01*
X148976352Y-87526548D01*
X149101160Y-87578245D01*
X149233655Y-87604600D01*
X149368745Y-87604600D01*
X149501240Y-87578245D01*
X149626048Y-87526548D01*
X149738372Y-87451495D01*
X149833895Y-87355972D01*
X149908948Y-87243648D01*
X149960645Y-87118840D01*
X149987000Y-86986345D01*
X149987000Y-86851255D01*
X149960645Y-86718760D01*
X149908948Y-86593952D01*
X149833895Y-86481628D01*
X149738372Y-86386105D01*
X149626048Y-86311052D01*
X149501240Y-86259355D01*
X149368745Y-86233000D01*
X149233655Y-86233000D01*
X149101160Y-86259355D01*
X148976352Y-86311052D01*
X148864028Y-86386105D01*
X148768505Y-86481628D01*
X148693452Y-86593952D01*
X148641755Y-86718760D01*
X148615400Y-86851255D01*
X144902159Y-86851255D01*
X144879748Y-86797152D01*
X144804695Y-86684828D01*
X144733867Y-86614000D01*
X144804695Y-86543172D01*
X144879748Y-86430848D01*
X144931445Y-86306040D01*
X144957800Y-86173545D01*
X144957800Y-86038455D01*
X144931445Y-85905960D01*
X144879748Y-85781152D01*
X144804695Y-85668828D01*
X144733867Y-85598000D01*
X144804695Y-85527172D01*
X144879748Y-85414848D01*
X144918744Y-85320702D01*
X145292903Y-85320702D01*
X145364486Y-85564671D01*
X145619996Y-85685571D01*
X145894184Y-85754300D01*
X146176512Y-85768217D01*
X146456130Y-85726787D01*
X146722292Y-85631603D01*
X146847514Y-85564671D01*
X146919097Y-85320702D01*
X146106000Y-84507605D01*
X145292903Y-85320702D01*
X144918744Y-85320702D01*
X144931445Y-85290040D01*
X144957800Y-85157545D01*
X144957800Y-85095472D01*
X145113298Y-85141097D01*
X145926395Y-84328000D01*
X146285605Y-84328000D01*
X147098702Y-85141097D01*
X147342671Y-85069514D01*
X147463571Y-84814004D01*
X147532300Y-84539816D01*
X147546217Y-84257488D01*
X147504787Y-83977870D01*
X147409603Y-83711708D01*
X147342671Y-83586486D01*
X147098702Y-83514903D01*
X146285605Y-84328000D01*
X145926395Y-84328000D01*
X145113298Y-83514903D01*
X144869329Y-83586486D01*
X144786292Y-83761976D01*
X144723848Y-83720252D01*
X144599040Y-83668555D01*
X144466545Y-83642200D01*
X144331455Y-83642200D01*
X144198960Y-83668555D01*
X144074152Y-83720252D01*
X143961828Y-83795305D01*
X143866305Y-83890828D01*
X143859059Y-83901673D01*
X143831545Y-83896200D01*
X143696455Y-83896200D01*
X143563960Y-83922555D01*
X143557643Y-83925172D01*
X143534695Y-83890828D01*
X143439172Y-83795305D01*
X143326848Y-83720252D01*
X143202040Y-83668555D01*
X143069545Y-83642200D01*
X142934455Y-83642200D01*
X142801960Y-83668555D01*
X142684500Y-83717208D01*
X142567040Y-83668555D01*
X142434545Y-83642200D01*
X142299455Y-83642200D01*
X142166960Y-83668555D01*
X142042152Y-83720252D01*
X141929828Y-83795305D01*
X141834305Y-83890828D01*
X141827059Y-83901673D01*
X141799545Y-83896200D01*
X141664455Y-83896200D01*
X141533953Y-83922159D01*
X141421848Y-83847252D01*
X141297040Y-83795555D01*
X141164545Y-83769200D01*
X141029455Y-83769200D01*
X140896960Y-83795555D01*
X140772152Y-83847252D01*
X140659828Y-83922305D01*
X140564305Y-84017828D01*
X140489252Y-84130152D01*
X140480948Y-84150200D01*
X140394455Y-84150200D01*
X140261960Y-84176555D01*
X140137152Y-84228252D01*
X140024828Y-84303305D01*
X139929305Y-84398828D01*
X139854252Y-84511152D01*
X139802555Y-84635960D01*
X139776200Y-84768455D01*
X139776200Y-84903545D01*
X139802555Y-85036040D01*
X139854252Y-85160848D01*
X139929305Y-85273172D01*
X140024828Y-85368695D01*
X140059172Y-85391643D01*
X140056555Y-85397960D01*
X140048493Y-85438493D01*
X140007960Y-85446555D01*
X139883152Y-85498252D01*
X139770828Y-85573305D01*
X139675305Y-85668828D01*
X139600252Y-85781152D01*
X139548555Y-85905960D01*
X139522200Y-86038455D01*
X127406000Y-86038455D01*
X127406000Y-85871854D01*
X127458226Y-85339214D01*
X127607150Y-84845955D01*
X127849044Y-84391017D01*
X128174696Y-83991728D01*
X128571701Y-83663296D01*
X128611157Y-83641962D01*
X128611157Y-85128000D01*
X128618513Y-85202689D01*
X128640299Y-85274508D01*
X128675678Y-85340696D01*
X128723289Y-85398711D01*
X128781304Y-85446322D01*
X128847492Y-85481701D01*
X128919311Y-85503487D01*
X128994000Y-85510843D01*
X130594000Y-85510843D01*
X130668689Y-85503487D01*
X130740508Y-85481701D01*
X130806696Y-85446322D01*
X130864711Y-85398711D01*
X130912322Y-85340696D01*
X130923009Y-85320702D01*
X132480903Y-85320702D01*
X132552486Y-85564671D01*
X132807996Y-85685571D01*
X133082184Y-85754300D01*
X133364512Y-85768217D01*
X133644130Y-85726787D01*
X133910292Y-85631603D01*
X134035514Y-85564671D01*
X134107097Y-85320702D01*
X133294000Y-84507605D01*
X132480903Y-85320702D01*
X130923009Y-85320702D01*
X130947701Y-85274508D01*
X130969487Y-85202689D01*
X130976843Y-85128000D01*
X130976843Y-84398512D01*
X131853783Y-84398512D01*
X131895213Y-84678130D01*
X131990397Y-84944292D01*
X132057329Y-85069514D01*
X132301298Y-85141097D01*
X133114395Y-84328000D01*
X133473605Y-84328000D01*
X134286702Y-85141097D01*
X134530671Y-85069514D01*
X134651571Y-84814004D01*
X134720300Y-84539816D01*
X134734217Y-84257488D01*
X134692787Y-83977870D01*
X134597603Y-83711708D01*
X134530671Y-83586486D01*
X134286702Y-83514903D01*
X133473605Y-84328000D01*
X133114395Y-84328000D01*
X132301298Y-83514903D01*
X132057329Y-83586486D01*
X131936429Y-83841996D01*
X131867700Y-84116184D01*
X131853783Y-84398512D01*
X130976843Y-84398512D01*
X130976843Y-83528000D01*
X130969487Y-83453311D01*
X130947701Y-83381492D01*
X130912322Y-83315304D01*
X130864711Y-83257289D01*
X130807088Y-83210000D01*
X132517667Y-83210000D01*
X132480903Y-83335298D01*
G37*
%TD.AperFunction*%
%TD*%
M02*
