M48
; DRILL file {KiCad (5.1.9)-1} date 11/17/21 21:40:23
; FORMAT={-:-/ absolute / inch / decimal}
; #@! TF.CreationDate,2021-11-17T21:40:23-08:00
; #@! TF.GenerationSoftware,Kicad,Pcbnew,(5.1.9)-1
FMAT,2
INCH
T1C0.0120
T2C0.0315
T3C0.0394
%
G90
G05
T1
X5.03Y-3.67
X5.03Y-3.7
X5.03Y-3.73
X5.03Y-3.77
X5.03Y-3.81
X5.03Y-3.85
X5.03Y-3.89
X5.04Y-3.97
X5.04Y-4.02
X5.05Y-3.75
X5.05Y-3.79
X5.05Y-3.83
X5.05Y-3.87
X5.05Y-3.91
X5.07Y-3.7
X5.07Y-3.73
X5.07Y-3.77
X5.07Y-3.81
X5.07Y-3.85
X5.07Y-3.89
X5.09Y-3.67
X5.09Y-3.75
X5.09Y-3.79
X5.09Y-3.83
X5.09Y-3.87
X5.09Y-3.91
X5.09Y-3.97
X5.09Y-4.02
X5.11Y-3.7
X5.11Y-3.73
X5.11Y-3.77
X5.14Y-3.89
X5.14Y-3.93
X5.14Y-3.97
X5.14Y-4.0
X5.14Y-4.03
X5.14Y-4.06
X5.14Y-4.09
X5.14Y-4.287
X5.15Y-4.93
X5.16Y-3.87
X5.16Y-3.91
X5.16Y-4.9
X5.162Y-4.864
X5.18Y-3.89
X5.18Y-3.93
X5.18Y-3.97
X5.18Y-4.0
X5.18Y-4.03
X5.18Y-4.06
X5.18Y-4.09
X5.2Y-3.87
X5.2Y-3.91
X5.2Y-4.93
X5.22Y-3.89
X5.22Y-3.93
X5.22Y-3.97
X5.22Y-4.0
X5.22Y-4.03
X5.22Y-4.06
X5.22Y-4.09
X5.23Y-3.39
X5.233Y-4.32
X5.24Y-3.87
X5.24Y-3.91
X5.247Y-4.88
X5.26Y-3.89
X5.26Y-3.93
X5.26Y-3.97
X5.26Y-4.0
X5.26Y-4.03
X5.26Y-4.06
X5.26Y-4.09
X5.27Y-4.38
X5.28Y-3.91
X5.291Y-4.852
X5.293Y-4.808
X5.3Y-3.89
X5.3Y-3.93
X5.3Y-3.97
X5.3Y-4.0
X5.3Y-4.03
X5.3Y-4.06
X5.3Y-4.09
X5.32Y-4.5205
X5.3215Y-4.3425
X5.323Y-4.3925
X5.33Y-3.68
X5.33Y-3.71
X5.34Y-4.29
X5.35Y-3.73
X5.35Y-3.77
X5.35Y-3.81
X5.35Y-3.85
X5.36Y-3.7
X5.37Y-3.75
X5.37Y-3.79
X5.37Y-3.83
X5.37Y-3.87
X5.37Y-3.91
X5.38Y-3.67
X5.38Y-4.3
X5.39Y-3.7
X5.39Y-3.73
X5.39Y-3.77
X5.39Y-3.81
X5.39Y-3.85
X5.39Y-3.89
X5.39Y-4.39
X5.395Y-4.65
X5.405Y-4.727
X5.406Y-4.803
X5.41Y-3.67
X5.41Y-3.75
X5.41Y-3.79
X5.41Y-3.83
X5.41Y-3.87
X5.41Y-3.91
X5.42Y-4.33
X5.43Y-3.7
X5.43Y-3.73
X5.43Y-3.77
X5.44Y-4.912
X5.45Y-4.42
X5.452Y-4.275
X5.46Y-3.89
X5.46Y-3.93
X5.46Y-3.97
X5.46Y-4.0
X5.46Y-4.03
X5.46Y-4.06
X5.46Y-4.09
X5.48Y-3.87
X5.48Y-3.91
X5.49Y-4.33
X5.5Y-3.89
X5.5Y-3.93
X5.5Y-3.97
X5.5Y-4.0
X5.5Y-4.03
X5.5Y-4.06
X5.5Y-4.09
X5.52Y-3.39
X5.52Y-3.43
X5.52Y-3.47
X5.52Y-3.87
X5.52Y-3.91
X5.521Y-4.854
X5.53Y-3.34
X5.54Y-3.37
X5.54Y-3.41
X5.54Y-3.45
X5.54Y-3.89
X5.54Y-3.93
X5.54Y-3.97
X5.54Y-4.0
X5.54Y-4.03
X5.54Y-4.06
X5.54Y-4.09
X5.55Y-4.751
X5.552Y-4.66
X5.555Y-3.325
X5.56Y-3.35
X5.56Y-3.39
X5.56Y-3.43
X5.56Y-3.47
X5.56Y-3.87
X5.56Y-3.91
X5.58Y-3.33
X5.58Y-3.37
X5.58Y-3.41
X5.58Y-3.45
X5.58Y-3.89
X5.58Y-3.93
X5.58Y-3.97
X5.58Y-4.0
X5.58Y-4.03
X5.58Y-4.06
X5.58Y-4.09
X5.6Y-3.35
X5.6Y-3.39
X5.6Y-3.43
X5.6Y-3.47
X5.6Y-3.91
X5.6Y-4.93
X5.605Y-3.32
X5.62Y-3.37
X5.62Y-3.41
X5.62Y-3.45
X5.62Y-3.89
X5.62Y-3.93
X5.62Y-3.97
X5.62Y-4.0
X5.62Y-4.03
X5.62Y-4.06
X5.62Y-4.09
X5.63Y-3.32
X5.63Y-4.34
X5.64Y-3.35
X5.64Y-3.39
X5.64Y-3.43
X5.64Y-3.47
X5.64Y-4.93
X5.645Y-4.281
X5.65Y-3.68
X5.65Y-3.71
X5.66Y-3.33
X5.66Y-3.37
X5.66Y-3.41
X5.66Y-3.45
X5.67Y-3.73
X5.67Y-3.77
X5.67Y-3.81
X5.67Y-3.85
X5.68Y-3.35
X5.68Y-3.39
X5.68Y-3.43
X5.68Y-3.7
X5.68Y-4.87
X5.685Y-3.32
X5.69Y-3.75
X5.69Y-3.79
X5.69Y-3.83
X5.69Y-3.87
X5.69Y-3.91
X5.69Y-4.76
X5.7Y-3.67
X5.7Y-4.93
X5.71Y-3.7
X5.71Y-3.73
X5.71Y-3.77
X5.71Y-3.81
X5.71Y-3.85
X5.71Y-3.89
X5.73Y-3.67
X5.73Y-3.75
X5.73Y-3.79
X5.73Y-3.83
X5.73Y-3.87
X5.73Y-3.91
X5.73Y-4.82
X5.74Y-4.915
X5.75Y-3.7
X5.75Y-3.73
X5.75Y-3.77
X5.762Y-4.356
X5.787Y-4.294
X5.79Y-3.89
X5.79Y-3.93
X5.79Y-3.97
X5.79Y-4.0
X5.79Y-4.03
X5.79Y-4.06
X5.79Y-4.09
X5.791Y-4.655
X5.791Y-4.721
X5.792Y-4.828
X5.8Y-4.561
X5.81Y-3.32
X5.81Y-3.87
X5.81Y-3.91
X5.83Y-3.89
X5.83Y-3.93
X5.83Y-3.97
X5.83Y-4.0
X5.83Y-4.03
X5.83Y-4.06
X5.83Y-4.09
X5.85Y-3.87
X5.85Y-3.91
X5.86Y-4.72
X5.87Y-3.89
X5.87Y-3.93
X5.87Y-3.97
X5.87Y-4.0
X5.87Y-4.03
X5.87Y-4.06
X5.87Y-4.09
X5.878Y-3.422
X5.89Y-3.87
X5.89Y-3.91
X5.91Y-3.89
X5.91Y-3.93
X5.91Y-3.97
X5.91Y-4.0
X5.91Y-4.03
X5.91Y-4.06
X5.91Y-4.09
X5.93Y-3.91
X5.95Y-3.89
X5.95Y-3.93
X5.95Y-3.97
X5.95Y-4.0
X5.95Y-4.03
X5.95Y-4.06
X5.95Y-4.09
T2
X5.11Y-3.32
X5.2478Y-3.32
X5.7522Y-3.32
X5.89Y-3.32
T3
X5.07Y-4.33
X5.07Y-4.43
X5.07Y-4.53
X5.07Y-4.63
X5.07Y-4.73
X5.07Y-4.83
X5.07Y-4.93
X5.93Y-4.33
X5.93Y-4.43
X5.93Y-4.53
X5.93Y-4.63
X5.93Y-4.73
X5.93Y-4.83
X5.93Y-4.93
T0
M30
