%TF.GenerationSoftware,KiCad,Pcbnew,(5.1.9)-1*%
%TF.CreationDate,2021-12-20T22:20:38-08:00*%
%TF.ProjectId,MCL-102-2,4d434c2d-3130-4322-9d32-2e6b69636164,rev?*%
%TF.SameCoordinates,Original*%
%TF.FileFunction,Soldermask,Bot*%
%TF.FilePolarity,Negative*%
%FSLAX46Y46*%
G04 Gerber Fmt 4.6, Leading zero omitted, Abs format (unit mm)*
G04 Created by KiCad (PCBNEW (5.1.9)-1) date 2021-12-20 22:20:38*
%MOMM*%
%LPD*%
G01*
G04 APERTURE LIST*
%ADD10C,2.000000*%
%ADD11O,1.700000X1.700000*%
%ADD12R,1.700000X1.700000*%
%ADD13O,2.100000X1.000000*%
%ADD14C,0.650000*%
%ADD15O,1.600000X1.000000*%
G04 APERTURE END LIST*
D10*
%TO.C,SW1*%
X146376000Y-91590000D03*
X150876000Y-91590000D03*
X146376000Y-85090000D03*
X150876000Y-85090000D03*
%TD*%
%TO.C,J6*%
G36*
G01*
X145034000Y-111887000D02*
X145034000Y-108077000D01*
G75*
G02*
X145669000Y-107442000I635000J0D01*
G01*
X146939000Y-107442000D01*
G75*
G02*
X147574000Y-108077000I0J-635000D01*
G01*
X147574000Y-111887000D01*
G75*
G02*
X146939000Y-112522000I-635000J0D01*
G01*
X145669000Y-112522000D01*
G75*
G02*
X145034000Y-111887000I0J635000D01*
G01*
G37*
%TD*%
%TO.C,J3*%
G36*
G01*
X144856200Y-103632000D02*
X144856200Y-99822000D01*
G75*
G02*
X145491200Y-99187000I635000J0D01*
G01*
X146761200Y-99187000D01*
G75*
G02*
X147396200Y-99822000I0J-635000D01*
G01*
X147396200Y-103632000D01*
G75*
G02*
X146761200Y-104267000I-635000J0D01*
G01*
X145491200Y-104267000D01*
G75*
G02*
X144856200Y-103632000I0J635000D01*
G01*
G37*
%TD*%
D11*
%TO.C,J5*%
X137160000Y-116078000D03*
X134620000Y-116078000D03*
D12*
X132080000Y-116078000D03*
%TD*%
D11*
%TO.C,J4*%
X147320000Y-116078000D03*
X144780000Y-116078000D03*
D12*
X142240000Y-116078000D03*
%TD*%
D10*
%TO.C,SW2*%
X139192000Y-91590000D03*
X143692000Y-91590000D03*
X139192000Y-85090000D03*
X143692000Y-85090000D03*
%TD*%
%TO.C,J2*%
G36*
G01*
X133604000Y-105029000D02*
X133604000Y-108839000D01*
G75*
G02*
X132969000Y-109474000I-635000J0D01*
G01*
X131699000Y-109474000D01*
G75*
G02*
X131064000Y-108839000I0J635000D01*
G01*
X131064000Y-105029000D01*
G75*
G02*
X131699000Y-104394000I635000J0D01*
G01*
X132969000Y-104394000D01*
G75*
G02*
X133604000Y-105029000I0J-635000D01*
G01*
G37*
%TD*%
D11*
%TO.C,J1*%
X128778000Y-125222000D03*
X128778000Y-122682000D03*
X128778000Y-120142000D03*
X128778000Y-117602000D03*
X128778000Y-115062000D03*
X128778000Y-112522000D03*
D12*
X128778000Y-109982000D03*
%TD*%
D11*
%TO.C,J8*%
X150622000Y-125222000D03*
X150622000Y-122682000D03*
X150622000Y-120142000D03*
X150622000Y-117602000D03*
X150622000Y-115062000D03*
X150622000Y-112522000D03*
D12*
X150622000Y-109982000D03*
%TD*%
D13*
%TO.C,J7*%
X133940000Y-93220000D03*
X133940000Y-84580000D03*
D14*
X133410000Y-86010000D03*
D15*
X129760000Y-84580000D03*
D14*
X133410000Y-91790000D03*
D15*
X129760000Y-93220000D03*
%TD*%
M02*
