%TF.GenerationSoftware,KiCad,Pcbnew,(5.1.9)-1*%
%TF.CreationDate,2021-12-20T22:20:38-08:00*%
%TF.ProjectId,MCL-102-2,4d434c2d-3130-4322-9d32-2e6b69636164,rev?*%
%TF.SameCoordinates,Original*%
%TF.FileFunction,Copper,L4,Bot*%
%TF.FilePolarity,Positive*%
%FSLAX46Y46*%
G04 Gerber Fmt 4.6, Leading zero omitted, Abs format (unit mm)*
G04 Created by KiCad (PCBNEW (5.1.9)-1) date 2021-12-20 22:20:38*
%MOMM*%
%LPD*%
G01*
G04 APERTURE LIST*
%TA.AperFunction,ComponentPad*%
%ADD10C,2.000000*%
%TD*%
%TA.AperFunction,ComponentPad*%
%ADD11O,1.700000X1.700000*%
%TD*%
%TA.AperFunction,ComponentPad*%
%ADD12R,1.700000X1.700000*%
%TD*%
%TA.AperFunction,ComponentPad*%
%ADD13C,0.600000*%
%TD*%
%TA.AperFunction,ComponentPad*%
%ADD14O,2.100000X1.000000*%
%TD*%
%TA.AperFunction,ComponentPad*%
%ADD15O,1.600000X1.000000*%
%TD*%
%TA.AperFunction,ViaPad*%
%ADD16C,0.609600*%
%TD*%
%TA.AperFunction,Conductor*%
%ADD17C,0.406400*%
%TD*%
%TA.AperFunction,Conductor*%
%ADD18C,0.304800*%
%TD*%
%TA.AperFunction,Conductor*%
%ADD19C,0.127000*%
%TD*%
%TA.AperFunction,Conductor*%
%ADD20C,0.152400*%
%TD*%
%TA.AperFunction,Conductor*%
%ADD21C,0.254000*%
%TD*%
%TA.AperFunction,Conductor*%
%ADD22C,0.100000*%
%TD*%
G04 APERTURE END LIST*
D10*
%TO.P,SW1,1*%
%TO.N,GND*%
X146376000Y-91590000D03*
%TO.P,SW1,2*%
%TO.N,/MCU/USB_BOOT*%
X150876000Y-91590000D03*
%TO.P,SW1,1*%
%TO.N,GND*%
X146376000Y-85090000D03*
%TO.P,SW1,2*%
%TO.N,/MCU/USB_BOOT*%
X150876000Y-85090000D03*
%TD*%
%TO.P,J6,1*%
%TO.N,GND*%
%TA.AperFunction,SMDPad,CuDef*%
G36*
G01*
X145034000Y-111887000D02*
X145034000Y-108077000D01*
G75*
G02*
X145669000Y-107442000I635000J0D01*
G01*
X146939000Y-107442000D01*
G75*
G02*
X147574000Y-108077000I0J-635000D01*
G01*
X147574000Y-111887000D01*
G75*
G02*
X146939000Y-112522000I-635000J0D01*
G01*
X145669000Y-112522000D01*
G75*
G02*
X145034000Y-111887000I0J635000D01*
G01*
G37*
%TD.AperFunction*%
%TD*%
%TO.P,J3,1*%
%TO.N,/MCU/SWDIO*%
%TA.AperFunction,SMDPad,CuDef*%
G36*
G01*
X144856200Y-103632000D02*
X144856200Y-99822000D01*
G75*
G02*
X145491200Y-99187000I635000J0D01*
G01*
X146761200Y-99187000D01*
G75*
G02*
X147396200Y-99822000I0J-635000D01*
G01*
X147396200Y-103632000D01*
G75*
G02*
X146761200Y-104267000I-635000J0D01*
G01*
X145491200Y-104267000D01*
G75*
G02*
X144856200Y-103632000I0J635000D01*
G01*
G37*
%TD.AperFunction*%
%TD*%
D11*
%TO.P,J5,3*%
%TO.N,Net-(D2-Pad1)*%
X137160000Y-116078000D03*
%TO.P,J5,2*%
%TO.N,Net-(J5-Pad2)*%
X134620000Y-116078000D03*
D12*
%TO.P,J5,1*%
%TO.N,GND*%
X132080000Y-116078000D03*
%TD*%
D11*
%TO.P,J4,3*%
%TO.N,Net-(D1-Pad1)*%
X147320000Y-116078000D03*
%TO.P,J4,2*%
%TO.N,Net-(J4-Pad2)*%
X144780000Y-116078000D03*
D12*
%TO.P,J4,1*%
%TO.N,GND*%
X142240000Y-116078000D03*
%TD*%
D10*
%TO.P,SW2,1*%
%TO.N,GND*%
X139192000Y-91590000D03*
%TO.P,SW2,2*%
%TO.N,Net-(SW2-Pad2)*%
X143692000Y-91590000D03*
%TO.P,SW2,1*%
%TO.N,GND*%
X139192000Y-85090000D03*
%TO.P,SW2,2*%
%TO.N,Net-(SW2-Pad2)*%
X143692000Y-85090000D03*
%TD*%
%TO.P,J2,1*%
%TO.N,/MCU/SWCLK*%
%TA.AperFunction,SMDPad,CuDef*%
G36*
G01*
X133604000Y-105029000D02*
X133604000Y-108839000D01*
G75*
G02*
X132969000Y-109474000I-635000J0D01*
G01*
X131699000Y-109474000D01*
G75*
G02*
X131064000Y-108839000I0J635000D01*
G01*
X131064000Y-105029000D01*
G75*
G02*
X131699000Y-104394000I635000J0D01*
G01*
X132969000Y-104394000D01*
G75*
G02*
X133604000Y-105029000I0J-635000D01*
G01*
G37*
%TD.AperFunction*%
%TD*%
D11*
%TO.P,J1,7*%
%TO.N,/CL*%
X128778000Y-125222000D03*
%TO.P,J1,6*%
%TO.N,/BL*%
X128778000Y-122682000D03*
%TO.P,J1,5*%
%TO.N,/AL*%
X128778000Y-120142000D03*
%TO.P,J1,4*%
%TO.N,/CH*%
X128778000Y-117602000D03*
%TO.P,J1,3*%
%TO.N,/BH*%
X128778000Y-115062000D03*
%TO.P,J1,2*%
%TO.N,/AH*%
X128778000Y-112522000D03*
D12*
%TO.P,J1,1*%
%TO.N,GND*%
X128778000Y-109982000D03*
%TD*%
D11*
%TO.P,J8,7*%
%TO.N,/TEMP*%
X150622000Y-125222000D03*
%TO.P,J8,6*%
%TO.N,/VBAT*%
X150622000Y-122682000D03*
%TO.P,J8,5*%
%TO.N,/IMON*%
X150622000Y-120142000D03*
%TO.P,J8,4*%
%TO.N,+3V3*%
X150622000Y-117602000D03*
%TO.P,J8,3*%
%TO.N,GND*%
X150622000Y-115062000D03*
%TO.P,J8,2*%
X150622000Y-112522000D03*
D12*
%TO.P,J8,1*%
%TO.N,VDD*%
X150622000Y-109982000D03*
%TD*%
D13*
%TO.P,U9,57*%
%TO.N,GND*%
X139959000Y-105913000D03*
X139959000Y-107188000D03*
X139959000Y-108463000D03*
X138684000Y-105913000D03*
X138684000Y-107188000D03*
X138684000Y-108463000D03*
X137409000Y-105913000D03*
X137409000Y-107188000D03*
X137409000Y-108463000D03*
%TD*%
D14*
%TO.P,J7,S1*%
%TO.N,Net-(J7-PadS1)*%
X133940000Y-93220000D03*
X133940000Y-84580000D03*
D15*
X129760000Y-84580000D03*
X129760000Y-93220000D03*
%TD*%
D16*
%TO.N,GND*%
X133858000Y-109855000D03*
X132613400Y-112521990D03*
X131267200Y-112496600D03*
X144322800Y-112331500D03*
X144195800Y-107213400D03*
X144056100Y-96189800D03*
X137541000Y-85699600D03*
X137744200Y-90830400D03*
X135991600Y-92329000D03*
X138633200Y-93446594D03*
X130378198Y-107035600D03*
X130810000Y-100533200D03*
X132714994Y-85470994D03*
X142925800Y-112522000D03*
X131445000Y-101828600D03*
X142494000Y-93294200D03*
X135661400Y-101066600D03*
X130810000Y-102438200D03*
X133451600Y-96037400D03*
X134543800Y-95986600D03*
X134518400Y-98272600D03*
X136296400Y-97383600D03*
X136347200Y-96088200D03*
X127711200Y-121462800D03*
X127685800Y-124002800D03*
X151612600Y-118948200D03*
X151638000Y-121361200D03*
X151663400Y-123952000D03*
X149580600Y-106959400D03*
X148056600Y-96926400D03*
X148793200Y-96215200D03*
X151815800Y-93192600D03*
X129413000Y-86156800D03*
X129362200Y-87223600D03*
X129362200Y-88493600D03*
X129362200Y-89890600D03*
X129362200Y-91465400D03*
X132359400Y-92151200D03*
X132334000Y-86715600D03*
X146177000Y-97129600D03*
X145542000Y-97586800D03*
X132334000Y-90424000D03*
X132384800Y-88366600D03*
X139700000Y-98425000D03*
X145669000Y-105410000D03*
X144907000Y-109347000D03*
X148590000Y-114681000D03*
X148602986Y-111506000D03*
X142875000Y-96393000D03*
X142367002Y-101092000D03*
X149225000Y-97282000D03*
X149098000Y-100457000D03*
X129540000Y-99822000D03*
X131064000Y-110032800D03*
X139827000Y-113538000D03*
X150393400Y-99314000D03*
X129921000Y-94996000D03*
X130048000Y-96520000D03*
X129921000Y-98171000D03*
X134239000Y-97282000D03*
X141351000Y-85598000D03*
X148844000Y-85217000D03*
X141605000Y-84836000D03*
X134239000Y-123571000D03*
X135636000Y-123571000D03*
X137160000Y-123571000D03*
X139192000Y-123571000D03*
X141224000Y-123444000D03*
X143637000Y-123698000D03*
X145034000Y-123444000D03*
X132969000Y-120269000D03*
X133731000Y-122174000D03*
X136779000Y-122301000D03*
X140462000Y-122301000D03*
X143002000Y-122428000D03*
X145669000Y-121920000D03*
X148844000Y-120904000D03*
X130175000Y-116332000D03*
X130429000Y-112903000D03*
X130302000Y-118872000D03*
X130048000Y-121285000D03*
X146939000Y-117856000D03*
X148463000Y-107442000D03*
X149352000Y-108585000D03*
X148971000Y-103124000D03*
X149479000Y-90424000D03*
X150495000Y-93345000D03*
X142113000Y-92456000D03*
X131318000Y-89281000D03*
X128651000Y-105918000D03*
X128651000Y-107696000D03*
%TO.N,VDD*%
X137185400Y-92684600D03*
%TO.N,+3V3*%
X136575800Y-94742000D03*
X147955000Y-99847400D03*
X144068800Y-99034600D03*
X142392400Y-110566200D03*
X141046204Y-95123000D03*
X138684000Y-113093490D03*
X136437323Y-101174466D03*
X133451594Y-100888800D03*
X142163802Y-103327200D03*
X136194800Y-106984800D03*
X131826000Y-114300000D03*
X144259290Y-108077000D03*
X133604000Y-110998000D03*
%TO.N,/IMON*%
X141399342Y-111692816D03*
%TO.N,/MCU/+1.1V*%
X141185900Y-106740649D03*
X134213600Y-107696000D03*
%TO.N,/TEMP_MOT*%
X140843000Y-109728000D03*
X142494000Y-121285000D03*
%TO.N,/HALLC*%
X135128000Y-104140000D03*
X140335000Y-117094000D03*
%TO.N,/HALLB*%
X135636000Y-103378000D03*
X139446010Y-116446290D03*
%TO.N,/HALLA*%
X137033000Y-104521000D03*
X135636000Y-113538000D03*
%TO.N,/MCU/SWCLK*%
X136127998Y-108188000D03*
%TO.N,/MCU/SWDIO*%
X134226290Y-108508800D03*
%TO.N,/VBAT*%
X142113000Y-113792000D03*
%TO.N,/USB_DM*%
X141197965Y-108458846D03*
X138557000Y-89027000D03*
%TO.N,/USB_DP*%
X141147800Y-107594400D03*
X138302992Y-87884000D03*
%TO.N,/MCU/LED1*%
X149987000Y-104140000D03*
X139445984Y-109728000D03*
%TO.N,/MCU/LED2*%
X129413000Y-104267000D03*
X139446000Y-111587590D03*
%TO.N,/AL*%
X136155454Y-104892600D03*
%TO.N,/AH*%
X136144000Y-105791000D03*
%TO.N,/CANRX*%
X140843000Y-96012000D03*
X138049000Y-109815328D03*
%TO.N,/MCU/CAN_nCS*%
X140766800Y-102006408D03*
X141701180Y-100426173D03*
%TO.N,/MCU/CAN_COPI*%
X139293600Y-100609408D03*
X139065000Y-97409000D03*
%TO.N,/MCU/nCANINT*%
X139141200Y-99720400D03*
X138455390Y-101498400D03*
%TO.N,/MCU/nRX0BF*%
X136448800Y-98653600D03*
X138286479Y-102353121D03*
%TO.N,/MCU/nRX1BF*%
X136144000Y-99644200D03*
X137414000Y-102438200D03*
%TO.N,/CL*%
X135128000Y-111633000D03*
%TO.N,/CH*%
X136525000Y-109728000D03*
%TO.N,/TEMP*%
X141274691Y-113842691D03*
%TO.N,Net-(SW2-Pad2)*%
X138484000Y-111426602D03*
%TO.N,Net-(D1-Pad1)*%
X134747000Y-113157000D03*
%TD*%
D17*
%TO.N,GND*%
X147427768Y-111506000D02*
X148602986Y-111506000D01*
X146558036Y-110636268D02*
X147427768Y-111506000D01*
X146558036Y-110020500D02*
X146558036Y-110636268D01*
D18*
%TO.N,VDD*%
X151003000Y-109601000D02*
X150622000Y-109982000D01*
X148590000Y-92583000D02*
X151003000Y-94996000D01*
X148590000Y-88900000D02*
X148590000Y-92583000D01*
X146685000Y-86995000D02*
X148590000Y-88900000D01*
X139192000Y-86995000D02*
X146685000Y-86995000D01*
X151003000Y-94996000D02*
X151003000Y-109601000D01*
X138811000Y-86614000D02*
X139192000Y-86995000D01*
X137541000Y-86614000D02*
X138811000Y-86614000D01*
X136652000Y-87503000D02*
X137541000Y-86614000D01*
X136652000Y-91313000D02*
X136652000Y-87503000D01*
X137185400Y-91846400D02*
X136652000Y-91313000D01*
X137185400Y-92684600D02*
X137185400Y-91846400D01*
%TO.N,+3V3*%
X140665204Y-94742000D02*
X141046204Y-95123000D01*
X136575800Y-94742000D02*
X140665204Y-94742000D01*
X136437323Y-101174466D02*
X135706989Y-101904800D01*
X135706989Y-101904800D02*
X134467594Y-101904800D01*
X134467594Y-101904800D02*
X133451594Y-100888800D01*
X147955000Y-99847400D02*
X147955000Y-98780600D01*
X147955000Y-98780600D02*
X147675600Y-98501200D01*
X144602200Y-98501200D02*
X144068800Y-99034600D01*
X147675600Y-98501200D02*
X144602200Y-98501200D01*
X142163802Y-103327200D02*
X143510000Y-104673398D01*
X143510000Y-107758762D02*
X143828238Y-108077000D01*
X143510000Y-104673398D02*
X143510000Y-107758762D01*
X143828238Y-108077000D02*
X144259290Y-108077000D01*
X135509000Y-109093000D02*
X133604000Y-110998000D01*
X135509000Y-107670600D02*
X135509000Y-109093000D01*
X136194800Y-106984800D02*
X135509000Y-107670600D01*
X144259290Y-108216710D02*
X144259290Y-108077000D01*
X143764000Y-108712000D02*
X144259290Y-108216710D01*
X143764000Y-109194600D02*
X143764000Y-108712000D01*
X142392400Y-110566200D02*
X143764000Y-109194600D01*
X142392400Y-112141000D02*
X142392400Y-110566200D01*
X141833600Y-112699800D02*
X142392400Y-112141000D01*
X139077690Y-112699800D02*
X141833600Y-112699800D01*
X138684000Y-113093490D02*
X139077690Y-112699800D01*
X144145000Y-99110800D02*
X144068800Y-99034600D01*
X144145000Y-101346002D02*
X144145000Y-99110800D01*
X142163802Y-103327200D02*
X144145000Y-101346002D01*
D19*
%TO.N,/HALLA*%
X135636000Y-113538000D02*
X135636000Y-112522000D01*
%TO.N,/MCU/SWCLK*%
X132334000Y-106934000D02*
X132334000Y-111125000D01*
X132334000Y-111125000D02*
X132842000Y-111633000D01*
X132842000Y-111633000D02*
X133781800Y-111633000D01*
X133781800Y-111633000D02*
X136127998Y-109286802D01*
X136127998Y-109286802D02*
X136127998Y-108188000D01*
%TO.N,/MCU/SWDIO*%
X135001000Y-107315000D02*
X135001000Y-107734090D01*
X136525000Y-106426000D02*
X135890000Y-106426000D01*
X135890000Y-106426000D02*
X135001000Y-107315000D01*
X136779000Y-106680000D02*
X136525000Y-106426000D01*
X135001000Y-107734090D02*
X134226290Y-108508800D01*
X137160000Y-109474000D02*
X136779000Y-109093000D01*
X137160000Y-112649000D02*
X137160000Y-109474000D01*
X146304000Y-103124000D02*
X144792695Y-104635305D01*
X144792695Y-104635305D02*
X144792695Y-108572305D01*
X144792695Y-108572305D02*
X144272000Y-109093000D01*
X144272000Y-111429800D02*
X143637000Y-112064800D01*
X136779000Y-109093000D02*
X136779000Y-106680000D01*
X144272000Y-109093000D02*
X144272000Y-111429800D01*
X143637000Y-112064800D02*
X143637000Y-113080800D01*
X141147800Y-113233200D02*
X140208000Y-114173000D01*
X143637000Y-113080800D02*
X143484600Y-113233200D01*
X138748944Y-114173000D02*
X137896600Y-113320656D01*
X140208000Y-114173000D02*
X138748944Y-114173000D01*
X143484600Y-113233200D02*
X141147800Y-113233200D01*
X137896600Y-113320656D02*
X137831656Y-113320656D01*
X137831656Y-113320656D02*
X137160000Y-112649000D01*
%TO.N,/USB_DM*%
X141020800Y-97440750D02*
X142036800Y-96424750D01*
X141782800Y-105676700D02*
X139725400Y-103619300D01*
X141782800Y-107874011D02*
X141782800Y-105676700D01*
X139725400Y-102082600D02*
X141020800Y-100787200D01*
X141452600Y-93446600D02*
X141452600Y-91109800D01*
X141197965Y-108458846D02*
X141782800Y-107874011D01*
X141020800Y-100787200D02*
X141020800Y-97440750D01*
X139369800Y-89027000D02*
X138557000Y-89027000D01*
X141452600Y-91109800D02*
X139369800Y-89027000D01*
X139725400Y-103619300D02*
X139725400Y-102082600D01*
X142036800Y-96424750D02*
X142036800Y-94030800D01*
X142036800Y-94030800D02*
X141452600Y-93446600D01*
%TO.N,/USB_DP*%
X137795000Y-88391992D02*
X138302992Y-87884000D01*
X137795000Y-89789000D02*
X137795000Y-88391992D01*
X141147800Y-107594400D02*
X140589000Y-107035600D01*
X140665200Y-100634800D02*
X140665200Y-97205800D01*
X141655800Y-96215200D02*
X141655800Y-94132400D01*
X140589000Y-107035600D02*
X140589000Y-105029000D01*
X140665200Y-97205800D02*
X141655800Y-96215200D01*
X137922000Y-89916000D02*
X137795000Y-89789000D01*
X141046200Y-93522800D02*
X141046200Y-91262200D01*
X140589000Y-105029000D02*
X139369800Y-103809800D01*
X139369800Y-103809800D02*
X139369800Y-101930200D01*
X139369800Y-101930200D02*
X140665200Y-100634800D01*
X141655800Y-94132400D02*
X141046200Y-93522800D01*
X141046200Y-91262200D02*
X139700000Y-89916000D01*
X139700000Y-89916000D02*
X137922000Y-89916000D01*
%TO.N,/MCU/LED1*%
X139446000Y-109728000D02*
X139445984Y-109728000D01*
X140081000Y-110363000D02*
X139446000Y-109728000D01*
X142646410Y-109321590D02*
X141605000Y-110363000D01*
X149987000Y-104140000D02*
X149682201Y-103835201D01*
X141643101Y-103797101D02*
X142646410Y-104800410D01*
X149682201Y-103835201D02*
X149682201Y-99390201D01*
X149682201Y-99390201D02*
X148082000Y-97790000D01*
X148082000Y-97790000D02*
X147764499Y-98107501D01*
X147764499Y-98107501D02*
X144208499Y-98107501D01*
X144208499Y-98107501D02*
X143230610Y-99085390D01*
X143230610Y-99085390D02*
X143230610Y-101514171D01*
X143230610Y-101514171D02*
X142621000Y-102123781D01*
X142621000Y-102123781D02*
X142605219Y-102123781D01*
X142605219Y-102123781D02*
X141643101Y-103085899D01*
X141643101Y-103085899D02*
X141643101Y-103797101D01*
X141605000Y-110363000D02*
X140081000Y-110363000D01*
X142646410Y-104800410D02*
X142646410Y-109321590D01*
%TO.N,/MCU/LED2*%
X129921000Y-104267000D02*
X131064000Y-103124000D01*
X137439410Y-111531410D02*
X138049000Y-112141000D01*
X134747000Y-103124000D02*
X135128000Y-102743000D01*
X129413000Y-104267000D02*
X129921000Y-104267000D01*
X131064000Y-103124000D02*
X134747000Y-103124000D01*
X137439410Y-109575590D02*
X137439410Y-111531410D01*
X138892590Y-112141000D02*
X139446000Y-111587590D01*
X135128000Y-102743000D02*
X136779000Y-102743000D01*
X131064000Y-103124000D02*
X131699000Y-103124000D01*
X138049000Y-108966000D02*
X137439410Y-109575590D01*
X136779000Y-102743000D02*
X138049000Y-104013000D01*
X138049000Y-104013000D02*
X138049000Y-108966000D01*
X138049000Y-112141000D02*
X138892590Y-112141000D01*
%TO.N,/AL*%
X128143000Y-111252000D02*
X128016000Y-111252000D01*
X127508000Y-118872000D02*
X128778000Y-120142000D01*
X127508000Y-111506000D02*
X127508000Y-118872000D01*
X127762000Y-111252000D02*
X127508000Y-111506000D01*
X128143000Y-111252000D02*
X127762000Y-111252000D01*
X129784522Y-111252000D02*
X128143000Y-111252000D01*
X130022590Y-111013932D02*
X129784522Y-111252000D01*
X130022590Y-108813590D02*
X130022590Y-111013932D01*
X129413000Y-105410000D02*
X129413000Y-108204000D01*
X129413000Y-108204000D02*
X130022590Y-108813590D01*
X131191000Y-103632000D02*
X129413000Y-105410000D01*
X133477000Y-103632000D02*
X131191000Y-103632000D01*
X134737600Y-104892600D02*
X133477000Y-103632000D01*
X136155454Y-104892600D02*
X134737600Y-104892600D01*
%TO.N,/AH*%
X133350000Y-104013000D02*
X135128000Y-105791000D01*
X135128000Y-105791000D02*
X136144000Y-105791000D01*
X131318000Y-104013000D02*
X133350000Y-104013000D01*
X129794000Y-107950000D02*
X129794000Y-105537000D01*
X130429000Y-108585000D02*
X129794000Y-107950000D01*
X129794000Y-105537000D02*
X131318000Y-104013000D01*
X130429000Y-111887000D02*
X130429000Y-108585000D01*
X129794000Y-112522000D02*
X130429000Y-111887000D01*
X128778000Y-112522000D02*
X129794000Y-112522000D01*
%TO.N,/CANRX*%
X138410164Y-109220000D02*
X138049000Y-109581164D01*
X139319000Y-108591534D02*
X138690534Y-109220000D01*
X139319000Y-105283000D02*
X139319000Y-108591534D01*
X138049000Y-109581164D02*
X138049000Y-109815328D01*
X139065000Y-105029000D02*
X139319000Y-105283000D01*
X139065000Y-101727000D02*
X139065000Y-105029000D01*
X140335000Y-100457000D02*
X139065000Y-101727000D01*
X140335000Y-96520000D02*
X140335000Y-100457000D01*
X138690534Y-109220000D02*
X138410164Y-109220000D01*
X140843000Y-96012000D02*
X140335000Y-96520000D01*
%TO.N,/MCU/CAN_nCS*%
X140766800Y-102006408D02*
X141701180Y-101072028D01*
X141701180Y-101072028D02*
X141701180Y-100426173D01*
D20*
%TO.N,/MCU/CAN_COPI*%
X139065000Y-98679000D02*
X139065000Y-97409000D01*
X139776200Y-99390200D02*
X139065000Y-98679000D01*
X139776200Y-100126808D02*
X139776200Y-99390200D01*
X139293600Y-100609408D02*
X139776200Y-100126808D01*
%TO.N,/MCU/nCANINT*%
X138455390Y-100406210D02*
X138455390Y-101498400D01*
X139141200Y-99720400D02*
X138455390Y-100406210D01*
D19*
%TO.N,/MCU/nRX0BF*%
X137871200Y-101937842D02*
X138286479Y-102353121D01*
X137871200Y-100076000D02*
X137871200Y-101937842D01*
X136448800Y-98653600D02*
X137871200Y-100076000D01*
D20*
%TO.N,/MCU/nRX1BF*%
X137541000Y-102311200D02*
X137414000Y-102438200D01*
X137541000Y-100660200D02*
X137541000Y-102311200D01*
X136525000Y-99644200D02*
X137541000Y-100660200D01*
X136144000Y-99644200D02*
X136525000Y-99644200D01*
D19*
%TO.N,/CL*%
X130683000Y-123317000D02*
X128778000Y-125222000D01*
X130683000Y-120523000D02*
X130683000Y-123317000D01*
X133502410Y-117703590D02*
X130683000Y-120523000D01*
X133502410Y-113258590D02*
X133502410Y-117703590D01*
X135128000Y-111633000D02*
X133502410Y-113258590D01*
%TO.N,/CH*%
X132842000Y-117602000D02*
X128778000Y-117602000D01*
X133223000Y-117221000D02*
X132842000Y-117602000D01*
X133223000Y-112586944D02*
X133223000Y-117221000D01*
X136081944Y-109728000D02*
X133223000Y-112586944D01*
X136525000Y-109728000D02*
X136081944Y-109728000D01*
%TO.N,Net-(SW2-Pad2)*%
X142113000Y-109093000D02*
X139319000Y-109093000D01*
X142951200Y-100761800D02*
X142951200Y-101398436D01*
X138684000Y-109728000D02*
X138684000Y-111226602D01*
X144691999Y-92589999D02*
X144691999Y-96506401D01*
X142875000Y-98323400D02*
X142875000Y-100685600D01*
X143692000Y-91590000D02*
X144691999Y-92589999D01*
X140741400Y-102946200D02*
X140741400Y-104063800D01*
X138684000Y-111226602D02*
X138484000Y-111426602D01*
X142875000Y-100685600D02*
X142951200Y-100761800D01*
X142367000Y-105689400D02*
X142367000Y-108839000D01*
X142951200Y-101398436D02*
X142675678Y-101673958D01*
X139319000Y-109093000D02*
X138684000Y-109728000D01*
X142367000Y-108839000D02*
X142113000Y-109093000D01*
X142675678Y-101673958D02*
X142013642Y-101673958D01*
X142013642Y-101673958D02*
X140741400Y-102946200D01*
X144691999Y-96506401D02*
X142875000Y-98323400D01*
X140741400Y-104063800D02*
X142367000Y-105689400D01*
%TO.N,Net-(D1-Pad1)*%
X146050000Y-114427000D02*
X147320000Y-115697000D01*
X147320000Y-115697000D02*
X147320000Y-116078000D01*
X140716000Y-114427000D02*
X146050000Y-114427000D01*
X138430000Y-115316000D02*
X139827000Y-115316000D01*
X137541000Y-114427000D02*
X138430000Y-115316000D01*
X134747000Y-113665000D02*
X135509000Y-114427000D01*
X139827000Y-115316000D02*
X140716000Y-114427000D01*
X135509000Y-114427000D02*
X137541000Y-114427000D01*
X134747000Y-113157000D02*
X134747000Y-113665000D01*
%TD*%
D21*
%TO.N,GND*%
X151092771Y-83233201D02*
X151301296Y-83296158D01*
X151493613Y-83398415D01*
X151662410Y-83536082D01*
X151801250Y-83703911D01*
X151904848Y-83895513D01*
X151969258Y-84103588D01*
X151986327Y-84265988D01*
X151948693Y-84209664D01*
X151756336Y-84017307D01*
X151530149Y-83866174D01*
X151278823Y-83762071D01*
X151012017Y-83709000D01*
X150739983Y-83709000D01*
X150473177Y-83762071D01*
X150221851Y-83866174D01*
X149995664Y-84017307D01*
X149803307Y-84209664D01*
X149652174Y-84435851D01*
X149548071Y-84687177D01*
X149495000Y-84953983D01*
X149495000Y-85226017D01*
X149548071Y-85492823D01*
X149652174Y-85744149D01*
X149803307Y-85970336D01*
X149995664Y-86162693D01*
X150221851Y-86313826D01*
X150473177Y-86417929D01*
X150739983Y-86471000D01*
X151012017Y-86471000D01*
X151278823Y-86417929D01*
X151530149Y-86313826D01*
X151756336Y-86162693D01*
X151948693Y-85970336D01*
X151994001Y-85902528D01*
X151994001Y-90777472D01*
X151948693Y-90709664D01*
X151756336Y-90517307D01*
X151530149Y-90366174D01*
X151278823Y-90262071D01*
X151012017Y-90209000D01*
X150739983Y-90209000D01*
X150473177Y-90262071D01*
X150221851Y-90366174D01*
X149995664Y-90517307D01*
X149803307Y-90709664D01*
X149652174Y-90935851D01*
X149548071Y-91187177D01*
X149495000Y-91453983D01*
X149495000Y-91726017D01*
X149548071Y-91992823D01*
X149652174Y-92244149D01*
X149803307Y-92470336D01*
X149995664Y-92662693D01*
X150221851Y-92813826D01*
X150473177Y-92917929D01*
X150739983Y-92971000D01*
X151012017Y-92971000D01*
X151278823Y-92917929D01*
X151530149Y-92813826D01*
X151756336Y-92662693D01*
X151948693Y-92470336D01*
X151994001Y-92402528D01*
X151994000Y-125456147D01*
X151970799Y-125692775D01*
X151907841Y-125901296D01*
X151805583Y-126093616D01*
X151667918Y-126262409D01*
X151500090Y-126401249D01*
X151308491Y-126504847D01*
X151100414Y-126569258D01*
X150865009Y-126594000D01*
X128543853Y-126594000D01*
X128307225Y-126570799D01*
X128098704Y-126507841D01*
X127906384Y-126405583D01*
X127737591Y-126267918D01*
X127598751Y-126100090D01*
X127495153Y-125908491D01*
X127430742Y-125700414D01*
X127406000Y-125465009D01*
X127406000Y-122560757D01*
X127547000Y-122560757D01*
X127547000Y-122803243D01*
X127594307Y-123041069D01*
X127687102Y-123265097D01*
X127821820Y-123466717D01*
X127993283Y-123638180D01*
X128194903Y-123772898D01*
X128418931Y-123865693D01*
X128656757Y-123913000D01*
X128899243Y-123913000D01*
X129137069Y-123865693D01*
X129361097Y-123772898D01*
X129562717Y-123638180D01*
X129734180Y-123466717D01*
X129868898Y-123265097D01*
X129961693Y-123041069D01*
X130009000Y-122803243D01*
X130009000Y-122560757D01*
X129961693Y-122322931D01*
X129868898Y-122098903D01*
X129734180Y-121897283D01*
X129562717Y-121725820D01*
X129361097Y-121591102D01*
X129137069Y-121498307D01*
X128899243Y-121451000D01*
X128656757Y-121451000D01*
X128418931Y-121498307D01*
X128194903Y-121591102D01*
X127993283Y-121725820D01*
X127821820Y-121897283D01*
X127687102Y-122098903D01*
X127594307Y-122322931D01*
X127547000Y-122560757D01*
X127406000Y-122560757D01*
X127406000Y-119398617D01*
X127651716Y-119644333D01*
X127594307Y-119782931D01*
X127547000Y-120020757D01*
X127547000Y-120263243D01*
X127594307Y-120501069D01*
X127687102Y-120725097D01*
X127821820Y-120926717D01*
X127993283Y-121098180D01*
X128194903Y-121232898D01*
X128418931Y-121325693D01*
X128656757Y-121373000D01*
X128899243Y-121373000D01*
X129137069Y-121325693D01*
X129361097Y-121232898D01*
X129562717Y-121098180D01*
X129734180Y-120926717D01*
X129868898Y-120725097D01*
X129961693Y-120501069D01*
X130009000Y-120263243D01*
X130009000Y-120020757D01*
X129961693Y-119782931D01*
X129868898Y-119558903D01*
X129734180Y-119357283D01*
X129562717Y-119185820D01*
X129361097Y-119051102D01*
X129137069Y-118958307D01*
X128899243Y-118911000D01*
X128656757Y-118911000D01*
X128418931Y-118958307D01*
X128280333Y-119015716D01*
X127952500Y-118687883D01*
X127952500Y-118517397D01*
X127993283Y-118558180D01*
X128194903Y-118692898D01*
X128418931Y-118785693D01*
X128656757Y-118833000D01*
X128899243Y-118833000D01*
X129137069Y-118785693D01*
X129361097Y-118692898D01*
X129562717Y-118558180D01*
X129734180Y-118386717D01*
X129868898Y-118185097D01*
X129926306Y-118046500D01*
X132530882Y-118046500D01*
X130384130Y-120193253D01*
X130367171Y-120207171D01*
X130353255Y-120224128D01*
X130311624Y-120274855D01*
X130291275Y-120312925D01*
X130270349Y-120352075D01*
X130244932Y-120435864D01*
X130238500Y-120501171D01*
X130238500Y-120501180D01*
X130236351Y-120523000D01*
X130238500Y-120544820D01*
X130238501Y-123132881D01*
X129275667Y-124095716D01*
X129137069Y-124038307D01*
X128899243Y-123991000D01*
X128656757Y-123991000D01*
X128418931Y-124038307D01*
X128194903Y-124131102D01*
X127993283Y-124265820D01*
X127821820Y-124437283D01*
X127687102Y-124638903D01*
X127594307Y-124862931D01*
X127547000Y-125100757D01*
X127547000Y-125343243D01*
X127594307Y-125581069D01*
X127687102Y-125805097D01*
X127821820Y-126006717D01*
X127993283Y-126178180D01*
X128194903Y-126312898D01*
X128418931Y-126405693D01*
X128656757Y-126453000D01*
X128899243Y-126453000D01*
X129137069Y-126405693D01*
X129361097Y-126312898D01*
X129562717Y-126178180D01*
X129734180Y-126006717D01*
X129868898Y-125805097D01*
X129961693Y-125581069D01*
X130009000Y-125343243D01*
X130009000Y-125100757D01*
X149391000Y-125100757D01*
X149391000Y-125343243D01*
X149438307Y-125581069D01*
X149531102Y-125805097D01*
X149665820Y-126006717D01*
X149837283Y-126178180D01*
X150038903Y-126312898D01*
X150262931Y-126405693D01*
X150500757Y-126453000D01*
X150743243Y-126453000D01*
X150981069Y-126405693D01*
X151205097Y-126312898D01*
X151406717Y-126178180D01*
X151578180Y-126006717D01*
X151712898Y-125805097D01*
X151805693Y-125581069D01*
X151853000Y-125343243D01*
X151853000Y-125100757D01*
X151805693Y-124862931D01*
X151712898Y-124638903D01*
X151578180Y-124437283D01*
X151406717Y-124265820D01*
X151205097Y-124131102D01*
X150981069Y-124038307D01*
X150743243Y-123991000D01*
X150500757Y-123991000D01*
X150262931Y-124038307D01*
X150038903Y-124131102D01*
X149837283Y-124265820D01*
X149665820Y-124437283D01*
X149531102Y-124638903D01*
X149438307Y-124862931D01*
X149391000Y-125100757D01*
X130009000Y-125100757D01*
X129961693Y-124862931D01*
X129904284Y-124724333D01*
X130981876Y-123646742D01*
X130998829Y-123632829D01*
X131012742Y-123615876D01*
X131012745Y-123615873D01*
X131054376Y-123565146D01*
X131095651Y-123487926D01*
X131121068Y-123404137D01*
X131127500Y-123338830D01*
X131127500Y-123338820D01*
X131129649Y-123317000D01*
X131127500Y-123295180D01*
X131127500Y-122560757D01*
X149391000Y-122560757D01*
X149391000Y-122803243D01*
X149438307Y-123041069D01*
X149531102Y-123265097D01*
X149665820Y-123466717D01*
X149837283Y-123638180D01*
X150038903Y-123772898D01*
X150262931Y-123865693D01*
X150500757Y-123913000D01*
X150743243Y-123913000D01*
X150981069Y-123865693D01*
X151205097Y-123772898D01*
X151406717Y-123638180D01*
X151578180Y-123466717D01*
X151712898Y-123265097D01*
X151805693Y-123041069D01*
X151853000Y-122803243D01*
X151853000Y-122560757D01*
X151805693Y-122322931D01*
X151712898Y-122098903D01*
X151578180Y-121897283D01*
X151406717Y-121725820D01*
X151205097Y-121591102D01*
X150981069Y-121498307D01*
X150743243Y-121451000D01*
X150500757Y-121451000D01*
X150262931Y-121498307D01*
X150038903Y-121591102D01*
X149837283Y-121725820D01*
X149665820Y-121897283D01*
X149531102Y-122098903D01*
X149438307Y-122322931D01*
X149391000Y-122560757D01*
X131127500Y-122560757D01*
X131127500Y-121217455D01*
X141808200Y-121217455D01*
X141808200Y-121352545D01*
X141834555Y-121485040D01*
X141886252Y-121609848D01*
X141961305Y-121722172D01*
X142056828Y-121817695D01*
X142169152Y-121892748D01*
X142293960Y-121944445D01*
X142426455Y-121970800D01*
X142561545Y-121970800D01*
X142694040Y-121944445D01*
X142818848Y-121892748D01*
X142931172Y-121817695D01*
X143026695Y-121722172D01*
X143101748Y-121609848D01*
X143153445Y-121485040D01*
X143179800Y-121352545D01*
X143179800Y-121217455D01*
X143153445Y-121084960D01*
X143101748Y-120960152D01*
X143026695Y-120847828D01*
X142931172Y-120752305D01*
X142818848Y-120677252D01*
X142694040Y-120625555D01*
X142561545Y-120599200D01*
X142426455Y-120599200D01*
X142293960Y-120625555D01*
X142169152Y-120677252D01*
X142056828Y-120752305D01*
X141961305Y-120847828D01*
X141886252Y-120960152D01*
X141834555Y-121084960D01*
X141808200Y-121217455D01*
X131127500Y-121217455D01*
X131127500Y-120707117D01*
X131813860Y-120020757D01*
X149391000Y-120020757D01*
X149391000Y-120263243D01*
X149438307Y-120501069D01*
X149531102Y-120725097D01*
X149665820Y-120926717D01*
X149837283Y-121098180D01*
X150038903Y-121232898D01*
X150262931Y-121325693D01*
X150500757Y-121373000D01*
X150743243Y-121373000D01*
X150981069Y-121325693D01*
X151205097Y-121232898D01*
X151406717Y-121098180D01*
X151578180Y-120926717D01*
X151712898Y-120725097D01*
X151805693Y-120501069D01*
X151853000Y-120263243D01*
X151853000Y-120020757D01*
X151805693Y-119782931D01*
X151712898Y-119558903D01*
X151578180Y-119357283D01*
X151406717Y-119185820D01*
X151205097Y-119051102D01*
X150981069Y-118958307D01*
X150743243Y-118911000D01*
X150500757Y-118911000D01*
X150262931Y-118958307D01*
X150038903Y-119051102D01*
X149837283Y-119185820D01*
X149665820Y-119357283D01*
X149531102Y-119558903D01*
X149438307Y-119782931D01*
X149391000Y-120020757D01*
X131813860Y-120020757D01*
X133801286Y-118033332D01*
X133818239Y-118019419D01*
X133832152Y-118002466D01*
X133832155Y-118002463D01*
X133873786Y-117951736D01*
X133915061Y-117874516D01*
X133922454Y-117850145D01*
X133940478Y-117790727D01*
X133946910Y-117725420D01*
X133946910Y-117725410D01*
X133949059Y-117703590D01*
X133946910Y-117681770D01*
X133946910Y-117108767D01*
X134036903Y-117168898D01*
X134260931Y-117261693D01*
X134498757Y-117309000D01*
X134741243Y-117309000D01*
X134979069Y-117261693D01*
X135203097Y-117168898D01*
X135404717Y-117034180D01*
X135576180Y-116862717D01*
X135710898Y-116661097D01*
X135803693Y-116437069D01*
X135851000Y-116199243D01*
X135851000Y-115956757D01*
X135803693Y-115718931D01*
X135710898Y-115494903D01*
X135576180Y-115293283D01*
X135404717Y-115121820D01*
X135203097Y-114987102D01*
X134979069Y-114894307D01*
X134741243Y-114847000D01*
X134498757Y-114847000D01*
X134260931Y-114894307D01*
X134036903Y-114987102D01*
X133946910Y-115047233D01*
X133946910Y-113442707D01*
X134078434Y-113311184D01*
X134087555Y-113357040D01*
X134139252Y-113481848D01*
X134214305Y-113594172D01*
X134302014Y-113681881D01*
X134308933Y-113752137D01*
X134334349Y-113835925D01*
X134375624Y-113913145D01*
X134417255Y-113963872D01*
X134417259Y-113963876D01*
X134431172Y-113980829D01*
X134448125Y-113994742D01*
X135179258Y-114725876D01*
X135193171Y-114742829D01*
X135210124Y-114756742D01*
X135210127Y-114756745D01*
X135260854Y-114798376D01*
X135325060Y-114832695D01*
X135338074Y-114839651D01*
X135421863Y-114865068D01*
X135487170Y-114871500D01*
X135487180Y-114871500D01*
X135509000Y-114873649D01*
X135530820Y-114871500D01*
X136915588Y-114871500D01*
X136800931Y-114894307D01*
X136576903Y-114987102D01*
X136375283Y-115121820D01*
X136203820Y-115293283D01*
X136069102Y-115494903D01*
X135976307Y-115718931D01*
X135929000Y-115956757D01*
X135929000Y-116199243D01*
X135976307Y-116437069D01*
X136069102Y-116661097D01*
X136203820Y-116862717D01*
X136375283Y-117034180D01*
X136576903Y-117168898D01*
X136800931Y-117261693D01*
X137038757Y-117309000D01*
X137281243Y-117309000D01*
X137519069Y-117261693D01*
X137743097Y-117168898D01*
X137944717Y-117034180D01*
X138116180Y-116862717D01*
X138250898Y-116661097D01*
X138343693Y-116437069D01*
X138391000Y-116199243D01*
X138391000Y-115956757D01*
X138350838Y-115754853D01*
X138408170Y-115760500D01*
X138408180Y-115760500D01*
X138430000Y-115762649D01*
X138451820Y-115760500D01*
X139378415Y-115760500D01*
X139245970Y-115786845D01*
X139121162Y-115838542D01*
X139008838Y-115913595D01*
X138913315Y-116009118D01*
X138838262Y-116121442D01*
X138786565Y-116246250D01*
X138760210Y-116378745D01*
X138760210Y-116513835D01*
X138786565Y-116646330D01*
X138838262Y-116771138D01*
X138913315Y-116883462D01*
X139008838Y-116978985D01*
X139121162Y-117054038D01*
X139245970Y-117105735D01*
X139378465Y-117132090D01*
X139513555Y-117132090D01*
X139646050Y-117105735D01*
X139649200Y-117104430D01*
X139649200Y-117161545D01*
X139675555Y-117294040D01*
X139727252Y-117418848D01*
X139802305Y-117531172D01*
X139897828Y-117626695D01*
X140010152Y-117701748D01*
X140134960Y-117753445D01*
X140267455Y-117779800D01*
X140402545Y-117779800D01*
X140535040Y-117753445D01*
X140659848Y-117701748D01*
X140772172Y-117626695D01*
X140867695Y-117531172D01*
X140901381Y-117480757D01*
X149391000Y-117480757D01*
X149391000Y-117723243D01*
X149438307Y-117961069D01*
X149531102Y-118185097D01*
X149665820Y-118386717D01*
X149837283Y-118558180D01*
X150038903Y-118692898D01*
X150262931Y-118785693D01*
X150500757Y-118833000D01*
X150743243Y-118833000D01*
X150981069Y-118785693D01*
X151205097Y-118692898D01*
X151406717Y-118558180D01*
X151578180Y-118386717D01*
X151712898Y-118185097D01*
X151805693Y-117961069D01*
X151853000Y-117723243D01*
X151853000Y-117480757D01*
X151805693Y-117242931D01*
X151712898Y-117018903D01*
X151578180Y-116817283D01*
X151406717Y-116645820D01*
X151205097Y-116511102D01*
X150981069Y-116418307D01*
X150743243Y-116371000D01*
X150500757Y-116371000D01*
X150262931Y-116418307D01*
X150038903Y-116511102D01*
X149837283Y-116645820D01*
X149665820Y-116817283D01*
X149531102Y-117018903D01*
X149438307Y-117242931D01*
X149391000Y-117480757D01*
X140901381Y-117480757D01*
X140942748Y-117418848D01*
X140994445Y-117294040D01*
X141020800Y-117161545D01*
X141020800Y-117026455D01*
X141019043Y-117017623D01*
X141036299Y-117074508D01*
X141071678Y-117140696D01*
X141119289Y-117198711D01*
X141177304Y-117246322D01*
X141243492Y-117281701D01*
X141315311Y-117303487D01*
X141390000Y-117310843D01*
X142017750Y-117309000D01*
X142113000Y-117213750D01*
X142113000Y-116205000D01*
X142367000Y-116205000D01*
X142367000Y-117213750D01*
X142462250Y-117309000D01*
X143090000Y-117310843D01*
X143164689Y-117303487D01*
X143236508Y-117281701D01*
X143302696Y-117246322D01*
X143360711Y-117198711D01*
X143408322Y-117140696D01*
X143443701Y-117074508D01*
X143465487Y-117002689D01*
X143472843Y-116928000D01*
X143471000Y-116300250D01*
X143375750Y-116205000D01*
X142367000Y-116205000D01*
X142113000Y-116205000D01*
X141104250Y-116205000D01*
X141009000Y-116300250D01*
X141007157Y-116928000D01*
X141012983Y-116987159D01*
X140994445Y-116893960D01*
X140942748Y-116769152D01*
X140867695Y-116656828D01*
X140772172Y-116561305D01*
X140659848Y-116486252D01*
X140535040Y-116434555D01*
X140402545Y-116408200D01*
X140267455Y-116408200D01*
X140134960Y-116434555D01*
X140131810Y-116435860D01*
X140131810Y-116378745D01*
X140105455Y-116246250D01*
X140053758Y-116121442D01*
X139978705Y-116009118D01*
X139883182Y-115913595D01*
X139770858Y-115838542D01*
X139646050Y-115786845D01*
X139513605Y-115760500D01*
X139805180Y-115760500D01*
X139827000Y-115762649D01*
X139848820Y-115760500D01*
X139848830Y-115760500D01*
X139914137Y-115754068D01*
X139997926Y-115728651D01*
X140075145Y-115687376D01*
X140142829Y-115631829D01*
X140156746Y-115614871D01*
X140900118Y-114871500D01*
X141252719Y-114871500D01*
X141243492Y-114874299D01*
X141177304Y-114909678D01*
X141119289Y-114957289D01*
X141071678Y-115015304D01*
X141036299Y-115081492D01*
X141014513Y-115153311D01*
X141007157Y-115228000D01*
X141009000Y-115855750D01*
X141104250Y-115951000D01*
X142113000Y-115951000D01*
X142113000Y-115931000D01*
X142367000Y-115931000D01*
X142367000Y-115951000D01*
X143375750Y-115951000D01*
X143471000Y-115855750D01*
X143472843Y-115228000D01*
X143465487Y-115153311D01*
X143443701Y-115081492D01*
X143408322Y-115015304D01*
X143360711Y-114957289D01*
X143302696Y-114909678D01*
X143236508Y-114874299D01*
X143227281Y-114871500D01*
X144535588Y-114871500D01*
X144420931Y-114894307D01*
X144196903Y-114987102D01*
X143995283Y-115121820D01*
X143823820Y-115293283D01*
X143689102Y-115494903D01*
X143596307Y-115718931D01*
X143549000Y-115956757D01*
X143549000Y-116199243D01*
X143596307Y-116437069D01*
X143689102Y-116661097D01*
X143823820Y-116862717D01*
X143995283Y-117034180D01*
X144196903Y-117168898D01*
X144420931Y-117261693D01*
X144658757Y-117309000D01*
X144901243Y-117309000D01*
X145139069Y-117261693D01*
X145363097Y-117168898D01*
X145564717Y-117034180D01*
X145736180Y-116862717D01*
X145870898Y-116661097D01*
X145963693Y-116437069D01*
X146011000Y-116199243D01*
X146011000Y-115956757D01*
X145963693Y-115718931D01*
X145870898Y-115494903D01*
X145736180Y-115293283D01*
X145564717Y-115121820D01*
X145363097Y-114987102D01*
X145139069Y-114894307D01*
X145024412Y-114871500D01*
X145865883Y-114871500D01*
X146333317Y-115338934D01*
X146229102Y-115494903D01*
X146136307Y-115718931D01*
X146089000Y-115956757D01*
X146089000Y-116199243D01*
X146136307Y-116437069D01*
X146229102Y-116661097D01*
X146363820Y-116862717D01*
X146535283Y-117034180D01*
X146736903Y-117168898D01*
X146960931Y-117261693D01*
X147198757Y-117309000D01*
X147441243Y-117309000D01*
X147679069Y-117261693D01*
X147903097Y-117168898D01*
X148104717Y-117034180D01*
X148276180Y-116862717D01*
X148410898Y-116661097D01*
X148503693Y-116437069D01*
X148551000Y-116199243D01*
X148551000Y-115956757D01*
X148503693Y-115718931D01*
X148410898Y-115494903D01*
X148333441Y-115378980D01*
X149432511Y-115378980D01*
X149456866Y-115459288D01*
X149556761Y-115678961D01*
X149697592Y-115874924D01*
X149873948Y-116039647D01*
X150079051Y-116166799D01*
X150305019Y-116251495D01*
X150495000Y-116191187D01*
X150495000Y-115189000D01*
X150749000Y-115189000D01*
X150749000Y-116191187D01*
X150938981Y-116251495D01*
X151164949Y-116166799D01*
X151370052Y-116039647D01*
X151546408Y-115874924D01*
X151687239Y-115678961D01*
X151787134Y-115459288D01*
X151811489Y-115378980D01*
X151750627Y-115189000D01*
X150749000Y-115189000D01*
X150495000Y-115189000D01*
X149493373Y-115189000D01*
X149432511Y-115378980D01*
X148333441Y-115378980D01*
X148276180Y-115293283D01*
X148104717Y-115121820D01*
X147903097Y-114987102D01*
X147679069Y-114894307D01*
X147441243Y-114847000D01*
X147198757Y-114847000D01*
X147115231Y-114863614D01*
X146996637Y-114745020D01*
X149432511Y-114745020D01*
X149493373Y-114935000D01*
X150495000Y-114935000D01*
X150495000Y-113932813D01*
X150749000Y-113932813D01*
X150749000Y-114935000D01*
X151750627Y-114935000D01*
X151811489Y-114745020D01*
X151787134Y-114664712D01*
X151687239Y-114445039D01*
X151546408Y-114249076D01*
X151370052Y-114084353D01*
X151164949Y-113957201D01*
X150938981Y-113872505D01*
X150749000Y-113932813D01*
X150495000Y-113932813D01*
X150305019Y-113872505D01*
X150079051Y-113957201D01*
X149873948Y-114084353D01*
X149697592Y-114249076D01*
X149556761Y-114445039D01*
X149456866Y-114664712D01*
X149432511Y-114745020D01*
X146996637Y-114745020D01*
X146379744Y-114128127D01*
X146365829Y-114111171D01*
X146298145Y-114055624D01*
X146220926Y-114014349D01*
X146137137Y-113988932D01*
X146071830Y-113982500D01*
X146071820Y-113982500D01*
X146050000Y-113980351D01*
X146028180Y-113982500D01*
X142774343Y-113982500D01*
X142798800Y-113859545D01*
X142798800Y-113724455D01*
X142789500Y-113677700D01*
X143462780Y-113677700D01*
X143484600Y-113679849D01*
X143506420Y-113677700D01*
X143506430Y-113677700D01*
X143571737Y-113671268D01*
X143655526Y-113645851D01*
X143732745Y-113604576D01*
X143800429Y-113549029D01*
X143814347Y-113532070D01*
X143935870Y-113410547D01*
X143952829Y-113396629D01*
X144008376Y-113328945D01*
X144049651Y-113251726D01*
X144075068Y-113167937D01*
X144081500Y-113102630D01*
X144081500Y-113102621D01*
X144083649Y-113080801D01*
X144081500Y-113058981D01*
X144081500Y-112838980D01*
X149432511Y-112838980D01*
X149456866Y-112919288D01*
X149556761Y-113138961D01*
X149697592Y-113334924D01*
X149873948Y-113499647D01*
X150079051Y-113626799D01*
X150305019Y-113711495D01*
X150495000Y-113651187D01*
X150495000Y-112649000D01*
X150749000Y-112649000D01*
X150749000Y-113651187D01*
X150938981Y-113711495D01*
X151164949Y-113626799D01*
X151370052Y-113499647D01*
X151546408Y-113334924D01*
X151687239Y-113138961D01*
X151787134Y-112919288D01*
X151811489Y-112838980D01*
X151750627Y-112649000D01*
X150749000Y-112649000D01*
X150495000Y-112649000D01*
X149493373Y-112649000D01*
X149432511Y-112838980D01*
X144081500Y-112838980D01*
X144081500Y-112248917D01*
X144125397Y-112205020D01*
X149432511Y-112205020D01*
X149493373Y-112395000D01*
X150495000Y-112395000D01*
X150495000Y-111392813D01*
X150749000Y-111392813D01*
X150749000Y-112395000D01*
X151750627Y-112395000D01*
X151811489Y-112205020D01*
X151787134Y-112124712D01*
X151687239Y-111905039D01*
X151546408Y-111709076D01*
X151370052Y-111544353D01*
X151164949Y-111417201D01*
X150938981Y-111332505D01*
X150749000Y-111392813D01*
X150495000Y-111392813D01*
X150305019Y-111332505D01*
X150079051Y-111417201D01*
X149873948Y-111544353D01*
X149697592Y-111709076D01*
X149556761Y-111905039D01*
X149456866Y-112124712D01*
X149432511Y-112205020D01*
X144125397Y-112205020D01*
X144570876Y-111759542D01*
X144587829Y-111745629D01*
X144601742Y-111728676D01*
X144601745Y-111728673D01*
X144643376Y-111677946D01*
X144684651Y-111600726D01*
X144694630Y-111567829D01*
X144710068Y-111516937D01*
X144716500Y-111451630D01*
X144716500Y-111451620D01*
X144718649Y-111429800D01*
X144716500Y-111407980D01*
X144716500Y-109277117D01*
X145091571Y-108902047D01*
X145108524Y-108888134D01*
X145122437Y-108871181D01*
X145122440Y-108871178D01*
X145164071Y-108820451D01*
X145205346Y-108743231D01*
X145205601Y-108742391D01*
X145230763Y-108659442D01*
X145237195Y-108594135D01*
X145237195Y-108594125D01*
X145239344Y-108572305D01*
X145237195Y-108550485D01*
X145237195Y-104819422D01*
X145414344Y-104642273D01*
X145491200Y-104649843D01*
X146761200Y-104649843D01*
X146959771Y-104630285D01*
X147150712Y-104572364D01*
X147326683Y-104478306D01*
X147480924Y-104351724D01*
X147607506Y-104197483D01*
X147701564Y-104021512D01*
X147759485Y-103830571D01*
X147779043Y-103632000D01*
X147779043Y-100511635D01*
X147887455Y-100533200D01*
X148022545Y-100533200D01*
X148155040Y-100506845D01*
X148279848Y-100455148D01*
X148392172Y-100380095D01*
X148487695Y-100284572D01*
X148562748Y-100172248D01*
X148614445Y-100047440D01*
X148640800Y-99914945D01*
X148640800Y-99779855D01*
X148614445Y-99647360D01*
X148562748Y-99522552D01*
X148488400Y-99411283D01*
X148488400Y-98825017D01*
X149237702Y-99574320D01*
X149237701Y-103813381D01*
X149235552Y-103835201D01*
X149237701Y-103857021D01*
X149237701Y-103857030D01*
X149244133Y-103922337D01*
X149268716Y-104003376D01*
X149269550Y-104006126D01*
X149302232Y-104067269D01*
X149301200Y-104072455D01*
X149301200Y-104207545D01*
X149327555Y-104340040D01*
X149379252Y-104464848D01*
X149454305Y-104577172D01*
X149549828Y-104672695D01*
X149662152Y-104747748D01*
X149786960Y-104799445D01*
X149919455Y-104825800D01*
X150054545Y-104825800D01*
X150187040Y-104799445D01*
X150311848Y-104747748D01*
X150424172Y-104672695D01*
X150469601Y-104627266D01*
X150469601Y-108749157D01*
X149772000Y-108749157D01*
X149697311Y-108756513D01*
X149625492Y-108778299D01*
X149559304Y-108813678D01*
X149501289Y-108861289D01*
X149453678Y-108919304D01*
X149418299Y-108985492D01*
X149396513Y-109057311D01*
X149389157Y-109132000D01*
X149389157Y-110832000D01*
X149396513Y-110906689D01*
X149418299Y-110978508D01*
X149453678Y-111044696D01*
X149501289Y-111102711D01*
X149559304Y-111150322D01*
X149625492Y-111185701D01*
X149697311Y-111207487D01*
X149772000Y-111214843D01*
X151472000Y-111214843D01*
X151546689Y-111207487D01*
X151618508Y-111185701D01*
X151684696Y-111150322D01*
X151742711Y-111102711D01*
X151790322Y-111044696D01*
X151825701Y-110978508D01*
X151847487Y-110906689D01*
X151854843Y-110832000D01*
X151854843Y-109132000D01*
X151847487Y-109057311D01*
X151825701Y-108985492D01*
X151790322Y-108919304D01*
X151742711Y-108861289D01*
X151684696Y-108813678D01*
X151618508Y-108778299D01*
X151546689Y-108756513D01*
X151536400Y-108755500D01*
X151536400Y-95022186D01*
X151538979Y-94995999D01*
X151536400Y-94969812D01*
X151536400Y-94969805D01*
X151528681Y-94891435D01*
X151498181Y-94790889D01*
X151448651Y-94698225D01*
X151411698Y-94653198D01*
X151398693Y-94637351D01*
X151398691Y-94637349D01*
X151381995Y-94617005D01*
X151361651Y-94600309D01*
X149123400Y-92362059D01*
X149123400Y-88926187D01*
X149125979Y-88900000D01*
X149123400Y-88873813D01*
X149123400Y-88873805D01*
X149115681Y-88795435D01*
X149085181Y-88694889D01*
X149035651Y-88602225D01*
X148968995Y-88521005D01*
X148948645Y-88504304D01*
X147080696Y-86636355D01*
X147063995Y-86616005D01*
X146982775Y-86549349D01*
X146890111Y-86499819D01*
X146789565Y-86469319D01*
X146711195Y-86461600D01*
X146711187Y-86461600D01*
X146685000Y-86459021D01*
X146658813Y-86461600D01*
X146542111Y-86461600D01*
X146717607Y-86434977D01*
X146973435Y-86342490D01*
X147085490Y-86282596D01*
X147195662Y-86089267D01*
X146376000Y-85269605D01*
X145556338Y-86089267D01*
X145666510Y-86282596D01*
X145912806Y-86398095D01*
X146169923Y-86461600D01*
X143875274Y-86461600D01*
X144094823Y-86417929D01*
X144346149Y-86313826D01*
X144572336Y-86162693D01*
X144764693Y-85970336D01*
X144915826Y-85744149D01*
X145019929Y-85492823D01*
X145031721Y-85433539D01*
X145123510Y-85687435D01*
X145183404Y-85799490D01*
X145376733Y-85909662D01*
X146196395Y-85090000D01*
X146555605Y-85090000D01*
X147375267Y-85909662D01*
X147568596Y-85799490D01*
X147684095Y-85553194D01*
X147749324Y-85289097D01*
X147761778Y-85017349D01*
X147720977Y-84748393D01*
X147628490Y-84492565D01*
X147568596Y-84380510D01*
X147375267Y-84270338D01*
X146555605Y-85090000D01*
X146196395Y-85090000D01*
X145376733Y-84270338D01*
X145183404Y-84380510D01*
X145067905Y-84626806D01*
X145034679Y-84761330D01*
X145019929Y-84687177D01*
X144915826Y-84435851D01*
X144764693Y-84209664D01*
X144645762Y-84090733D01*
X145556338Y-84090733D01*
X146376000Y-84910395D01*
X147195662Y-84090733D01*
X147085490Y-83897404D01*
X146839194Y-83781905D01*
X146575097Y-83716676D01*
X146303349Y-83704222D01*
X146034393Y-83745023D01*
X145778565Y-83837510D01*
X145666510Y-83897404D01*
X145556338Y-84090733D01*
X144645762Y-84090733D01*
X144572336Y-84017307D01*
X144346149Y-83866174D01*
X144094823Y-83762071D01*
X143828017Y-83709000D01*
X143555983Y-83709000D01*
X143289177Y-83762071D01*
X143037851Y-83866174D01*
X142811664Y-84017307D01*
X142619307Y-84209664D01*
X142468174Y-84435851D01*
X142364071Y-84687177D01*
X142311000Y-84953983D01*
X142311000Y-85226017D01*
X142364071Y-85492823D01*
X142468174Y-85744149D01*
X142619307Y-85970336D01*
X142811664Y-86162693D01*
X143037851Y-86313826D01*
X143289177Y-86417929D01*
X143508726Y-86461600D01*
X139412942Y-86461600D01*
X139405719Y-86454378D01*
X139533607Y-86434977D01*
X139789435Y-86342490D01*
X139901490Y-86282596D01*
X140011662Y-86089267D01*
X139192000Y-85269605D01*
X138381005Y-86080600D01*
X137567187Y-86080600D01*
X137541000Y-86078021D01*
X137514813Y-86080600D01*
X137514805Y-86080600D01*
X137436435Y-86088319D01*
X137335889Y-86118819D01*
X137243225Y-86168349D01*
X137162005Y-86235005D01*
X137145304Y-86255355D01*
X136293350Y-87107309D01*
X136273006Y-87124005D01*
X136256310Y-87144349D01*
X136256307Y-87144352D01*
X136253806Y-87147400D01*
X136206350Y-87205225D01*
X136206349Y-87205227D01*
X136156819Y-87297890D01*
X136126319Y-87398436D01*
X136116021Y-87503000D01*
X136118601Y-87529197D01*
X136118600Y-91286813D01*
X136116021Y-91313000D01*
X136118600Y-91339187D01*
X136118600Y-91339194D01*
X136126319Y-91417564D01*
X136156819Y-91518110D01*
X136206349Y-91610775D01*
X136273005Y-91691995D01*
X136293355Y-91708696D01*
X136652000Y-92067341D01*
X136652000Y-92248483D01*
X136577652Y-92359752D01*
X136525955Y-92484560D01*
X136499600Y-92617055D01*
X136499600Y-92752145D01*
X136525955Y-92884640D01*
X136577652Y-93009448D01*
X136652705Y-93121772D01*
X136748228Y-93217295D01*
X136860552Y-93292348D01*
X136985360Y-93344045D01*
X137117855Y-93370400D01*
X137252945Y-93370400D01*
X137385440Y-93344045D01*
X137510248Y-93292348D01*
X137622572Y-93217295D01*
X137718095Y-93121772D01*
X137793148Y-93009448D01*
X137844845Y-92884640D01*
X137871200Y-92752145D01*
X137871200Y-92617055D01*
X137865673Y-92589267D01*
X138372338Y-92589267D01*
X138482510Y-92782596D01*
X138728806Y-92898095D01*
X138992903Y-92963324D01*
X139264651Y-92975778D01*
X139533607Y-92934977D01*
X139789435Y-92842490D01*
X139901490Y-92782596D01*
X140011662Y-92589267D01*
X139192000Y-91769605D01*
X138372338Y-92589267D01*
X137865673Y-92589267D01*
X137844845Y-92484560D01*
X137793148Y-92359752D01*
X137718800Y-92248483D01*
X137718800Y-91872594D01*
X137721380Y-91846400D01*
X137711081Y-91741836D01*
X137706283Y-91726017D01*
X137687062Y-91662651D01*
X137806222Y-91662651D01*
X137847023Y-91931607D01*
X137939510Y-92187435D01*
X137999404Y-92299490D01*
X138192733Y-92409662D01*
X139012395Y-91590000D01*
X138192733Y-90770338D01*
X137999404Y-90880510D01*
X137883905Y-91126806D01*
X137818676Y-91390903D01*
X137806222Y-91662651D01*
X137687062Y-91662651D01*
X137680581Y-91641289D01*
X137631051Y-91548625D01*
X137564395Y-91467405D01*
X137544045Y-91450704D01*
X137185400Y-91092059D01*
X137185400Y-87723941D01*
X137761941Y-87147400D01*
X138590059Y-87147400D01*
X138796309Y-87353650D01*
X138813005Y-87373995D01*
X138894225Y-87440651D01*
X138986889Y-87490181D01*
X139087435Y-87520681D01*
X139165805Y-87528400D01*
X139165812Y-87528400D01*
X139191999Y-87530979D01*
X139218186Y-87528400D01*
X146464059Y-87528400D01*
X148056600Y-89120941D01*
X148056601Y-92556803D01*
X148054021Y-92583000D01*
X148064319Y-92687564D01*
X148094819Y-92788110D01*
X148095383Y-92789165D01*
X148144350Y-92880775D01*
X148164911Y-92905828D01*
X148194307Y-92941648D01*
X148194310Y-92941651D01*
X148211006Y-92961995D01*
X148231350Y-92978691D01*
X150469600Y-95216942D01*
X150469601Y-103652734D01*
X150424172Y-103607305D01*
X150311848Y-103532252D01*
X150187040Y-103480555D01*
X150126701Y-103468553D01*
X150126701Y-99412021D01*
X150128850Y-99390201D01*
X150126701Y-99368381D01*
X150126701Y-99368371D01*
X150120269Y-99303064D01*
X150094852Y-99219275D01*
X150053577Y-99142055D01*
X150011946Y-99091328D01*
X150011943Y-99091325D01*
X149998030Y-99074372D01*
X149981077Y-99060459D01*
X148411745Y-97491128D01*
X148397829Y-97474171D01*
X148357105Y-97440750D01*
X148330145Y-97418624D01*
X148252925Y-97377349D01*
X148169137Y-97351933D01*
X148082000Y-97343351D01*
X148081999Y-97343351D01*
X147994862Y-97351933D01*
X147911074Y-97377349D01*
X147869799Y-97399412D01*
X147833855Y-97418624D01*
X147766171Y-97474171D01*
X147752253Y-97491130D01*
X147580382Y-97663001D01*
X144230319Y-97663001D01*
X144208499Y-97660852D01*
X144186679Y-97663001D01*
X144186669Y-97663001D01*
X144161542Y-97665476D01*
X144990875Y-96836143D01*
X145007828Y-96822230D01*
X145021741Y-96805277D01*
X145021744Y-96805274D01*
X145063375Y-96754547D01*
X145104650Y-96677327D01*
X145122116Y-96619748D01*
X145130067Y-96593538D01*
X145136499Y-96528231D01*
X145136499Y-96528221D01*
X145138648Y-96506401D01*
X145136499Y-96484581D01*
X145136499Y-92611818D01*
X145138648Y-92589998D01*
X145138577Y-92589267D01*
X145556338Y-92589267D01*
X145666510Y-92782596D01*
X145912806Y-92898095D01*
X146176903Y-92963324D01*
X146448651Y-92975778D01*
X146717607Y-92934977D01*
X146973435Y-92842490D01*
X147085490Y-92782596D01*
X147195662Y-92589267D01*
X146376000Y-91769605D01*
X145556338Y-92589267D01*
X145138577Y-92589267D01*
X145136499Y-92568178D01*
X145136499Y-92568169D01*
X145130067Y-92502862D01*
X145104650Y-92419073D01*
X145063375Y-92341854D01*
X145022503Y-92292051D01*
X145021744Y-92291126D01*
X145021741Y-92291123D01*
X145007828Y-92274170D01*
X144990876Y-92260258D01*
X144933089Y-92202472D01*
X145019929Y-91992823D01*
X145031721Y-91933539D01*
X145123510Y-92187435D01*
X145183404Y-92299490D01*
X145376733Y-92409662D01*
X146196395Y-91590000D01*
X146555605Y-91590000D01*
X147375267Y-92409662D01*
X147568596Y-92299490D01*
X147684095Y-92053194D01*
X147749324Y-91789097D01*
X147761778Y-91517349D01*
X147720977Y-91248393D01*
X147628490Y-90992565D01*
X147568596Y-90880510D01*
X147375267Y-90770338D01*
X146555605Y-91590000D01*
X146196395Y-91590000D01*
X145376733Y-90770338D01*
X145183404Y-90880510D01*
X145067905Y-91126806D01*
X145034679Y-91261330D01*
X145019929Y-91187177D01*
X144915826Y-90935851D01*
X144764693Y-90709664D01*
X144645762Y-90590733D01*
X145556338Y-90590733D01*
X146376000Y-91410395D01*
X147195662Y-90590733D01*
X147085490Y-90397404D01*
X146839194Y-90281905D01*
X146575097Y-90216676D01*
X146303349Y-90204222D01*
X146034393Y-90245023D01*
X145778565Y-90337510D01*
X145666510Y-90397404D01*
X145556338Y-90590733D01*
X144645762Y-90590733D01*
X144572336Y-90517307D01*
X144346149Y-90366174D01*
X144094823Y-90262071D01*
X143828017Y-90209000D01*
X143555983Y-90209000D01*
X143289177Y-90262071D01*
X143037851Y-90366174D01*
X142811664Y-90517307D01*
X142619307Y-90709664D01*
X142468174Y-90935851D01*
X142364071Y-91187177D01*
X142311000Y-91453983D01*
X142311000Y-91726017D01*
X142364071Y-91992823D01*
X142468174Y-92244149D01*
X142619307Y-92470336D01*
X142811664Y-92662693D01*
X143037851Y-92813826D01*
X143289177Y-92917929D01*
X143555983Y-92971000D01*
X143828017Y-92971000D01*
X144094823Y-92917929D01*
X144247499Y-92854688D01*
X144247500Y-96322282D01*
X142576130Y-97993653D01*
X142559171Y-98007571D01*
X142545255Y-98024528D01*
X142503624Y-98075255D01*
X142496346Y-98088872D01*
X142462349Y-98152475D01*
X142436932Y-98236264D01*
X142430500Y-98301571D01*
X142430500Y-98301580D01*
X142428351Y-98323400D01*
X142430500Y-98345220D01*
X142430501Y-100663770D01*
X142428351Y-100685600D01*
X142436933Y-100772737D01*
X142462349Y-100856525D01*
X142503624Y-100933745D01*
X142506700Y-100937493D01*
X142506701Y-101214318D01*
X142491561Y-101229458D01*
X142117925Y-101229458D01*
X142139248Y-101159165D01*
X142145680Y-101093858D01*
X142145680Y-101093848D01*
X142147829Y-101072028D01*
X142145680Y-101050208D01*
X142145680Y-100951540D01*
X142233875Y-100863345D01*
X142308928Y-100751021D01*
X142360625Y-100626213D01*
X142386980Y-100493718D01*
X142386980Y-100358628D01*
X142360625Y-100226133D01*
X142308928Y-100101325D01*
X142233875Y-99989001D01*
X142138352Y-99893478D01*
X142026028Y-99818425D01*
X141901220Y-99766728D01*
X141768725Y-99740373D01*
X141633635Y-99740373D01*
X141501140Y-99766728D01*
X141465300Y-99781573D01*
X141465300Y-97624867D01*
X142335677Y-96754491D01*
X142352629Y-96740579D01*
X142366542Y-96723626D01*
X142366545Y-96723623D01*
X142408176Y-96672896D01*
X142449451Y-96595676D01*
X142452211Y-96586576D01*
X142474868Y-96511887D01*
X142481300Y-96446580D01*
X142481300Y-96446570D01*
X142483449Y-96424750D01*
X142481300Y-96402930D01*
X142481300Y-94052620D01*
X142483449Y-94030800D01*
X142481300Y-94008980D01*
X142481300Y-94008970D01*
X142474868Y-93943663D01*
X142449451Y-93859874D01*
X142435368Y-93833527D01*
X142408176Y-93782654D01*
X142366545Y-93731927D01*
X142366542Y-93731924D01*
X142352629Y-93714971D01*
X142335676Y-93701058D01*
X141897100Y-93262483D01*
X141897100Y-91131619D01*
X141899249Y-91109799D01*
X141897100Y-91087979D01*
X141897100Y-91087970D01*
X141890668Y-91022663D01*
X141865251Y-90938874D01*
X141853723Y-90917307D01*
X141823976Y-90861654D01*
X141782345Y-90810927D01*
X141782342Y-90810924D01*
X141768429Y-90793971D01*
X141751476Y-90780058D01*
X139699547Y-88728130D01*
X139685629Y-88711171D01*
X139617945Y-88655624D01*
X139540726Y-88614349D01*
X139456937Y-88588932D01*
X139391630Y-88582500D01*
X139391620Y-88582500D01*
X139369800Y-88580351D01*
X139347980Y-88582500D01*
X139082367Y-88582500D01*
X138994172Y-88494305D01*
X138881848Y-88419252D01*
X138779854Y-88377005D01*
X138835687Y-88321172D01*
X138910740Y-88208848D01*
X138962437Y-88084040D01*
X138988792Y-87951545D01*
X138988792Y-87816455D01*
X138962437Y-87683960D01*
X138910740Y-87559152D01*
X138835687Y-87446828D01*
X138740164Y-87351305D01*
X138627840Y-87276252D01*
X138503032Y-87224555D01*
X138370537Y-87198200D01*
X138235447Y-87198200D01*
X138102952Y-87224555D01*
X137978144Y-87276252D01*
X137865820Y-87351305D01*
X137770297Y-87446828D01*
X137695244Y-87559152D01*
X137643547Y-87683960D01*
X137617192Y-87816455D01*
X137617192Y-87941183D01*
X137496125Y-88062250D01*
X137479172Y-88076163D01*
X137465259Y-88093116D01*
X137465255Y-88093120D01*
X137423624Y-88143847D01*
X137382349Y-88221067D01*
X137356933Y-88304855D01*
X137348351Y-88391992D01*
X137350501Y-88413822D01*
X137350500Y-89767180D01*
X137348351Y-89789000D01*
X137350500Y-89810820D01*
X137350500Y-89810829D01*
X137356932Y-89876136D01*
X137369025Y-89916000D01*
X137382349Y-89959925D01*
X137423624Y-90037145D01*
X137461185Y-90082913D01*
X137479171Y-90104829D01*
X137496130Y-90118747D01*
X137592253Y-90214870D01*
X137606171Y-90231829D01*
X137673855Y-90287376D01*
X137751074Y-90328651D01*
X137834863Y-90354068D01*
X137900170Y-90360500D01*
X137900179Y-90360500D01*
X137921999Y-90362649D01*
X137943819Y-90360500D01*
X138551553Y-90360500D01*
X138482510Y-90397404D01*
X138372338Y-90590733D01*
X139192000Y-91410395D01*
X139206143Y-91396253D01*
X139385748Y-91575858D01*
X139371605Y-91590000D01*
X140191267Y-92409662D01*
X140384596Y-92299490D01*
X140500095Y-92053194D01*
X140565324Y-91789097D01*
X140577778Y-91517349D01*
X140560798Y-91405415D01*
X140601701Y-91446319D01*
X140601700Y-93500980D01*
X140599551Y-93522800D01*
X140601700Y-93544620D01*
X140601700Y-93544629D01*
X140608132Y-93609936D01*
X140623144Y-93659424D01*
X140633549Y-93693725D01*
X140674824Y-93770945D01*
X140712269Y-93816571D01*
X140730371Y-93838629D01*
X140747329Y-93852546D01*
X141211301Y-94316519D01*
X141211301Y-94456604D01*
X141114993Y-94437447D01*
X141060899Y-94383354D01*
X141044199Y-94363005D01*
X140962979Y-94296349D01*
X140870315Y-94246819D01*
X140769769Y-94216319D01*
X140691399Y-94208600D01*
X140691391Y-94208600D01*
X140665204Y-94206021D01*
X140639017Y-94208600D01*
X137011917Y-94208600D01*
X136900648Y-94134252D01*
X136775840Y-94082555D01*
X136643345Y-94056200D01*
X136508255Y-94056200D01*
X136375760Y-94082555D01*
X136250952Y-94134252D01*
X136138628Y-94209305D01*
X136043105Y-94304828D01*
X135968052Y-94417152D01*
X135916355Y-94541960D01*
X135890000Y-94674455D01*
X135890000Y-94809545D01*
X135916355Y-94942040D01*
X135968052Y-95066848D01*
X136043105Y-95179172D01*
X136138628Y-95274695D01*
X136250952Y-95349748D01*
X136375760Y-95401445D01*
X136508255Y-95427800D01*
X136643345Y-95427800D01*
X136775840Y-95401445D01*
X136900648Y-95349748D01*
X137011917Y-95275400D01*
X140377283Y-95275400D01*
X140386759Y-95323040D01*
X140438456Y-95447848D01*
X140442916Y-95454523D01*
X140405828Y-95479305D01*
X140310305Y-95574828D01*
X140235252Y-95687152D01*
X140183555Y-95811960D01*
X140157200Y-95944455D01*
X140157200Y-96069183D01*
X140036129Y-96190254D01*
X140019171Y-96204171D01*
X140005255Y-96221128D01*
X139963624Y-96271855D01*
X139928476Y-96337613D01*
X139922349Y-96349075D01*
X139896932Y-96432864D01*
X139890500Y-96498171D01*
X139890500Y-96498180D01*
X139888351Y-96520000D01*
X139890500Y-96541820D01*
X139890501Y-98857922D01*
X139522200Y-98489623D01*
X139522200Y-97921667D01*
X139597695Y-97846172D01*
X139672748Y-97733848D01*
X139724445Y-97609040D01*
X139750800Y-97476545D01*
X139750800Y-97341455D01*
X139724445Y-97208960D01*
X139672748Y-97084152D01*
X139597695Y-96971828D01*
X139502172Y-96876305D01*
X139389848Y-96801252D01*
X139265040Y-96749555D01*
X139132545Y-96723200D01*
X138997455Y-96723200D01*
X138864960Y-96749555D01*
X138740152Y-96801252D01*
X138627828Y-96876305D01*
X138532305Y-96971828D01*
X138457252Y-97084152D01*
X138405555Y-97208960D01*
X138379200Y-97341455D01*
X138379200Y-97476545D01*
X138405555Y-97609040D01*
X138457252Y-97733848D01*
X138532305Y-97846172D01*
X138607801Y-97921668D01*
X138607800Y-98656550D01*
X138605589Y-98679000D01*
X138607800Y-98701450D01*
X138607800Y-98701459D01*
X138614415Y-98768626D01*
X138640559Y-98854808D01*
X138683013Y-98934235D01*
X138740147Y-99003853D01*
X138757597Y-99018174D01*
X138841612Y-99102189D01*
X138816352Y-99112652D01*
X138704028Y-99187705D01*
X138608505Y-99283228D01*
X138533452Y-99395552D01*
X138481755Y-99520360D01*
X138455400Y-99652855D01*
X138455400Y-99759623D01*
X138289925Y-99925098D01*
X138283851Y-99905074D01*
X138242576Y-99827855D01*
X138209571Y-99787638D01*
X138200944Y-99777126D01*
X138200942Y-99777124D01*
X138187029Y-99760171D01*
X138170077Y-99746259D01*
X137134600Y-98710783D01*
X137134600Y-98586055D01*
X137108245Y-98453560D01*
X137056548Y-98328752D01*
X136981495Y-98216428D01*
X136885972Y-98120905D01*
X136773648Y-98045852D01*
X136648840Y-97994155D01*
X136516345Y-97967800D01*
X136381255Y-97967800D01*
X136248760Y-97994155D01*
X136123952Y-98045852D01*
X136011628Y-98120905D01*
X135916105Y-98216428D01*
X135841052Y-98328752D01*
X135789355Y-98453560D01*
X135763000Y-98586055D01*
X135763000Y-98721145D01*
X135789355Y-98853640D01*
X135841052Y-98978448D01*
X135866660Y-99016773D01*
X135819152Y-99036452D01*
X135706828Y-99111505D01*
X135611305Y-99207028D01*
X135536252Y-99319352D01*
X135484555Y-99444160D01*
X135458200Y-99576655D01*
X135458200Y-99711745D01*
X135484555Y-99844240D01*
X135536252Y-99969048D01*
X135611305Y-100081372D01*
X135706828Y-100176895D01*
X135819152Y-100251948D01*
X135943960Y-100303645D01*
X136076455Y-100330000D01*
X136211545Y-100330000D01*
X136344040Y-100303645D01*
X136468848Y-100251948D01*
X136479232Y-100245009D01*
X137083800Y-100849578D01*
X137083800Y-100943119D01*
X137045071Y-100849618D01*
X136970018Y-100737294D01*
X136874495Y-100641771D01*
X136762171Y-100566718D01*
X136637363Y-100515021D01*
X136504868Y-100488666D01*
X136369778Y-100488666D01*
X136237283Y-100515021D01*
X136112475Y-100566718D01*
X136000151Y-100641771D01*
X135904628Y-100737294D01*
X135829575Y-100849618D01*
X135777878Y-100974426D01*
X135751770Y-101105677D01*
X135486048Y-101371400D01*
X134688536Y-101371400D01*
X134137147Y-100820011D01*
X134111039Y-100688760D01*
X134059342Y-100563952D01*
X133984289Y-100451628D01*
X133888766Y-100356105D01*
X133776442Y-100281052D01*
X133651634Y-100229355D01*
X133519139Y-100203000D01*
X133384049Y-100203000D01*
X133251554Y-100229355D01*
X133126746Y-100281052D01*
X133014422Y-100356105D01*
X132918899Y-100451628D01*
X132843846Y-100563952D01*
X132792149Y-100688760D01*
X132765794Y-100821255D01*
X132765794Y-100956345D01*
X132792149Y-101088840D01*
X132843846Y-101213648D01*
X132918899Y-101325972D01*
X133014422Y-101421495D01*
X133126746Y-101496548D01*
X133251554Y-101548245D01*
X133382805Y-101574353D01*
X134071903Y-102263451D01*
X134088599Y-102283795D01*
X134108943Y-102300491D01*
X134108945Y-102300493D01*
X134119577Y-102309218D01*
X134169819Y-102350451D01*
X134262483Y-102399981D01*
X134363029Y-102430481D01*
X134441399Y-102438200D01*
X134441407Y-102438200D01*
X134467594Y-102440779D01*
X134493781Y-102438200D01*
X134803120Y-102438200D01*
X134798258Y-102444124D01*
X134562883Y-102679500D01*
X131085819Y-102679500D01*
X131063999Y-102677351D01*
X131042179Y-102679500D01*
X131042170Y-102679500D01*
X130976863Y-102685932D01*
X130893074Y-102711349D01*
X130815855Y-102752624D01*
X130815853Y-102752625D01*
X130815854Y-102752625D01*
X130765127Y-102794255D01*
X130765124Y-102794258D01*
X130748171Y-102808171D01*
X130734258Y-102825124D01*
X129835129Y-103724254D01*
X129737848Y-103659252D01*
X129613040Y-103607555D01*
X129480545Y-103581200D01*
X129345455Y-103581200D01*
X129212960Y-103607555D01*
X129088152Y-103659252D01*
X128975828Y-103734305D01*
X128880305Y-103829828D01*
X128805252Y-103942152D01*
X128753555Y-104066960D01*
X128727200Y-104199455D01*
X128727200Y-104334545D01*
X128753555Y-104467040D01*
X128805252Y-104591848D01*
X128880305Y-104704172D01*
X128975828Y-104799695D01*
X129088152Y-104874748D01*
X129212960Y-104926445D01*
X129258816Y-104935566D01*
X129114130Y-105080253D01*
X129097171Y-105094171D01*
X129083255Y-105111128D01*
X129041624Y-105161855D01*
X129016730Y-105208429D01*
X129000349Y-105239075D01*
X128974932Y-105322864D01*
X128968500Y-105388171D01*
X128968500Y-105388180D01*
X128966351Y-105410000D01*
X128968500Y-105431820D01*
X128968501Y-108182170D01*
X128966351Y-108204000D01*
X128974933Y-108291137D01*
X129000349Y-108374925D01*
X129041624Y-108452145D01*
X129083255Y-108502872D01*
X129083259Y-108502876D01*
X129097172Y-108519829D01*
X129114125Y-108533742D01*
X129330413Y-108750031D01*
X129000250Y-108751000D01*
X128905000Y-108846250D01*
X128905000Y-109855000D01*
X128925000Y-109855000D01*
X128925000Y-110109000D01*
X128905000Y-110109000D01*
X128905000Y-110129000D01*
X128651000Y-110129000D01*
X128651000Y-110109000D01*
X127642250Y-110109000D01*
X127547000Y-110204250D01*
X127545157Y-110832000D01*
X127548141Y-110862298D01*
X127513855Y-110880624D01*
X127446171Y-110936171D01*
X127432249Y-110953135D01*
X127406000Y-110979384D01*
X127406000Y-109132000D01*
X127545157Y-109132000D01*
X127547000Y-109759750D01*
X127642250Y-109855000D01*
X128651000Y-109855000D01*
X128651000Y-108846250D01*
X128555750Y-108751000D01*
X127928000Y-108749157D01*
X127853311Y-108756513D01*
X127781492Y-108778299D01*
X127715304Y-108813678D01*
X127657289Y-108861289D01*
X127609678Y-108919304D01*
X127574299Y-108985492D01*
X127552513Y-109057311D01*
X127545157Y-109132000D01*
X127406000Y-109132000D01*
X127406000Y-93220000D01*
X128574738Y-93220000D01*
X128591748Y-93392706D01*
X128642125Y-93558775D01*
X128723932Y-93711825D01*
X128834025Y-93845975D01*
X128968175Y-93956068D01*
X129121225Y-94037875D01*
X129287294Y-94088252D01*
X129416727Y-94101000D01*
X130103273Y-94101000D01*
X130232706Y-94088252D01*
X130398775Y-94037875D01*
X130551825Y-93956068D01*
X130685975Y-93845975D01*
X130796068Y-93711825D01*
X130877875Y-93558775D01*
X130928252Y-93392706D01*
X130945262Y-93220000D01*
X132504738Y-93220000D01*
X132521748Y-93392706D01*
X132572125Y-93558775D01*
X132653932Y-93711825D01*
X132764025Y-93845975D01*
X132898175Y-93956068D01*
X133051225Y-94037875D01*
X133217294Y-94088252D01*
X133346727Y-94101000D01*
X134533273Y-94101000D01*
X134662706Y-94088252D01*
X134828775Y-94037875D01*
X134981825Y-93956068D01*
X135115975Y-93845975D01*
X135226068Y-93711825D01*
X135307875Y-93558775D01*
X135358252Y-93392706D01*
X135375262Y-93220000D01*
X135358252Y-93047294D01*
X135307875Y-92881225D01*
X135226068Y-92728175D01*
X135115975Y-92594025D01*
X134981825Y-92483932D01*
X134828775Y-92402125D01*
X134662706Y-92351748D01*
X134533273Y-92339000D01*
X133859130Y-92339000D01*
X133860049Y-92338386D01*
X133958386Y-92240049D01*
X134035649Y-92124416D01*
X134088869Y-91995933D01*
X134116000Y-91859535D01*
X134116000Y-91720465D01*
X134088869Y-91584067D01*
X134035649Y-91455584D01*
X133958386Y-91339951D01*
X133860049Y-91241614D01*
X133744416Y-91164351D01*
X133615933Y-91111131D01*
X133479535Y-91084000D01*
X133340465Y-91084000D01*
X133204067Y-91111131D01*
X133075584Y-91164351D01*
X132959951Y-91241614D01*
X132861614Y-91339951D01*
X132784351Y-91455584D01*
X132731131Y-91584067D01*
X132704000Y-91720465D01*
X132704000Y-91859535D01*
X132731131Y-91995933D01*
X132784351Y-92124416D01*
X132861614Y-92240049D01*
X132959951Y-92338386D01*
X133054058Y-92401266D01*
X133051225Y-92402125D01*
X132898175Y-92483932D01*
X132764025Y-92594025D01*
X132653932Y-92728175D01*
X132572125Y-92881225D01*
X132521748Y-93047294D01*
X132504738Y-93220000D01*
X130945262Y-93220000D01*
X130928252Y-93047294D01*
X130877875Y-92881225D01*
X130796068Y-92728175D01*
X130685975Y-92594025D01*
X130551825Y-92483932D01*
X130398775Y-92402125D01*
X130232706Y-92351748D01*
X130103273Y-92339000D01*
X129416727Y-92339000D01*
X129287294Y-92351748D01*
X129121225Y-92402125D01*
X128968175Y-92483932D01*
X128834025Y-92594025D01*
X128723932Y-92728175D01*
X128642125Y-92881225D01*
X128591748Y-93047294D01*
X128574738Y-93220000D01*
X127406000Y-93220000D01*
X127406000Y-84580000D01*
X128574738Y-84580000D01*
X128591748Y-84752706D01*
X128642125Y-84918775D01*
X128723932Y-85071825D01*
X128834025Y-85205975D01*
X128968175Y-85316068D01*
X129121225Y-85397875D01*
X129287294Y-85448252D01*
X129416727Y-85461000D01*
X130103273Y-85461000D01*
X130232706Y-85448252D01*
X130398775Y-85397875D01*
X130551825Y-85316068D01*
X130685975Y-85205975D01*
X130796068Y-85071825D01*
X130877875Y-84918775D01*
X130928252Y-84752706D01*
X130945262Y-84580000D01*
X132504738Y-84580000D01*
X132521748Y-84752706D01*
X132572125Y-84918775D01*
X132653932Y-85071825D01*
X132764025Y-85205975D01*
X132898175Y-85316068D01*
X133051225Y-85397875D01*
X133054058Y-85398734D01*
X132959951Y-85461614D01*
X132861614Y-85559951D01*
X132784351Y-85675584D01*
X132731131Y-85804067D01*
X132704000Y-85940465D01*
X132704000Y-86079535D01*
X132731131Y-86215933D01*
X132784351Y-86344416D01*
X132861614Y-86460049D01*
X132959951Y-86558386D01*
X133075584Y-86635649D01*
X133204067Y-86688869D01*
X133340465Y-86716000D01*
X133479535Y-86716000D01*
X133615933Y-86688869D01*
X133744416Y-86635649D01*
X133860049Y-86558386D01*
X133958386Y-86460049D01*
X134035649Y-86344416D01*
X134088869Y-86215933D01*
X134116000Y-86079535D01*
X134116000Y-85940465D01*
X134088869Y-85804067D01*
X134035649Y-85675584D01*
X133958386Y-85559951D01*
X133860049Y-85461614D01*
X133859130Y-85461000D01*
X134533273Y-85461000D01*
X134662706Y-85448252D01*
X134828775Y-85397875D01*
X134981825Y-85316068D01*
X135115975Y-85205975D01*
X135151529Y-85162651D01*
X137806222Y-85162651D01*
X137847023Y-85431607D01*
X137939510Y-85687435D01*
X137999404Y-85799490D01*
X138192733Y-85909662D01*
X139012395Y-85090000D01*
X139371605Y-85090000D01*
X140191267Y-85909662D01*
X140384596Y-85799490D01*
X140500095Y-85553194D01*
X140565324Y-85289097D01*
X140577778Y-85017349D01*
X140536977Y-84748393D01*
X140444490Y-84492565D01*
X140384596Y-84380510D01*
X140191267Y-84270338D01*
X139371605Y-85090000D01*
X139012395Y-85090000D01*
X138192733Y-84270338D01*
X137999404Y-84380510D01*
X137883905Y-84626806D01*
X137818676Y-84890903D01*
X137806222Y-85162651D01*
X135151529Y-85162651D01*
X135226068Y-85071825D01*
X135307875Y-84918775D01*
X135358252Y-84752706D01*
X135375262Y-84580000D01*
X135358252Y-84407294D01*
X135307875Y-84241225D01*
X135227436Y-84090733D01*
X138372338Y-84090733D01*
X139192000Y-84910395D01*
X140011662Y-84090733D01*
X139901490Y-83897404D01*
X139655194Y-83781905D01*
X139391097Y-83716676D01*
X139119349Y-83704222D01*
X138850393Y-83745023D01*
X138594565Y-83837510D01*
X138482510Y-83897404D01*
X138372338Y-84090733D01*
X135227436Y-84090733D01*
X135226068Y-84088175D01*
X135115975Y-83954025D01*
X134981825Y-83843932D01*
X134828775Y-83762125D01*
X134662706Y-83711748D01*
X134533273Y-83699000D01*
X133346727Y-83699000D01*
X133217294Y-83711748D01*
X133051225Y-83762125D01*
X132898175Y-83843932D01*
X132764025Y-83954025D01*
X132653932Y-84088175D01*
X132572125Y-84241225D01*
X132521748Y-84407294D01*
X132504738Y-84580000D01*
X130945262Y-84580000D01*
X130928252Y-84407294D01*
X130877875Y-84241225D01*
X130796068Y-84088175D01*
X130685975Y-83954025D01*
X130551825Y-83843932D01*
X130398775Y-83762125D01*
X130232706Y-83711748D01*
X130103273Y-83699000D01*
X129416727Y-83699000D01*
X129287294Y-83711748D01*
X129121225Y-83762125D01*
X128968175Y-83843932D01*
X128834025Y-83954025D01*
X128723932Y-84088175D01*
X128642125Y-84241225D01*
X128591748Y-84407294D01*
X128574738Y-84580000D01*
X127406000Y-84580000D01*
X127406000Y-84347853D01*
X127429201Y-84111229D01*
X127492158Y-83902704D01*
X127594415Y-83710387D01*
X127732082Y-83541590D01*
X127899911Y-83402750D01*
X128091513Y-83299152D01*
X128299588Y-83234742D01*
X128534991Y-83210000D01*
X150856147Y-83210000D01*
X151092771Y-83233201D01*
%TA.AperFunction,Conductor*%
D22*
G36*
X151092771Y-83233201D02*
G01*
X151301296Y-83296158D01*
X151493613Y-83398415D01*
X151662410Y-83536082D01*
X151801250Y-83703911D01*
X151904848Y-83895513D01*
X151969258Y-84103588D01*
X151986327Y-84265988D01*
X151948693Y-84209664D01*
X151756336Y-84017307D01*
X151530149Y-83866174D01*
X151278823Y-83762071D01*
X151012017Y-83709000D01*
X150739983Y-83709000D01*
X150473177Y-83762071D01*
X150221851Y-83866174D01*
X149995664Y-84017307D01*
X149803307Y-84209664D01*
X149652174Y-84435851D01*
X149548071Y-84687177D01*
X149495000Y-84953983D01*
X149495000Y-85226017D01*
X149548071Y-85492823D01*
X149652174Y-85744149D01*
X149803307Y-85970336D01*
X149995664Y-86162693D01*
X150221851Y-86313826D01*
X150473177Y-86417929D01*
X150739983Y-86471000D01*
X151012017Y-86471000D01*
X151278823Y-86417929D01*
X151530149Y-86313826D01*
X151756336Y-86162693D01*
X151948693Y-85970336D01*
X151994001Y-85902528D01*
X151994001Y-90777472D01*
X151948693Y-90709664D01*
X151756336Y-90517307D01*
X151530149Y-90366174D01*
X151278823Y-90262071D01*
X151012017Y-90209000D01*
X150739983Y-90209000D01*
X150473177Y-90262071D01*
X150221851Y-90366174D01*
X149995664Y-90517307D01*
X149803307Y-90709664D01*
X149652174Y-90935851D01*
X149548071Y-91187177D01*
X149495000Y-91453983D01*
X149495000Y-91726017D01*
X149548071Y-91992823D01*
X149652174Y-92244149D01*
X149803307Y-92470336D01*
X149995664Y-92662693D01*
X150221851Y-92813826D01*
X150473177Y-92917929D01*
X150739983Y-92971000D01*
X151012017Y-92971000D01*
X151278823Y-92917929D01*
X151530149Y-92813826D01*
X151756336Y-92662693D01*
X151948693Y-92470336D01*
X151994001Y-92402528D01*
X151994000Y-125456147D01*
X151970799Y-125692775D01*
X151907841Y-125901296D01*
X151805583Y-126093616D01*
X151667918Y-126262409D01*
X151500090Y-126401249D01*
X151308491Y-126504847D01*
X151100414Y-126569258D01*
X150865009Y-126594000D01*
X128543853Y-126594000D01*
X128307225Y-126570799D01*
X128098704Y-126507841D01*
X127906384Y-126405583D01*
X127737591Y-126267918D01*
X127598751Y-126100090D01*
X127495153Y-125908491D01*
X127430742Y-125700414D01*
X127406000Y-125465009D01*
X127406000Y-122560757D01*
X127547000Y-122560757D01*
X127547000Y-122803243D01*
X127594307Y-123041069D01*
X127687102Y-123265097D01*
X127821820Y-123466717D01*
X127993283Y-123638180D01*
X128194903Y-123772898D01*
X128418931Y-123865693D01*
X128656757Y-123913000D01*
X128899243Y-123913000D01*
X129137069Y-123865693D01*
X129361097Y-123772898D01*
X129562717Y-123638180D01*
X129734180Y-123466717D01*
X129868898Y-123265097D01*
X129961693Y-123041069D01*
X130009000Y-122803243D01*
X130009000Y-122560757D01*
X129961693Y-122322931D01*
X129868898Y-122098903D01*
X129734180Y-121897283D01*
X129562717Y-121725820D01*
X129361097Y-121591102D01*
X129137069Y-121498307D01*
X128899243Y-121451000D01*
X128656757Y-121451000D01*
X128418931Y-121498307D01*
X128194903Y-121591102D01*
X127993283Y-121725820D01*
X127821820Y-121897283D01*
X127687102Y-122098903D01*
X127594307Y-122322931D01*
X127547000Y-122560757D01*
X127406000Y-122560757D01*
X127406000Y-119398617D01*
X127651716Y-119644333D01*
X127594307Y-119782931D01*
X127547000Y-120020757D01*
X127547000Y-120263243D01*
X127594307Y-120501069D01*
X127687102Y-120725097D01*
X127821820Y-120926717D01*
X127993283Y-121098180D01*
X128194903Y-121232898D01*
X128418931Y-121325693D01*
X128656757Y-121373000D01*
X128899243Y-121373000D01*
X129137069Y-121325693D01*
X129361097Y-121232898D01*
X129562717Y-121098180D01*
X129734180Y-120926717D01*
X129868898Y-120725097D01*
X129961693Y-120501069D01*
X130009000Y-120263243D01*
X130009000Y-120020757D01*
X129961693Y-119782931D01*
X129868898Y-119558903D01*
X129734180Y-119357283D01*
X129562717Y-119185820D01*
X129361097Y-119051102D01*
X129137069Y-118958307D01*
X128899243Y-118911000D01*
X128656757Y-118911000D01*
X128418931Y-118958307D01*
X128280333Y-119015716D01*
X127952500Y-118687883D01*
X127952500Y-118517397D01*
X127993283Y-118558180D01*
X128194903Y-118692898D01*
X128418931Y-118785693D01*
X128656757Y-118833000D01*
X128899243Y-118833000D01*
X129137069Y-118785693D01*
X129361097Y-118692898D01*
X129562717Y-118558180D01*
X129734180Y-118386717D01*
X129868898Y-118185097D01*
X129926306Y-118046500D01*
X132530882Y-118046500D01*
X130384130Y-120193253D01*
X130367171Y-120207171D01*
X130353255Y-120224128D01*
X130311624Y-120274855D01*
X130291275Y-120312925D01*
X130270349Y-120352075D01*
X130244932Y-120435864D01*
X130238500Y-120501171D01*
X130238500Y-120501180D01*
X130236351Y-120523000D01*
X130238500Y-120544820D01*
X130238501Y-123132881D01*
X129275667Y-124095716D01*
X129137069Y-124038307D01*
X128899243Y-123991000D01*
X128656757Y-123991000D01*
X128418931Y-124038307D01*
X128194903Y-124131102D01*
X127993283Y-124265820D01*
X127821820Y-124437283D01*
X127687102Y-124638903D01*
X127594307Y-124862931D01*
X127547000Y-125100757D01*
X127547000Y-125343243D01*
X127594307Y-125581069D01*
X127687102Y-125805097D01*
X127821820Y-126006717D01*
X127993283Y-126178180D01*
X128194903Y-126312898D01*
X128418931Y-126405693D01*
X128656757Y-126453000D01*
X128899243Y-126453000D01*
X129137069Y-126405693D01*
X129361097Y-126312898D01*
X129562717Y-126178180D01*
X129734180Y-126006717D01*
X129868898Y-125805097D01*
X129961693Y-125581069D01*
X130009000Y-125343243D01*
X130009000Y-125100757D01*
X149391000Y-125100757D01*
X149391000Y-125343243D01*
X149438307Y-125581069D01*
X149531102Y-125805097D01*
X149665820Y-126006717D01*
X149837283Y-126178180D01*
X150038903Y-126312898D01*
X150262931Y-126405693D01*
X150500757Y-126453000D01*
X150743243Y-126453000D01*
X150981069Y-126405693D01*
X151205097Y-126312898D01*
X151406717Y-126178180D01*
X151578180Y-126006717D01*
X151712898Y-125805097D01*
X151805693Y-125581069D01*
X151853000Y-125343243D01*
X151853000Y-125100757D01*
X151805693Y-124862931D01*
X151712898Y-124638903D01*
X151578180Y-124437283D01*
X151406717Y-124265820D01*
X151205097Y-124131102D01*
X150981069Y-124038307D01*
X150743243Y-123991000D01*
X150500757Y-123991000D01*
X150262931Y-124038307D01*
X150038903Y-124131102D01*
X149837283Y-124265820D01*
X149665820Y-124437283D01*
X149531102Y-124638903D01*
X149438307Y-124862931D01*
X149391000Y-125100757D01*
X130009000Y-125100757D01*
X129961693Y-124862931D01*
X129904284Y-124724333D01*
X130981876Y-123646742D01*
X130998829Y-123632829D01*
X131012742Y-123615876D01*
X131012745Y-123615873D01*
X131054376Y-123565146D01*
X131095651Y-123487926D01*
X131121068Y-123404137D01*
X131127500Y-123338830D01*
X131127500Y-123338820D01*
X131129649Y-123317000D01*
X131127500Y-123295180D01*
X131127500Y-122560757D01*
X149391000Y-122560757D01*
X149391000Y-122803243D01*
X149438307Y-123041069D01*
X149531102Y-123265097D01*
X149665820Y-123466717D01*
X149837283Y-123638180D01*
X150038903Y-123772898D01*
X150262931Y-123865693D01*
X150500757Y-123913000D01*
X150743243Y-123913000D01*
X150981069Y-123865693D01*
X151205097Y-123772898D01*
X151406717Y-123638180D01*
X151578180Y-123466717D01*
X151712898Y-123265097D01*
X151805693Y-123041069D01*
X151853000Y-122803243D01*
X151853000Y-122560757D01*
X151805693Y-122322931D01*
X151712898Y-122098903D01*
X151578180Y-121897283D01*
X151406717Y-121725820D01*
X151205097Y-121591102D01*
X150981069Y-121498307D01*
X150743243Y-121451000D01*
X150500757Y-121451000D01*
X150262931Y-121498307D01*
X150038903Y-121591102D01*
X149837283Y-121725820D01*
X149665820Y-121897283D01*
X149531102Y-122098903D01*
X149438307Y-122322931D01*
X149391000Y-122560757D01*
X131127500Y-122560757D01*
X131127500Y-121217455D01*
X141808200Y-121217455D01*
X141808200Y-121352545D01*
X141834555Y-121485040D01*
X141886252Y-121609848D01*
X141961305Y-121722172D01*
X142056828Y-121817695D01*
X142169152Y-121892748D01*
X142293960Y-121944445D01*
X142426455Y-121970800D01*
X142561545Y-121970800D01*
X142694040Y-121944445D01*
X142818848Y-121892748D01*
X142931172Y-121817695D01*
X143026695Y-121722172D01*
X143101748Y-121609848D01*
X143153445Y-121485040D01*
X143179800Y-121352545D01*
X143179800Y-121217455D01*
X143153445Y-121084960D01*
X143101748Y-120960152D01*
X143026695Y-120847828D01*
X142931172Y-120752305D01*
X142818848Y-120677252D01*
X142694040Y-120625555D01*
X142561545Y-120599200D01*
X142426455Y-120599200D01*
X142293960Y-120625555D01*
X142169152Y-120677252D01*
X142056828Y-120752305D01*
X141961305Y-120847828D01*
X141886252Y-120960152D01*
X141834555Y-121084960D01*
X141808200Y-121217455D01*
X131127500Y-121217455D01*
X131127500Y-120707117D01*
X131813860Y-120020757D01*
X149391000Y-120020757D01*
X149391000Y-120263243D01*
X149438307Y-120501069D01*
X149531102Y-120725097D01*
X149665820Y-120926717D01*
X149837283Y-121098180D01*
X150038903Y-121232898D01*
X150262931Y-121325693D01*
X150500757Y-121373000D01*
X150743243Y-121373000D01*
X150981069Y-121325693D01*
X151205097Y-121232898D01*
X151406717Y-121098180D01*
X151578180Y-120926717D01*
X151712898Y-120725097D01*
X151805693Y-120501069D01*
X151853000Y-120263243D01*
X151853000Y-120020757D01*
X151805693Y-119782931D01*
X151712898Y-119558903D01*
X151578180Y-119357283D01*
X151406717Y-119185820D01*
X151205097Y-119051102D01*
X150981069Y-118958307D01*
X150743243Y-118911000D01*
X150500757Y-118911000D01*
X150262931Y-118958307D01*
X150038903Y-119051102D01*
X149837283Y-119185820D01*
X149665820Y-119357283D01*
X149531102Y-119558903D01*
X149438307Y-119782931D01*
X149391000Y-120020757D01*
X131813860Y-120020757D01*
X133801286Y-118033332D01*
X133818239Y-118019419D01*
X133832152Y-118002466D01*
X133832155Y-118002463D01*
X133873786Y-117951736D01*
X133915061Y-117874516D01*
X133922454Y-117850145D01*
X133940478Y-117790727D01*
X133946910Y-117725420D01*
X133946910Y-117725410D01*
X133949059Y-117703590D01*
X133946910Y-117681770D01*
X133946910Y-117108767D01*
X134036903Y-117168898D01*
X134260931Y-117261693D01*
X134498757Y-117309000D01*
X134741243Y-117309000D01*
X134979069Y-117261693D01*
X135203097Y-117168898D01*
X135404717Y-117034180D01*
X135576180Y-116862717D01*
X135710898Y-116661097D01*
X135803693Y-116437069D01*
X135851000Y-116199243D01*
X135851000Y-115956757D01*
X135803693Y-115718931D01*
X135710898Y-115494903D01*
X135576180Y-115293283D01*
X135404717Y-115121820D01*
X135203097Y-114987102D01*
X134979069Y-114894307D01*
X134741243Y-114847000D01*
X134498757Y-114847000D01*
X134260931Y-114894307D01*
X134036903Y-114987102D01*
X133946910Y-115047233D01*
X133946910Y-113442707D01*
X134078434Y-113311184D01*
X134087555Y-113357040D01*
X134139252Y-113481848D01*
X134214305Y-113594172D01*
X134302014Y-113681881D01*
X134308933Y-113752137D01*
X134334349Y-113835925D01*
X134375624Y-113913145D01*
X134417255Y-113963872D01*
X134417259Y-113963876D01*
X134431172Y-113980829D01*
X134448125Y-113994742D01*
X135179258Y-114725876D01*
X135193171Y-114742829D01*
X135210124Y-114756742D01*
X135210127Y-114756745D01*
X135260854Y-114798376D01*
X135325060Y-114832695D01*
X135338074Y-114839651D01*
X135421863Y-114865068D01*
X135487170Y-114871500D01*
X135487180Y-114871500D01*
X135509000Y-114873649D01*
X135530820Y-114871500D01*
X136915588Y-114871500D01*
X136800931Y-114894307D01*
X136576903Y-114987102D01*
X136375283Y-115121820D01*
X136203820Y-115293283D01*
X136069102Y-115494903D01*
X135976307Y-115718931D01*
X135929000Y-115956757D01*
X135929000Y-116199243D01*
X135976307Y-116437069D01*
X136069102Y-116661097D01*
X136203820Y-116862717D01*
X136375283Y-117034180D01*
X136576903Y-117168898D01*
X136800931Y-117261693D01*
X137038757Y-117309000D01*
X137281243Y-117309000D01*
X137519069Y-117261693D01*
X137743097Y-117168898D01*
X137944717Y-117034180D01*
X138116180Y-116862717D01*
X138250898Y-116661097D01*
X138343693Y-116437069D01*
X138391000Y-116199243D01*
X138391000Y-115956757D01*
X138350838Y-115754853D01*
X138408170Y-115760500D01*
X138408180Y-115760500D01*
X138430000Y-115762649D01*
X138451820Y-115760500D01*
X139378415Y-115760500D01*
X139245970Y-115786845D01*
X139121162Y-115838542D01*
X139008838Y-115913595D01*
X138913315Y-116009118D01*
X138838262Y-116121442D01*
X138786565Y-116246250D01*
X138760210Y-116378745D01*
X138760210Y-116513835D01*
X138786565Y-116646330D01*
X138838262Y-116771138D01*
X138913315Y-116883462D01*
X139008838Y-116978985D01*
X139121162Y-117054038D01*
X139245970Y-117105735D01*
X139378465Y-117132090D01*
X139513555Y-117132090D01*
X139646050Y-117105735D01*
X139649200Y-117104430D01*
X139649200Y-117161545D01*
X139675555Y-117294040D01*
X139727252Y-117418848D01*
X139802305Y-117531172D01*
X139897828Y-117626695D01*
X140010152Y-117701748D01*
X140134960Y-117753445D01*
X140267455Y-117779800D01*
X140402545Y-117779800D01*
X140535040Y-117753445D01*
X140659848Y-117701748D01*
X140772172Y-117626695D01*
X140867695Y-117531172D01*
X140901381Y-117480757D01*
X149391000Y-117480757D01*
X149391000Y-117723243D01*
X149438307Y-117961069D01*
X149531102Y-118185097D01*
X149665820Y-118386717D01*
X149837283Y-118558180D01*
X150038903Y-118692898D01*
X150262931Y-118785693D01*
X150500757Y-118833000D01*
X150743243Y-118833000D01*
X150981069Y-118785693D01*
X151205097Y-118692898D01*
X151406717Y-118558180D01*
X151578180Y-118386717D01*
X151712898Y-118185097D01*
X151805693Y-117961069D01*
X151853000Y-117723243D01*
X151853000Y-117480757D01*
X151805693Y-117242931D01*
X151712898Y-117018903D01*
X151578180Y-116817283D01*
X151406717Y-116645820D01*
X151205097Y-116511102D01*
X150981069Y-116418307D01*
X150743243Y-116371000D01*
X150500757Y-116371000D01*
X150262931Y-116418307D01*
X150038903Y-116511102D01*
X149837283Y-116645820D01*
X149665820Y-116817283D01*
X149531102Y-117018903D01*
X149438307Y-117242931D01*
X149391000Y-117480757D01*
X140901381Y-117480757D01*
X140942748Y-117418848D01*
X140994445Y-117294040D01*
X141020800Y-117161545D01*
X141020800Y-117026455D01*
X141019043Y-117017623D01*
X141036299Y-117074508D01*
X141071678Y-117140696D01*
X141119289Y-117198711D01*
X141177304Y-117246322D01*
X141243492Y-117281701D01*
X141315311Y-117303487D01*
X141390000Y-117310843D01*
X142017750Y-117309000D01*
X142113000Y-117213750D01*
X142113000Y-116205000D01*
X142367000Y-116205000D01*
X142367000Y-117213750D01*
X142462250Y-117309000D01*
X143090000Y-117310843D01*
X143164689Y-117303487D01*
X143236508Y-117281701D01*
X143302696Y-117246322D01*
X143360711Y-117198711D01*
X143408322Y-117140696D01*
X143443701Y-117074508D01*
X143465487Y-117002689D01*
X143472843Y-116928000D01*
X143471000Y-116300250D01*
X143375750Y-116205000D01*
X142367000Y-116205000D01*
X142113000Y-116205000D01*
X141104250Y-116205000D01*
X141009000Y-116300250D01*
X141007157Y-116928000D01*
X141012983Y-116987159D01*
X140994445Y-116893960D01*
X140942748Y-116769152D01*
X140867695Y-116656828D01*
X140772172Y-116561305D01*
X140659848Y-116486252D01*
X140535040Y-116434555D01*
X140402545Y-116408200D01*
X140267455Y-116408200D01*
X140134960Y-116434555D01*
X140131810Y-116435860D01*
X140131810Y-116378745D01*
X140105455Y-116246250D01*
X140053758Y-116121442D01*
X139978705Y-116009118D01*
X139883182Y-115913595D01*
X139770858Y-115838542D01*
X139646050Y-115786845D01*
X139513605Y-115760500D01*
X139805180Y-115760500D01*
X139827000Y-115762649D01*
X139848820Y-115760500D01*
X139848830Y-115760500D01*
X139914137Y-115754068D01*
X139997926Y-115728651D01*
X140075145Y-115687376D01*
X140142829Y-115631829D01*
X140156746Y-115614871D01*
X140900118Y-114871500D01*
X141252719Y-114871500D01*
X141243492Y-114874299D01*
X141177304Y-114909678D01*
X141119289Y-114957289D01*
X141071678Y-115015304D01*
X141036299Y-115081492D01*
X141014513Y-115153311D01*
X141007157Y-115228000D01*
X141009000Y-115855750D01*
X141104250Y-115951000D01*
X142113000Y-115951000D01*
X142113000Y-115931000D01*
X142367000Y-115931000D01*
X142367000Y-115951000D01*
X143375750Y-115951000D01*
X143471000Y-115855750D01*
X143472843Y-115228000D01*
X143465487Y-115153311D01*
X143443701Y-115081492D01*
X143408322Y-115015304D01*
X143360711Y-114957289D01*
X143302696Y-114909678D01*
X143236508Y-114874299D01*
X143227281Y-114871500D01*
X144535588Y-114871500D01*
X144420931Y-114894307D01*
X144196903Y-114987102D01*
X143995283Y-115121820D01*
X143823820Y-115293283D01*
X143689102Y-115494903D01*
X143596307Y-115718931D01*
X143549000Y-115956757D01*
X143549000Y-116199243D01*
X143596307Y-116437069D01*
X143689102Y-116661097D01*
X143823820Y-116862717D01*
X143995283Y-117034180D01*
X144196903Y-117168898D01*
X144420931Y-117261693D01*
X144658757Y-117309000D01*
X144901243Y-117309000D01*
X145139069Y-117261693D01*
X145363097Y-117168898D01*
X145564717Y-117034180D01*
X145736180Y-116862717D01*
X145870898Y-116661097D01*
X145963693Y-116437069D01*
X146011000Y-116199243D01*
X146011000Y-115956757D01*
X145963693Y-115718931D01*
X145870898Y-115494903D01*
X145736180Y-115293283D01*
X145564717Y-115121820D01*
X145363097Y-114987102D01*
X145139069Y-114894307D01*
X145024412Y-114871500D01*
X145865883Y-114871500D01*
X146333317Y-115338934D01*
X146229102Y-115494903D01*
X146136307Y-115718931D01*
X146089000Y-115956757D01*
X146089000Y-116199243D01*
X146136307Y-116437069D01*
X146229102Y-116661097D01*
X146363820Y-116862717D01*
X146535283Y-117034180D01*
X146736903Y-117168898D01*
X146960931Y-117261693D01*
X147198757Y-117309000D01*
X147441243Y-117309000D01*
X147679069Y-117261693D01*
X147903097Y-117168898D01*
X148104717Y-117034180D01*
X148276180Y-116862717D01*
X148410898Y-116661097D01*
X148503693Y-116437069D01*
X148551000Y-116199243D01*
X148551000Y-115956757D01*
X148503693Y-115718931D01*
X148410898Y-115494903D01*
X148333441Y-115378980D01*
X149432511Y-115378980D01*
X149456866Y-115459288D01*
X149556761Y-115678961D01*
X149697592Y-115874924D01*
X149873948Y-116039647D01*
X150079051Y-116166799D01*
X150305019Y-116251495D01*
X150495000Y-116191187D01*
X150495000Y-115189000D01*
X150749000Y-115189000D01*
X150749000Y-116191187D01*
X150938981Y-116251495D01*
X151164949Y-116166799D01*
X151370052Y-116039647D01*
X151546408Y-115874924D01*
X151687239Y-115678961D01*
X151787134Y-115459288D01*
X151811489Y-115378980D01*
X151750627Y-115189000D01*
X150749000Y-115189000D01*
X150495000Y-115189000D01*
X149493373Y-115189000D01*
X149432511Y-115378980D01*
X148333441Y-115378980D01*
X148276180Y-115293283D01*
X148104717Y-115121820D01*
X147903097Y-114987102D01*
X147679069Y-114894307D01*
X147441243Y-114847000D01*
X147198757Y-114847000D01*
X147115231Y-114863614D01*
X146996637Y-114745020D01*
X149432511Y-114745020D01*
X149493373Y-114935000D01*
X150495000Y-114935000D01*
X150495000Y-113932813D01*
X150749000Y-113932813D01*
X150749000Y-114935000D01*
X151750627Y-114935000D01*
X151811489Y-114745020D01*
X151787134Y-114664712D01*
X151687239Y-114445039D01*
X151546408Y-114249076D01*
X151370052Y-114084353D01*
X151164949Y-113957201D01*
X150938981Y-113872505D01*
X150749000Y-113932813D01*
X150495000Y-113932813D01*
X150305019Y-113872505D01*
X150079051Y-113957201D01*
X149873948Y-114084353D01*
X149697592Y-114249076D01*
X149556761Y-114445039D01*
X149456866Y-114664712D01*
X149432511Y-114745020D01*
X146996637Y-114745020D01*
X146379744Y-114128127D01*
X146365829Y-114111171D01*
X146298145Y-114055624D01*
X146220926Y-114014349D01*
X146137137Y-113988932D01*
X146071830Y-113982500D01*
X146071820Y-113982500D01*
X146050000Y-113980351D01*
X146028180Y-113982500D01*
X142774343Y-113982500D01*
X142798800Y-113859545D01*
X142798800Y-113724455D01*
X142789500Y-113677700D01*
X143462780Y-113677700D01*
X143484600Y-113679849D01*
X143506420Y-113677700D01*
X143506430Y-113677700D01*
X143571737Y-113671268D01*
X143655526Y-113645851D01*
X143732745Y-113604576D01*
X143800429Y-113549029D01*
X143814347Y-113532070D01*
X143935870Y-113410547D01*
X143952829Y-113396629D01*
X144008376Y-113328945D01*
X144049651Y-113251726D01*
X144075068Y-113167937D01*
X144081500Y-113102630D01*
X144081500Y-113102621D01*
X144083649Y-113080801D01*
X144081500Y-113058981D01*
X144081500Y-112838980D01*
X149432511Y-112838980D01*
X149456866Y-112919288D01*
X149556761Y-113138961D01*
X149697592Y-113334924D01*
X149873948Y-113499647D01*
X150079051Y-113626799D01*
X150305019Y-113711495D01*
X150495000Y-113651187D01*
X150495000Y-112649000D01*
X150749000Y-112649000D01*
X150749000Y-113651187D01*
X150938981Y-113711495D01*
X151164949Y-113626799D01*
X151370052Y-113499647D01*
X151546408Y-113334924D01*
X151687239Y-113138961D01*
X151787134Y-112919288D01*
X151811489Y-112838980D01*
X151750627Y-112649000D01*
X150749000Y-112649000D01*
X150495000Y-112649000D01*
X149493373Y-112649000D01*
X149432511Y-112838980D01*
X144081500Y-112838980D01*
X144081500Y-112248917D01*
X144125397Y-112205020D01*
X149432511Y-112205020D01*
X149493373Y-112395000D01*
X150495000Y-112395000D01*
X150495000Y-111392813D01*
X150749000Y-111392813D01*
X150749000Y-112395000D01*
X151750627Y-112395000D01*
X151811489Y-112205020D01*
X151787134Y-112124712D01*
X151687239Y-111905039D01*
X151546408Y-111709076D01*
X151370052Y-111544353D01*
X151164949Y-111417201D01*
X150938981Y-111332505D01*
X150749000Y-111392813D01*
X150495000Y-111392813D01*
X150305019Y-111332505D01*
X150079051Y-111417201D01*
X149873948Y-111544353D01*
X149697592Y-111709076D01*
X149556761Y-111905039D01*
X149456866Y-112124712D01*
X149432511Y-112205020D01*
X144125397Y-112205020D01*
X144570876Y-111759542D01*
X144587829Y-111745629D01*
X144601742Y-111728676D01*
X144601745Y-111728673D01*
X144643376Y-111677946D01*
X144684651Y-111600726D01*
X144694630Y-111567829D01*
X144710068Y-111516937D01*
X144716500Y-111451630D01*
X144716500Y-111451620D01*
X144718649Y-111429800D01*
X144716500Y-111407980D01*
X144716500Y-109277117D01*
X145091571Y-108902047D01*
X145108524Y-108888134D01*
X145122437Y-108871181D01*
X145122440Y-108871178D01*
X145164071Y-108820451D01*
X145205346Y-108743231D01*
X145205601Y-108742391D01*
X145230763Y-108659442D01*
X145237195Y-108594135D01*
X145237195Y-108594125D01*
X145239344Y-108572305D01*
X145237195Y-108550485D01*
X145237195Y-104819422D01*
X145414344Y-104642273D01*
X145491200Y-104649843D01*
X146761200Y-104649843D01*
X146959771Y-104630285D01*
X147150712Y-104572364D01*
X147326683Y-104478306D01*
X147480924Y-104351724D01*
X147607506Y-104197483D01*
X147701564Y-104021512D01*
X147759485Y-103830571D01*
X147779043Y-103632000D01*
X147779043Y-100511635D01*
X147887455Y-100533200D01*
X148022545Y-100533200D01*
X148155040Y-100506845D01*
X148279848Y-100455148D01*
X148392172Y-100380095D01*
X148487695Y-100284572D01*
X148562748Y-100172248D01*
X148614445Y-100047440D01*
X148640800Y-99914945D01*
X148640800Y-99779855D01*
X148614445Y-99647360D01*
X148562748Y-99522552D01*
X148488400Y-99411283D01*
X148488400Y-98825017D01*
X149237702Y-99574320D01*
X149237701Y-103813381D01*
X149235552Y-103835201D01*
X149237701Y-103857021D01*
X149237701Y-103857030D01*
X149244133Y-103922337D01*
X149268716Y-104003376D01*
X149269550Y-104006126D01*
X149302232Y-104067269D01*
X149301200Y-104072455D01*
X149301200Y-104207545D01*
X149327555Y-104340040D01*
X149379252Y-104464848D01*
X149454305Y-104577172D01*
X149549828Y-104672695D01*
X149662152Y-104747748D01*
X149786960Y-104799445D01*
X149919455Y-104825800D01*
X150054545Y-104825800D01*
X150187040Y-104799445D01*
X150311848Y-104747748D01*
X150424172Y-104672695D01*
X150469601Y-104627266D01*
X150469601Y-108749157D01*
X149772000Y-108749157D01*
X149697311Y-108756513D01*
X149625492Y-108778299D01*
X149559304Y-108813678D01*
X149501289Y-108861289D01*
X149453678Y-108919304D01*
X149418299Y-108985492D01*
X149396513Y-109057311D01*
X149389157Y-109132000D01*
X149389157Y-110832000D01*
X149396513Y-110906689D01*
X149418299Y-110978508D01*
X149453678Y-111044696D01*
X149501289Y-111102711D01*
X149559304Y-111150322D01*
X149625492Y-111185701D01*
X149697311Y-111207487D01*
X149772000Y-111214843D01*
X151472000Y-111214843D01*
X151546689Y-111207487D01*
X151618508Y-111185701D01*
X151684696Y-111150322D01*
X151742711Y-111102711D01*
X151790322Y-111044696D01*
X151825701Y-110978508D01*
X151847487Y-110906689D01*
X151854843Y-110832000D01*
X151854843Y-109132000D01*
X151847487Y-109057311D01*
X151825701Y-108985492D01*
X151790322Y-108919304D01*
X151742711Y-108861289D01*
X151684696Y-108813678D01*
X151618508Y-108778299D01*
X151546689Y-108756513D01*
X151536400Y-108755500D01*
X151536400Y-95022186D01*
X151538979Y-94995999D01*
X151536400Y-94969812D01*
X151536400Y-94969805D01*
X151528681Y-94891435D01*
X151498181Y-94790889D01*
X151448651Y-94698225D01*
X151411698Y-94653198D01*
X151398693Y-94637351D01*
X151398691Y-94637349D01*
X151381995Y-94617005D01*
X151361651Y-94600309D01*
X149123400Y-92362059D01*
X149123400Y-88926187D01*
X149125979Y-88900000D01*
X149123400Y-88873813D01*
X149123400Y-88873805D01*
X149115681Y-88795435D01*
X149085181Y-88694889D01*
X149035651Y-88602225D01*
X148968995Y-88521005D01*
X148948645Y-88504304D01*
X147080696Y-86636355D01*
X147063995Y-86616005D01*
X146982775Y-86549349D01*
X146890111Y-86499819D01*
X146789565Y-86469319D01*
X146711195Y-86461600D01*
X146711187Y-86461600D01*
X146685000Y-86459021D01*
X146658813Y-86461600D01*
X146542111Y-86461600D01*
X146717607Y-86434977D01*
X146973435Y-86342490D01*
X147085490Y-86282596D01*
X147195662Y-86089267D01*
X146376000Y-85269605D01*
X145556338Y-86089267D01*
X145666510Y-86282596D01*
X145912806Y-86398095D01*
X146169923Y-86461600D01*
X143875274Y-86461600D01*
X144094823Y-86417929D01*
X144346149Y-86313826D01*
X144572336Y-86162693D01*
X144764693Y-85970336D01*
X144915826Y-85744149D01*
X145019929Y-85492823D01*
X145031721Y-85433539D01*
X145123510Y-85687435D01*
X145183404Y-85799490D01*
X145376733Y-85909662D01*
X146196395Y-85090000D01*
X146555605Y-85090000D01*
X147375267Y-85909662D01*
X147568596Y-85799490D01*
X147684095Y-85553194D01*
X147749324Y-85289097D01*
X147761778Y-85017349D01*
X147720977Y-84748393D01*
X147628490Y-84492565D01*
X147568596Y-84380510D01*
X147375267Y-84270338D01*
X146555605Y-85090000D01*
X146196395Y-85090000D01*
X145376733Y-84270338D01*
X145183404Y-84380510D01*
X145067905Y-84626806D01*
X145034679Y-84761330D01*
X145019929Y-84687177D01*
X144915826Y-84435851D01*
X144764693Y-84209664D01*
X144645762Y-84090733D01*
X145556338Y-84090733D01*
X146376000Y-84910395D01*
X147195662Y-84090733D01*
X147085490Y-83897404D01*
X146839194Y-83781905D01*
X146575097Y-83716676D01*
X146303349Y-83704222D01*
X146034393Y-83745023D01*
X145778565Y-83837510D01*
X145666510Y-83897404D01*
X145556338Y-84090733D01*
X144645762Y-84090733D01*
X144572336Y-84017307D01*
X144346149Y-83866174D01*
X144094823Y-83762071D01*
X143828017Y-83709000D01*
X143555983Y-83709000D01*
X143289177Y-83762071D01*
X143037851Y-83866174D01*
X142811664Y-84017307D01*
X142619307Y-84209664D01*
X142468174Y-84435851D01*
X142364071Y-84687177D01*
X142311000Y-84953983D01*
X142311000Y-85226017D01*
X142364071Y-85492823D01*
X142468174Y-85744149D01*
X142619307Y-85970336D01*
X142811664Y-86162693D01*
X143037851Y-86313826D01*
X143289177Y-86417929D01*
X143508726Y-86461600D01*
X139412942Y-86461600D01*
X139405719Y-86454378D01*
X139533607Y-86434977D01*
X139789435Y-86342490D01*
X139901490Y-86282596D01*
X140011662Y-86089267D01*
X139192000Y-85269605D01*
X138381005Y-86080600D01*
X137567187Y-86080600D01*
X137541000Y-86078021D01*
X137514813Y-86080600D01*
X137514805Y-86080600D01*
X137436435Y-86088319D01*
X137335889Y-86118819D01*
X137243225Y-86168349D01*
X137162005Y-86235005D01*
X137145304Y-86255355D01*
X136293350Y-87107309D01*
X136273006Y-87124005D01*
X136256310Y-87144349D01*
X136256307Y-87144352D01*
X136253806Y-87147400D01*
X136206350Y-87205225D01*
X136206349Y-87205227D01*
X136156819Y-87297890D01*
X136126319Y-87398436D01*
X136116021Y-87503000D01*
X136118601Y-87529197D01*
X136118600Y-91286813D01*
X136116021Y-91313000D01*
X136118600Y-91339187D01*
X136118600Y-91339194D01*
X136126319Y-91417564D01*
X136156819Y-91518110D01*
X136206349Y-91610775D01*
X136273005Y-91691995D01*
X136293355Y-91708696D01*
X136652000Y-92067341D01*
X136652000Y-92248483D01*
X136577652Y-92359752D01*
X136525955Y-92484560D01*
X136499600Y-92617055D01*
X136499600Y-92752145D01*
X136525955Y-92884640D01*
X136577652Y-93009448D01*
X136652705Y-93121772D01*
X136748228Y-93217295D01*
X136860552Y-93292348D01*
X136985360Y-93344045D01*
X137117855Y-93370400D01*
X137252945Y-93370400D01*
X137385440Y-93344045D01*
X137510248Y-93292348D01*
X137622572Y-93217295D01*
X137718095Y-93121772D01*
X137793148Y-93009448D01*
X137844845Y-92884640D01*
X137871200Y-92752145D01*
X137871200Y-92617055D01*
X137865673Y-92589267D01*
X138372338Y-92589267D01*
X138482510Y-92782596D01*
X138728806Y-92898095D01*
X138992903Y-92963324D01*
X139264651Y-92975778D01*
X139533607Y-92934977D01*
X139789435Y-92842490D01*
X139901490Y-92782596D01*
X140011662Y-92589267D01*
X139192000Y-91769605D01*
X138372338Y-92589267D01*
X137865673Y-92589267D01*
X137844845Y-92484560D01*
X137793148Y-92359752D01*
X137718800Y-92248483D01*
X137718800Y-91872594D01*
X137721380Y-91846400D01*
X137711081Y-91741836D01*
X137706283Y-91726017D01*
X137687062Y-91662651D01*
X137806222Y-91662651D01*
X137847023Y-91931607D01*
X137939510Y-92187435D01*
X137999404Y-92299490D01*
X138192733Y-92409662D01*
X139012395Y-91590000D01*
X138192733Y-90770338D01*
X137999404Y-90880510D01*
X137883905Y-91126806D01*
X137818676Y-91390903D01*
X137806222Y-91662651D01*
X137687062Y-91662651D01*
X137680581Y-91641289D01*
X137631051Y-91548625D01*
X137564395Y-91467405D01*
X137544045Y-91450704D01*
X137185400Y-91092059D01*
X137185400Y-87723941D01*
X137761941Y-87147400D01*
X138590059Y-87147400D01*
X138796309Y-87353650D01*
X138813005Y-87373995D01*
X138894225Y-87440651D01*
X138986889Y-87490181D01*
X139087435Y-87520681D01*
X139165805Y-87528400D01*
X139165812Y-87528400D01*
X139191999Y-87530979D01*
X139218186Y-87528400D01*
X146464059Y-87528400D01*
X148056600Y-89120941D01*
X148056601Y-92556803D01*
X148054021Y-92583000D01*
X148064319Y-92687564D01*
X148094819Y-92788110D01*
X148095383Y-92789165D01*
X148144350Y-92880775D01*
X148164911Y-92905828D01*
X148194307Y-92941648D01*
X148194310Y-92941651D01*
X148211006Y-92961995D01*
X148231350Y-92978691D01*
X150469600Y-95216942D01*
X150469601Y-103652734D01*
X150424172Y-103607305D01*
X150311848Y-103532252D01*
X150187040Y-103480555D01*
X150126701Y-103468553D01*
X150126701Y-99412021D01*
X150128850Y-99390201D01*
X150126701Y-99368381D01*
X150126701Y-99368371D01*
X150120269Y-99303064D01*
X150094852Y-99219275D01*
X150053577Y-99142055D01*
X150011946Y-99091328D01*
X150011943Y-99091325D01*
X149998030Y-99074372D01*
X149981077Y-99060459D01*
X148411745Y-97491128D01*
X148397829Y-97474171D01*
X148357105Y-97440750D01*
X148330145Y-97418624D01*
X148252925Y-97377349D01*
X148169137Y-97351933D01*
X148082000Y-97343351D01*
X148081999Y-97343351D01*
X147994862Y-97351933D01*
X147911074Y-97377349D01*
X147869799Y-97399412D01*
X147833855Y-97418624D01*
X147766171Y-97474171D01*
X147752253Y-97491130D01*
X147580382Y-97663001D01*
X144230319Y-97663001D01*
X144208499Y-97660852D01*
X144186679Y-97663001D01*
X144186669Y-97663001D01*
X144161542Y-97665476D01*
X144990875Y-96836143D01*
X145007828Y-96822230D01*
X145021741Y-96805277D01*
X145021744Y-96805274D01*
X145063375Y-96754547D01*
X145104650Y-96677327D01*
X145122116Y-96619748D01*
X145130067Y-96593538D01*
X145136499Y-96528231D01*
X145136499Y-96528221D01*
X145138648Y-96506401D01*
X145136499Y-96484581D01*
X145136499Y-92611818D01*
X145138648Y-92589998D01*
X145138577Y-92589267D01*
X145556338Y-92589267D01*
X145666510Y-92782596D01*
X145912806Y-92898095D01*
X146176903Y-92963324D01*
X146448651Y-92975778D01*
X146717607Y-92934977D01*
X146973435Y-92842490D01*
X147085490Y-92782596D01*
X147195662Y-92589267D01*
X146376000Y-91769605D01*
X145556338Y-92589267D01*
X145138577Y-92589267D01*
X145136499Y-92568178D01*
X145136499Y-92568169D01*
X145130067Y-92502862D01*
X145104650Y-92419073D01*
X145063375Y-92341854D01*
X145022503Y-92292051D01*
X145021744Y-92291126D01*
X145021741Y-92291123D01*
X145007828Y-92274170D01*
X144990876Y-92260258D01*
X144933089Y-92202472D01*
X145019929Y-91992823D01*
X145031721Y-91933539D01*
X145123510Y-92187435D01*
X145183404Y-92299490D01*
X145376733Y-92409662D01*
X146196395Y-91590000D01*
X146555605Y-91590000D01*
X147375267Y-92409662D01*
X147568596Y-92299490D01*
X147684095Y-92053194D01*
X147749324Y-91789097D01*
X147761778Y-91517349D01*
X147720977Y-91248393D01*
X147628490Y-90992565D01*
X147568596Y-90880510D01*
X147375267Y-90770338D01*
X146555605Y-91590000D01*
X146196395Y-91590000D01*
X145376733Y-90770338D01*
X145183404Y-90880510D01*
X145067905Y-91126806D01*
X145034679Y-91261330D01*
X145019929Y-91187177D01*
X144915826Y-90935851D01*
X144764693Y-90709664D01*
X144645762Y-90590733D01*
X145556338Y-90590733D01*
X146376000Y-91410395D01*
X147195662Y-90590733D01*
X147085490Y-90397404D01*
X146839194Y-90281905D01*
X146575097Y-90216676D01*
X146303349Y-90204222D01*
X146034393Y-90245023D01*
X145778565Y-90337510D01*
X145666510Y-90397404D01*
X145556338Y-90590733D01*
X144645762Y-90590733D01*
X144572336Y-90517307D01*
X144346149Y-90366174D01*
X144094823Y-90262071D01*
X143828017Y-90209000D01*
X143555983Y-90209000D01*
X143289177Y-90262071D01*
X143037851Y-90366174D01*
X142811664Y-90517307D01*
X142619307Y-90709664D01*
X142468174Y-90935851D01*
X142364071Y-91187177D01*
X142311000Y-91453983D01*
X142311000Y-91726017D01*
X142364071Y-91992823D01*
X142468174Y-92244149D01*
X142619307Y-92470336D01*
X142811664Y-92662693D01*
X143037851Y-92813826D01*
X143289177Y-92917929D01*
X143555983Y-92971000D01*
X143828017Y-92971000D01*
X144094823Y-92917929D01*
X144247499Y-92854688D01*
X144247500Y-96322282D01*
X142576130Y-97993653D01*
X142559171Y-98007571D01*
X142545255Y-98024528D01*
X142503624Y-98075255D01*
X142496346Y-98088872D01*
X142462349Y-98152475D01*
X142436932Y-98236264D01*
X142430500Y-98301571D01*
X142430500Y-98301580D01*
X142428351Y-98323400D01*
X142430500Y-98345220D01*
X142430501Y-100663770D01*
X142428351Y-100685600D01*
X142436933Y-100772737D01*
X142462349Y-100856525D01*
X142503624Y-100933745D01*
X142506700Y-100937493D01*
X142506701Y-101214318D01*
X142491561Y-101229458D01*
X142117925Y-101229458D01*
X142139248Y-101159165D01*
X142145680Y-101093858D01*
X142145680Y-101093848D01*
X142147829Y-101072028D01*
X142145680Y-101050208D01*
X142145680Y-100951540D01*
X142233875Y-100863345D01*
X142308928Y-100751021D01*
X142360625Y-100626213D01*
X142386980Y-100493718D01*
X142386980Y-100358628D01*
X142360625Y-100226133D01*
X142308928Y-100101325D01*
X142233875Y-99989001D01*
X142138352Y-99893478D01*
X142026028Y-99818425D01*
X141901220Y-99766728D01*
X141768725Y-99740373D01*
X141633635Y-99740373D01*
X141501140Y-99766728D01*
X141465300Y-99781573D01*
X141465300Y-97624867D01*
X142335677Y-96754491D01*
X142352629Y-96740579D01*
X142366542Y-96723626D01*
X142366545Y-96723623D01*
X142408176Y-96672896D01*
X142449451Y-96595676D01*
X142452211Y-96586576D01*
X142474868Y-96511887D01*
X142481300Y-96446580D01*
X142481300Y-96446570D01*
X142483449Y-96424750D01*
X142481300Y-96402930D01*
X142481300Y-94052620D01*
X142483449Y-94030800D01*
X142481300Y-94008980D01*
X142481300Y-94008970D01*
X142474868Y-93943663D01*
X142449451Y-93859874D01*
X142435368Y-93833527D01*
X142408176Y-93782654D01*
X142366545Y-93731927D01*
X142366542Y-93731924D01*
X142352629Y-93714971D01*
X142335676Y-93701058D01*
X141897100Y-93262483D01*
X141897100Y-91131619D01*
X141899249Y-91109799D01*
X141897100Y-91087979D01*
X141897100Y-91087970D01*
X141890668Y-91022663D01*
X141865251Y-90938874D01*
X141853723Y-90917307D01*
X141823976Y-90861654D01*
X141782345Y-90810927D01*
X141782342Y-90810924D01*
X141768429Y-90793971D01*
X141751476Y-90780058D01*
X139699547Y-88728130D01*
X139685629Y-88711171D01*
X139617945Y-88655624D01*
X139540726Y-88614349D01*
X139456937Y-88588932D01*
X139391630Y-88582500D01*
X139391620Y-88582500D01*
X139369800Y-88580351D01*
X139347980Y-88582500D01*
X139082367Y-88582500D01*
X138994172Y-88494305D01*
X138881848Y-88419252D01*
X138779854Y-88377005D01*
X138835687Y-88321172D01*
X138910740Y-88208848D01*
X138962437Y-88084040D01*
X138988792Y-87951545D01*
X138988792Y-87816455D01*
X138962437Y-87683960D01*
X138910740Y-87559152D01*
X138835687Y-87446828D01*
X138740164Y-87351305D01*
X138627840Y-87276252D01*
X138503032Y-87224555D01*
X138370537Y-87198200D01*
X138235447Y-87198200D01*
X138102952Y-87224555D01*
X137978144Y-87276252D01*
X137865820Y-87351305D01*
X137770297Y-87446828D01*
X137695244Y-87559152D01*
X137643547Y-87683960D01*
X137617192Y-87816455D01*
X137617192Y-87941183D01*
X137496125Y-88062250D01*
X137479172Y-88076163D01*
X137465259Y-88093116D01*
X137465255Y-88093120D01*
X137423624Y-88143847D01*
X137382349Y-88221067D01*
X137356933Y-88304855D01*
X137348351Y-88391992D01*
X137350501Y-88413822D01*
X137350500Y-89767180D01*
X137348351Y-89789000D01*
X137350500Y-89810820D01*
X137350500Y-89810829D01*
X137356932Y-89876136D01*
X137369025Y-89916000D01*
X137382349Y-89959925D01*
X137423624Y-90037145D01*
X137461185Y-90082913D01*
X137479171Y-90104829D01*
X137496130Y-90118747D01*
X137592253Y-90214870D01*
X137606171Y-90231829D01*
X137673855Y-90287376D01*
X137751074Y-90328651D01*
X137834863Y-90354068D01*
X137900170Y-90360500D01*
X137900179Y-90360500D01*
X137921999Y-90362649D01*
X137943819Y-90360500D01*
X138551553Y-90360500D01*
X138482510Y-90397404D01*
X138372338Y-90590733D01*
X139192000Y-91410395D01*
X139206143Y-91396253D01*
X139385748Y-91575858D01*
X139371605Y-91590000D01*
X140191267Y-92409662D01*
X140384596Y-92299490D01*
X140500095Y-92053194D01*
X140565324Y-91789097D01*
X140577778Y-91517349D01*
X140560798Y-91405415D01*
X140601701Y-91446319D01*
X140601700Y-93500980D01*
X140599551Y-93522800D01*
X140601700Y-93544620D01*
X140601700Y-93544629D01*
X140608132Y-93609936D01*
X140623144Y-93659424D01*
X140633549Y-93693725D01*
X140674824Y-93770945D01*
X140712269Y-93816571D01*
X140730371Y-93838629D01*
X140747329Y-93852546D01*
X141211301Y-94316519D01*
X141211301Y-94456604D01*
X141114993Y-94437447D01*
X141060899Y-94383354D01*
X141044199Y-94363005D01*
X140962979Y-94296349D01*
X140870315Y-94246819D01*
X140769769Y-94216319D01*
X140691399Y-94208600D01*
X140691391Y-94208600D01*
X140665204Y-94206021D01*
X140639017Y-94208600D01*
X137011917Y-94208600D01*
X136900648Y-94134252D01*
X136775840Y-94082555D01*
X136643345Y-94056200D01*
X136508255Y-94056200D01*
X136375760Y-94082555D01*
X136250952Y-94134252D01*
X136138628Y-94209305D01*
X136043105Y-94304828D01*
X135968052Y-94417152D01*
X135916355Y-94541960D01*
X135890000Y-94674455D01*
X135890000Y-94809545D01*
X135916355Y-94942040D01*
X135968052Y-95066848D01*
X136043105Y-95179172D01*
X136138628Y-95274695D01*
X136250952Y-95349748D01*
X136375760Y-95401445D01*
X136508255Y-95427800D01*
X136643345Y-95427800D01*
X136775840Y-95401445D01*
X136900648Y-95349748D01*
X137011917Y-95275400D01*
X140377283Y-95275400D01*
X140386759Y-95323040D01*
X140438456Y-95447848D01*
X140442916Y-95454523D01*
X140405828Y-95479305D01*
X140310305Y-95574828D01*
X140235252Y-95687152D01*
X140183555Y-95811960D01*
X140157200Y-95944455D01*
X140157200Y-96069183D01*
X140036129Y-96190254D01*
X140019171Y-96204171D01*
X140005255Y-96221128D01*
X139963624Y-96271855D01*
X139928476Y-96337613D01*
X139922349Y-96349075D01*
X139896932Y-96432864D01*
X139890500Y-96498171D01*
X139890500Y-96498180D01*
X139888351Y-96520000D01*
X139890500Y-96541820D01*
X139890501Y-98857922D01*
X139522200Y-98489623D01*
X139522200Y-97921667D01*
X139597695Y-97846172D01*
X139672748Y-97733848D01*
X139724445Y-97609040D01*
X139750800Y-97476545D01*
X139750800Y-97341455D01*
X139724445Y-97208960D01*
X139672748Y-97084152D01*
X139597695Y-96971828D01*
X139502172Y-96876305D01*
X139389848Y-96801252D01*
X139265040Y-96749555D01*
X139132545Y-96723200D01*
X138997455Y-96723200D01*
X138864960Y-96749555D01*
X138740152Y-96801252D01*
X138627828Y-96876305D01*
X138532305Y-96971828D01*
X138457252Y-97084152D01*
X138405555Y-97208960D01*
X138379200Y-97341455D01*
X138379200Y-97476545D01*
X138405555Y-97609040D01*
X138457252Y-97733848D01*
X138532305Y-97846172D01*
X138607801Y-97921668D01*
X138607800Y-98656550D01*
X138605589Y-98679000D01*
X138607800Y-98701450D01*
X138607800Y-98701459D01*
X138614415Y-98768626D01*
X138640559Y-98854808D01*
X138683013Y-98934235D01*
X138740147Y-99003853D01*
X138757597Y-99018174D01*
X138841612Y-99102189D01*
X138816352Y-99112652D01*
X138704028Y-99187705D01*
X138608505Y-99283228D01*
X138533452Y-99395552D01*
X138481755Y-99520360D01*
X138455400Y-99652855D01*
X138455400Y-99759623D01*
X138289925Y-99925098D01*
X138283851Y-99905074D01*
X138242576Y-99827855D01*
X138209571Y-99787638D01*
X138200944Y-99777126D01*
X138200942Y-99777124D01*
X138187029Y-99760171D01*
X138170077Y-99746259D01*
X137134600Y-98710783D01*
X137134600Y-98586055D01*
X137108245Y-98453560D01*
X137056548Y-98328752D01*
X136981495Y-98216428D01*
X136885972Y-98120905D01*
X136773648Y-98045852D01*
X136648840Y-97994155D01*
X136516345Y-97967800D01*
X136381255Y-97967800D01*
X136248760Y-97994155D01*
X136123952Y-98045852D01*
X136011628Y-98120905D01*
X135916105Y-98216428D01*
X135841052Y-98328752D01*
X135789355Y-98453560D01*
X135763000Y-98586055D01*
X135763000Y-98721145D01*
X135789355Y-98853640D01*
X135841052Y-98978448D01*
X135866660Y-99016773D01*
X135819152Y-99036452D01*
X135706828Y-99111505D01*
X135611305Y-99207028D01*
X135536252Y-99319352D01*
X135484555Y-99444160D01*
X135458200Y-99576655D01*
X135458200Y-99711745D01*
X135484555Y-99844240D01*
X135536252Y-99969048D01*
X135611305Y-100081372D01*
X135706828Y-100176895D01*
X135819152Y-100251948D01*
X135943960Y-100303645D01*
X136076455Y-100330000D01*
X136211545Y-100330000D01*
X136344040Y-100303645D01*
X136468848Y-100251948D01*
X136479232Y-100245009D01*
X137083800Y-100849578D01*
X137083800Y-100943119D01*
X137045071Y-100849618D01*
X136970018Y-100737294D01*
X136874495Y-100641771D01*
X136762171Y-100566718D01*
X136637363Y-100515021D01*
X136504868Y-100488666D01*
X136369778Y-100488666D01*
X136237283Y-100515021D01*
X136112475Y-100566718D01*
X136000151Y-100641771D01*
X135904628Y-100737294D01*
X135829575Y-100849618D01*
X135777878Y-100974426D01*
X135751770Y-101105677D01*
X135486048Y-101371400D01*
X134688536Y-101371400D01*
X134137147Y-100820011D01*
X134111039Y-100688760D01*
X134059342Y-100563952D01*
X133984289Y-100451628D01*
X133888766Y-100356105D01*
X133776442Y-100281052D01*
X133651634Y-100229355D01*
X133519139Y-100203000D01*
X133384049Y-100203000D01*
X133251554Y-100229355D01*
X133126746Y-100281052D01*
X133014422Y-100356105D01*
X132918899Y-100451628D01*
X132843846Y-100563952D01*
X132792149Y-100688760D01*
X132765794Y-100821255D01*
X132765794Y-100956345D01*
X132792149Y-101088840D01*
X132843846Y-101213648D01*
X132918899Y-101325972D01*
X133014422Y-101421495D01*
X133126746Y-101496548D01*
X133251554Y-101548245D01*
X133382805Y-101574353D01*
X134071903Y-102263451D01*
X134088599Y-102283795D01*
X134108943Y-102300491D01*
X134108945Y-102300493D01*
X134119577Y-102309218D01*
X134169819Y-102350451D01*
X134262483Y-102399981D01*
X134363029Y-102430481D01*
X134441399Y-102438200D01*
X134441407Y-102438200D01*
X134467594Y-102440779D01*
X134493781Y-102438200D01*
X134803120Y-102438200D01*
X134798258Y-102444124D01*
X134562883Y-102679500D01*
X131085819Y-102679500D01*
X131063999Y-102677351D01*
X131042179Y-102679500D01*
X131042170Y-102679500D01*
X130976863Y-102685932D01*
X130893074Y-102711349D01*
X130815855Y-102752624D01*
X130815853Y-102752625D01*
X130815854Y-102752625D01*
X130765127Y-102794255D01*
X130765124Y-102794258D01*
X130748171Y-102808171D01*
X130734258Y-102825124D01*
X129835129Y-103724254D01*
X129737848Y-103659252D01*
X129613040Y-103607555D01*
X129480545Y-103581200D01*
X129345455Y-103581200D01*
X129212960Y-103607555D01*
X129088152Y-103659252D01*
X128975828Y-103734305D01*
X128880305Y-103829828D01*
X128805252Y-103942152D01*
X128753555Y-104066960D01*
X128727200Y-104199455D01*
X128727200Y-104334545D01*
X128753555Y-104467040D01*
X128805252Y-104591848D01*
X128880305Y-104704172D01*
X128975828Y-104799695D01*
X129088152Y-104874748D01*
X129212960Y-104926445D01*
X129258816Y-104935566D01*
X129114130Y-105080253D01*
X129097171Y-105094171D01*
X129083255Y-105111128D01*
X129041624Y-105161855D01*
X129016730Y-105208429D01*
X129000349Y-105239075D01*
X128974932Y-105322864D01*
X128968500Y-105388171D01*
X128968500Y-105388180D01*
X128966351Y-105410000D01*
X128968500Y-105431820D01*
X128968501Y-108182170D01*
X128966351Y-108204000D01*
X128974933Y-108291137D01*
X129000349Y-108374925D01*
X129041624Y-108452145D01*
X129083255Y-108502872D01*
X129083259Y-108502876D01*
X129097172Y-108519829D01*
X129114125Y-108533742D01*
X129330413Y-108750031D01*
X129000250Y-108751000D01*
X128905000Y-108846250D01*
X128905000Y-109855000D01*
X128925000Y-109855000D01*
X128925000Y-110109000D01*
X128905000Y-110109000D01*
X128905000Y-110129000D01*
X128651000Y-110129000D01*
X128651000Y-110109000D01*
X127642250Y-110109000D01*
X127547000Y-110204250D01*
X127545157Y-110832000D01*
X127548141Y-110862298D01*
X127513855Y-110880624D01*
X127446171Y-110936171D01*
X127432249Y-110953135D01*
X127406000Y-110979384D01*
X127406000Y-109132000D01*
X127545157Y-109132000D01*
X127547000Y-109759750D01*
X127642250Y-109855000D01*
X128651000Y-109855000D01*
X128651000Y-108846250D01*
X128555750Y-108751000D01*
X127928000Y-108749157D01*
X127853311Y-108756513D01*
X127781492Y-108778299D01*
X127715304Y-108813678D01*
X127657289Y-108861289D01*
X127609678Y-108919304D01*
X127574299Y-108985492D01*
X127552513Y-109057311D01*
X127545157Y-109132000D01*
X127406000Y-109132000D01*
X127406000Y-93220000D01*
X128574738Y-93220000D01*
X128591748Y-93392706D01*
X128642125Y-93558775D01*
X128723932Y-93711825D01*
X128834025Y-93845975D01*
X128968175Y-93956068D01*
X129121225Y-94037875D01*
X129287294Y-94088252D01*
X129416727Y-94101000D01*
X130103273Y-94101000D01*
X130232706Y-94088252D01*
X130398775Y-94037875D01*
X130551825Y-93956068D01*
X130685975Y-93845975D01*
X130796068Y-93711825D01*
X130877875Y-93558775D01*
X130928252Y-93392706D01*
X130945262Y-93220000D01*
X132504738Y-93220000D01*
X132521748Y-93392706D01*
X132572125Y-93558775D01*
X132653932Y-93711825D01*
X132764025Y-93845975D01*
X132898175Y-93956068D01*
X133051225Y-94037875D01*
X133217294Y-94088252D01*
X133346727Y-94101000D01*
X134533273Y-94101000D01*
X134662706Y-94088252D01*
X134828775Y-94037875D01*
X134981825Y-93956068D01*
X135115975Y-93845975D01*
X135226068Y-93711825D01*
X135307875Y-93558775D01*
X135358252Y-93392706D01*
X135375262Y-93220000D01*
X135358252Y-93047294D01*
X135307875Y-92881225D01*
X135226068Y-92728175D01*
X135115975Y-92594025D01*
X134981825Y-92483932D01*
X134828775Y-92402125D01*
X134662706Y-92351748D01*
X134533273Y-92339000D01*
X133859130Y-92339000D01*
X133860049Y-92338386D01*
X133958386Y-92240049D01*
X134035649Y-92124416D01*
X134088869Y-91995933D01*
X134116000Y-91859535D01*
X134116000Y-91720465D01*
X134088869Y-91584067D01*
X134035649Y-91455584D01*
X133958386Y-91339951D01*
X133860049Y-91241614D01*
X133744416Y-91164351D01*
X133615933Y-91111131D01*
X133479535Y-91084000D01*
X133340465Y-91084000D01*
X133204067Y-91111131D01*
X133075584Y-91164351D01*
X132959951Y-91241614D01*
X132861614Y-91339951D01*
X132784351Y-91455584D01*
X132731131Y-91584067D01*
X132704000Y-91720465D01*
X132704000Y-91859535D01*
X132731131Y-91995933D01*
X132784351Y-92124416D01*
X132861614Y-92240049D01*
X132959951Y-92338386D01*
X133054058Y-92401266D01*
X133051225Y-92402125D01*
X132898175Y-92483932D01*
X132764025Y-92594025D01*
X132653932Y-92728175D01*
X132572125Y-92881225D01*
X132521748Y-93047294D01*
X132504738Y-93220000D01*
X130945262Y-93220000D01*
X130928252Y-93047294D01*
X130877875Y-92881225D01*
X130796068Y-92728175D01*
X130685975Y-92594025D01*
X130551825Y-92483932D01*
X130398775Y-92402125D01*
X130232706Y-92351748D01*
X130103273Y-92339000D01*
X129416727Y-92339000D01*
X129287294Y-92351748D01*
X129121225Y-92402125D01*
X128968175Y-92483932D01*
X128834025Y-92594025D01*
X128723932Y-92728175D01*
X128642125Y-92881225D01*
X128591748Y-93047294D01*
X128574738Y-93220000D01*
X127406000Y-93220000D01*
X127406000Y-84580000D01*
X128574738Y-84580000D01*
X128591748Y-84752706D01*
X128642125Y-84918775D01*
X128723932Y-85071825D01*
X128834025Y-85205975D01*
X128968175Y-85316068D01*
X129121225Y-85397875D01*
X129287294Y-85448252D01*
X129416727Y-85461000D01*
X130103273Y-85461000D01*
X130232706Y-85448252D01*
X130398775Y-85397875D01*
X130551825Y-85316068D01*
X130685975Y-85205975D01*
X130796068Y-85071825D01*
X130877875Y-84918775D01*
X130928252Y-84752706D01*
X130945262Y-84580000D01*
X132504738Y-84580000D01*
X132521748Y-84752706D01*
X132572125Y-84918775D01*
X132653932Y-85071825D01*
X132764025Y-85205975D01*
X132898175Y-85316068D01*
X133051225Y-85397875D01*
X133054058Y-85398734D01*
X132959951Y-85461614D01*
X132861614Y-85559951D01*
X132784351Y-85675584D01*
X132731131Y-85804067D01*
X132704000Y-85940465D01*
X132704000Y-86079535D01*
X132731131Y-86215933D01*
X132784351Y-86344416D01*
X132861614Y-86460049D01*
X132959951Y-86558386D01*
X133075584Y-86635649D01*
X133204067Y-86688869D01*
X133340465Y-86716000D01*
X133479535Y-86716000D01*
X133615933Y-86688869D01*
X133744416Y-86635649D01*
X133860049Y-86558386D01*
X133958386Y-86460049D01*
X134035649Y-86344416D01*
X134088869Y-86215933D01*
X134116000Y-86079535D01*
X134116000Y-85940465D01*
X134088869Y-85804067D01*
X134035649Y-85675584D01*
X133958386Y-85559951D01*
X133860049Y-85461614D01*
X133859130Y-85461000D01*
X134533273Y-85461000D01*
X134662706Y-85448252D01*
X134828775Y-85397875D01*
X134981825Y-85316068D01*
X135115975Y-85205975D01*
X135151529Y-85162651D01*
X137806222Y-85162651D01*
X137847023Y-85431607D01*
X137939510Y-85687435D01*
X137999404Y-85799490D01*
X138192733Y-85909662D01*
X139012395Y-85090000D01*
X139371605Y-85090000D01*
X140191267Y-85909662D01*
X140384596Y-85799490D01*
X140500095Y-85553194D01*
X140565324Y-85289097D01*
X140577778Y-85017349D01*
X140536977Y-84748393D01*
X140444490Y-84492565D01*
X140384596Y-84380510D01*
X140191267Y-84270338D01*
X139371605Y-85090000D01*
X139012395Y-85090000D01*
X138192733Y-84270338D01*
X137999404Y-84380510D01*
X137883905Y-84626806D01*
X137818676Y-84890903D01*
X137806222Y-85162651D01*
X135151529Y-85162651D01*
X135226068Y-85071825D01*
X135307875Y-84918775D01*
X135358252Y-84752706D01*
X135375262Y-84580000D01*
X135358252Y-84407294D01*
X135307875Y-84241225D01*
X135227436Y-84090733D01*
X138372338Y-84090733D01*
X139192000Y-84910395D01*
X140011662Y-84090733D01*
X139901490Y-83897404D01*
X139655194Y-83781905D01*
X139391097Y-83716676D01*
X139119349Y-83704222D01*
X138850393Y-83745023D01*
X138594565Y-83837510D01*
X138482510Y-83897404D01*
X138372338Y-84090733D01*
X135227436Y-84090733D01*
X135226068Y-84088175D01*
X135115975Y-83954025D01*
X134981825Y-83843932D01*
X134828775Y-83762125D01*
X134662706Y-83711748D01*
X134533273Y-83699000D01*
X133346727Y-83699000D01*
X133217294Y-83711748D01*
X133051225Y-83762125D01*
X132898175Y-83843932D01*
X132764025Y-83954025D01*
X132653932Y-84088175D01*
X132572125Y-84241225D01*
X132521748Y-84407294D01*
X132504738Y-84580000D01*
X130945262Y-84580000D01*
X130928252Y-84407294D01*
X130877875Y-84241225D01*
X130796068Y-84088175D01*
X130685975Y-83954025D01*
X130551825Y-83843932D01*
X130398775Y-83762125D01*
X130232706Y-83711748D01*
X130103273Y-83699000D01*
X129416727Y-83699000D01*
X129287294Y-83711748D01*
X129121225Y-83762125D01*
X128968175Y-83843932D01*
X128834025Y-83954025D01*
X128723932Y-84088175D01*
X128642125Y-84241225D01*
X128591748Y-84407294D01*
X128574738Y-84580000D01*
X127406000Y-84580000D01*
X127406000Y-84347853D01*
X127429201Y-84111229D01*
X127492158Y-83902704D01*
X127594415Y-83710387D01*
X127732082Y-83541590D01*
X127899911Y-83402750D01*
X128091513Y-83299152D01*
X128299588Y-83234742D01*
X128534991Y-83210000D01*
X150856147Y-83210000D01*
X151092771Y-83233201D01*
G37*
%TD.AperFunction*%
D21*
X130979276Y-109558724D02*
X131133517Y-109685306D01*
X131309488Y-109779364D01*
X131500429Y-109837285D01*
X131699000Y-109856843D01*
X131889501Y-109856843D01*
X131889501Y-111103170D01*
X131887351Y-111125000D01*
X131895933Y-111212137D01*
X131921349Y-111295925D01*
X131962624Y-111373145D01*
X132004255Y-111423872D01*
X132004259Y-111423876D01*
X132018172Y-111440829D01*
X132035125Y-111454742D01*
X132512256Y-111931874D01*
X132526171Y-111948829D01*
X132543124Y-111962742D01*
X132543126Y-111962744D01*
X132593853Y-112004375D01*
X132593855Y-112004376D01*
X132671074Y-112045651D01*
X132754863Y-112071068D01*
X132820170Y-112077500D01*
X132820179Y-112077500D01*
X132841999Y-112079649D01*
X132863819Y-112077500D01*
X133103827Y-112077500D01*
X132924130Y-112257197D01*
X132907171Y-112271115D01*
X132893255Y-112288072D01*
X132851624Y-112338799D01*
X132817828Y-112402027D01*
X132810349Y-112416019D01*
X132784932Y-112499808D01*
X132778500Y-112565115D01*
X132778500Y-112565124D01*
X132776351Y-112586944D01*
X132778500Y-112608764D01*
X132778500Y-114845602D01*
X132302250Y-114847000D01*
X132207002Y-114942248D01*
X132207002Y-114870227D01*
X132263172Y-114832695D01*
X132358695Y-114737172D01*
X132433748Y-114624848D01*
X132485445Y-114500040D01*
X132511800Y-114367545D01*
X132511800Y-114232455D01*
X132485445Y-114099960D01*
X132433748Y-113975152D01*
X132358695Y-113862828D01*
X132263172Y-113767305D01*
X132150848Y-113692252D01*
X132026040Y-113640555D01*
X131893545Y-113614200D01*
X131758455Y-113614200D01*
X131625960Y-113640555D01*
X131501152Y-113692252D01*
X131388828Y-113767305D01*
X131293305Y-113862828D01*
X131218252Y-113975152D01*
X131166555Y-114099960D01*
X131140200Y-114232455D01*
X131140200Y-114367545D01*
X131166555Y-114500040D01*
X131218252Y-114624848D01*
X131293305Y-114737172D01*
X131388828Y-114832695D01*
X131408262Y-114845680D01*
X131230000Y-114845157D01*
X131155311Y-114852513D01*
X131083492Y-114874299D01*
X131017304Y-114909678D01*
X130959289Y-114957289D01*
X130911678Y-115015304D01*
X130876299Y-115081492D01*
X130854513Y-115153311D01*
X130847157Y-115228000D01*
X130849000Y-115855750D01*
X130944250Y-115951000D01*
X131953000Y-115951000D01*
X131953000Y-115931000D01*
X132207000Y-115931000D01*
X132207000Y-115951000D01*
X132227000Y-115951000D01*
X132227000Y-116205000D01*
X132207000Y-116205000D01*
X132207000Y-116225000D01*
X131953000Y-116225000D01*
X131953000Y-116205000D01*
X130944250Y-116205000D01*
X130849000Y-116300250D01*
X130847157Y-116928000D01*
X130854513Y-117002689D01*
X130876299Y-117074508D01*
X130911678Y-117140696D01*
X130925468Y-117157500D01*
X129926306Y-117157500D01*
X129868898Y-117018903D01*
X129734180Y-116817283D01*
X129562717Y-116645820D01*
X129361097Y-116511102D01*
X129137069Y-116418307D01*
X128899243Y-116371000D01*
X128656757Y-116371000D01*
X128418931Y-116418307D01*
X128194903Y-116511102D01*
X127993283Y-116645820D01*
X127952500Y-116686603D01*
X127952500Y-115977397D01*
X127993283Y-116018180D01*
X128194903Y-116152898D01*
X128418931Y-116245693D01*
X128656757Y-116293000D01*
X128899243Y-116293000D01*
X129137069Y-116245693D01*
X129361097Y-116152898D01*
X129562717Y-116018180D01*
X129734180Y-115846717D01*
X129868898Y-115645097D01*
X129961693Y-115421069D01*
X130009000Y-115183243D01*
X130009000Y-114940757D01*
X129961693Y-114702931D01*
X129868898Y-114478903D01*
X129734180Y-114277283D01*
X129562717Y-114105820D01*
X129361097Y-113971102D01*
X129137069Y-113878307D01*
X128899243Y-113831000D01*
X128656757Y-113831000D01*
X128418931Y-113878307D01*
X128194903Y-113971102D01*
X127993283Y-114105820D01*
X127952500Y-114146603D01*
X127952500Y-113437397D01*
X127993283Y-113478180D01*
X128194903Y-113612898D01*
X128418931Y-113705693D01*
X128656757Y-113753000D01*
X128899243Y-113753000D01*
X129137069Y-113705693D01*
X129361097Y-113612898D01*
X129562717Y-113478180D01*
X129734180Y-113306717D01*
X129868898Y-113105097D01*
X129935845Y-112943473D01*
X129964926Y-112934651D01*
X130042145Y-112893376D01*
X130109829Y-112837829D01*
X130123746Y-112820871D01*
X130727877Y-112216741D01*
X130744829Y-112202829D01*
X130758742Y-112185876D01*
X130758745Y-112185873D01*
X130800376Y-112135146D01*
X130841651Y-112057926D01*
X130842884Y-112053862D01*
X130867068Y-111974137D01*
X130873500Y-111908830D01*
X130873500Y-111908820D01*
X130875649Y-111887000D01*
X130873500Y-111865180D01*
X130873500Y-109429835D01*
X130979276Y-109558724D01*
%TA.AperFunction,Conductor*%
D22*
G36*
X130979276Y-109558724D02*
G01*
X131133517Y-109685306D01*
X131309488Y-109779364D01*
X131500429Y-109837285D01*
X131699000Y-109856843D01*
X131889501Y-109856843D01*
X131889501Y-111103170D01*
X131887351Y-111125000D01*
X131895933Y-111212137D01*
X131921349Y-111295925D01*
X131962624Y-111373145D01*
X132004255Y-111423872D01*
X132004259Y-111423876D01*
X132018172Y-111440829D01*
X132035125Y-111454742D01*
X132512256Y-111931874D01*
X132526171Y-111948829D01*
X132543124Y-111962742D01*
X132543126Y-111962744D01*
X132593853Y-112004375D01*
X132593855Y-112004376D01*
X132671074Y-112045651D01*
X132754863Y-112071068D01*
X132820170Y-112077500D01*
X132820179Y-112077500D01*
X132841999Y-112079649D01*
X132863819Y-112077500D01*
X133103827Y-112077500D01*
X132924130Y-112257197D01*
X132907171Y-112271115D01*
X132893255Y-112288072D01*
X132851624Y-112338799D01*
X132817828Y-112402027D01*
X132810349Y-112416019D01*
X132784932Y-112499808D01*
X132778500Y-112565115D01*
X132778500Y-112565124D01*
X132776351Y-112586944D01*
X132778500Y-112608764D01*
X132778500Y-114845602D01*
X132302250Y-114847000D01*
X132207002Y-114942248D01*
X132207002Y-114870227D01*
X132263172Y-114832695D01*
X132358695Y-114737172D01*
X132433748Y-114624848D01*
X132485445Y-114500040D01*
X132511800Y-114367545D01*
X132511800Y-114232455D01*
X132485445Y-114099960D01*
X132433748Y-113975152D01*
X132358695Y-113862828D01*
X132263172Y-113767305D01*
X132150848Y-113692252D01*
X132026040Y-113640555D01*
X131893545Y-113614200D01*
X131758455Y-113614200D01*
X131625960Y-113640555D01*
X131501152Y-113692252D01*
X131388828Y-113767305D01*
X131293305Y-113862828D01*
X131218252Y-113975152D01*
X131166555Y-114099960D01*
X131140200Y-114232455D01*
X131140200Y-114367545D01*
X131166555Y-114500040D01*
X131218252Y-114624848D01*
X131293305Y-114737172D01*
X131388828Y-114832695D01*
X131408262Y-114845680D01*
X131230000Y-114845157D01*
X131155311Y-114852513D01*
X131083492Y-114874299D01*
X131017304Y-114909678D01*
X130959289Y-114957289D01*
X130911678Y-115015304D01*
X130876299Y-115081492D01*
X130854513Y-115153311D01*
X130847157Y-115228000D01*
X130849000Y-115855750D01*
X130944250Y-115951000D01*
X131953000Y-115951000D01*
X131953000Y-115931000D01*
X132207000Y-115931000D01*
X132207000Y-115951000D01*
X132227000Y-115951000D01*
X132227000Y-116205000D01*
X132207000Y-116205000D01*
X132207000Y-116225000D01*
X131953000Y-116225000D01*
X131953000Y-116205000D01*
X130944250Y-116205000D01*
X130849000Y-116300250D01*
X130847157Y-116928000D01*
X130854513Y-117002689D01*
X130876299Y-117074508D01*
X130911678Y-117140696D01*
X130925468Y-117157500D01*
X129926306Y-117157500D01*
X129868898Y-117018903D01*
X129734180Y-116817283D01*
X129562717Y-116645820D01*
X129361097Y-116511102D01*
X129137069Y-116418307D01*
X128899243Y-116371000D01*
X128656757Y-116371000D01*
X128418931Y-116418307D01*
X128194903Y-116511102D01*
X127993283Y-116645820D01*
X127952500Y-116686603D01*
X127952500Y-115977397D01*
X127993283Y-116018180D01*
X128194903Y-116152898D01*
X128418931Y-116245693D01*
X128656757Y-116293000D01*
X128899243Y-116293000D01*
X129137069Y-116245693D01*
X129361097Y-116152898D01*
X129562717Y-116018180D01*
X129734180Y-115846717D01*
X129868898Y-115645097D01*
X129961693Y-115421069D01*
X130009000Y-115183243D01*
X130009000Y-114940757D01*
X129961693Y-114702931D01*
X129868898Y-114478903D01*
X129734180Y-114277283D01*
X129562717Y-114105820D01*
X129361097Y-113971102D01*
X129137069Y-113878307D01*
X128899243Y-113831000D01*
X128656757Y-113831000D01*
X128418931Y-113878307D01*
X128194903Y-113971102D01*
X127993283Y-114105820D01*
X127952500Y-114146603D01*
X127952500Y-113437397D01*
X127993283Y-113478180D01*
X128194903Y-113612898D01*
X128418931Y-113705693D01*
X128656757Y-113753000D01*
X128899243Y-113753000D01*
X129137069Y-113705693D01*
X129361097Y-113612898D01*
X129562717Y-113478180D01*
X129734180Y-113306717D01*
X129868898Y-113105097D01*
X129935845Y-112943473D01*
X129964926Y-112934651D01*
X130042145Y-112893376D01*
X130109829Y-112837829D01*
X130123746Y-112820871D01*
X130727877Y-112216741D01*
X130744829Y-112202829D01*
X130758742Y-112185876D01*
X130758745Y-112185873D01*
X130800376Y-112135146D01*
X130841651Y-112057926D01*
X130842884Y-112053862D01*
X130867068Y-111974137D01*
X130873500Y-111908830D01*
X130873500Y-111908820D01*
X130875649Y-111887000D01*
X130873500Y-111865180D01*
X130873500Y-109429835D01*
X130979276Y-109558724D01*
G37*
%TD.AperFunction*%
D21*
X140023883Y-113728500D02*
X138943031Y-113728500D01*
X139008848Y-113701238D01*
X139121172Y-113626185D01*
X139216695Y-113530662D01*
X139291748Y-113418338D01*
X139343445Y-113293530D01*
X139355445Y-113233200D01*
X140519182Y-113233200D01*
X140023883Y-113728500D01*
%TA.AperFunction,Conductor*%
D22*
G36*
X140023883Y-113728500D02*
G01*
X138943031Y-113728500D01*
X139008848Y-113701238D01*
X139121172Y-113626185D01*
X139216695Y-113530662D01*
X139291748Y-113418338D01*
X139343445Y-113293530D01*
X139355445Y-113233200D01*
X140519182Y-113233200D01*
X140023883Y-113728500D01*
G37*
%TD.AperFunction*%
D21*
X143827501Y-111245681D02*
X143338129Y-111735054D01*
X143321171Y-111748971D01*
X143307255Y-111765928D01*
X143265624Y-111816655D01*
X143239960Y-111864669D01*
X143224349Y-111893875D01*
X143198932Y-111977664D01*
X143192500Y-112042971D01*
X143192500Y-112042980D01*
X143190351Y-112064800D01*
X143192500Y-112086620D01*
X143192501Y-112788700D01*
X142499041Y-112788700D01*
X142751045Y-112536696D01*
X142771395Y-112519995D01*
X142838051Y-112438775D01*
X142887581Y-112346111D01*
X142918081Y-112245565D01*
X142925800Y-112167195D01*
X142925800Y-112167194D01*
X142928380Y-112141000D01*
X142925800Y-112114806D01*
X142925800Y-111002317D01*
X143000148Y-110891048D01*
X143051845Y-110766240D01*
X143077953Y-110634989D01*
X143827500Y-109885441D01*
X143827501Y-111245681D01*
%TA.AperFunction,Conductor*%
D22*
G36*
X143827501Y-111245681D02*
G01*
X143338129Y-111735054D01*
X143321171Y-111748971D01*
X143307255Y-111765928D01*
X143265624Y-111816655D01*
X143239960Y-111864669D01*
X143224349Y-111893875D01*
X143198932Y-111977664D01*
X143192500Y-112042971D01*
X143192500Y-112042980D01*
X143190351Y-112064800D01*
X143192500Y-112086620D01*
X143192501Y-112788700D01*
X142499041Y-112788700D01*
X142751045Y-112536696D01*
X142771395Y-112519995D01*
X142838051Y-112438775D01*
X142887581Y-112346111D01*
X142918081Y-112245565D01*
X142925800Y-112167195D01*
X142925800Y-112167194D01*
X142928380Y-112141000D01*
X142925800Y-112114806D01*
X142925800Y-111002317D01*
X143000148Y-110891048D01*
X143051845Y-110766240D01*
X143077953Y-110634989D01*
X143827500Y-109885441D01*
X143827501Y-111245681D01*
G37*
%TD.AperFunction*%
D21*
X134975601Y-108872058D02*
X133535212Y-110312447D01*
X133403960Y-110338555D01*
X133279152Y-110390252D01*
X133166828Y-110465305D01*
X133071305Y-110560828D01*
X132996252Y-110673152D01*
X132944555Y-110797960D01*
X132918200Y-110930455D01*
X132918200Y-111065545D01*
X132921934Y-111084316D01*
X132778500Y-110940883D01*
X132778500Y-109856843D01*
X132969000Y-109856843D01*
X133167571Y-109837285D01*
X133358512Y-109779364D01*
X133534483Y-109685306D01*
X133688724Y-109558724D01*
X133815306Y-109404483D01*
X133909364Y-109228512D01*
X133938652Y-109131961D01*
X134026250Y-109168245D01*
X134158745Y-109194600D01*
X134293835Y-109194600D01*
X134426330Y-109168245D01*
X134551138Y-109116548D01*
X134663462Y-109041495D01*
X134758985Y-108945972D01*
X134834038Y-108833648D01*
X134885735Y-108708840D01*
X134912090Y-108576345D01*
X134912090Y-108451617D01*
X134975601Y-108388107D01*
X134975601Y-108872058D01*
%TA.AperFunction,Conductor*%
D22*
G36*
X134975601Y-108872058D02*
G01*
X133535212Y-110312447D01*
X133403960Y-110338555D01*
X133279152Y-110390252D01*
X133166828Y-110465305D01*
X133071305Y-110560828D01*
X132996252Y-110673152D01*
X132944555Y-110797960D01*
X132918200Y-110930455D01*
X132918200Y-111065545D01*
X132921934Y-111084316D01*
X132778500Y-110940883D01*
X132778500Y-109856843D01*
X132969000Y-109856843D01*
X133167571Y-109837285D01*
X133358512Y-109779364D01*
X133534483Y-109685306D01*
X133688724Y-109558724D01*
X133815306Y-109404483D01*
X133909364Y-109228512D01*
X133938652Y-109131961D01*
X134026250Y-109168245D01*
X134158745Y-109194600D01*
X134293835Y-109194600D01*
X134426330Y-109168245D01*
X134551138Y-109116548D01*
X134663462Y-109041495D01*
X134758985Y-108945972D01*
X134834038Y-108833648D01*
X134885735Y-108708840D01*
X134912090Y-108576345D01*
X134912090Y-108451617D01*
X134975601Y-108388107D01*
X134975601Y-108872058D01*
G37*
%TD.AperFunction*%
D21*
X137602748Y-108448858D02*
X137588605Y-108463000D01*
X137602748Y-108477143D01*
X137423143Y-108656748D01*
X137409000Y-108642605D01*
X137394858Y-108656748D01*
X137223500Y-108485390D01*
X137223500Y-108468895D01*
X137229395Y-108463000D01*
X137223500Y-108457105D01*
X137223500Y-108440610D01*
X137394858Y-108269253D01*
X137409000Y-108283395D01*
X137423143Y-108269253D01*
X137602748Y-108448858D01*
%TA.AperFunction,Conductor*%
D22*
G36*
X137602748Y-108448858D02*
G01*
X137588605Y-108463000D01*
X137602748Y-108477143D01*
X137423143Y-108656748D01*
X137409000Y-108642605D01*
X137394858Y-108656748D01*
X137223500Y-108485390D01*
X137223500Y-108468895D01*
X137229395Y-108463000D01*
X137223500Y-108457105D01*
X137223500Y-108440610D01*
X137394858Y-108269253D01*
X137409000Y-108283395D01*
X137423143Y-108269253D01*
X137602748Y-108448858D01*
G37*
%TD.AperFunction*%
D21*
X140152748Y-107173858D02*
X140138605Y-107188000D01*
X140198418Y-107247813D01*
X140217624Y-107283745D01*
X140243275Y-107315000D01*
X140273171Y-107351429D01*
X140290129Y-107365346D01*
X140462000Y-107537217D01*
X140462000Y-107661945D01*
X140488355Y-107794440D01*
X140540052Y-107919248D01*
X140615105Y-108031572D01*
X140641212Y-108057679D01*
X140590217Y-108133998D01*
X140575286Y-108170044D01*
X140455524Y-108146081D01*
X140138605Y-108463000D01*
X140152748Y-108477143D01*
X139981390Y-108648500D01*
X139964895Y-108648500D01*
X139959000Y-108642605D01*
X139953105Y-108648500D01*
X139936610Y-108648500D01*
X139765253Y-108477143D01*
X139779395Y-108463000D01*
X139765253Y-108448858D01*
X139944858Y-108269253D01*
X139959000Y-108283395D01*
X140275919Y-107966476D01*
X140251486Y-107844363D01*
X140202609Y-107826883D01*
X140251486Y-107806637D01*
X140275919Y-107684524D01*
X139959000Y-107367605D01*
X139944858Y-107381748D01*
X139765253Y-107202143D01*
X139779395Y-107188000D01*
X139765253Y-107173858D01*
X139944858Y-106994253D01*
X139959000Y-107008395D01*
X139973143Y-106994253D01*
X140152748Y-107173858D01*
%TA.AperFunction,Conductor*%
D22*
G36*
X140152748Y-107173858D02*
G01*
X140138605Y-107188000D01*
X140198418Y-107247813D01*
X140217624Y-107283745D01*
X140243275Y-107315000D01*
X140273171Y-107351429D01*
X140290129Y-107365346D01*
X140462000Y-107537217D01*
X140462000Y-107661945D01*
X140488355Y-107794440D01*
X140540052Y-107919248D01*
X140615105Y-108031572D01*
X140641212Y-108057679D01*
X140590217Y-108133998D01*
X140575286Y-108170044D01*
X140455524Y-108146081D01*
X140138605Y-108463000D01*
X140152748Y-108477143D01*
X139981390Y-108648500D01*
X139964895Y-108648500D01*
X139959000Y-108642605D01*
X139953105Y-108648500D01*
X139936610Y-108648500D01*
X139765253Y-108477143D01*
X139779395Y-108463000D01*
X139765253Y-108448858D01*
X139944858Y-108269253D01*
X139959000Y-108283395D01*
X140275919Y-107966476D01*
X140251486Y-107844363D01*
X140202609Y-107826883D01*
X140251486Y-107806637D01*
X140275919Y-107684524D01*
X139959000Y-107367605D01*
X139944858Y-107381748D01*
X139765253Y-107202143D01*
X139779395Y-107188000D01*
X139765253Y-107173858D01*
X139944858Y-106994253D01*
X139959000Y-107008395D01*
X139973143Y-106994253D01*
X140152748Y-107173858D01*
G37*
%TD.AperFunction*%
D21*
X138855403Y-108426513D02*
X138647513Y-108634403D01*
X138493500Y-108480390D01*
X138493500Y-108473895D01*
X138504395Y-108463000D01*
X138493500Y-108452105D01*
X138493500Y-108445610D01*
X138669858Y-108269253D01*
X138684000Y-108283395D01*
X138698143Y-108269253D01*
X138855403Y-108426513D01*
%TA.AperFunction,Conductor*%
D22*
G36*
X138855403Y-108426513D02*
G01*
X138647513Y-108634403D01*
X138493500Y-108480390D01*
X138493500Y-108473895D01*
X138504395Y-108463000D01*
X138493500Y-108452105D01*
X138493500Y-108445610D01*
X138669858Y-108269253D01*
X138684000Y-108283395D01*
X138698143Y-108269253D01*
X138855403Y-108426513D01*
G37*
%TD.AperFunction*%
D21*
X130681157Y-108208539D02*
X130238500Y-107765883D01*
X130238500Y-105721117D01*
X130681157Y-105278460D01*
X130681157Y-108208539D01*
%TA.AperFunction,Conductor*%
D22*
G36*
X130681157Y-108208539D02*
G01*
X130238500Y-107765883D01*
X130238500Y-105721117D01*
X130681157Y-105278460D01*
X130681157Y-108208539D01*
G37*
%TD.AperFunction*%
D21*
X144473357Y-103632000D02*
X144492915Y-103830571D01*
X144550836Y-104021512D01*
X144629918Y-104169465D01*
X144493825Y-104305558D01*
X144476866Y-104319476D01*
X144462950Y-104336433D01*
X144421319Y-104387160D01*
X144385884Y-104453455D01*
X144380044Y-104464380D01*
X144354627Y-104548169D01*
X144348195Y-104613476D01*
X144348195Y-104613485D01*
X144346046Y-104635305D01*
X144348195Y-104657125D01*
X144348196Y-107395449D01*
X144326835Y-107391200D01*
X144191745Y-107391200D01*
X144059250Y-107417555D01*
X144043400Y-107424120D01*
X144043400Y-104699584D01*
X144045979Y-104673397D01*
X144043400Y-104647210D01*
X144043400Y-104647203D01*
X144035681Y-104568833D01*
X144005181Y-104468287D01*
X143955651Y-104375623D01*
X143888995Y-104294403D01*
X143868651Y-104277707D01*
X142918143Y-103327200D01*
X144473357Y-101771987D01*
X144473357Y-103632000D01*
%TA.AperFunction,Conductor*%
D22*
G36*
X144473357Y-103632000D02*
G01*
X144492915Y-103830571D01*
X144550836Y-104021512D01*
X144629918Y-104169465D01*
X144493825Y-104305558D01*
X144476866Y-104319476D01*
X144462950Y-104336433D01*
X144421319Y-104387160D01*
X144385884Y-104453455D01*
X144380044Y-104464380D01*
X144354627Y-104548169D01*
X144348195Y-104613476D01*
X144348195Y-104613485D01*
X144346046Y-104635305D01*
X144348195Y-104657125D01*
X144348196Y-107395449D01*
X144326835Y-107391200D01*
X144191745Y-107391200D01*
X144059250Y-107417555D01*
X144043400Y-107424120D01*
X144043400Y-104699584D01*
X144045979Y-104673397D01*
X144043400Y-104647210D01*
X144043400Y-104647203D01*
X144035681Y-104568833D01*
X144005181Y-104468287D01*
X143955651Y-104375623D01*
X143888995Y-104294403D01*
X143868651Y-104277707D01*
X142918143Y-103327200D01*
X144473357Y-101771987D01*
X144473357Y-103632000D01*
G37*
%TD.AperFunction*%
D21*
X137602748Y-107173858D02*
X137588605Y-107188000D01*
X137602748Y-107202143D01*
X137423143Y-107381748D01*
X137409000Y-107367605D01*
X137394858Y-107381748D01*
X137223500Y-107210390D01*
X137223500Y-107193895D01*
X137229395Y-107188000D01*
X137223500Y-107182105D01*
X137223500Y-107165610D01*
X137394858Y-106994253D01*
X137409000Y-107008395D01*
X137423143Y-106994253D01*
X137602748Y-107173858D01*
%TA.AperFunction,Conductor*%
D22*
G36*
X137602748Y-107173858D02*
G01*
X137588605Y-107188000D01*
X137602748Y-107202143D01*
X137423143Y-107381748D01*
X137409000Y-107367605D01*
X137394858Y-107381748D01*
X137223500Y-107210390D01*
X137223500Y-107193895D01*
X137229395Y-107188000D01*
X137223500Y-107182105D01*
X137223500Y-107165610D01*
X137394858Y-106994253D01*
X137409000Y-107008395D01*
X137423143Y-106994253D01*
X137602748Y-107173858D01*
G37*
%TD.AperFunction*%
D21*
X138874501Y-107170611D02*
X138874501Y-107177104D01*
X138863605Y-107188000D01*
X138874501Y-107198896D01*
X138874501Y-107205389D01*
X138698143Y-107381748D01*
X138684000Y-107367605D01*
X138669858Y-107381748D01*
X138493500Y-107205390D01*
X138493500Y-107198895D01*
X138504395Y-107188000D01*
X138493500Y-107177105D01*
X138493500Y-107170610D01*
X138669858Y-106994253D01*
X138684000Y-107008395D01*
X138698143Y-106994253D01*
X138874501Y-107170611D01*
%TA.AperFunction,Conductor*%
D22*
G36*
X138874501Y-107170611D02*
G01*
X138874501Y-107177104D01*
X138863605Y-107188000D01*
X138874501Y-107198896D01*
X138874501Y-107205389D01*
X138698143Y-107381748D01*
X138684000Y-107367605D01*
X138669858Y-107381748D01*
X138493500Y-107205390D01*
X138493500Y-107198895D01*
X138504395Y-107188000D01*
X138493500Y-107177105D01*
X138493500Y-107170610D01*
X138669858Y-106994253D01*
X138684000Y-107008395D01*
X138698143Y-106994253D01*
X138874501Y-107170611D01*
G37*
%TD.AperFunction*%
D21*
X138874500Y-105895610D02*
X138874500Y-105902105D01*
X138863605Y-105913000D01*
X138874500Y-105923895D01*
X138874500Y-105930390D01*
X138698143Y-106106748D01*
X138684000Y-106092605D01*
X138669858Y-106106748D01*
X138493500Y-105930390D01*
X138493500Y-105923895D01*
X138504395Y-105913000D01*
X138493500Y-105902105D01*
X138493500Y-105895610D01*
X138669858Y-105719253D01*
X138684000Y-105733395D01*
X138698143Y-105719253D01*
X138874500Y-105895610D01*
%TA.AperFunction,Conductor*%
D22*
G36*
X138874500Y-105895610D02*
G01*
X138874500Y-105902105D01*
X138863605Y-105913000D01*
X138874500Y-105923895D01*
X138874500Y-105930390D01*
X138698143Y-106106748D01*
X138684000Y-106092605D01*
X138669858Y-106106748D01*
X138493500Y-105930390D01*
X138493500Y-105923895D01*
X138504395Y-105913000D01*
X138493500Y-105902105D01*
X138493500Y-105895610D01*
X138669858Y-105719253D01*
X138684000Y-105733395D01*
X138698143Y-105719253D01*
X138874500Y-105895610D01*
G37*
%TD.AperFunction*%
D21*
X140144501Y-105890611D02*
X140144501Y-105907104D01*
X140138605Y-105913000D01*
X140144501Y-105918896D01*
X140144501Y-105935389D01*
X139973143Y-106106748D01*
X139959000Y-106092605D01*
X139944858Y-106106748D01*
X139765253Y-105927143D01*
X139779395Y-105913000D01*
X139765253Y-105898858D01*
X139944858Y-105719253D01*
X139959000Y-105733395D01*
X139973143Y-105719253D01*
X140144501Y-105890611D01*
%TA.AperFunction,Conductor*%
D22*
G36*
X140144501Y-105890611D02*
G01*
X140144501Y-105907104D01*
X140138605Y-105913000D01*
X140144501Y-105918896D01*
X140144501Y-105935389D01*
X139973143Y-106106748D01*
X139959000Y-106092605D01*
X139944858Y-106106748D01*
X139765253Y-105927143D01*
X139779395Y-105913000D01*
X139765253Y-105898858D01*
X139944858Y-105719253D01*
X139959000Y-105733395D01*
X139973143Y-105719253D01*
X140144501Y-105890611D01*
G37*
%TD.AperFunction*%
D21*
X137604500Y-105259677D02*
X137575175Y-105249189D01*
X137442479Y-105229525D01*
X137308496Y-105236126D01*
X137178376Y-105268739D01*
X137116514Y-105294363D01*
X137092081Y-105416476D01*
X137409000Y-105733395D01*
X137423143Y-105719253D01*
X137602748Y-105898858D01*
X137588605Y-105913000D01*
X137602748Y-105927143D01*
X137423143Y-106106748D01*
X137409000Y-106092605D01*
X137394858Y-106106748D01*
X137215253Y-105927143D01*
X137229395Y-105913000D01*
X136912476Y-105596081D01*
X136808598Y-105616865D01*
X136803445Y-105590960D01*
X136751748Y-105466152D01*
X136676695Y-105353828D01*
X136670394Y-105347527D01*
X136688149Y-105329772D01*
X136763202Y-105217448D01*
X136786500Y-105161201D01*
X136832960Y-105180445D01*
X136965455Y-105206800D01*
X137100545Y-105206800D01*
X137233040Y-105180445D01*
X137357848Y-105128748D01*
X137470172Y-105053695D01*
X137565695Y-104958172D01*
X137604500Y-104900096D01*
X137604500Y-105259677D01*
%TA.AperFunction,Conductor*%
D22*
G36*
X137604500Y-105259677D02*
G01*
X137575175Y-105249189D01*
X137442479Y-105229525D01*
X137308496Y-105236126D01*
X137178376Y-105268739D01*
X137116514Y-105294363D01*
X137092081Y-105416476D01*
X137409000Y-105733395D01*
X137423143Y-105719253D01*
X137602748Y-105898858D01*
X137588605Y-105913000D01*
X137602748Y-105927143D01*
X137423143Y-106106748D01*
X137409000Y-106092605D01*
X137394858Y-106106748D01*
X137215253Y-105927143D01*
X137229395Y-105913000D01*
X136912476Y-105596081D01*
X136808598Y-105616865D01*
X136803445Y-105590960D01*
X136751748Y-105466152D01*
X136676695Y-105353828D01*
X136670394Y-105347527D01*
X136688149Y-105329772D01*
X136763202Y-105217448D01*
X136786500Y-105161201D01*
X136832960Y-105180445D01*
X136965455Y-105206800D01*
X137100545Y-105206800D01*
X137233040Y-105180445D01*
X137357848Y-105128748D01*
X137470172Y-105053695D01*
X137565695Y-104958172D01*
X137604500Y-104900096D01*
X137604500Y-105259677D01*
G37*
%TD.AperFunction*%
%TD*%
M02*
