%TF.GenerationSoftware,KiCad,Pcbnew,(5.1.9)-1*%
%TF.CreationDate,2021-12-20T22:20:38-08:00*%
%TF.ProjectId,MCL-102-2,4d434c2d-3130-4322-9d32-2e6b69636164,rev?*%
%TF.SameCoordinates,Original*%
%TF.FileFunction,Copper,L3,Inr*%
%TF.FilePolarity,Positive*%
%FSLAX46Y46*%
G04 Gerber Fmt 4.6, Leading zero omitted, Abs format (unit mm)*
G04 Created by KiCad (PCBNEW (5.1.9)-1) date 2021-12-20 22:20:38*
%MOMM*%
%LPD*%
G01*
G04 APERTURE LIST*
%TA.AperFunction,ComponentPad*%
%ADD10C,2.000000*%
%TD*%
%TA.AperFunction,ComponentPad*%
%ADD11O,1.700000X1.700000*%
%TD*%
%TA.AperFunction,ComponentPad*%
%ADD12R,1.700000X1.700000*%
%TD*%
%TA.AperFunction,ComponentPad*%
%ADD13C,0.600000*%
%TD*%
%TA.AperFunction,ComponentPad*%
%ADD14O,2.100000X1.000000*%
%TD*%
%TA.AperFunction,ComponentPad*%
%ADD15O,1.600000X1.000000*%
%TD*%
%TA.AperFunction,ViaPad*%
%ADD16C,0.609600*%
%TD*%
%TA.AperFunction,Conductor*%
%ADD17C,0.127000*%
%TD*%
%TA.AperFunction,Conductor*%
%ADD18C,0.254000*%
%TD*%
%TA.AperFunction,Conductor*%
%ADD19C,0.100000*%
%TD*%
G04 APERTURE END LIST*
D10*
%TO.N,GND*%
%TO.C,SW1*%
X146376000Y-91590000D03*
%TO.N,/MCU/USB_BOOT*%
X150876000Y-91590000D03*
%TO.N,GND*%
X146376000Y-85090000D03*
%TO.N,/MCU/USB_BOOT*%
X150876000Y-85090000D03*
%TD*%
D11*
%TO.N,Net-(D2-Pad1)*%
%TO.C,J5*%
X137160000Y-116078000D03*
%TO.N,Net-(J5-Pad2)*%
X134620000Y-116078000D03*
D12*
%TO.N,GND*%
X132080000Y-116078000D03*
%TD*%
D11*
%TO.N,Net-(D1-Pad1)*%
%TO.C,J4*%
X147320000Y-116078000D03*
%TO.N,Net-(J4-Pad2)*%
X144780000Y-116078000D03*
D12*
%TO.N,GND*%
X142240000Y-116078000D03*
%TD*%
D10*
%TO.N,GND*%
%TO.C,SW2*%
X139192000Y-91590000D03*
%TO.N,Net-(SW2-Pad2)*%
X143692000Y-91590000D03*
%TO.N,GND*%
X139192000Y-85090000D03*
%TO.N,Net-(SW2-Pad2)*%
X143692000Y-85090000D03*
%TD*%
D11*
%TO.N,/CL*%
%TO.C,J1*%
X128778000Y-125222000D03*
%TO.N,/BL*%
X128778000Y-122682000D03*
%TO.N,/AL*%
X128778000Y-120142000D03*
%TO.N,/CH*%
X128778000Y-117602000D03*
%TO.N,/BH*%
X128778000Y-115062000D03*
%TO.N,/AH*%
X128778000Y-112522000D03*
D12*
%TO.N,GND*%
X128778000Y-109982000D03*
%TD*%
D11*
%TO.N,/TEMP*%
%TO.C,J8*%
X150622000Y-125222000D03*
%TO.N,/VBAT*%
X150622000Y-122682000D03*
%TO.N,/IMON*%
X150622000Y-120142000D03*
%TO.N,+3V3*%
X150622000Y-117602000D03*
%TO.N,GND*%
X150622000Y-115062000D03*
X150622000Y-112522000D03*
D12*
%TO.N,VDD*%
X150622000Y-109982000D03*
%TD*%
D13*
%TO.N,GND*%
%TO.C,U9*%
X139959000Y-105913000D03*
X139959000Y-107188000D03*
X139959000Y-108463000D03*
X138684000Y-105913000D03*
X138684000Y-107188000D03*
X138684000Y-108463000D03*
X137409000Y-105913000D03*
X137409000Y-107188000D03*
X137409000Y-108463000D03*
%TD*%
D14*
%TO.N,Net-(J7-PadS1)*%
%TO.C,J7*%
X133940000Y-93220000D03*
X133940000Y-84580000D03*
D15*
X129760000Y-84580000D03*
X129760000Y-93220000D03*
%TD*%
D16*
%TO.N,GND*%
X133858000Y-109855000D03*
X132613400Y-112521990D03*
X131267200Y-112496600D03*
X144322800Y-112331500D03*
X144195800Y-107213400D03*
X144056100Y-96189800D03*
X137541000Y-85699600D03*
X137744200Y-90830400D03*
X135991600Y-92329000D03*
X138633200Y-93446594D03*
X130378198Y-107035600D03*
X130810000Y-100533200D03*
X132714994Y-85470994D03*
X142925800Y-112522000D03*
X131445000Y-101828600D03*
X142494000Y-93294200D03*
X135661400Y-101066600D03*
X130810000Y-102438200D03*
X133451600Y-96037400D03*
X134543800Y-95986600D03*
X134518400Y-98272600D03*
X136296400Y-97383600D03*
X136347200Y-96088200D03*
X127711200Y-121462800D03*
X127685800Y-124002800D03*
X151612600Y-118948200D03*
X151638000Y-121361200D03*
X151663400Y-123952000D03*
X149580600Y-106959400D03*
X148056600Y-96926400D03*
X148793200Y-96215200D03*
X151815800Y-93192600D03*
X129413000Y-86156800D03*
X129362200Y-87223600D03*
X129362200Y-88493600D03*
X129362200Y-89890600D03*
X129362200Y-91465400D03*
X132359400Y-92151200D03*
X132334000Y-86715600D03*
X146177000Y-97129600D03*
X145542000Y-97586800D03*
X132334000Y-90424000D03*
X132384800Y-88366600D03*
X139700000Y-98425000D03*
X145669000Y-105410000D03*
X144907000Y-109347000D03*
X148590000Y-114681000D03*
X148602986Y-111506000D03*
X142875000Y-96393000D03*
X142367002Y-101092000D03*
X149225000Y-97282000D03*
X149098000Y-100457000D03*
X129540000Y-99822000D03*
X131064000Y-110032800D03*
X139827000Y-113538000D03*
X150393400Y-99314000D03*
X129921000Y-94996000D03*
X130048000Y-96520000D03*
X129921000Y-98171000D03*
X134239000Y-97282000D03*
X141351000Y-85598000D03*
X148844000Y-85217000D03*
X141605000Y-84836000D03*
X134239000Y-123571000D03*
X135636000Y-123571000D03*
X137160000Y-123571000D03*
X139192000Y-123571000D03*
X141224000Y-123444000D03*
X143637000Y-123698000D03*
X145034000Y-123444000D03*
X132969000Y-120269000D03*
X133731000Y-122174000D03*
X136779000Y-122301000D03*
X140462000Y-122301000D03*
X143002000Y-122428000D03*
X145669000Y-121920000D03*
X148844000Y-120904000D03*
X130175000Y-116332000D03*
X130429000Y-112903000D03*
X130302000Y-118872000D03*
X130048000Y-121285000D03*
X146939000Y-117856000D03*
X148463000Y-107442000D03*
X149352000Y-108585000D03*
X148971000Y-103124000D03*
X149479000Y-90424000D03*
X150495000Y-93345000D03*
X142113000Y-92456000D03*
X131318000Y-89281000D03*
X128651000Y-105918000D03*
X128651000Y-107696000D03*
%TO.N,VDD*%
X137185400Y-92684600D03*
%TO.N,+3V3*%
X136575800Y-94742000D03*
X147955000Y-99847400D03*
X144068800Y-99034600D03*
X142392400Y-110566200D03*
X141046204Y-95123000D03*
X138684000Y-113093490D03*
X136437323Y-101174466D03*
X133451594Y-100888800D03*
X142163802Y-103327200D03*
X136194800Y-106984800D03*
X131826000Y-114300000D03*
X144259290Y-108077000D03*
X133604000Y-110998000D03*
%TO.N,/IMON*%
X141399342Y-111692816D03*
%TO.N,/MCU/+1.1V*%
X141185900Y-106740649D03*
X134213600Y-107696000D03*
%TO.N,/TEMP_MOT*%
X140843000Y-109728000D03*
X142494000Y-121285000D03*
%TO.N,/HALLC*%
X135128000Y-104140000D03*
X140335000Y-117094000D03*
%TO.N,/HALLB*%
X135636000Y-103378000D03*
X139446010Y-116446290D03*
%TO.N,/HALLA*%
X137033000Y-104521000D03*
X135636000Y-113538000D03*
%TO.N,/MCU/SWCLK*%
X136127998Y-108188000D03*
%TO.N,/MCU/SWDIO*%
X134226290Y-108508800D03*
%TO.N,/VBAT*%
X142113000Y-113792000D03*
%TO.N,/USB_DM*%
X141197965Y-108458846D03*
X138557000Y-89027000D03*
%TO.N,/USB_DP*%
X141147800Y-107594400D03*
X138302992Y-87884000D03*
%TO.N,/MCU/LED1*%
X149987000Y-104140000D03*
X139445984Y-109728000D03*
%TO.N,/MCU/LED2*%
X129413000Y-104267000D03*
X139446000Y-111587590D03*
%TO.N,/AL*%
X136155454Y-104892600D03*
%TO.N,/AH*%
X136144000Y-105791000D03*
%TO.N,/CANRX*%
X140843000Y-96012000D03*
X138049000Y-109815328D03*
%TO.N,/MCU/CAN_nCS*%
X140766800Y-102006408D03*
X141701180Y-100426173D03*
%TO.N,/MCU/CAN_COPI*%
X139293600Y-100609408D03*
X139065000Y-97409000D03*
%TO.N,/MCU/nCANINT*%
X139141200Y-99720400D03*
X138455390Y-101498400D03*
%TO.N,/MCU/nRX0BF*%
X136448800Y-98653600D03*
X138286479Y-102353121D03*
%TO.N,/MCU/nRX1BF*%
X136144000Y-99644200D03*
X137414000Y-102438200D03*
%TO.N,/CL*%
X135128000Y-111633000D03*
%TO.N,/CH*%
X136525000Y-109728000D03*
%TO.N,/TEMP*%
X141274691Y-113842691D03*
%TO.N,Net-(SW2-Pad2)*%
X138484000Y-111426602D03*
%TO.N,Net-(D1-Pad1)*%
X134747000Y-113157000D03*
%TD*%
D17*
%TO.N,/IMON*%
X141399342Y-111692816D02*
X141399342Y-112316342D01*
X142354299Y-113271299D02*
X143624299Y-113271299D01*
X141399342Y-112316342D02*
X142354299Y-113271299D01*
X145300701Y-113271299D02*
X145300701Y-113536556D01*
X143624299Y-113271299D02*
X145300701Y-113271299D01*
X145300701Y-113536556D02*
X146202410Y-114438265D01*
X145300701Y-113271299D02*
X145402299Y-113271299D01*
X146202410Y-114438265D02*
X146202410Y-118008410D01*
X148336000Y-120142000D02*
X150622000Y-120142000D01*
X146202410Y-118008410D02*
X148336000Y-120142000D01*
%TO.N,/TEMP_MOT*%
X140843000Y-109728000D02*
X140843000Y-110744000D01*
X140843000Y-110744000D02*
X140462000Y-111125000D01*
X140462000Y-111125000D02*
X140462000Y-113411000D01*
X140462000Y-113411000D02*
X140462000Y-114173000D01*
X140462000Y-114173000D02*
X140970000Y-114681000D01*
X140970000Y-116967000D02*
X140970000Y-117602000D01*
X140970000Y-114681000D02*
X140970000Y-116967000D01*
X140970000Y-116967000D02*
X140970000Y-117094000D01*
X142494000Y-119126000D02*
X142494000Y-121285000D01*
X140970000Y-117602000D02*
X142494000Y-119126000D01*
%TO.N,/HALLC*%
X138557000Y-115824000D02*
X138557000Y-116586000D01*
X136525000Y-111252000D02*
X136525000Y-113792000D01*
X138557000Y-116586000D02*
X139065000Y-117094000D01*
X136525000Y-113792000D02*
X138557000Y-115824000D01*
X135128000Y-104140000D02*
X135128000Y-109855000D01*
X135128000Y-109855000D02*
X136525000Y-111252000D01*
X139065000Y-117094000D02*
X140335000Y-117094000D01*
%TO.N,/HALLB*%
X137033000Y-113602228D02*
X139446010Y-116015238D01*
X135636000Y-103378000D02*
X135940799Y-103682799D01*
X135940799Y-104216201D02*
X135509000Y-104648000D01*
X137033000Y-111181428D02*
X137033000Y-113602228D01*
X135940799Y-103682799D02*
X135940799Y-104216201D01*
X135509000Y-109657428D02*
X137033000Y-111181428D01*
X135509000Y-104648000D02*
X135509000Y-109657428D01*
X139446010Y-116015238D02*
X139446010Y-116446290D01*
%TO.N,/HALLA*%
X135940799Y-111175799D02*
X135940799Y-113233201D01*
X134747000Y-109982000D02*
X135940799Y-111175799D01*
X134747000Y-104775000D02*
X134747000Y-109982000D01*
X134493000Y-104521000D02*
X134747000Y-104775000D01*
X135255000Y-102743000D02*
X134493000Y-103505000D01*
X136017000Y-102743000D02*
X135255000Y-102743000D01*
X134493000Y-103505000D02*
X134493000Y-104521000D01*
X137160000Y-103886000D02*
X136017000Y-102743000D01*
X137160000Y-104394000D02*
X137160000Y-103886000D01*
X135940799Y-113233201D02*
X135636000Y-113538000D01*
X137033000Y-104521000D02*
X137160000Y-104394000D01*
%TO.N,/VBAT*%
X149733000Y-122682000D02*
X150622000Y-122682000D01*
X145923000Y-118872000D02*
X149733000Y-122682000D01*
X145923000Y-114554000D02*
X145923000Y-118872000D01*
X145161000Y-113792000D02*
X145923000Y-114554000D01*
X142113000Y-113792000D02*
X145161000Y-113792000D01*
%TO.N,/TEMP*%
X141274691Y-114223691D02*
X141274691Y-113842691D01*
X141605000Y-114554000D02*
X141274691Y-114223691D01*
X143129000Y-114554000D02*
X141605000Y-114554000D01*
X143510000Y-118110000D02*
X143510000Y-114935000D01*
X143510000Y-114935000D02*
X143129000Y-114554000D01*
X150622000Y-125222000D02*
X143510000Y-118110000D01*
%TD*%
D18*
%TO.N,GND*%
X151092771Y-83233201D02*
X151301296Y-83296158D01*
X151493613Y-83398415D01*
X151662410Y-83536082D01*
X151801250Y-83703911D01*
X151904848Y-83895513D01*
X151969258Y-84103588D01*
X151986327Y-84265988D01*
X151948693Y-84209664D01*
X151756336Y-84017307D01*
X151530149Y-83866174D01*
X151278823Y-83762071D01*
X151012017Y-83709000D01*
X150739983Y-83709000D01*
X150473177Y-83762071D01*
X150221851Y-83866174D01*
X149995664Y-84017307D01*
X149803307Y-84209664D01*
X149652174Y-84435851D01*
X149548071Y-84687177D01*
X149495000Y-84953983D01*
X149495000Y-85226017D01*
X149548071Y-85492823D01*
X149652174Y-85744149D01*
X149803307Y-85970336D01*
X149995664Y-86162693D01*
X150221851Y-86313826D01*
X150473177Y-86417929D01*
X150739983Y-86471000D01*
X151012017Y-86471000D01*
X151278823Y-86417929D01*
X151530149Y-86313826D01*
X151756336Y-86162693D01*
X151948693Y-85970336D01*
X151994001Y-85902528D01*
X151994001Y-90777472D01*
X151948693Y-90709664D01*
X151756336Y-90517307D01*
X151530149Y-90366174D01*
X151278823Y-90262071D01*
X151012017Y-90209000D01*
X150739983Y-90209000D01*
X150473177Y-90262071D01*
X150221851Y-90366174D01*
X149995664Y-90517307D01*
X149803307Y-90709664D01*
X149652174Y-90935851D01*
X149548071Y-91187177D01*
X149495000Y-91453983D01*
X149495000Y-91726017D01*
X149548071Y-91992823D01*
X149652174Y-92244149D01*
X149803307Y-92470336D01*
X149995664Y-92662693D01*
X150221851Y-92813826D01*
X150473177Y-92917929D01*
X150739983Y-92971000D01*
X151012017Y-92971000D01*
X151278823Y-92917929D01*
X151530149Y-92813826D01*
X151756336Y-92662693D01*
X151948693Y-92470336D01*
X151994001Y-92402528D01*
X151994000Y-125456147D01*
X151970799Y-125692775D01*
X151907841Y-125901296D01*
X151805583Y-126093616D01*
X151667918Y-126262409D01*
X151500090Y-126401249D01*
X151308491Y-126504847D01*
X151100414Y-126569258D01*
X150865009Y-126594000D01*
X128543853Y-126594000D01*
X128307225Y-126570799D01*
X128098704Y-126507841D01*
X127906384Y-126405583D01*
X127737591Y-126267918D01*
X127598751Y-126100090D01*
X127495153Y-125908491D01*
X127430742Y-125700414D01*
X127406000Y-125465009D01*
X127406000Y-125100757D01*
X127547000Y-125100757D01*
X127547000Y-125343243D01*
X127594307Y-125581069D01*
X127687102Y-125805097D01*
X127821820Y-126006717D01*
X127993283Y-126178180D01*
X128194903Y-126312898D01*
X128418931Y-126405693D01*
X128656757Y-126453000D01*
X128899243Y-126453000D01*
X129137069Y-126405693D01*
X129361097Y-126312898D01*
X129562717Y-126178180D01*
X129734180Y-126006717D01*
X129868898Y-125805097D01*
X129961693Y-125581069D01*
X130009000Y-125343243D01*
X130009000Y-125100757D01*
X129961693Y-124862931D01*
X129868898Y-124638903D01*
X129734180Y-124437283D01*
X129562717Y-124265820D01*
X129361097Y-124131102D01*
X129137069Y-124038307D01*
X128899243Y-123991000D01*
X128656757Y-123991000D01*
X128418931Y-124038307D01*
X128194903Y-124131102D01*
X127993283Y-124265820D01*
X127821820Y-124437283D01*
X127687102Y-124638903D01*
X127594307Y-124862931D01*
X127547000Y-125100757D01*
X127406000Y-125100757D01*
X127406000Y-122560757D01*
X127547000Y-122560757D01*
X127547000Y-122803243D01*
X127594307Y-123041069D01*
X127687102Y-123265097D01*
X127821820Y-123466717D01*
X127993283Y-123638180D01*
X128194903Y-123772898D01*
X128418931Y-123865693D01*
X128656757Y-123913000D01*
X128899243Y-123913000D01*
X129137069Y-123865693D01*
X129361097Y-123772898D01*
X129562717Y-123638180D01*
X129734180Y-123466717D01*
X129868898Y-123265097D01*
X129961693Y-123041069D01*
X130009000Y-122803243D01*
X130009000Y-122560757D01*
X129961693Y-122322931D01*
X129868898Y-122098903D01*
X129734180Y-121897283D01*
X129562717Y-121725820D01*
X129361097Y-121591102D01*
X129137069Y-121498307D01*
X128899243Y-121451000D01*
X128656757Y-121451000D01*
X128418931Y-121498307D01*
X128194903Y-121591102D01*
X127993283Y-121725820D01*
X127821820Y-121897283D01*
X127687102Y-122098903D01*
X127594307Y-122322931D01*
X127547000Y-122560757D01*
X127406000Y-122560757D01*
X127406000Y-120020757D01*
X127547000Y-120020757D01*
X127547000Y-120263243D01*
X127594307Y-120501069D01*
X127687102Y-120725097D01*
X127821820Y-120926717D01*
X127993283Y-121098180D01*
X128194903Y-121232898D01*
X128418931Y-121325693D01*
X128656757Y-121373000D01*
X128899243Y-121373000D01*
X129137069Y-121325693D01*
X129361097Y-121232898D01*
X129562717Y-121098180D01*
X129734180Y-120926717D01*
X129868898Y-120725097D01*
X129961693Y-120501069D01*
X130009000Y-120263243D01*
X130009000Y-120020757D01*
X129961693Y-119782931D01*
X129868898Y-119558903D01*
X129734180Y-119357283D01*
X129562717Y-119185820D01*
X129361097Y-119051102D01*
X129137069Y-118958307D01*
X128899243Y-118911000D01*
X128656757Y-118911000D01*
X128418931Y-118958307D01*
X128194903Y-119051102D01*
X127993283Y-119185820D01*
X127821820Y-119357283D01*
X127687102Y-119558903D01*
X127594307Y-119782931D01*
X127547000Y-120020757D01*
X127406000Y-120020757D01*
X127406000Y-117480757D01*
X127547000Y-117480757D01*
X127547000Y-117723243D01*
X127594307Y-117961069D01*
X127687102Y-118185097D01*
X127821820Y-118386717D01*
X127993283Y-118558180D01*
X128194903Y-118692898D01*
X128418931Y-118785693D01*
X128656757Y-118833000D01*
X128899243Y-118833000D01*
X129137069Y-118785693D01*
X129361097Y-118692898D01*
X129562717Y-118558180D01*
X129734180Y-118386717D01*
X129868898Y-118185097D01*
X129961693Y-117961069D01*
X130009000Y-117723243D01*
X130009000Y-117480757D01*
X129961693Y-117242931D01*
X129868898Y-117018903D01*
X129808159Y-116928000D01*
X130847157Y-116928000D01*
X130854513Y-117002689D01*
X130876299Y-117074508D01*
X130911678Y-117140696D01*
X130959289Y-117198711D01*
X131017304Y-117246322D01*
X131083492Y-117281701D01*
X131155311Y-117303487D01*
X131230000Y-117310843D01*
X131857750Y-117309000D01*
X131953000Y-117213750D01*
X131953000Y-116205000D01*
X132207000Y-116205000D01*
X132207000Y-117213750D01*
X132302250Y-117309000D01*
X132930000Y-117310843D01*
X133004689Y-117303487D01*
X133076508Y-117281701D01*
X133142696Y-117246322D01*
X133200711Y-117198711D01*
X133248322Y-117140696D01*
X133283701Y-117074508D01*
X133305487Y-117002689D01*
X133312843Y-116928000D01*
X133311000Y-116300250D01*
X133215750Y-116205000D01*
X132207000Y-116205000D01*
X131953000Y-116205000D01*
X130944250Y-116205000D01*
X130849000Y-116300250D01*
X130847157Y-116928000D01*
X129808159Y-116928000D01*
X129734180Y-116817283D01*
X129562717Y-116645820D01*
X129361097Y-116511102D01*
X129137069Y-116418307D01*
X128899243Y-116371000D01*
X128656757Y-116371000D01*
X128418931Y-116418307D01*
X128194903Y-116511102D01*
X127993283Y-116645820D01*
X127821820Y-116817283D01*
X127687102Y-117018903D01*
X127594307Y-117242931D01*
X127547000Y-117480757D01*
X127406000Y-117480757D01*
X127406000Y-114940757D01*
X127547000Y-114940757D01*
X127547000Y-115183243D01*
X127594307Y-115421069D01*
X127687102Y-115645097D01*
X127821820Y-115846717D01*
X127993283Y-116018180D01*
X128194903Y-116152898D01*
X128418931Y-116245693D01*
X128656757Y-116293000D01*
X128899243Y-116293000D01*
X129137069Y-116245693D01*
X129361097Y-116152898D01*
X129562717Y-116018180D01*
X129624140Y-115956757D01*
X133389000Y-115956757D01*
X133389000Y-116199243D01*
X133436307Y-116437069D01*
X133529102Y-116661097D01*
X133663820Y-116862717D01*
X133835283Y-117034180D01*
X134036903Y-117168898D01*
X134260931Y-117261693D01*
X134498757Y-117309000D01*
X134741243Y-117309000D01*
X134979069Y-117261693D01*
X135203097Y-117168898D01*
X135404717Y-117034180D01*
X135576180Y-116862717D01*
X135710898Y-116661097D01*
X135803693Y-116437069D01*
X135851000Y-116199243D01*
X135851000Y-115956757D01*
X135803693Y-115718931D01*
X135710898Y-115494903D01*
X135576180Y-115293283D01*
X135404717Y-115121820D01*
X135203097Y-114987102D01*
X134979069Y-114894307D01*
X134741243Y-114847000D01*
X134498757Y-114847000D01*
X134260931Y-114894307D01*
X134036903Y-114987102D01*
X133835283Y-115121820D01*
X133663820Y-115293283D01*
X133529102Y-115494903D01*
X133436307Y-115718931D01*
X133389000Y-115956757D01*
X129624140Y-115956757D01*
X129734180Y-115846717D01*
X129868898Y-115645097D01*
X129961693Y-115421069D01*
X130000097Y-115228000D01*
X130847157Y-115228000D01*
X130849000Y-115855750D01*
X130944250Y-115951000D01*
X131953000Y-115951000D01*
X131953000Y-115931000D01*
X132207000Y-115931000D01*
X132207000Y-115951000D01*
X133215750Y-115951000D01*
X133311000Y-115855750D01*
X133312843Y-115228000D01*
X133305487Y-115153311D01*
X133283701Y-115081492D01*
X133248322Y-115015304D01*
X133200711Y-114957289D01*
X133142696Y-114909678D01*
X133076508Y-114874299D01*
X133004689Y-114852513D01*
X132930000Y-114845157D01*
X132302250Y-114847000D01*
X132207002Y-114942248D01*
X132207002Y-114870227D01*
X132263172Y-114832695D01*
X132358695Y-114737172D01*
X132433748Y-114624848D01*
X132485445Y-114500040D01*
X132511800Y-114367545D01*
X132511800Y-114232455D01*
X132485445Y-114099960D01*
X132433748Y-113975152D01*
X132358695Y-113862828D01*
X132263172Y-113767305D01*
X132150848Y-113692252D01*
X132026040Y-113640555D01*
X131893545Y-113614200D01*
X131758455Y-113614200D01*
X131625960Y-113640555D01*
X131501152Y-113692252D01*
X131388828Y-113767305D01*
X131293305Y-113862828D01*
X131218252Y-113975152D01*
X131166555Y-114099960D01*
X131140200Y-114232455D01*
X131140200Y-114367545D01*
X131166555Y-114500040D01*
X131218252Y-114624848D01*
X131293305Y-114737172D01*
X131388828Y-114832695D01*
X131408262Y-114845680D01*
X131230000Y-114845157D01*
X131155311Y-114852513D01*
X131083492Y-114874299D01*
X131017304Y-114909678D01*
X130959289Y-114957289D01*
X130911678Y-115015304D01*
X130876299Y-115081492D01*
X130854513Y-115153311D01*
X130847157Y-115228000D01*
X130000097Y-115228000D01*
X130009000Y-115183243D01*
X130009000Y-114940757D01*
X129961693Y-114702931D01*
X129868898Y-114478903D01*
X129734180Y-114277283D01*
X129562717Y-114105820D01*
X129361097Y-113971102D01*
X129137069Y-113878307D01*
X128899243Y-113831000D01*
X128656757Y-113831000D01*
X128418931Y-113878307D01*
X128194903Y-113971102D01*
X127993283Y-114105820D01*
X127821820Y-114277283D01*
X127687102Y-114478903D01*
X127594307Y-114702931D01*
X127547000Y-114940757D01*
X127406000Y-114940757D01*
X127406000Y-112400757D01*
X127547000Y-112400757D01*
X127547000Y-112643243D01*
X127594307Y-112881069D01*
X127687102Y-113105097D01*
X127821820Y-113306717D01*
X127993283Y-113478180D01*
X128194903Y-113612898D01*
X128418931Y-113705693D01*
X128656757Y-113753000D01*
X128899243Y-113753000D01*
X129137069Y-113705693D01*
X129361097Y-113612898D01*
X129562717Y-113478180D01*
X129734180Y-113306717D01*
X129868898Y-113105097D01*
X129961693Y-112881069D01*
X130009000Y-112643243D01*
X130009000Y-112400757D01*
X129961693Y-112162931D01*
X129868898Y-111938903D01*
X129734180Y-111737283D01*
X129562717Y-111565820D01*
X129361097Y-111431102D01*
X129137069Y-111338307D01*
X128899243Y-111291000D01*
X128656757Y-111291000D01*
X128418931Y-111338307D01*
X128194903Y-111431102D01*
X127993283Y-111565820D01*
X127821820Y-111737283D01*
X127687102Y-111938903D01*
X127594307Y-112162931D01*
X127547000Y-112400757D01*
X127406000Y-112400757D01*
X127406000Y-110832000D01*
X127545157Y-110832000D01*
X127552513Y-110906689D01*
X127574299Y-110978508D01*
X127609678Y-111044696D01*
X127657289Y-111102711D01*
X127715304Y-111150322D01*
X127781492Y-111185701D01*
X127853311Y-111207487D01*
X127928000Y-111214843D01*
X128555750Y-111213000D01*
X128651000Y-111117750D01*
X128651000Y-110109000D01*
X128905000Y-110109000D01*
X128905000Y-111117750D01*
X129000250Y-111213000D01*
X129628000Y-111214843D01*
X129702689Y-111207487D01*
X129774508Y-111185701D01*
X129840696Y-111150322D01*
X129898711Y-111102711D01*
X129946322Y-111044696D01*
X129981701Y-110978508D01*
X129996277Y-110930455D01*
X132918200Y-110930455D01*
X132918200Y-111065545D01*
X132944555Y-111198040D01*
X132996252Y-111322848D01*
X133071305Y-111435172D01*
X133166828Y-111530695D01*
X133279152Y-111605748D01*
X133403960Y-111657445D01*
X133536455Y-111683800D01*
X133671545Y-111683800D01*
X133804040Y-111657445D01*
X133928848Y-111605748D01*
X134041172Y-111530695D01*
X134136695Y-111435172D01*
X134211748Y-111322848D01*
X134263445Y-111198040D01*
X134289800Y-111065545D01*
X134289800Y-110930455D01*
X134263445Y-110797960D01*
X134211748Y-110673152D01*
X134136695Y-110560828D01*
X134041172Y-110465305D01*
X133928848Y-110390252D01*
X133804040Y-110338555D01*
X133671545Y-110312200D01*
X133536455Y-110312200D01*
X133403960Y-110338555D01*
X133279152Y-110390252D01*
X133166828Y-110465305D01*
X133071305Y-110560828D01*
X132996252Y-110673152D01*
X132944555Y-110797960D01*
X132918200Y-110930455D01*
X129996277Y-110930455D01*
X130003487Y-110906689D01*
X130010843Y-110832000D01*
X130009000Y-110204250D01*
X129913750Y-110109000D01*
X128905000Y-110109000D01*
X128651000Y-110109000D01*
X127642250Y-110109000D01*
X127547000Y-110204250D01*
X127545157Y-110832000D01*
X127406000Y-110832000D01*
X127406000Y-109132000D01*
X127545157Y-109132000D01*
X127547000Y-109759750D01*
X127642250Y-109855000D01*
X128651000Y-109855000D01*
X128651000Y-108846250D01*
X128905000Y-108846250D01*
X128905000Y-109855000D01*
X129913750Y-109855000D01*
X130009000Y-109759750D01*
X130010843Y-109132000D01*
X130003487Y-109057311D01*
X129981701Y-108985492D01*
X129946322Y-108919304D01*
X129898711Y-108861289D01*
X129840696Y-108813678D01*
X129774508Y-108778299D01*
X129702689Y-108756513D01*
X129628000Y-108749157D01*
X129000250Y-108751000D01*
X128905000Y-108846250D01*
X128651000Y-108846250D01*
X128555750Y-108751000D01*
X127928000Y-108749157D01*
X127853311Y-108756513D01*
X127781492Y-108778299D01*
X127715304Y-108813678D01*
X127657289Y-108861289D01*
X127609678Y-108919304D01*
X127574299Y-108985492D01*
X127552513Y-109057311D01*
X127545157Y-109132000D01*
X127406000Y-109132000D01*
X127406000Y-107628455D01*
X133527800Y-107628455D01*
X133527800Y-107763545D01*
X133554155Y-107896040D01*
X133605852Y-108020848D01*
X133666689Y-108111896D01*
X133618542Y-108183952D01*
X133566845Y-108308760D01*
X133540490Y-108441255D01*
X133540490Y-108576345D01*
X133566845Y-108708840D01*
X133618542Y-108833648D01*
X133693595Y-108945972D01*
X133789118Y-109041495D01*
X133901442Y-109116548D01*
X134026250Y-109168245D01*
X134158745Y-109194600D01*
X134293835Y-109194600D01*
X134302501Y-109192876D01*
X134302501Y-109960170D01*
X134300351Y-109982000D01*
X134308933Y-110069137D01*
X134334349Y-110152925D01*
X134375624Y-110230145D01*
X134417255Y-110280872D01*
X134417259Y-110280876D01*
X134431172Y-110297829D01*
X134448125Y-110311742D01*
X135083582Y-110947200D01*
X135060455Y-110947200D01*
X134927960Y-110973555D01*
X134803152Y-111025252D01*
X134690828Y-111100305D01*
X134595305Y-111195828D01*
X134520252Y-111308152D01*
X134468555Y-111432960D01*
X134442200Y-111565455D01*
X134442200Y-111700545D01*
X134468555Y-111833040D01*
X134520252Y-111957848D01*
X134595305Y-112070172D01*
X134690828Y-112165695D01*
X134803152Y-112240748D01*
X134927960Y-112292445D01*
X135060455Y-112318800D01*
X135195545Y-112318800D01*
X135328040Y-112292445D01*
X135452848Y-112240748D01*
X135496300Y-112211714D01*
X135496300Y-112866553D01*
X135435960Y-112878555D01*
X135383047Y-112900472D01*
X135354748Y-112832152D01*
X135279695Y-112719828D01*
X135184172Y-112624305D01*
X135071848Y-112549252D01*
X134947040Y-112497555D01*
X134814545Y-112471200D01*
X134679455Y-112471200D01*
X134546960Y-112497555D01*
X134422152Y-112549252D01*
X134309828Y-112624305D01*
X134214305Y-112719828D01*
X134139252Y-112832152D01*
X134087555Y-112956960D01*
X134061200Y-113089455D01*
X134061200Y-113224545D01*
X134087555Y-113357040D01*
X134139252Y-113481848D01*
X134214305Y-113594172D01*
X134309828Y-113689695D01*
X134422152Y-113764748D01*
X134546960Y-113816445D01*
X134679455Y-113842800D01*
X134814545Y-113842800D01*
X134947040Y-113816445D01*
X134999953Y-113794528D01*
X135028252Y-113862848D01*
X135103305Y-113975172D01*
X135198828Y-114070695D01*
X135311152Y-114145748D01*
X135435960Y-114197445D01*
X135568455Y-114223800D01*
X135703545Y-114223800D01*
X135836040Y-114197445D01*
X135960848Y-114145748D01*
X136073172Y-114070695D01*
X136136242Y-114007625D01*
X136153624Y-114040145D01*
X136195255Y-114090872D01*
X136195259Y-114090876D01*
X136209172Y-114107829D01*
X136226125Y-114121742D01*
X136965879Y-114861496D01*
X136800931Y-114894307D01*
X136576903Y-114987102D01*
X136375283Y-115121820D01*
X136203820Y-115293283D01*
X136069102Y-115494903D01*
X135976307Y-115718931D01*
X135929000Y-115956757D01*
X135929000Y-116199243D01*
X135976307Y-116437069D01*
X136069102Y-116661097D01*
X136203820Y-116862717D01*
X136375283Y-117034180D01*
X136576903Y-117168898D01*
X136800931Y-117261693D01*
X137038757Y-117309000D01*
X137281243Y-117309000D01*
X137519069Y-117261693D01*
X137743097Y-117168898D01*
X137944717Y-117034180D01*
X138116180Y-116862717D01*
X138163246Y-116792278D01*
X138185624Y-116834145D01*
X138227255Y-116884872D01*
X138227259Y-116884876D01*
X138241172Y-116901829D01*
X138258125Y-116915742D01*
X138735258Y-117392876D01*
X138749171Y-117409829D01*
X138766124Y-117423742D01*
X138766126Y-117423744D01*
X138816853Y-117465375D01*
X138816855Y-117465376D01*
X138894074Y-117506651D01*
X138977863Y-117532068D01*
X139043170Y-117538500D01*
X139043179Y-117538500D01*
X139064999Y-117540649D01*
X139086819Y-117538500D01*
X139809633Y-117538500D01*
X139897828Y-117626695D01*
X140010152Y-117701748D01*
X140134960Y-117753445D01*
X140267455Y-117779800D01*
X140402545Y-117779800D01*
X140535040Y-117753445D01*
X140549609Y-117747410D01*
X140557349Y-117772925D01*
X140598624Y-117850145D01*
X140640255Y-117900872D01*
X140640259Y-117900876D01*
X140654172Y-117917829D01*
X140671125Y-117931742D01*
X142049500Y-119310118D01*
X142049501Y-120759632D01*
X141961305Y-120847828D01*
X141886252Y-120960152D01*
X141834555Y-121084960D01*
X141808200Y-121217455D01*
X141808200Y-121352545D01*
X141834555Y-121485040D01*
X141886252Y-121609848D01*
X141961305Y-121722172D01*
X142056828Y-121817695D01*
X142169152Y-121892748D01*
X142293960Y-121944445D01*
X142426455Y-121970800D01*
X142561545Y-121970800D01*
X142694040Y-121944445D01*
X142818848Y-121892748D01*
X142931172Y-121817695D01*
X143026695Y-121722172D01*
X143101748Y-121609848D01*
X143153445Y-121485040D01*
X143179800Y-121352545D01*
X143179800Y-121217455D01*
X143153445Y-121084960D01*
X143101748Y-120960152D01*
X143026695Y-120847828D01*
X142938500Y-120759633D01*
X142938500Y-119147819D01*
X142940649Y-119125999D01*
X142938500Y-119104179D01*
X142938500Y-119104170D01*
X142932068Y-119038863D01*
X142906651Y-118955074D01*
X142865376Y-118877855D01*
X142865375Y-118877853D01*
X142823744Y-118827126D01*
X142823742Y-118827124D01*
X142809829Y-118810171D01*
X142792877Y-118796259D01*
X141414500Y-117417883D01*
X141414500Y-117310771D01*
X142017750Y-117309000D01*
X142113000Y-117213750D01*
X142113000Y-116205000D01*
X142093000Y-116205000D01*
X142093000Y-115951000D01*
X142113000Y-115951000D01*
X142113000Y-115931000D01*
X142367000Y-115931000D01*
X142367000Y-115951000D01*
X142387000Y-115951000D01*
X142387000Y-116205000D01*
X142367000Y-116205000D01*
X142367000Y-117213750D01*
X142462250Y-117309000D01*
X143065500Y-117310771D01*
X143065500Y-118088180D01*
X143063351Y-118110000D01*
X143065500Y-118131820D01*
X143065500Y-118131829D01*
X143071932Y-118197136D01*
X143097349Y-118280925D01*
X143138624Y-118358145D01*
X143162073Y-118386717D01*
X143194171Y-118425829D01*
X143211130Y-118439747D01*
X149495716Y-124724334D01*
X149438307Y-124862931D01*
X149391000Y-125100757D01*
X149391000Y-125343243D01*
X149438307Y-125581069D01*
X149531102Y-125805097D01*
X149665820Y-126006717D01*
X149837283Y-126178180D01*
X150038903Y-126312898D01*
X150262931Y-126405693D01*
X150500757Y-126453000D01*
X150743243Y-126453000D01*
X150981069Y-126405693D01*
X151205097Y-126312898D01*
X151406717Y-126178180D01*
X151578180Y-126006717D01*
X151712898Y-125805097D01*
X151805693Y-125581069D01*
X151853000Y-125343243D01*
X151853000Y-125100757D01*
X151805693Y-124862931D01*
X151712898Y-124638903D01*
X151578180Y-124437283D01*
X151406717Y-124265820D01*
X151205097Y-124131102D01*
X150981069Y-124038307D01*
X150743243Y-123991000D01*
X150500757Y-123991000D01*
X150262931Y-124038307D01*
X150124334Y-124095716D01*
X143954500Y-117925883D01*
X143954500Y-116993397D01*
X143995283Y-117034180D01*
X144196903Y-117168898D01*
X144420931Y-117261693D01*
X144658757Y-117309000D01*
X144901243Y-117309000D01*
X145139069Y-117261693D01*
X145363097Y-117168898D01*
X145478501Y-117091788D01*
X145478501Y-118850170D01*
X145476351Y-118872000D01*
X145484933Y-118959137D01*
X145510349Y-119042925D01*
X145551624Y-119120145D01*
X145593255Y-119170872D01*
X145593259Y-119170876D01*
X145607172Y-119187829D01*
X145624125Y-119201742D01*
X149403258Y-122980876D01*
X149417171Y-122997829D01*
X149432151Y-123010123D01*
X149438307Y-123041069D01*
X149531102Y-123265097D01*
X149665820Y-123466717D01*
X149837283Y-123638180D01*
X150038903Y-123772898D01*
X150262931Y-123865693D01*
X150500757Y-123913000D01*
X150743243Y-123913000D01*
X150981069Y-123865693D01*
X151205097Y-123772898D01*
X151406717Y-123638180D01*
X151578180Y-123466717D01*
X151712898Y-123265097D01*
X151805693Y-123041069D01*
X151853000Y-122803243D01*
X151853000Y-122560757D01*
X151805693Y-122322931D01*
X151712898Y-122098903D01*
X151578180Y-121897283D01*
X151406717Y-121725820D01*
X151205097Y-121591102D01*
X150981069Y-121498307D01*
X150743243Y-121451000D01*
X150500757Y-121451000D01*
X150262931Y-121498307D01*
X150038903Y-121591102D01*
X149837283Y-121725820D01*
X149665820Y-121897283D01*
X149630204Y-121950586D01*
X148260868Y-120581250D01*
X148314170Y-120586500D01*
X148314180Y-120586500D01*
X148336000Y-120588649D01*
X148357820Y-120586500D01*
X149473694Y-120586500D01*
X149531102Y-120725097D01*
X149665820Y-120926717D01*
X149837283Y-121098180D01*
X150038903Y-121232898D01*
X150262931Y-121325693D01*
X150500757Y-121373000D01*
X150743243Y-121373000D01*
X150981069Y-121325693D01*
X151205097Y-121232898D01*
X151406717Y-121098180D01*
X151578180Y-120926717D01*
X151712898Y-120725097D01*
X151805693Y-120501069D01*
X151853000Y-120263243D01*
X151853000Y-120020757D01*
X151805693Y-119782931D01*
X151712898Y-119558903D01*
X151578180Y-119357283D01*
X151406717Y-119185820D01*
X151205097Y-119051102D01*
X150981069Y-118958307D01*
X150743243Y-118911000D01*
X150500757Y-118911000D01*
X150262931Y-118958307D01*
X150038903Y-119051102D01*
X149837283Y-119185820D01*
X149665820Y-119357283D01*
X149531102Y-119558903D01*
X149473694Y-119697500D01*
X148520118Y-119697500D01*
X146646910Y-117824293D01*
X146646910Y-117480757D01*
X149391000Y-117480757D01*
X149391000Y-117723243D01*
X149438307Y-117961069D01*
X149531102Y-118185097D01*
X149665820Y-118386717D01*
X149837283Y-118558180D01*
X150038903Y-118692898D01*
X150262931Y-118785693D01*
X150500757Y-118833000D01*
X150743243Y-118833000D01*
X150981069Y-118785693D01*
X151205097Y-118692898D01*
X151406717Y-118558180D01*
X151578180Y-118386717D01*
X151712898Y-118185097D01*
X151805693Y-117961069D01*
X151853000Y-117723243D01*
X151853000Y-117480757D01*
X151805693Y-117242931D01*
X151712898Y-117018903D01*
X151578180Y-116817283D01*
X151406717Y-116645820D01*
X151205097Y-116511102D01*
X150981069Y-116418307D01*
X150743243Y-116371000D01*
X150500757Y-116371000D01*
X150262931Y-116418307D01*
X150038903Y-116511102D01*
X149837283Y-116645820D01*
X149665820Y-116817283D01*
X149531102Y-117018903D01*
X149438307Y-117242931D01*
X149391000Y-117480757D01*
X146646910Y-117480757D01*
X146646910Y-117108767D01*
X146736903Y-117168898D01*
X146960931Y-117261693D01*
X147198757Y-117309000D01*
X147441243Y-117309000D01*
X147679069Y-117261693D01*
X147903097Y-117168898D01*
X148104717Y-117034180D01*
X148276180Y-116862717D01*
X148410898Y-116661097D01*
X148503693Y-116437069D01*
X148551000Y-116199243D01*
X148551000Y-115956757D01*
X148503693Y-115718931D01*
X148410898Y-115494903D01*
X148333441Y-115378980D01*
X149432511Y-115378980D01*
X149456866Y-115459288D01*
X149556761Y-115678961D01*
X149697592Y-115874924D01*
X149873948Y-116039647D01*
X150079051Y-116166799D01*
X150305019Y-116251495D01*
X150495000Y-116191187D01*
X150495000Y-115189000D01*
X150749000Y-115189000D01*
X150749000Y-116191187D01*
X150938981Y-116251495D01*
X151164949Y-116166799D01*
X151370052Y-116039647D01*
X151546408Y-115874924D01*
X151687239Y-115678961D01*
X151787134Y-115459288D01*
X151811489Y-115378980D01*
X151750627Y-115189000D01*
X150749000Y-115189000D01*
X150495000Y-115189000D01*
X149493373Y-115189000D01*
X149432511Y-115378980D01*
X148333441Y-115378980D01*
X148276180Y-115293283D01*
X148104717Y-115121820D01*
X147903097Y-114987102D01*
X147679069Y-114894307D01*
X147441243Y-114847000D01*
X147198757Y-114847000D01*
X146960931Y-114894307D01*
X146736903Y-114987102D01*
X146646910Y-115047233D01*
X146646910Y-114745020D01*
X149432511Y-114745020D01*
X149493373Y-114935000D01*
X150495000Y-114935000D01*
X150495000Y-113932813D01*
X150749000Y-113932813D01*
X150749000Y-114935000D01*
X151750627Y-114935000D01*
X151811489Y-114745020D01*
X151787134Y-114664712D01*
X151687239Y-114445039D01*
X151546408Y-114249076D01*
X151370052Y-114084353D01*
X151164949Y-113957201D01*
X150938981Y-113872505D01*
X150749000Y-113932813D01*
X150495000Y-113932813D01*
X150305019Y-113872505D01*
X150079051Y-113957201D01*
X149873948Y-114084353D01*
X149697592Y-114249076D01*
X149556761Y-114445039D01*
X149456866Y-114664712D01*
X149432511Y-114745020D01*
X146646910Y-114745020D01*
X146646910Y-114460084D01*
X146649059Y-114438264D01*
X146646910Y-114416444D01*
X146646910Y-114416435D01*
X146640478Y-114351128D01*
X146615061Y-114267339D01*
X146573786Y-114190120D01*
X146533761Y-114141349D01*
X146532155Y-114139392D01*
X146532152Y-114139389D01*
X146518239Y-114122436D01*
X146501287Y-114108524D01*
X145819614Y-113426851D01*
X145840367Y-113358436D01*
X145848949Y-113271299D01*
X145840367Y-113184162D01*
X145814950Y-113100373D01*
X145773675Y-113023154D01*
X145718128Y-112955470D01*
X145650444Y-112899923D01*
X145573225Y-112858648D01*
X145508388Y-112838980D01*
X149432511Y-112838980D01*
X149456866Y-112919288D01*
X149556761Y-113138961D01*
X149697592Y-113334924D01*
X149873948Y-113499647D01*
X150079051Y-113626799D01*
X150305019Y-113711495D01*
X150495000Y-113651187D01*
X150495000Y-112649000D01*
X150749000Y-112649000D01*
X150749000Y-113651187D01*
X150938981Y-113711495D01*
X151164949Y-113626799D01*
X151370052Y-113499647D01*
X151546408Y-113334924D01*
X151687239Y-113138961D01*
X151787134Y-112919288D01*
X151811489Y-112838980D01*
X151750627Y-112649000D01*
X150749000Y-112649000D01*
X150495000Y-112649000D01*
X149493373Y-112649000D01*
X149432511Y-112838980D01*
X145508388Y-112838980D01*
X145489436Y-112833231D01*
X145424129Y-112826799D01*
X145322531Y-112826799D01*
X145300701Y-112824649D01*
X145278871Y-112826799D01*
X142538417Y-112826799D01*
X141916638Y-112205020D01*
X149432511Y-112205020D01*
X149493373Y-112395000D01*
X150495000Y-112395000D01*
X150495000Y-111392813D01*
X150749000Y-111392813D01*
X150749000Y-112395000D01*
X151750627Y-112395000D01*
X151811489Y-112205020D01*
X151787134Y-112124712D01*
X151687239Y-111905039D01*
X151546408Y-111709076D01*
X151370052Y-111544353D01*
X151164949Y-111417201D01*
X150938981Y-111332505D01*
X150749000Y-111392813D01*
X150495000Y-111392813D01*
X150305019Y-111332505D01*
X150079051Y-111417201D01*
X149873948Y-111544353D01*
X149697592Y-111709076D01*
X149556761Y-111905039D01*
X149456866Y-112124712D01*
X149432511Y-112205020D01*
X141916638Y-112205020D01*
X141886821Y-112175204D01*
X141932037Y-112129988D01*
X142007090Y-112017664D01*
X142058787Y-111892856D01*
X142085142Y-111760361D01*
X142085142Y-111625271D01*
X142058787Y-111492776D01*
X142007090Y-111367968D01*
X141932037Y-111255644D01*
X141836514Y-111160121D01*
X141724190Y-111085068D01*
X141599382Y-111033371D01*
X141466887Y-111007016D01*
X141331797Y-111007016D01*
X141199302Y-111033371D01*
X141170881Y-111045143D01*
X141176856Y-111037864D01*
X141202172Y-111007016D01*
X141214376Y-110992145D01*
X141255651Y-110914926D01*
X141281068Y-110831137D01*
X141287500Y-110765830D01*
X141287500Y-110765821D01*
X141289649Y-110744001D01*
X141287500Y-110722181D01*
X141287500Y-110498655D01*
X141706600Y-110498655D01*
X141706600Y-110633745D01*
X141732955Y-110766240D01*
X141784652Y-110891048D01*
X141859705Y-111003372D01*
X141955228Y-111098895D01*
X142067552Y-111173948D01*
X142192360Y-111225645D01*
X142324855Y-111252000D01*
X142459945Y-111252000D01*
X142592440Y-111225645D01*
X142717248Y-111173948D01*
X142829572Y-111098895D01*
X142925095Y-111003372D01*
X143000148Y-110891048D01*
X143051845Y-110766240D01*
X143078200Y-110633745D01*
X143078200Y-110498655D01*
X143051845Y-110366160D01*
X143000148Y-110241352D01*
X142925095Y-110129028D01*
X142829572Y-110033505D01*
X142717248Y-109958452D01*
X142592440Y-109906755D01*
X142459945Y-109880400D01*
X142324855Y-109880400D01*
X142192360Y-109906755D01*
X142067552Y-109958452D01*
X141955228Y-110033505D01*
X141859705Y-110129028D01*
X141784652Y-110241352D01*
X141732955Y-110366160D01*
X141706600Y-110498655D01*
X141287500Y-110498655D01*
X141287500Y-110253367D01*
X141375695Y-110165172D01*
X141450748Y-110052848D01*
X141502445Y-109928040D01*
X141528800Y-109795545D01*
X141528800Y-109660455D01*
X141502445Y-109527960D01*
X141450748Y-109403152D01*
X141375695Y-109290828D01*
X141280172Y-109195305D01*
X141204356Y-109144646D01*
X141265510Y-109144646D01*
X141329085Y-109132000D01*
X149389157Y-109132000D01*
X149389157Y-110832000D01*
X149396513Y-110906689D01*
X149418299Y-110978508D01*
X149453678Y-111044696D01*
X149501289Y-111102711D01*
X149559304Y-111150322D01*
X149625492Y-111185701D01*
X149697311Y-111207487D01*
X149772000Y-111214843D01*
X151472000Y-111214843D01*
X151546689Y-111207487D01*
X151618508Y-111185701D01*
X151684696Y-111150322D01*
X151742711Y-111102711D01*
X151790322Y-111044696D01*
X151825701Y-110978508D01*
X151847487Y-110906689D01*
X151854843Y-110832000D01*
X151854843Y-109132000D01*
X151847487Y-109057311D01*
X151825701Y-108985492D01*
X151790322Y-108919304D01*
X151742711Y-108861289D01*
X151684696Y-108813678D01*
X151618508Y-108778299D01*
X151546689Y-108756513D01*
X151472000Y-108749157D01*
X149772000Y-108749157D01*
X149697311Y-108756513D01*
X149625492Y-108778299D01*
X149559304Y-108813678D01*
X149501289Y-108861289D01*
X149453678Y-108919304D01*
X149418299Y-108985492D01*
X149396513Y-109057311D01*
X149389157Y-109132000D01*
X141329085Y-109132000D01*
X141398005Y-109118291D01*
X141522813Y-109066594D01*
X141635137Y-108991541D01*
X141730660Y-108896018D01*
X141805713Y-108783694D01*
X141857410Y-108658886D01*
X141883765Y-108526391D01*
X141883765Y-108391301D01*
X141857410Y-108258806D01*
X141805713Y-108133998D01*
X141730660Y-108021674D01*
X141718441Y-108009455D01*
X143573490Y-108009455D01*
X143573490Y-108144545D01*
X143599845Y-108277040D01*
X143651542Y-108401848D01*
X143726595Y-108514172D01*
X143822118Y-108609695D01*
X143934442Y-108684748D01*
X144059250Y-108736445D01*
X144191745Y-108762800D01*
X144326835Y-108762800D01*
X144459330Y-108736445D01*
X144584138Y-108684748D01*
X144696462Y-108609695D01*
X144791985Y-108514172D01*
X144867038Y-108401848D01*
X144918735Y-108277040D01*
X144945090Y-108144545D01*
X144945090Y-108009455D01*
X144918735Y-107876960D01*
X144867038Y-107752152D01*
X144791985Y-107639828D01*
X144696462Y-107544305D01*
X144584138Y-107469252D01*
X144459330Y-107417555D01*
X144326835Y-107391200D01*
X144191745Y-107391200D01*
X144059250Y-107417555D01*
X143934442Y-107469252D01*
X143822118Y-107544305D01*
X143726595Y-107639828D01*
X143651542Y-107752152D01*
X143599845Y-107876960D01*
X143573490Y-108009455D01*
X141718441Y-108009455D01*
X141704553Y-107995567D01*
X141755548Y-107919248D01*
X141807245Y-107794440D01*
X141833600Y-107661945D01*
X141833600Y-107526855D01*
X141807245Y-107394360D01*
X141755548Y-107269552D01*
X141704004Y-107192412D01*
X141718595Y-107177821D01*
X141793648Y-107065497D01*
X141845345Y-106940689D01*
X141871700Y-106808194D01*
X141871700Y-106673104D01*
X141845345Y-106540609D01*
X141793648Y-106415801D01*
X141718595Y-106303477D01*
X141623072Y-106207954D01*
X141510748Y-106132901D01*
X141385940Y-106081204D01*
X141253445Y-106054849D01*
X141118355Y-106054849D01*
X140985860Y-106081204D01*
X140861052Y-106132901D01*
X140748728Y-106207954D01*
X140653205Y-106303477D01*
X140578152Y-106415801D01*
X140526455Y-106540609D01*
X140500100Y-106673104D01*
X140500100Y-106808194D01*
X140514975Y-106882976D01*
X140455524Y-106871081D01*
X140138605Y-107188000D01*
X140455524Y-107504919D01*
X140466813Y-107502660D01*
X140462000Y-107526855D01*
X140462000Y-107661945D01*
X140488355Y-107794440D01*
X140540052Y-107919248D01*
X140615105Y-108031572D01*
X140641212Y-108057679D01*
X140590217Y-108133998D01*
X140575286Y-108170044D01*
X140455524Y-108146081D01*
X140138605Y-108463000D01*
X140455524Y-108779919D01*
X140577637Y-108755486D01*
X140578052Y-108754325D01*
X140590217Y-108783694D01*
X140665270Y-108896018D01*
X140760793Y-108991541D01*
X140836609Y-109042200D01*
X140775455Y-109042200D01*
X140642960Y-109068555D01*
X140518152Y-109120252D01*
X140405828Y-109195305D01*
X140310305Y-109290828D01*
X140235252Y-109403152D01*
X140183555Y-109527960D01*
X140157200Y-109660455D01*
X140157200Y-109795545D01*
X140183555Y-109928040D01*
X140235252Y-110052848D01*
X140310305Y-110165172D01*
X140398501Y-110253368D01*
X140398501Y-110559882D01*
X140163129Y-110795254D01*
X140146171Y-110809171D01*
X140132255Y-110826128D01*
X140090624Y-110876855D01*
X140063471Y-110927655D01*
X140049349Y-110954075D01*
X140023932Y-111037864D01*
X140017500Y-111103171D01*
X140017500Y-111103180D01*
X140015351Y-111125000D01*
X140017500Y-111146820D01*
X140017500Y-111208493D01*
X139978695Y-111150418D01*
X139883172Y-111054895D01*
X139770848Y-110979842D01*
X139646040Y-110928145D01*
X139513545Y-110901790D01*
X139378455Y-110901790D01*
X139245960Y-110928145D01*
X139121152Y-110979842D01*
X139044508Y-111031054D01*
X139016695Y-110989430D01*
X138921172Y-110893907D01*
X138808848Y-110818854D01*
X138684040Y-110767157D01*
X138551545Y-110740802D01*
X138416455Y-110740802D01*
X138283960Y-110767157D01*
X138159152Y-110818854D01*
X138046828Y-110893907D01*
X137951305Y-110989430D01*
X137876252Y-111101754D01*
X137824555Y-111226562D01*
X137798200Y-111359057D01*
X137798200Y-111494147D01*
X137824555Y-111626642D01*
X137876252Y-111751450D01*
X137951305Y-111863774D01*
X138046828Y-111959297D01*
X138159152Y-112034350D01*
X138283960Y-112086047D01*
X138416455Y-112112402D01*
X138551545Y-112112402D01*
X138684040Y-112086047D01*
X138808848Y-112034350D01*
X138885492Y-111983138D01*
X138913305Y-112024762D01*
X139008828Y-112120285D01*
X139121152Y-112195338D01*
X139245960Y-112247035D01*
X139378455Y-112273390D01*
X139513545Y-112273390D01*
X139646040Y-112247035D01*
X139770848Y-112195338D01*
X139883172Y-112120285D01*
X139978695Y-112024762D01*
X140017500Y-111966686D01*
X140017501Y-113389161D01*
X140017500Y-113389171D01*
X140017501Y-114151171D01*
X140015351Y-114173000D01*
X140023933Y-114260137D01*
X140049349Y-114343925D01*
X140090624Y-114421145D01*
X140132255Y-114471872D01*
X140132259Y-114471876D01*
X140146172Y-114488829D01*
X140163125Y-114502742D01*
X140525500Y-114865118D01*
X140525501Y-116432658D01*
X140402545Y-116408200D01*
X140267455Y-116408200D01*
X140134960Y-116434555D01*
X140131810Y-116435860D01*
X140131810Y-116378745D01*
X140105455Y-116246250D01*
X140053758Y-116121442D01*
X139978705Y-116009118D01*
X139883182Y-115913595D01*
X139878787Y-115910658D01*
X139858661Y-115844312D01*
X139817386Y-115767093D01*
X139817385Y-115767091D01*
X139775754Y-115716364D01*
X139775752Y-115716362D01*
X139761839Y-115699409D01*
X139744887Y-115685497D01*
X137477500Y-113418111D01*
X137477500Y-113025945D01*
X137998200Y-113025945D01*
X137998200Y-113161035D01*
X138024555Y-113293530D01*
X138076252Y-113418338D01*
X138151305Y-113530662D01*
X138246828Y-113626185D01*
X138359152Y-113701238D01*
X138483960Y-113752935D01*
X138616455Y-113779290D01*
X138751545Y-113779290D01*
X138884040Y-113752935D01*
X139008848Y-113701238D01*
X139121172Y-113626185D01*
X139216695Y-113530662D01*
X139291748Y-113418338D01*
X139343445Y-113293530D01*
X139369800Y-113161035D01*
X139369800Y-113025945D01*
X139343445Y-112893450D01*
X139291748Y-112768642D01*
X139216695Y-112656318D01*
X139121172Y-112560795D01*
X139008848Y-112485742D01*
X138884040Y-112434045D01*
X138751545Y-112407690D01*
X138616455Y-112407690D01*
X138483960Y-112434045D01*
X138359152Y-112485742D01*
X138246828Y-112560795D01*
X138151305Y-112656318D01*
X138076252Y-112768642D01*
X138024555Y-112893450D01*
X137998200Y-113025945D01*
X137477500Y-113025945D01*
X137477500Y-111203247D01*
X137479649Y-111181427D01*
X137477500Y-111159607D01*
X137477500Y-111159598D01*
X137471068Y-111094291D01*
X137445651Y-111010502D01*
X137404376Y-110933283D01*
X137404375Y-110933281D01*
X137362744Y-110882554D01*
X137362742Y-110882552D01*
X137348829Y-110865599D01*
X137331877Y-110851687D01*
X136825870Y-110345680D01*
X136849848Y-110335748D01*
X136962172Y-110260695D01*
X137057695Y-110165172D01*
X137132748Y-110052848D01*
X137184445Y-109928040D01*
X137210800Y-109795545D01*
X137210800Y-109747783D01*
X137363200Y-109747783D01*
X137363200Y-109882873D01*
X137389555Y-110015368D01*
X137441252Y-110140176D01*
X137516305Y-110252500D01*
X137611828Y-110348023D01*
X137724152Y-110423076D01*
X137848960Y-110474773D01*
X137981455Y-110501128D01*
X138116545Y-110501128D01*
X138249040Y-110474773D01*
X138373848Y-110423076D01*
X138486172Y-110348023D01*
X138581695Y-110252500D01*
X138656748Y-110140176D01*
X138708445Y-110015368D01*
X138734800Y-109882873D01*
X138734800Y-109747783D01*
X138717430Y-109660455D01*
X138760184Y-109660455D01*
X138760184Y-109795545D01*
X138786539Y-109928040D01*
X138838236Y-110052848D01*
X138913289Y-110165172D01*
X139008812Y-110260695D01*
X139121136Y-110335748D01*
X139245944Y-110387445D01*
X139378439Y-110413800D01*
X139513529Y-110413800D01*
X139646024Y-110387445D01*
X139770832Y-110335748D01*
X139883156Y-110260695D01*
X139978679Y-110165172D01*
X140053732Y-110052848D01*
X140105429Y-109928040D01*
X140131784Y-109795545D01*
X140131784Y-109660455D01*
X140105429Y-109527960D01*
X140053732Y-109403152D01*
X139978679Y-109290828D01*
X139883156Y-109195305D01*
X139770832Y-109120252D01*
X139747735Y-109110685D01*
X139792825Y-109126811D01*
X139925521Y-109146475D01*
X140059504Y-109139874D01*
X140189624Y-109107261D01*
X140251486Y-109081637D01*
X140275919Y-108959524D01*
X139959000Y-108642605D01*
X139642081Y-108959524D01*
X139665512Y-109076627D01*
X139646024Y-109068555D01*
X139513529Y-109042200D01*
X139378439Y-109042200D01*
X139245944Y-109068555D01*
X139121136Y-109120252D01*
X139008812Y-109195305D01*
X138913289Y-109290828D01*
X138838236Y-109403152D01*
X138786539Y-109527960D01*
X138760184Y-109660455D01*
X138717430Y-109660455D01*
X138708445Y-109615288D01*
X138656748Y-109490480D01*
X138581695Y-109378156D01*
X138486172Y-109282633D01*
X138373848Y-109207580D01*
X138249040Y-109155883D01*
X138116545Y-109129528D01*
X137981455Y-109129528D01*
X137848960Y-109155883D01*
X137724152Y-109207580D01*
X137611828Y-109282633D01*
X137516305Y-109378156D01*
X137441252Y-109490480D01*
X137389555Y-109615288D01*
X137363200Y-109747783D01*
X137210800Y-109747783D01*
X137210800Y-109660455D01*
X137184445Y-109527960D01*
X137132748Y-109403152D01*
X137057695Y-109290828D01*
X136962172Y-109195305D01*
X136849848Y-109120252D01*
X136725040Y-109068555D01*
X136592545Y-109042200D01*
X136457455Y-109042200D01*
X136324960Y-109068555D01*
X136200152Y-109120252D01*
X136087828Y-109195305D01*
X135992305Y-109290828D01*
X135953500Y-109348903D01*
X135953500Y-108959524D01*
X137092081Y-108959524D01*
X137116514Y-109081637D01*
X137242825Y-109126811D01*
X137375521Y-109146475D01*
X137509504Y-109139874D01*
X137639624Y-109107261D01*
X137701486Y-109081637D01*
X137725919Y-108959524D01*
X138367081Y-108959524D01*
X138391514Y-109081637D01*
X138517825Y-109126811D01*
X138650521Y-109146475D01*
X138784504Y-109139874D01*
X138914624Y-109107261D01*
X138976486Y-109081637D01*
X139000919Y-108959524D01*
X138684000Y-108642605D01*
X138367081Y-108959524D01*
X137725919Y-108959524D01*
X137409000Y-108642605D01*
X137092081Y-108959524D01*
X135953500Y-108959524D01*
X135953500Y-108852526D01*
X136060453Y-108873800D01*
X136195543Y-108873800D01*
X136328038Y-108847445D01*
X136452846Y-108795748D01*
X136565170Y-108720695D01*
X136660693Y-108625172D01*
X136730050Y-108521372D01*
X136732126Y-108563504D01*
X136764739Y-108693624D01*
X136790363Y-108755486D01*
X136912476Y-108779919D01*
X137229395Y-108463000D01*
X137588605Y-108463000D01*
X137905524Y-108779919D01*
X138027637Y-108755486D01*
X138045117Y-108706609D01*
X138065363Y-108755486D01*
X138187476Y-108779919D01*
X138504395Y-108463000D01*
X138863605Y-108463000D01*
X139180524Y-108779919D01*
X139302637Y-108755486D01*
X139320117Y-108706609D01*
X139340363Y-108755486D01*
X139462476Y-108779919D01*
X139779395Y-108463000D01*
X139462476Y-108146081D01*
X139340363Y-108170514D01*
X139322883Y-108219391D01*
X139302637Y-108170514D01*
X139180524Y-108146081D01*
X138863605Y-108463000D01*
X138504395Y-108463000D01*
X138187476Y-108146081D01*
X138065363Y-108170514D01*
X138047883Y-108219391D01*
X138027637Y-108170514D01*
X137905524Y-108146081D01*
X137588605Y-108463000D01*
X137229395Y-108463000D01*
X136912476Y-108146081D01*
X136813798Y-108165825D01*
X136813798Y-108120455D01*
X136787443Y-107987960D01*
X136735746Y-107863152D01*
X136660693Y-107750828D01*
X136594389Y-107684524D01*
X137092081Y-107684524D01*
X137116514Y-107806637D01*
X137165391Y-107824117D01*
X137116514Y-107844363D01*
X137092081Y-107966476D01*
X137409000Y-108283395D01*
X137725919Y-107966476D01*
X137701486Y-107844363D01*
X137652609Y-107826883D01*
X137701486Y-107806637D01*
X137725919Y-107684524D01*
X138367081Y-107684524D01*
X138391514Y-107806637D01*
X138440391Y-107824117D01*
X138391514Y-107844363D01*
X138367081Y-107966476D01*
X138684000Y-108283395D01*
X139000919Y-107966476D01*
X138976486Y-107844363D01*
X138927609Y-107826883D01*
X138976486Y-107806637D01*
X139000919Y-107684524D01*
X139642081Y-107684524D01*
X139666514Y-107806637D01*
X139715391Y-107824117D01*
X139666514Y-107844363D01*
X139642081Y-107966476D01*
X139959000Y-108283395D01*
X140275919Y-107966476D01*
X140251486Y-107844363D01*
X140202609Y-107826883D01*
X140251486Y-107806637D01*
X140275919Y-107684524D01*
X139959000Y-107367605D01*
X139642081Y-107684524D01*
X139000919Y-107684524D01*
X138684000Y-107367605D01*
X138367081Y-107684524D01*
X137725919Y-107684524D01*
X137409000Y-107367605D01*
X137092081Y-107684524D01*
X136594389Y-107684524D01*
X136565170Y-107655305D01*
X136489770Y-107604924D01*
X136519648Y-107592548D01*
X136631972Y-107517495D01*
X136727495Y-107421972D01*
X136755190Y-107380524D01*
X136764739Y-107418624D01*
X136790363Y-107480486D01*
X136912476Y-107504919D01*
X137229395Y-107188000D01*
X137588605Y-107188000D01*
X137905524Y-107504919D01*
X138027637Y-107480486D01*
X138045117Y-107431609D01*
X138065363Y-107480486D01*
X138187476Y-107504919D01*
X138504395Y-107188000D01*
X138863605Y-107188000D01*
X139180524Y-107504919D01*
X139302637Y-107480486D01*
X139320117Y-107431609D01*
X139340363Y-107480486D01*
X139462476Y-107504919D01*
X139779395Y-107188000D01*
X139462476Y-106871081D01*
X139340363Y-106895514D01*
X139322883Y-106944391D01*
X139302637Y-106895514D01*
X139180524Y-106871081D01*
X138863605Y-107188000D01*
X138504395Y-107188000D01*
X138187476Y-106871081D01*
X138065363Y-106895514D01*
X138047883Y-106944391D01*
X138027637Y-106895514D01*
X137905524Y-106871081D01*
X137588605Y-107188000D01*
X137229395Y-107188000D01*
X136912476Y-106871081D01*
X136872987Y-106878982D01*
X136854245Y-106784760D01*
X136802548Y-106659952D01*
X136727495Y-106547628D01*
X136631972Y-106452105D01*
X136568246Y-106409524D01*
X137092081Y-106409524D01*
X137116514Y-106531637D01*
X137165391Y-106549117D01*
X137116514Y-106569363D01*
X137092081Y-106691476D01*
X137409000Y-107008395D01*
X137725919Y-106691476D01*
X137701486Y-106569363D01*
X137652609Y-106551883D01*
X137701486Y-106531637D01*
X137725919Y-106409524D01*
X138367081Y-106409524D01*
X138391514Y-106531637D01*
X138440391Y-106549117D01*
X138391514Y-106569363D01*
X138367081Y-106691476D01*
X138684000Y-107008395D01*
X139000919Y-106691476D01*
X138976486Y-106569363D01*
X138927609Y-106551883D01*
X138976486Y-106531637D01*
X139000919Y-106409524D01*
X139642081Y-106409524D01*
X139666514Y-106531637D01*
X139715391Y-106549117D01*
X139666514Y-106569363D01*
X139642081Y-106691476D01*
X139959000Y-107008395D01*
X140275919Y-106691476D01*
X140251486Y-106569363D01*
X140202609Y-106551883D01*
X140251486Y-106531637D01*
X140275919Y-106409524D01*
X139959000Y-106092605D01*
X139642081Y-106409524D01*
X139000919Y-106409524D01*
X138684000Y-106092605D01*
X138367081Y-106409524D01*
X137725919Y-106409524D01*
X137409000Y-106092605D01*
X137092081Y-106409524D01*
X136568246Y-106409524D01*
X136519648Y-106377052D01*
X136508333Y-106372365D01*
X136581172Y-106323695D01*
X136676695Y-106228172D01*
X136751748Y-106115848D01*
X136755504Y-106106779D01*
X136764739Y-106143624D01*
X136790363Y-106205486D01*
X136912476Y-106229919D01*
X137229395Y-105913000D01*
X137588605Y-105913000D01*
X137905524Y-106229919D01*
X138027637Y-106205486D01*
X138045117Y-106156609D01*
X138065363Y-106205486D01*
X138187476Y-106229919D01*
X138504395Y-105913000D01*
X138863605Y-105913000D01*
X139180524Y-106229919D01*
X139302637Y-106205486D01*
X139320117Y-106156609D01*
X139340363Y-106205486D01*
X139462476Y-106229919D01*
X139779395Y-105913000D01*
X140138605Y-105913000D01*
X140455524Y-106229919D01*
X140577637Y-106205486D01*
X140622811Y-106079175D01*
X140642475Y-105946479D01*
X140635874Y-105812496D01*
X140603261Y-105682376D01*
X140577637Y-105620514D01*
X140455524Y-105596081D01*
X140138605Y-105913000D01*
X139779395Y-105913000D01*
X139462476Y-105596081D01*
X139340363Y-105620514D01*
X139322883Y-105669391D01*
X139302637Y-105620514D01*
X139180524Y-105596081D01*
X138863605Y-105913000D01*
X138504395Y-105913000D01*
X138187476Y-105596081D01*
X138065363Y-105620514D01*
X138047883Y-105669391D01*
X138027637Y-105620514D01*
X137905524Y-105596081D01*
X137588605Y-105913000D01*
X137229395Y-105913000D01*
X136912476Y-105596081D01*
X136808598Y-105616865D01*
X136803445Y-105590960D01*
X136751748Y-105466152D01*
X136718556Y-105416476D01*
X137092081Y-105416476D01*
X137409000Y-105733395D01*
X137725919Y-105416476D01*
X138367081Y-105416476D01*
X138684000Y-105733395D01*
X139000919Y-105416476D01*
X139642081Y-105416476D01*
X139959000Y-105733395D01*
X140275919Y-105416476D01*
X140251486Y-105294363D01*
X140125175Y-105249189D01*
X139992479Y-105229525D01*
X139858496Y-105236126D01*
X139728376Y-105268739D01*
X139666514Y-105294363D01*
X139642081Y-105416476D01*
X139000919Y-105416476D01*
X138976486Y-105294363D01*
X138850175Y-105249189D01*
X138717479Y-105229525D01*
X138583496Y-105236126D01*
X138453376Y-105268739D01*
X138391514Y-105294363D01*
X138367081Y-105416476D01*
X137725919Y-105416476D01*
X137701486Y-105294363D01*
X137575175Y-105249189D01*
X137442479Y-105229525D01*
X137308496Y-105236126D01*
X137178376Y-105268739D01*
X137116514Y-105294363D01*
X137092081Y-105416476D01*
X136718556Y-105416476D01*
X136676695Y-105353828D01*
X136670394Y-105347527D01*
X136688149Y-105329772D01*
X136763202Y-105217448D01*
X136786500Y-105161201D01*
X136832960Y-105180445D01*
X136965455Y-105206800D01*
X137100545Y-105206800D01*
X137233040Y-105180445D01*
X137357848Y-105128748D01*
X137470172Y-105053695D01*
X137565695Y-104958172D01*
X137640748Y-104845848D01*
X137692445Y-104721040D01*
X137718800Y-104588545D01*
X137718800Y-104453455D01*
X137692445Y-104320960D01*
X137640748Y-104196152D01*
X137604500Y-104141903D01*
X137604500Y-104072455D01*
X149301200Y-104072455D01*
X149301200Y-104207545D01*
X149327555Y-104340040D01*
X149379252Y-104464848D01*
X149454305Y-104577172D01*
X149549828Y-104672695D01*
X149662152Y-104747748D01*
X149786960Y-104799445D01*
X149919455Y-104825800D01*
X150054545Y-104825800D01*
X150187040Y-104799445D01*
X150311848Y-104747748D01*
X150424172Y-104672695D01*
X150519695Y-104577172D01*
X150594748Y-104464848D01*
X150646445Y-104340040D01*
X150672800Y-104207545D01*
X150672800Y-104072455D01*
X150646445Y-103939960D01*
X150594748Y-103815152D01*
X150519695Y-103702828D01*
X150424172Y-103607305D01*
X150311848Y-103532252D01*
X150187040Y-103480555D01*
X150054545Y-103454200D01*
X149919455Y-103454200D01*
X149786960Y-103480555D01*
X149662152Y-103532252D01*
X149549828Y-103607305D01*
X149454305Y-103702828D01*
X149379252Y-103815152D01*
X149327555Y-103939960D01*
X149301200Y-104072455D01*
X137604500Y-104072455D01*
X137604500Y-103907819D01*
X137606649Y-103885999D01*
X137604500Y-103864179D01*
X137604500Y-103864170D01*
X137598068Y-103798863D01*
X137572651Y-103715074D01*
X137531376Y-103637855D01*
X137520793Y-103624960D01*
X137489745Y-103587127D01*
X137489742Y-103587124D01*
X137475829Y-103570171D01*
X137458876Y-103556258D01*
X137162273Y-103259655D01*
X141478002Y-103259655D01*
X141478002Y-103394745D01*
X141504357Y-103527240D01*
X141556054Y-103652048D01*
X141631107Y-103764372D01*
X141726630Y-103859895D01*
X141838954Y-103934948D01*
X141963762Y-103986645D01*
X142096257Y-104013000D01*
X142231347Y-104013000D01*
X142363842Y-103986645D01*
X142488650Y-103934948D01*
X142600974Y-103859895D01*
X142696497Y-103764372D01*
X142771550Y-103652048D01*
X142823247Y-103527240D01*
X142849602Y-103394745D01*
X142849602Y-103259655D01*
X142823247Y-103127160D01*
X142771550Y-103002352D01*
X142696497Y-102890028D01*
X142600974Y-102794505D01*
X142488650Y-102719452D01*
X142363842Y-102667755D01*
X142231347Y-102641400D01*
X142096257Y-102641400D01*
X141963762Y-102667755D01*
X141838954Y-102719452D01*
X141726630Y-102794505D01*
X141631107Y-102890028D01*
X141556054Y-103002352D01*
X141504357Y-103127160D01*
X141478002Y-103259655D01*
X137162273Y-103259655D01*
X136346747Y-102444129D01*
X136332829Y-102427171D01*
X136265145Y-102371624D01*
X136263333Y-102370655D01*
X136728200Y-102370655D01*
X136728200Y-102505745D01*
X136754555Y-102638240D01*
X136806252Y-102763048D01*
X136881305Y-102875372D01*
X136976828Y-102970895D01*
X137089152Y-103045948D01*
X137213960Y-103097645D01*
X137346455Y-103124000D01*
X137481545Y-103124000D01*
X137614040Y-103097645D01*
X137738848Y-103045948D01*
X137851172Y-102970895D01*
X137901426Y-102920641D01*
X137961631Y-102960869D01*
X138086439Y-103012566D01*
X138218934Y-103038921D01*
X138354024Y-103038921D01*
X138486519Y-103012566D01*
X138611327Y-102960869D01*
X138723651Y-102885816D01*
X138819174Y-102790293D01*
X138894227Y-102677969D01*
X138945924Y-102553161D01*
X138972279Y-102420666D01*
X138972279Y-102285576D01*
X138945924Y-102153081D01*
X138894566Y-102029091D01*
X138984794Y-101938863D01*
X140081000Y-101938863D01*
X140081000Y-102073953D01*
X140107355Y-102206448D01*
X140159052Y-102331256D01*
X140234105Y-102443580D01*
X140329628Y-102539103D01*
X140441952Y-102614156D01*
X140566760Y-102665853D01*
X140699255Y-102692208D01*
X140834345Y-102692208D01*
X140966840Y-102665853D01*
X141091648Y-102614156D01*
X141203972Y-102539103D01*
X141299495Y-102443580D01*
X141374548Y-102331256D01*
X141426245Y-102206448D01*
X141452600Y-102073953D01*
X141452600Y-101938863D01*
X141426245Y-101806368D01*
X141374548Y-101681560D01*
X141299495Y-101569236D01*
X141203972Y-101473713D01*
X141091648Y-101398660D01*
X140966840Y-101346963D01*
X140834345Y-101320608D01*
X140699255Y-101320608D01*
X140566760Y-101346963D01*
X140441952Y-101398660D01*
X140329628Y-101473713D01*
X140234105Y-101569236D01*
X140159052Y-101681560D01*
X140107355Y-101806368D01*
X140081000Y-101938863D01*
X138984794Y-101938863D01*
X138988085Y-101935572D01*
X139063138Y-101823248D01*
X139114835Y-101698440D01*
X139141190Y-101565945D01*
X139141190Y-101430855D01*
X139114835Y-101298360D01*
X139103426Y-101270815D01*
X139226055Y-101295208D01*
X139361145Y-101295208D01*
X139493640Y-101268853D01*
X139618448Y-101217156D01*
X139730772Y-101142103D01*
X139826295Y-101046580D01*
X139901348Y-100934256D01*
X139953045Y-100809448D01*
X139979400Y-100676953D01*
X139979400Y-100541863D01*
X139953045Y-100409368D01*
X139932028Y-100358628D01*
X141015380Y-100358628D01*
X141015380Y-100493718D01*
X141041735Y-100626213D01*
X141093432Y-100751021D01*
X141168485Y-100863345D01*
X141264008Y-100958868D01*
X141376332Y-101033921D01*
X141501140Y-101085618D01*
X141633635Y-101111973D01*
X141768725Y-101111973D01*
X141901220Y-101085618D01*
X142026028Y-101033921D01*
X142138352Y-100958868D01*
X142233875Y-100863345D01*
X142308928Y-100751021D01*
X142360625Y-100626213D01*
X142386980Y-100493718D01*
X142386980Y-100358628D01*
X142360625Y-100226133D01*
X142308928Y-100101325D01*
X142233875Y-99989001D01*
X142138352Y-99893478D01*
X142026028Y-99818425D01*
X141932912Y-99779855D01*
X147269200Y-99779855D01*
X147269200Y-99914945D01*
X147295555Y-100047440D01*
X147347252Y-100172248D01*
X147422305Y-100284572D01*
X147517828Y-100380095D01*
X147630152Y-100455148D01*
X147754960Y-100506845D01*
X147887455Y-100533200D01*
X148022545Y-100533200D01*
X148155040Y-100506845D01*
X148279848Y-100455148D01*
X148392172Y-100380095D01*
X148487695Y-100284572D01*
X148562748Y-100172248D01*
X148614445Y-100047440D01*
X148640800Y-99914945D01*
X148640800Y-99779855D01*
X148614445Y-99647360D01*
X148562748Y-99522552D01*
X148487695Y-99410228D01*
X148392172Y-99314705D01*
X148279848Y-99239652D01*
X148155040Y-99187955D01*
X148022545Y-99161600D01*
X147887455Y-99161600D01*
X147754960Y-99187955D01*
X147630152Y-99239652D01*
X147517828Y-99314705D01*
X147422305Y-99410228D01*
X147347252Y-99522552D01*
X147295555Y-99647360D01*
X147269200Y-99779855D01*
X141932912Y-99779855D01*
X141901220Y-99766728D01*
X141768725Y-99740373D01*
X141633635Y-99740373D01*
X141501140Y-99766728D01*
X141376332Y-99818425D01*
X141264008Y-99893478D01*
X141168485Y-99989001D01*
X141093432Y-100101325D01*
X141041735Y-100226133D01*
X141015380Y-100358628D01*
X139932028Y-100358628D01*
X139901348Y-100284560D01*
X139826295Y-100172236D01*
X139730772Y-100076713D01*
X139728803Y-100075397D01*
X139748948Y-100045248D01*
X139800645Y-99920440D01*
X139827000Y-99787945D01*
X139827000Y-99652855D01*
X139800645Y-99520360D01*
X139748948Y-99395552D01*
X139673895Y-99283228D01*
X139578372Y-99187705D01*
X139466048Y-99112652D01*
X139341240Y-99060955D01*
X139208745Y-99034600D01*
X139073655Y-99034600D01*
X138941160Y-99060955D01*
X138816352Y-99112652D01*
X138704028Y-99187705D01*
X138608505Y-99283228D01*
X138533452Y-99395552D01*
X138481755Y-99520360D01*
X138455400Y-99652855D01*
X138455400Y-99787945D01*
X138481755Y-99920440D01*
X138533452Y-100045248D01*
X138608505Y-100157572D01*
X138704028Y-100253095D01*
X138705997Y-100254411D01*
X138685852Y-100284560D01*
X138634155Y-100409368D01*
X138607800Y-100541863D01*
X138607800Y-100676953D01*
X138634155Y-100809448D01*
X138645564Y-100836993D01*
X138522935Y-100812600D01*
X138387845Y-100812600D01*
X138255350Y-100838955D01*
X138130542Y-100890652D01*
X138018218Y-100965705D01*
X137922695Y-101061228D01*
X137847642Y-101173552D01*
X137795945Y-101298360D01*
X137769590Y-101430855D01*
X137769590Y-101565945D01*
X137795945Y-101698440D01*
X137847303Y-101822430D01*
X137799053Y-101870680D01*
X137738848Y-101830452D01*
X137614040Y-101778755D01*
X137481545Y-101752400D01*
X137346455Y-101752400D01*
X137213960Y-101778755D01*
X137089152Y-101830452D01*
X136976828Y-101905505D01*
X136881305Y-102001028D01*
X136806252Y-102113352D01*
X136754555Y-102238160D01*
X136728200Y-102370655D01*
X136263333Y-102370655D01*
X136187926Y-102330349D01*
X136104137Y-102304932D01*
X136038830Y-102298500D01*
X136038820Y-102298500D01*
X136017000Y-102296351D01*
X135995180Y-102298500D01*
X135276820Y-102298500D01*
X135255000Y-102296351D01*
X135233180Y-102298500D01*
X135233170Y-102298500D01*
X135167863Y-102304932D01*
X135084074Y-102330349D01*
X135006854Y-102371624D01*
X134956127Y-102413255D01*
X134956124Y-102413258D01*
X134939171Y-102427171D01*
X134925258Y-102444124D01*
X134194129Y-103175254D01*
X134177171Y-103189171D01*
X134163255Y-103206128D01*
X134121624Y-103256855D01*
X134092974Y-103310455D01*
X134080349Y-103334075D01*
X134054932Y-103417864D01*
X134048500Y-103483171D01*
X134048500Y-103483180D01*
X134046351Y-103505000D01*
X134048500Y-103526820D01*
X134048501Y-104499170D01*
X134046351Y-104521000D01*
X134054933Y-104608137D01*
X134080349Y-104691925D01*
X134121624Y-104769145D01*
X134163255Y-104819872D01*
X134163259Y-104819876D01*
X134177172Y-104836829D01*
X134194126Y-104850743D01*
X134302500Y-104959117D01*
X134302500Y-107014448D01*
X134281145Y-107010200D01*
X134146055Y-107010200D01*
X134013560Y-107036555D01*
X133888752Y-107088252D01*
X133776428Y-107163305D01*
X133680905Y-107258828D01*
X133605852Y-107371152D01*
X133554155Y-107495960D01*
X133527800Y-107628455D01*
X127406000Y-107628455D01*
X127406000Y-104199455D01*
X128727200Y-104199455D01*
X128727200Y-104334545D01*
X128753555Y-104467040D01*
X128805252Y-104591848D01*
X128880305Y-104704172D01*
X128975828Y-104799695D01*
X129088152Y-104874748D01*
X129212960Y-104926445D01*
X129345455Y-104952800D01*
X129480545Y-104952800D01*
X129613040Y-104926445D01*
X129737848Y-104874748D01*
X129850172Y-104799695D01*
X129945695Y-104704172D01*
X130020748Y-104591848D01*
X130072445Y-104467040D01*
X130098800Y-104334545D01*
X130098800Y-104199455D01*
X130072445Y-104066960D01*
X130020748Y-103942152D01*
X129945695Y-103829828D01*
X129850172Y-103734305D01*
X129737848Y-103659252D01*
X129613040Y-103607555D01*
X129480545Y-103581200D01*
X129345455Y-103581200D01*
X129212960Y-103607555D01*
X129088152Y-103659252D01*
X128975828Y-103734305D01*
X128880305Y-103829828D01*
X128805252Y-103942152D01*
X128753555Y-104066960D01*
X128727200Y-104199455D01*
X127406000Y-104199455D01*
X127406000Y-100821255D01*
X132765794Y-100821255D01*
X132765794Y-100956345D01*
X132792149Y-101088840D01*
X132843846Y-101213648D01*
X132918899Y-101325972D01*
X133014422Y-101421495D01*
X133126746Y-101496548D01*
X133251554Y-101548245D01*
X133384049Y-101574600D01*
X133519139Y-101574600D01*
X133651634Y-101548245D01*
X133776442Y-101496548D01*
X133888766Y-101421495D01*
X133984289Y-101325972D01*
X134059342Y-101213648D01*
X134103549Y-101106921D01*
X135751523Y-101106921D01*
X135751523Y-101242011D01*
X135777878Y-101374506D01*
X135829575Y-101499314D01*
X135904628Y-101611638D01*
X136000151Y-101707161D01*
X136112475Y-101782214D01*
X136237283Y-101833911D01*
X136369778Y-101860266D01*
X136504868Y-101860266D01*
X136637363Y-101833911D01*
X136762171Y-101782214D01*
X136874495Y-101707161D01*
X136970018Y-101611638D01*
X137045071Y-101499314D01*
X137096768Y-101374506D01*
X137123123Y-101242011D01*
X137123123Y-101106921D01*
X137096768Y-100974426D01*
X137045071Y-100849618D01*
X136970018Y-100737294D01*
X136874495Y-100641771D01*
X136762171Y-100566718D01*
X136637363Y-100515021D01*
X136504868Y-100488666D01*
X136369778Y-100488666D01*
X136237283Y-100515021D01*
X136112475Y-100566718D01*
X136000151Y-100641771D01*
X135904628Y-100737294D01*
X135829575Y-100849618D01*
X135777878Y-100974426D01*
X135751523Y-101106921D01*
X134103549Y-101106921D01*
X134111039Y-101088840D01*
X134137394Y-100956345D01*
X134137394Y-100821255D01*
X134111039Y-100688760D01*
X134059342Y-100563952D01*
X133984289Y-100451628D01*
X133888766Y-100356105D01*
X133776442Y-100281052D01*
X133651634Y-100229355D01*
X133519139Y-100203000D01*
X133384049Y-100203000D01*
X133251554Y-100229355D01*
X133126746Y-100281052D01*
X133014422Y-100356105D01*
X132918899Y-100451628D01*
X132843846Y-100563952D01*
X132792149Y-100688760D01*
X132765794Y-100821255D01*
X127406000Y-100821255D01*
X127406000Y-99576655D01*
X135458200Y-99576655D01*
X135458200Y-99711745D01*
X135484555Y-99844240D01*
X135536252Y-99969048D01*
X135611305Y-100081372D01*
X135706828Y-100176895D01*
X135819152Y-100251948D01*
X135943960Y-100303645D01*
X136076455Y-100330000D01*
X136211545Y-100330000D01*
X136344040Y-100303645D01*
X136468848Y-100251948D01*
X136581172Y-100176895D01*
X136676695Y-100081372D01*
X136751748Y-99969048D01*
X136803445Y-99844240D01*
X136829800Y-99711745D01*
X136829800Y-99576655D01*
X136803445Y-99444160D01*
X136751748Y-99319352D01*
X136726140Y-99281027D01*
X136773648Y-99261348D01*
X136885972Y-99186295D01*
X136981495Y-99090772D01*
X137056548Y-98978448D01*
X137061267Y-98967055D01*
X143383000Y-98967055D01*
X143383000Y-99102145D01*
X143409355Y-99234640D01*
X143461052Y-99359448D01*
X143536105Y-99471772D01*
X143631628Y-99567295D01*
X143743952Y-99642348D01*
X143868760Y-99694045D01*
X144001255Y-99720400D01*
X144136345Y-99720400D01*
X144268840Y-99694045D01*
X144393648Y-99642348D01*
X144505972Y-99567295D01*
X144601495Y-99471772D01*
X144676548Y-99359448D01*
X144728245Y-99234640D01*
X144754600Y-99102145D01*
X144754600Y-98967055D01*
X144728245Y-98834560D01*
X144676548Y-98709752D01*
X144601495Y-98597428D01*
X144505972Y-98501905D01*
X144393648Y-98426852D01*
X144268840Y-98375155D01*
X144136345Y-98348800D01*
X144001255Y-98348800D01*
X143868760Y-98375155D01*
X143743952Y-98426852D01*
X143631628Y-98501905D01*
X143536105Y-98597428D01*
X143461052Y-98709752D01*
X143409355Y-98834560D01*
X143383000Y-98967055D01*
X137061267Y-98967055D01*
X137108245Y-98853640D01*
X137134600Y-98721145D01*
X137134600Y-98586055D01*
X137108245Y-98453560D01*
X137056548Y-98328752D01*
X136981495Y-98216428D01*
X136885972Y-98120905D01*
X136773648Y-98045852D01*
X136648840Y-97994155D01*
X136516345Y-97967800D01*
X136381255Y-97967800D01*
X136248760Y-97994155D01*
X136123952Y-98045852D01*
X136011628Y-98120905D01*
X135916105Y-98216428D01*
X135841052Y-98328752D01*
X135789355Y-98453560D01*
X135763000Y-98586055D01*
X135763000Y-98721145D01*
X135789355Y-98853640D01*
X135841052Y-98978448D01*
X135866660Y-99016773D01*
X135819152Y-99036452D01*
X135706828Y-99111505D01*
X135611305Y-99207028D01*
X135536252Y-99319352D01*
X135484555Y-99444160D01*
X135458200Y-99576655D01*
X127406000Y-99576655D01*
X127406000Y-97341455D01*
X138379200Y-97341455D01*
X138379200Y-97476545D01*
X138405555Y-97609040D01*
X138457252Y-97733848D01*
X138532305Y-97846172D01*
X138627828Y-97941695D01*
X138740152Y-98016748D01*
X138864960Y-98068445D01*
X138997455Y-98094800D01*
X139132545Y-98094800D01*
X139265040Y-98068445D01*
X139389848Y-98016748D01*
X139502172Y-97941695D01*
X139597695Y-97846172D01*
X139672748Y-97733848D01*
X139724445Y-97609040D01*
X139750800Y-97476545D01*
X139750800Y-97341455D01*
X139724445Y-97208960D01*
X139672748Y-97084152D01*
X139597695Y-96971828D01*
X139502172Y-96876305D01*
X139389848Y-96801252D01*
X139265040Y-96749555D01*
X139132545Y-96723200D01*
X138997455Y-96723200D01*
X138864960Y-96749555D01*
X138740152Y-96801252D01*
X138627828Y-96876305D01*
X138532305Y-96971828D01*
X138457252Y-97084152D01*
X138405555Y-97208960D01*
X138379200Y-97341455D01*
X127406000Y-97341455D01*
X127406000Y-95944455D01*
X140157200Y-95944455D01*
X140157200Y-96079545D01*
X140183555Y-96212040D01*
X140235252Y-96336848D01*
X140310305Y-96449172D01*
X140405828Y-96544695D01*
X140518152Y-96619748D01*
X140642960Y-96671445D01*
X140775455Y-96697800D01*
X140910545Y-96697800D01*
X141043040Y-96671445D01*
X141167848Y-96619748D01*
X141280172Y-96544695D01*
X141375695Y-96449172D01*
X141450748Y-96336848D01*
X141502445Y-96212040D01*
X141528800Y-96079545D01*
X141528800Y-95944455D01*
X141502445Y-95811960D01*
X141450748Y-95687152D01*
X141446288Y-95680477D01*
X141483376Y-95655695D01*
X141578899Y-95560172D01*
X141653952Y-95447848D01*
X141705649Y-95323040D01*
X141732004Y-95190545D01*
X141732004Y-95055455D01*
X141705649Y-94922960D01*
X141653952Y-94798152D01*
X141578899Y-94685828D01*
X141483376Y-94590305D01*
X141371052Y-94515252D01*
X141246244Y-94463555D01*
X141113749Y-94437200D01*
X140978659Y-94437200D01*
X140846164Y-94463555D01*
X140721356Y-94515252D01*
X140609032Y-94590305D01*
X140513509Y-94685828D01*
X140438456Y-94798152D01*
X140386759Y-94922960D01*
X140360404Y-95055455D01*
X140360404Y-95190545D01*
X140386759Y-95323040D01*
X140438456Y-95447848D01*
X140442916Y-95454523D01*
X140405828Y-95479305D01*
X140310305Y-95574828D01*
X140235252Y-95687152D01*
X140183555Y-95811960D01*
X140157200Y-95944455D01*
X127406000Y-95944455D01*
X127406000Y-94674455D01*
X135890000Y-94674455D01*
X135890000Y-94809545D01*
X135916355Y-94942040D01*
X135968052Y-95066848D01*
X136043105Y-95179172D01*
X136138628Y-95274695D01*
X136250952Y-95349748D01*
X136375760Y-95401445D01*
X136508255Y-95427800D01*
X136643345Y-95427800D01*
X136775840Y-95401445D01*
X136900648Y-95349748D01*
X137012972Y-95274695D01*
X137108495Y-95179172D01*
X137183548Y-95066848D01*
X137235245Y-94942040D01*
X137261600Y-94809545D01*
X137261600Y-94674455D01*
X137235245Y-94541960D01*
X137183548Y-94417152D01*
X137108495Y-94304828D01*
X137012972Y-94209305D01*
X136900648Y-94134252D01*
X136775840Y-94082555D01*
X136643345Y-94056200D01*
X136508255Y-94056200D01*
X136375760Y-94082555D01*
X136250952Y-94134252D01*
X136138628Y-94209305D01*
X136043105Y-94304828D01*
X135968052Y-94417152D01*
X135916355Y-94541960D01*
X135890000Y-94674455D01*
X127406000Y-94674455D01*
X127406000Y-93220000D01*
X128574738Y-93220000D01*
X128591748Y-93392706D01*
X128642125Y-93558775D01*
X128723932Y-93711825D01*
X128834025Y-93845975D01*
X128968175Y-93956068D01*
X129121225Y-94037875D01*
X129287294Y-94088252D01*
X129416727Y-94101000D01*
X130103273Y-94101000D01*
X130232706Y-94088252D01*
X130398775Y-94037875D01*
X130551825Y-93956068D01*
X130685975Y-93845975D01*
X130796068Y-93711825D01*
X130877875Y-93558775D01*
X130928252Y-93392706D01*
X130945262Y-93220000D01*
X132504738Y-93220000D01*
X132521748Y-93392706D01*
X132572125Y-93558775D01*
X132653932Y-93711825D01*
X132764025Y-93845975D01*
X132898175Y-93956068D01*
X133051225Y-94037875D01*
X133217294Y-94088252D01*
X133346727Y-94101000D01*
X134533273Y-94101000D01*
X134662706Y-94088252D01*
X134828775Y-94037875D01*
X134981825Y-93956068D01*
X135115975Y-93845975D01*
X135226068Y-93711825D01*
X135307875Y-93558775D01*
X135358252Y-93392706D01*
X135375262Y-93220000D01*
X135358252Y-93047294D01*
X135307875Y-92881225D01*
X135226068Y-92728175D01*
X135134876Y-92617055D01*
X136499600Y-92617055D01*
X136499600Y-92752145D01*
X136525955Y-92884640D01*
X136577652Y-93009448D01*
X136652705Y-93121772D01*
X136748228Y-93217295D01*
X136860552Y-93292348D01*
X136985360Y-93344045D01*
X137117855Y-93370400D01*
X137252945Y-93370400D01*
X137385440Y-93344045D01*
X137510248Y-93292348D01*
X137622572Y-93217295D01*
X137718095Y-93121772D01*
X137793148Y-93009448D01*
X137844845Y-92884640D01*
X137871200Y-92752145D01*
X137871200Y-92617055D01*
X137865673Y-92589267D01*
X138372338Y-92589267D01*
X138482510Y-92782596D01*
X138728806Y-92898095D01*
X138992903Y-92963324D01*
X139264651Y-92975778D01*
X139533607Y-92934977D01*
X139789435Y-92842490D01*
X139901490Y-92782596D01*
X140011662Y-92589267D01*
X139192000Y-91769605D01*
X138372338Y-92589267D01*
X137865673Y-92589267D01*
X137844845Y-92484560D01*
X137793148Y-92359752D01*
X137718095Y-92247428D01*
X137622572Y-92151905D01*
X137510248Y-92076852D01*
X137385440Y-92025155D01*
X137252945Y-91998800D01*
X137117855Y-91998800D01*
X136985360Y-92025155D01*
X136860552Y-92076852D01*
X136748228Y-92151905D01*
X136652705Y-92247428D01*
X136577652Y-92359752D01*
X136525955Y-92484560D01*
X136499600Y-92617055D01*
X135134876Y-92617055D01*
X135115975Y-92594025D01*
X134981825Y-92483932D01*
X134828775Y-92402125D01*
X134662706Y-92351748D01*
X134533273Y-92339000D01*
X133859130Y-92339000D01*
X133860049Y-92338386D01*
X133958386Y-92240049D01*
X134035649Y-92124416D01*
X134088869Y-91995933D01*
X134116000Y-91859535D01*
X134116000Y-91720465D01*
X134104501Y-91662651D01*
X137806222Y-91662651D01*
X137847023Y-91931607D01*
X137939510Y-92187435D01*
X137999404Y-92299490D01*
X138192733Y-92409662D01*
X139012395Y-91590000D01*
X139371605Y-91590000D01*
X140191267Y-92409662D01*
X140384596Y-92299490D01*
X140500095Y-92053194D01*
X140565324Y-91789097D01*
X140577778Y-91517349D01*
X140568166Y-91453983D01*
X142311000Y-91453983D01*
X142311000Y-91726017D01*
X142364071Y-91992823D01*
X142468174Y-92244149D01*
X142619307Y-92470336D01*
X142811664Y-92662693D01*
X143037851Y-92813826D01*
X143289177Y-92917929D01*
X143555983Y-92971000D01*
X143828017Y-92971000D01*
X144094823Y-92917929D01*
X144346149Y-92813826D01*
X144572336Y-92662693D01*
X144645762Y-92589267D01*
X145556338Y-92589267D01*
X145666510Y-92782596D01*
X145912806Y-92898095D01*
X146176903Y-92963324D01*
X146448651Y-92975778D01*
X146717607Y-92934977D01*
X146973435Y-92842490D01*
X147085490Y-92782596D01*
X147195662Y-92589267D01*
X146376000Y-91769605D01*
X145556338Y-92589267D01*
X144645762Y-92589267D01*
X144764693Y-92470336D01*
X144915826Y-92244149D01*
X145019929Y-91992823D01*
X145031721Y-91933539D01*
X145123510Y-92187435D01*
X145183404Y-92299490D01*
X145376733Y-92409662D01*
X146196395Y-91590000D01*
X146555605Y-91590000D01*
X147375267Y-92409662D01*
X147568596Y-92299490D01*
X147684095Y-92053194D01*
X147749324Y-91789097D01*
X147761778Y-91517349D01*
X147720977Y-91248393D01*
X147628490Y-90992565D01*
X147568596Y-90880510D01*
X147375267Y-90770338D01*
X146555605Y-91590000D01*
X146196395Y-91590000D01*
X145376733Y-90770338D01*
X145183404Y-90880510D01*
X145067905Y-91126806D01*
X145034679Y-91261330D01*
X145019929Y-91187177D01*
X144915826Y-90935851D01*
X144764693Y-90709664D01*
X144645762Y-90590733D01*
X145556338Y-90590733D01*
X146376000Y-91410395D01*
X147195662Y-90590733D01*
X147085490Y-90397404D01*
X146839194Y-90281905D01*
X146575097Y-90216676D01*
X146303349Y-90204222D01*
X146034393Y-90245023D01*
X145778565Y-90337510D01*
X145666510Y-90397404D01*
X145556338Y-90590733D01*
X144645762Y-90590733D01*
X144572336Y-90517307D01*
X144346149Y-90366174D01*
X144094823Y-90262071D01*
X143828017Y-90209000D01*
X143555983Y-90209000D01*
X143289177Y-90262071D01*
X143037851Y-90366174D01*
X142811664Y-90517307D01*
X142619307Y-90709664D01*
X142468174Y-90935851D01*
X142364071Y-91187177D01*
X142311000Y-91453983D01*
X140568166Y-91453983D01*
X140536977Y-91248393D01*
X140444490Y-90992565D01*
X140384596Y-90880510D01*
X140191267Y-90770338D01*
X139371605Y-91590000D01*
X139012395Y-91590000D01*
X138192733Y-90770338D01*
X137999404Y-90880510D01*
X137883905Y-91126806D01*
X137818676Y-91390903D01*
X137806222Y-91662651D01*
X134104501Y-91662651D01*
X134088869Y-91584067D01*
X134035649Y-91455584D01*
X133958386Y-91339951D01*
X133860049Y-91241614D01*
X133744416Y-91164351D01*
X133615933Y-91111131D01*
X133479535Y-91084000D01*
X133340465Y-91084000D01*
X133204067Y-91111131D01*
X133075584Y-91164351D01*
X132959951Y-91241614D01*
X132861614Y-91339951D01*
X132784351Y-91455584D01*
X132731131Y-91584067D01*
X132704000Y-91720465D01*
X132704000Y-91859535D01*
X132731131Y-91995933D01*
X132784351Y-92124416D01*
X132861614Y-92240049D01*
X132959951Y-92338386D01*
X133054058Y-92401266D01*
X133051225Y-92402125D01*
X132898175Y-92483932D01*
X132764025Y-92594025D01*
X132653932Y-92728175D01*
X132572125Y-92881225D01*
X132521748Y-93047294D01*
X132504738Y-93220000D01*
X130945262Y-93220000D01*
X130928252Y-93047294D01*
X130877875Y-92881225D01*
X130796068Y-92728175D01*
X130685975Y-92594025D01*
X130551825Y-92483932D01*
X130398775Y-92402125D01*
X130232706Y-92351748D01*
X130103273Y-92339000D01*
X129416727Y-92339000D01*
X129287294Y-92351748D01*
X129121225Y-92402125D01*
X128968175Y-92483932D01*
X128834025Y-92594025D01*
X128723932Y-92728175D01*
X128642125Y-92881225D01*
X128591748Y-93047294D01*
X128574738Y-93220000D01*
X127406000Y-93220000D01*
X127406000Y-90590733D01*
X138372338Y-90590733D01*
X139192000Y-91410395D01*
X140011662Y-90590733D01*
X139901490Y-90397404D01*
X139655194Y-90281905D01*
X139391097Y-90216676D01*
X139119349Y-90204222D01*
X138850393Y-90245023D01*
X138594565Y-90337510D01*
X138482510Y-90397404D01*
X138372338Y-90590733D01*
X127406000Y-90590733D01*
X127406000Y-87816455D01*
X137617192Y-87816455D01*
X137617192Y-87951545D01*
X137643547Y-88084040D01*
X137695244Y-88208848D01*
X137770297Y-88321172D01*
X137865820Y-88416695D01*
X137978144Y-88491748D01*
X138080138Y-88533995D01*
X138024305Y-88589828D01*
X137949252Y-88702152D01*
X137897555Y-88826960D01*
X137871200Y-88959455D01*
X137871200Y-89094545D01*
X137897555Y-89227040D01*
X137949252Y-89351848D01*
X138024305Y-89464172D01*
X138119828Y-89559695D01*
X138232152Y-89634748D01*
X138356960Y-89686445D01*
X138489455Y-89712800D01*
X138624545Y-89712800D01*
X138757040Y-89686445D01*
X138881848Y-89634748D01*
X138994172Y-89559695D01*
X139089695Y-89464172D01*
X139164748Y-89351848D01*
X139216445Y-89227040D01*
X139242800Y-89094545D01*
X139242800Y-88959455D01*
X139216445Y-88826960D01*
X139164748Y-88702152D01*
X139089695Y-88589828D01*
X138994172Y-88494305D01*
X138881848Y-88419252D01*
X138779854Y-88377005D01*
X138835687Y-88321172D01*
X138910740Y-88208848D01*
X138962437Y-88084040D01*
X138988792Y-87951545D01*
X138988792Y-87816455D01*
X138962437Y-87683960D01*
X138910740Y-87559152D01*
X138835687Y-87446828D01*
X138740164Y-87351305D01*
X138627840Y-87276252D01*
X138503032Y-87224555D01*
X138370537Y-87198200D01*
X138235447Y-87198200D01*
X138102952Y-87224555D01*
X137978144Y-87276252D01*
X137865820Y-87351305D01*
X137770297Y-87446828D01*
X137695244Y-87559152D01*
X137643547Y-87683960D01*
X137617192Y-87816455D01*
X127406000Y-87816455D01*
X127406000Y-84580000D01*
X128574738Y-84580000D01*
X128591748Y-84752706D01*
X128642125Y-84918775D01*
X128723932Y-85071825D01*
X128834025Y-85205975D01*
X128968175Y-85316068D01*
X129121225Y-85397875D01*
X129287294Y-85448252D01*
X129416727Y-85461000D01*
X130103273Y-85461000D01*
X130232706Y-85448252D01*
X130398775Y-85397875D01*
X130551825Y-85316068D01*
X130685975Y-85205975D01*
X130796068Y-85071825D01*
X130877875Y-84918775D01*
X130928252Y-84752706D01*
X130945262Y-84580000D01*
X132504738Y-84580000D01*
X132521748Y-84752706D01*
X132572125Y-84918775D01*
X132653932Y-85071825D01*
X132764025Y-85205975D01*
X132898175Y-85316068D01*
X133051225Y-85397875D01*
X133054058Y-85398734D01*
X132959951Y-85461614D01*
X132861614Y-85559951D01*
X132784351Y-85675584D01*
X132731131Y-85804067D01*
X132704000Y-85940465D01*
X132704000Y-86079535D01*
X132731131Y-86215933D01*
X132784351Y-86344416D01*
X132861614Y-86460049D01*
X132959951Y-86558386D01*
X133075584Y-86635649D01*
X133204067Y-86688869D01*
X133340465Y-86716000D01*
X133479535Y-86716000D01*
X133615933Y-86688869D01*
X133744416Y-86635649D01*
X133860049Y-86558386D01*
X133958386Y-86460049D01*
X134035649Y-86344416D01*
X134088869Y-86215933D01*
X134114064Y-86089267D01*
X138372338Y-86089267D01*
X138482510Y-86282596D01*
X138728806Y-86398095D01*
X138992903Y-86463324D01*
X139264651Y-86475778D01*
X139533607Y-86434977D01*
X139789435Y-86342490D01*
X139901490Y-86282596D01*
X140011662Y-86089267D01*
X139192000Y-85269605D01*
X138372338Y-86089267D01*
X134114064Y-86089267D01*
X134116000Y-86079535D01*
X134116000Y-85940465D01*
X134088869Y-85804067D01*
X134035649Y-85675584D01*
X133958386Y-85559951D01*
X133860049Y-85461614D01*
X133859130Y-85461000D01*
X134533273Y-85461000D01*
X134662706Y-85448252D01*
X134828775Y-85397875D01*
X134981825Y-85316068D01*
X135115975Y-85205975D01*
X135151529Y-85162651D01*
X137806222Y-85162651D01*
X137847023Y-85431607D01*
X137939510Y-85687435D01*
X137999404Y-85799490D01*
X138192733Y-85909662D01*
X139012395Y-85090000D01*
X139371605Y-85090000D01*
X140191267Y-85909662D01*
X140384596Y-85799490D01*
X140500095Y-85553194D01*
X140565324Y-85289097D01*
X140577778Y-85017349D01*
X140568166Y-84953983D01*
X142311000Y-84953983D01*
X142311000Y-85226017D01*
X142364071Y-85492823D01*
X142468174Y-85744149D01*
X142619307Y-85970336D01*
X142811664Y-86162693D01*
X143037851Y-86313826D01*
X143289177Y-86417929D01*
X143555983Y-86471000D01*
X143828017Y-86471000D01*
X144094823Y-86417929D01*
X144346149Y-86313826D01*
X144572336Y-86162693D01*
X144645762Y-86089267D01*
X145556338Y-86089267D01*
X145666510Y-86282596D01*
X145912806Y-86398095D01*
X146176903Y-86463324D01*
X146448651Y-86475778D01*
X146717607Y-86434977D01*
X146973435Y-86342490D01*
X147085490Y-86282596D01*
X147195662Y-86089267D01*
X146376000Y-85269605D01*
X145556338Y-86089267D01*
X144645762Y-86089267D01*
X144764693Y-85970336D01*
X144915826Y-85744149D01*
X145019929Y-85492823D01*
X145031721Y-85433539D01*
X145123510Y-85687435D01*
X145183404Y-85799490D01*
X145376733Y-85909662D01*
X146196395Y-85090000D01*
X146555605Y-85090000D01*
X147375267Y-85909662D01*
X147568596Y-85799490D01*
X147684095Y-85553194D01*
X147749324Y-85289097D01*
X147761778Y-85017349D01*
X147720977Y-84748393D01*
X147628490Y-84492565D01*
X147568596Y-84380510D01*
X147375267Y-84270338D01*
X146555605Y-85090000D01*
X146196395Y-85090000D01*
X145376733Y-84270338D01*
X145183404Y-84380510D01*
X145067905Y-84626806D01*
X145034679Y-84761330D01*
X145019929Y-84687177D01*
X144915826Y-84435851D01*
X144764693Y-84209664D01*
X144645762Y-84090733D01*
X145556338Y-84090733D01*
X146376000Y-84910395D01*
X147195662Y-84090733D01*
X147085490Y-83897404D01*
X146839194Y-83781905D01*
X146575097Y-83716676D01*
X146303349Y-83704222D01*
X146034393Y-83745023D01*
X145778565Y-83837510D01*
X145666510Y-83897404D01*
X145556338Y-84090733D01*
X144645762Y-84090733D01*
X144572336Y-84017307D01*
X144346149Y-83866174D01*
X144094823Y-83762071D01*
X143828017Y-83709000D01*
X143555983Y-83709000D01*
X143289177Y-83762071D01*
X143037851Y-83866174D01*
X142811664Y-84017307D01*
X142619307Y-84209664D01*
X142468174Y-84435851D01*
X142364071Y-84687177D01*
X142311000Y-84953983D01*
X140568166Y-84953983D01*
X140536977Y-84748393D01*
X140444490Y-84492565D01*
X140384596Y-84380510D01*
X140191267Y-84270338D01*
X139371605Y-85090000D01*
X139012395Y-85090000D01*
X138192733Y-84270338D01*
X137999404Y-84380510D01*
X137883905Y-84626806D01*
X137818676Y-84890903D01*
X137806222Y-85162651D01*
X135151529Y-85162651D01*
X135226068Y-85071825D01*
X135307875Y-84918775D01*
X135358252Y-84752706D01*
X135375262Y-84580000D01*
X135358252Y-84407294D01*
X135307875Y-84241225D01*
X135227436Y-84090733D01*
X138372338Y-84090733D01*
X139192000Y-84910395D01*
X140011662Y-84090733D01*
X139901490Y-83897404D01*
X139655194Y-83781905D01*
X139391097Y-83716676D01*
X139119349Y-83704222D01*
X138850393Y-83745023D01*
X138594565Y-83837510D01*
X138482510Y-83897404D01*
X138372338Y-84090733D01*
X135227436Y-84090733D01*
X135226068Y-84088175D01*
X135115975Y-83954025D01*
X134981825Y-83843932D01*
X134828775Y-83762125D01*
X134662706Y-83711748D01*
X134533273Y-83699000D01*
X133346727Y-83699000D01*
X133217294Y-83711748D01*
X133051225Y-83762125D01*
X132898175Y-83843932D01*
X132764025Y-83954025D01*
X132653932Y-84088175D01*
X132572125Y-84241225D01*
X132521748Y-84407294D01*
X132504738Y-84580000D01*
X130945262Y-84580000D01*
X130928252Y-84407294D01*
X130877875Y-84241225D01*
X130796068Y-84088175D01*
X130685975Y-83954025D01*
X130551825Y-83843932D01*
X130398775Y-83762125D01*
X130232706Y-83711748D01*
X130103273Y-83699000D01*
X129416727Y-83699000D01*
X129287294Y-83711748D01*
X129121225Y-83762125D01*
X128968175Y-83843932D01*
X128834025Y-83954025D01*
X128723932Y-84088175D01*
X128642125Y-84241225D01*
X128591748Y-84407294D01*
X128574738Y-84580000D01*
X127406000Y-84580000D01*
X127406000Y-84347853D01*
X127429201Y-84111229D01*
X127492158Y-83902704D01*
X127594415Y-83710387D01*
X127732082Y-83541590D01*
X127899911Y-83402750D01*
X128091513Y-83299152D01*
X128299588Y-83234742D01*
X128534991Y-83210000D01*
X150856147Y-83210000D01*
X151092771Y-83233201D01*
%TA.AperFunction,Conductor*%
D19*
G36*
X151092771Y-83233201D02*
G01*
X151301296Y-83296158D01*
X151493613Y-83398415D01*
X151662410Y-83536082D01*
X151801250Y-83703911D01*
X151904848Y-83895513D01*
X151969258Y-84103588D01*
X151986327Y-84265988D01*
X151948693Y-84209664D01*
X151756336Y-84017307D01*
X151530149Y-83866174D01*
X151278823Y-83762071D01*
X151012017Y-83709000D01*
X150739983Y-83709000D01*
X150473177Y-83762071D01*
X150221851Y-83866174D01*
X149995664Y-84017307D01*
X149803307Y-84209664D01*
X149652174Y-84435851D01*
X149548071Y-84687177D01*
X149495000Y-84953983D01*
X149495000Y-85226017D01*
X149548071Y-85492823D01*
X149652174Y-85744149D01*
X149803307Y-85970336D01*
X149995664Y-86162693D01*
X150221851Y-86313826D01*
X150473177Y-86417929D01*
X150739983Y-86471000D01*
X151012017Y-86471000D01*
X151278823Y-86417929D01*
X151530149Y-86313826D01*
X151756336Y-86162693D01*
X151948693Y-85970336D01*
X151994001Y-85902528D01*
X151994001Y-90777472D01*
X151948693Y-90709664D01*
X151756336Y-90517307D01*
X151530149Y-90366174D01*
X151278823Y-90262071D01*
X151012017Y-90209000D01*
X150739983Y-90209000D01*
X150473177Y-90262071D01*
X150221851Y-90366174D01*
X149995664Y-90517307D01*
X149803307Y-90709664D01*
X149652174Y-90935851D01*
X149548071Y-91187177D01*
X149495000Y-91453983D01*
X149495000Y-91726017D01*
X149548071Y-91992823D01*
X149652174Y-92244149D01*
X149803307Y-92470336D01*
X149995664Y-92662693D01*
X150221851Y-92813826D01*
X150473177Y-92917929D01*
X150739983Y-92971000D01*
X151012017Y-92971000D01*
X151278823Y-92917929D01*
X151530149Y-92813826D01*
X151756336Y-92662693D01*
X151948693Y-92470336D01*
X151994001Y-92402528D01*
X151994000Y-125456147D01*
X151970799Y-125692775D01*
X151907841Y-125901296D01*
X151805583Y-126093616D01*
X151667918Y-126262409D01*
X151500090Y-126401249D01*
X151308491Y-126504847D01*
X151100414Y-126569258D01*
X150865009Y-126594000D01*
X128543853Y-126594000D01*
X128307225Y-126570799D01*
X128098704Y-126507841D01*
X127906384Y-126405583D01*
X127737591Y-126267918D01*
X127598751Y-126100090D01*
X127495153Y-125908491D01*
X127430742Y-125700414D01*
X127406000Y-125465009D01*
X127406000Y-125100757D01*
X127547000Y-125100757D01*
X127547000Y-125343243D01*
X127594307Y-125581069D01*
X127687102Y-125805097D01*
X127821820Y-126006717D01*
X127993283Y-126178180D01*
X128194903Y-126312898D01*
X128418931Y-126405693D01*
X128656757Y-126453000D01*
X128899243Y-126453000D01*
X129137069Y-126405693D01*
X129361097Y-126312898D01*
X129562717Y-126178180D01*
X129734180Y-126006717D01*
X129868898Y-125805097D01*
X129961693Y-125581069D01*
X130009000Y-125343243D01*
X130009000Y-125100757D01*
X129961693Y-124862931D01*
X129868898Y-124638903D01*
X129734180Y-124437283D01*
X129562717Y-124265820D01*
X129361097Y-124131102D01*
X129137069Y-124038307D01*
X128899243Y-123991000D01*
X128656757Y-123991000D01*
X128418931Y-124038307D01*
X128194903Y-124131102D01*
X127993283Y-124265820D01*
X127821820Y-124437283D01*
X127687102Y-124638903D01*
X127594307Y-124862931D01*
X127547000Y-125100757D01*
X127406000Y-125100757D01*
X127406000Y-122560757D01*
X127547000Y-122560757D01*
X127547000Y-122803243D01*
X127594307Y-123041069D01*
X127687102Y-123265097D01*
X127821820Y-123466717D01*
X127993283Y-123638180D01*
X128194903Y-123772898D01*
X128418931Y-123865693D01*
X128656757Y-123913000D01*
X128899243Y-123913000D01*
X129137069Y-123865693D01*
X129361097Y-123772898D01*
X129562717Y-123638180D01*
X129734180Y-123466717D01*
X129868898Y-123265097D01*
X129961693Y-123041069D01*
X130009000Y-122803243D01*
X130009000Y-122560757D01*
X129961693Y-122322931D01*
X129868898Y-122098903D01*
X129734180Y-121897283D01*
X129562717Y-121725820D01*
X129361097Y-121591102D01*
X129137069Y-121498307D01*
X128899243Y-121451000D01*
X128656757Y-121451000D01*
X128418931Y-121498307D01*
X128194903Y-121591102D01*
X127993283Y-121725820D01*
X127821820Y-121897283D01*
X127687102Y-122098903D01*
X127594307Y-122322931D01*
X127547000Y-122560757D01*
X127406000Y-122560757D01*
X127406000Y-120020757D01*
X127547000Y-120020757D01*
X127547000Y-120263243D01*
X127594307Y-120501069D01*
X127687102Y-120725097D01*
X127821820Y-120926717D01*
X127993283Y-121098180D01*
X128194903Y-121232898D01*
X128418931Y-121325693D01*
X128656757Y-121373000D01*
X128899243Y-121373000D01*
X129137069Y-121325693D01*
X129361097Y-121232898D01*
X129562717Y-121098180D01*
X129734180Y-120926717D01*
X129868898Y-120725097D01*
X129961693Y-120501069D01*
X130009000Y-120263243D01*
X130009000Y-120020757D01*
X129961693Y-119782931D01*
X129868898Y-119558903D01*
X129734180Y-119357283D01*
X129562717Y-119185820D01*
X129361097Y-119051102D01*
X129137069Y-118958307D01*
X128899243Y-118911000D01*
X128656757Y-118911000D01*
X128418931Y-118958307D01*
X128194903Y-119051102D01*
X127993283Y-119185820D01*
X127821820Y-119357283D01*
X127687102Y-119558903D01*
X127594307Y-119782931D01*
X127547000Y-120020757D01*
X127406000Y-120020757D01*
X127406000Y-117480757D01*
X127547000Y-117480757D01*
X127547000Y-117723243D01*
X127594307Y-117961069D01*
X127687102Y-118185097D01*
X127821820Y-118386717D01*
X127993283Y-118558180D01*
X128194903Y-118692898D01*
X128418931Y-118785693D01*
X128656757Y-118833000D01*
X128899243Y-118833000D01*
X129137069Y-118785693D01*
X129361097Y-118692898D01*
X129562717Y-118558180D01*
X129734180Y-118386717D01*
X129868898Y-118185097D01*
X129961693Y-117961069D01*
X130009000Y-117723243D01*
X130009000Y-117480757D01*
X129961693Y-117242931D01*
X129868898Y-117018903D01*
X129808159Y-116928000D01*
X130847157Y-116928000D01*
X130854513Y-117002689D01*
X130876299Y-117074508D01*
X130911678Y-117140696D01*
X130959289Y-117198711D01*
X131017304Y-117246322D01*
X131083492Y-117281701D01*
X131155311Y-117303487D01*
X131230000Y-117310843D01*
X131857750Y-117309000D01*
X131953000Y-117213750D01*
X131953000Y-116205000D01*
X132207000Y-116205000D01*
X132207000Y-117213750D01*
X132302250Y-117309000D01*
X132930000Y-117310843D01*
X133004689Y-117303487D01*
X133076508Y-117281701D01*
X133142696Y-117246322D01*
X133200711Y-117198711D01*
X133248322Y-117140696D01*
X133283701Y-117074508D01*
X133305487Y-117002689D01*
X133312843Y-116928000D01*
X133311000Y-116300250D01*
X133215750Y-116205000D01*
X132207000Y-116205000D01*
X131953000Y-116205000D01*
X130944250Y-116205000D01*
X130849000Y-116300250D01*
X130847157Y-116928000D01*
X129808159Y-116928000D01*
X129734180Y-116817283D01*
X129562717Y-116645820D01*
X129361097Y-116511102D01*
X129137069Y-116418307D01*
X128899243Y-116371000D01*
X128656757Y-116371000D01*
X128418931Y-116418307D01*
X128194903Y-116511102D01*
X127993283Y-116645820D01*
X127821820Y-116817283D01*
X127687102Y-117018903D01*
X127594307Y-117242931D01*
X127547000Y-117480757D01*
X127406000Y-117480757D01*
X127406000Y-114940757D01*
X127547000Y-114940757D01*
X127547000Y-115183243D01*
X127594307Y-115421069D01*
X127687102Y-115645097D01*
X127821820Y-115846717D01*
X127993283Y-116018180D01*
X128194903Y-116152898D01*
X128418931Y-116245693D01*
X128656757Y-116293000D01*
X128899243Y-116293000D01*
X129137069Y-116245693D01*
X129361097Y-116152898D01*
X129562717Y-116018180D01*
X129624140Y-115956757D01*
X133389000Y-115956757D01*
X133389000Y-116199243D01*
X133436307Y-116437069D01*
X133529102Y-116661097D01*
X133663820Y-116862717D01*
X133835283Y-117034180D01*
X134036903Y-117168898D01*
X134260931Y-117261693D01*
X134498757Y-117309000D01*
X134741243Y-117309000D01*
X134979069Y-117261693D01*
X135203097Y-117168898D01*
X135404717Y-117034180D01*
X135576180Y-116862717D01*
X135710898Y-116661097D01*
X135803693Y-116437069D01*
X135851000Y-116199243D01*
X135851000Y-115956757D01*
X135803693Y-115718931D01*
X135710898Y-115494903D01*
X135576180Y-115293283D01*
X135404717Y-115121820D01*
X135203097Y-114987102D01*
X134979069Y-114894307D01*
X134741243Y-114847000D01*
X134498757Y-114847000D01*
X134260931Y-114894307D01*
X134036903Y-114987102D01*
X133835283Y-115121820D01*
X133663820Y-115293283D01*
X133529102Y-115494903D01*
X133436307Y-115718931D01*
X133389000Y-115956757D01*
X129624140Y-115956757D01*
X129734180Y-115846717D01*
X129868898Y-115645097D01*
X129961693Y-115421069D01*
X130000097Y-115228000D01*
X130847157Y-115228000D01*
X130849000Y-115855750D01*
X130944250Y-115951000D01*
X131953000Y-115951000D01*
X131953000Y-115931000D01*
X132207000Y-115931000D01*
X132207000Y-115951000D01*
X133215750Y-115951000D01*
X133311000Y-115855750D01*
X133312843Y-115228000D01*
X133305487Y-115153311D01*
X133283701Y-115081492D01*
X133248322Y-115015304D01*
X133200711Y-114957289D01*
X133142696Y-114909678D01*
X133076508Y-114874299D01*
X133004689Y-114852513D01*
X132930000Y-114845157D01*
X132302250Y-114847000D01*
X132207002Y-114942248D01*
X132207002Y-114870227D01*
X132263172Y-114832695D01*
X132358695Y-114737172D01*
X132433748Y-114624848D01*
X132485445Y-114500040D01*
X132511800Y-114367545D01*
X132511800Y-114232455D01*
X132485445Y-114099960D01*
X132433748Y-113975152D01*
X132358695Y-113862828D01*
X132263172Y-113767305D01*
X132150848Y-113692252D01*
X132026040Y-113640555D01*
X131893545Y-113614200D01*
X131758455Y-113614200D01*
X131625960Y-113640555D01*
X131501152Y-113692252D01*
X131388828Y-113767305D01*
X131293305Y-113862828D01*
X131218252Y-113975152D01*
X131166555Y-114099960D01*
X131140200Y-114232455D01*
X131140200Y-114367545D01*
X131166555Y-114500040D01*
X131218252Y-114624848D01*
X131293305Y-114737172D01*
X131388828Y-114832695D01*
X131408262Y-114845680D01*
X131230000Y-114845157D01*
X131155311Y-114852513D01*
X131083492Y-114874299D01*
X131017304Y-114909678D01*
X130959289Y-114957289D01*
X130911678Y-115015304D01*
X130876299Y-115081492D01*
X130854513Y-115153311D01*
X130847157Y-115228000D01*
X130000097Y-115228000D01*
X130009000Y-115183243D01*
X130009000Y-114940757D01*
X129961693Y-114702931D01*
X129868898Y-114478903D01*
X129734180Y-114277283D01*
X129562717Y-114105820D01*
X129361097Y-113971102D01*
X129137069Y-113878307D01*
X128899243Y-113831000D01*
X128656757Y-113831000D01*
X128418931Y-113878307D01*
X128194903Y-113971102D01*
X127993283Y-114105820D01*
X127821820Y-114277283D01*
X127687102Y-114478903D01*
X127594307Y-114702931D01*
X127547000Y-114940757D01*
X127406000Y-114940757D01*
X127406000Y-112400757D01*
X127547000Y-112400757D01*
X127547000Y-112643243D01*
X127594307Y-112881069D01*
X127687102Y-113105097D01*
X127821820Y-113306717D01*
X127993283Y-113478180D01*
X128194903Y-113612898D01*
X128418931Y-113705693D01*
X128656757Y-113753000D01*
X128899243Y-113753000D01*
X129137069Y-113705693D01*
X129361097Y-113612898D01*
X129562717Y-113478180D01*
X129734180Y-113306717D01*
X129868898Y-113105097D01*
X129961693Y-112881069D01*
X130009000Y-112643243D01*
X130009000Y-112400757D01*
X129961693Y-112162931D01*
X129868898Y-111938903D01*
X129734180Y-111737283D01*
X129562717Y-111565820D01*
X129361097Y-111431102D01*
X129137069Y-111338307D01*
X128899243Y-111291000D01*
X128656757Y-111291000D01*
X128418931Y-111338307D01*
X128194903Y-111431102D01*
X127993283Y-111565820D01*
X127821820Y-111737283D01*
X127687102Y-111938903D01*
X127594307Y-112162931D01*
X127547000Y-112400757D01*
X127406000Y-112400757D01*
X127406000Y-110832000D01*
X127545157Y-110832000D01*
X127552513Y-110906689D01*
X127574299Y-110978508D01*
X127609678Y-111044696D01*
X127657289Y-111102711D01*
X127715304Y-111150322D01*
X127781492Y-111185701D01*
X127853311Y-111207487D01*
X127928000Y-111214843D01*
X128555750Y-111213000D01*
X128651000Y-111117750D01*
X128651000Y-110109000D01*
X128905000Y-110109000D01*
X128905000Y-111117750D01*
X129000250Y-111213000D01*
X129628000Y-111214843D01*
X129702689Y-111207487D01*
X129774508Y-111185701D01*
X129840696Y-111150322D01*
X129898711Y-111102711D01*
X129946322Y-111044696D01*
X129981701Y-110978508D01*
X129996277Y-110930455D01*
X132918200Y-110930455D01*
X132918200Y-111065545D01*
X132944555Y-111198040D01*
X132996252Y-111322848D01*
X133071305Y-111435172D01*
X133166828Y-111530695D01*
X133279152Y-111605748D01*
X133403960Y-111657445D01*
X133536455Y-111683800D01*
X133671545Y-111683800D01*
X133804040Y-111657445D01*
X133928848Y-111605748D01*
X134041172Y-111530695D01*
X134136695Y-111435172D01*
X134211748Y-111322848D01*
X134263445Y-111198040D01*
X134289800Y-111065545D01*
X134289800Y-110930455D01*
X134263445Y-110797960D01*
X134211748Y-110673152D01*
X134136695Y-110560828D01*
X134041172Y-110465305D01*
X133928848Y-110390252D01*
X133804040Y-110338555D01*
X133671545Y-110312200D01*
X133536455Y-110312200D01*
X133403960Y-110338555D01*
X133279152Y-110390252D01*
X133166828Y-110465305D01*
X133071305Y-110560828D01*
X132996252Y-110673152D01*
X132944555Y-110797960D01*
X132918200Y-110930455D01*
X129996277Y-110930455D01*
X130003487Y-110906689D01*
X130010843Y-110832000D01*
X130009000Y-110204250D01*
X129913750Y-110109000D01*
X128905000Y-110109000D01*
X128651000Y-110109000D01*
X127642250Y-110109000D01*
X127547000Y-110204250D01*
X127545157Y-110832000D01*
X127406000Y-110832000D01*
X127406000Y-109132000D01*
X127545157Y-109132000D01*
X127547000Y-109759750D01*
X127642250Y-109855000D01*
X128651000Y-109855000D01*
X128651000Y-108846250D01*
X128905000Y-108846250D01*
X128905000Y-109855000D01*
X129913750Y-109855000D01*
X130009000Y-109759750D01*
X130010843Y-109132000D01*
X130003487Y-109057311D01*
X129981701Y-108985492D01*
X129946322Y-108919304D01*
X129898711Y-108861289D01*
X129840696Y-108813678D01*
X129774508Y-108778299D01*
X129702689Y-108756513D01*
X129628000Y-108749157D01*
X129000250Y-108751000D01*
X128905000Y-108846250D01*
X128651000Y-108846250D01*
X128555750Y-108751000D01*
X127928000Y-108749157D01*
X127853311Y-108756513D01*
X127781492Y-108778299D01*
X127715304Y-108813678D01*
X127657289Y-108861289D01*
X127609678Y-108919304D01*
X127574299Y-108985492D01*
X127552513Y-109057311D01*
X127545157Y-109132000D01*
X127406000Y-109132000D01*
X127406000Y-107628455D01*
X133527800Y-107628455D01*
X133527800Y-107763545D01*
X133554155Y-107896040D01*
X133605852Y-108020848D01*
X133666689Y-108111896D01*
X133618542Y-108183952D01*
X133566845Y-108308760D01*
X133540490Y-108441255D01*
X133540490Y-108576345D01*
X133566845Y-108708840D01*
X133618542Y-108833648D01*
X133693595Y-108945972D01*
X133789118Y-109041495D01*
X133901442Y-109116548D01*
X134026250Y-109168245D01*
X134158745Y-109194600D01*
X134293835Y-109194600D01*
X134302501Y-109192876D01*
X134302501Y-109960170D01*
X134300351Y-109982000D01*
X134308933Y-110069137D01*
X134334349Y-110152925D01*
X134375624Y-110230145D01*
X134417255Y-110280872D01*
X134417259Y-110280876D01*
X134431172Y-110297829D01*
X134448125Y-110311742D01*
X135083582Y-110947200D01*
X135060455Y-110947200D01*
X134927960Y-110973555D01*
X134803152Y-111025252D01*
X134690828Y-111100305D01*
X134595305Y-111195828D01*
X134520252Y-111308152D01*
X134468555Y-111432960D01*
X134442200Y-111565455D01*
X134442200Y-111700545D01*
X134468555Y-111833040D01*
X134520252Y-111957848D01*
X134595305Y-112070172D01*
X134690828Y-112165695D01*
X134803152Y-112240748D01*
X134927960Y-112292445D01*
X135060455Y-112318800D01*
X135195545Y-112318800D01*
X135328040Y-112292445D01*
X135452848Y-112240748D01*
X135496300Y-112211714D01*
X135496300Y-112866553D01*
X135435960Y-112878555D01*
X135383047Y-112900472D01*
X135354748Y-112832152D01*
X135279695Y-112719828D01*
X135184172Y-112624305D01*
X135071848Y-112549252D01*
X134947040Y-112497555D01*
X134814545Y-112471200D01*
X134679455Y-112471200D01*
X134546960Y-112497555D01*
X134422152Y-112549252D01*
X134309828Y-112624305D01*
X134214305Y-112719828D01*
X134139252Y-112832152D01*
X134087555Y-112956960D01*
X134061200Y-113089455D01*
X134061200Y-113224545D01*
X134087555Y-113357040D01*
X134139252Y-113481848D01*
X134214305Y-113594172D01*
X134309828Y-113689695D01*
X134422152Y-113764748D01*
X134546960Y-113816445D01*
X134679455Y-113842800D01*
X134814545Y-113842800D01*
X134947040Y-113816445D01*
X134999953Y-113794528D01*
X135028252Y-113862848D01*
X135103305Y-113975172D01*
X135198828Y-114070695D01*
X135311152Y-114145748D01*
X135435960Y-114197445D01*
X135568455Y-114223800D01*
X135703545Y-114223800D01*
X135836040Y-114197445D01*
X135960848Y-114145748D01*
X136073172Y-114070695D01*
X136136242Y-114007625D01*
X136153624Y-114040145D01*
X136195255Y-114090872D01*
X136195259Y-114090876D01*
X136209172Y-114107829D01*
X136226125Y-114121742D01*
X136965879Y-114861496D01*
X136800931Y-114894307D01*
X136576903Y-114987102D01*
X136375283Y-115121820D01*
X136203820Y-115293283D01*
X136069102Y-115494903D01*
X135976307Y-115718931D01*
X135929000Y-115956757D01*
X135929000Y-116199243D01*
X135976307Y-116437069D01*
X136069102Y-116661097D01*
X136203820Y-116862717D01*
X136375283Y-117034180D01*
X136576903Y-117168898D01*
X136800931Y-117261693D01*
X137038757Y-117309000D01*
X137281243Y-117309000D01*
X137519069Y-117261693D01*
X137743097Y-117168898D01*
X137944717Y-117034180D01*
X138116180Y-116862717D01*
X138163246Y-116792278D01*
X138185624Y-116834145D01*
X138227255Y-116884872D01*
X138227259Y-116884876D01*
X138241172Y-116901829D01*
X138258125Y-116915742D01*
X138735258Y-117392876D01*
X138749171Y-117409829D01*
X138766124Y-117423742D01*
X138766126Y-117423744D01*
X138816853Y-117465375D01*
X138816855Y-117465376D01*
X138894074Y-117506651D01*
X138977863Y-117532068D01*
X139043170Y-117538500D01*
X139043179Y-117538500D01*
X139064999Y-117540649D01*
X139086819Y-117538500D01*
X139809633Y-117538500D01*
X139897828Y-117626695D01*
X140010152Y-117701748D01*
X140134960Y-117753445D01*
X140267455Y-117779800D01*
X140402545Y-117779800D01*
X140535040Y-117753445D01*
X140549609Y-117747410D01*
X140557349Y-117772925D01*
X140598624Y-117850145D01*
X140640255Y-117900872D01*
X140640259Y-117900876D01*
X140654172Y-117917829D01*
X140671125Y-117931742D01*
X142049500Y-119310118D01*
X142049501Y-120759632D01*
X141961305Y-120847828D01*
X141886252Y-120960152D01*
X141834555Y-121084960D01*
X141808200Y-121217455D01*
X141808200Y-121352545D01*
X141834555Y-121485040D01*
X141886252Y-121609848D01*
X141961305Y-121722172D01*
X142056828Y-121817695D01*
X142169152Y-121892748D01*
X142293960Y-121944445D01*
X142426455Y-121970800D01*
X142561545Y-121970800D01*
X142694040Y-121944445D01*
X142818848Y-121892748D01*
X142931172Y-121817695D01*
X143026695Y-121722172D01*
X143101748Y-121609848D01*
X143153445Y-121485040D01*
X143179800Y-121352545D01*
X143179800Y-121217455D01*
X143153445Y-121084960D01*
X143101748Y-120960152D01*
X143026695Y-120847828D01*
X142938500Y-120759633D01*
X142938500Y-119147819D01*
X142940649Y-119125999D01*
X142938500Y-119104179D01*
X142938500Y-119104170D01*
X142932068Y-119038863D01*
X142906651Y-118955074D01*
X142865376Y-118877855D01*
X142865375Y-118877853D01*
X142823744Y-118827126D01*
X142823742Y-118827124D01*
X142809829Y-118810171D01*
X142792877Y-118796259D01*
X141414500Y-117417883D01*
X141414500Y-117310771D01*
X142017750Y-117309000D01*
X142113000Y-117213750D01*
X142113000Y-116205000D01*
X142093000Y-116205000D01*
X142093000Y-115951000D01*
X142113000Y-115951000D01*
X142113000Y-115931000D01*
X142367000Y-115931000D01*
X142367000Y-115951000D01*
X142387000Y-115951000D01*
X142387000Y-116205000D01*
X142367000Y-116205000D01*
X142367000Y-117213750D01*
X142462250Y-117309000D01*
X143065500Y-117310771D01*
X143065500Y-118088180D01*
X143063351Y-118110000D01*
X143065500Y-118131820D01*
X143065500Y-118131829D01*
X143071932Y-118197136D01*
X143097349Y-118280925D01*
X143138624Y-118358145D01*
X143162073Y-118386717D01*
X143194171Y-118425829D01*
X143211130Y-118439747D01*
X149495716Y-124724334D01*
X149438307Y-124862931D01*
X149391000Y-125100757D01*
X149391000Y-125343243D01*
X149438307Y-125581069D01*
X149531102Y-125805097D01*
X149665820Y-126006717D01*
X149837283Y-126178180D01*
X150038903Y-126312898D01*
X150262931Y-126405693D01*
X150500757Y-126453000D01*
X150743243Y-126453000D01*
X150981069Y-126405693D01*
X151205097Y-126312898D01*
X151406717Y-126178180D01*
X151578180Y-126006717D01*
X151712898Y-125805097D01*
X151805693Y-125581069D01*
X151853000Y-125343243D01*
X151853000Y-125100757D01*
X151805693Y-124862931D01*
X151712898Y-124638903D01*
X151578180Y-124437283D01*
X151406717Y-124265820D01*
X151205097Y-124131102D01*
X150981069Y-124038307D01*
X150743243Y-123991000D01*
X150500757Y-123991000D01*
X150262931Y-124038307D01*
X150124334Y-124095716D01*
X143954500Y-117925883D01*
X143954500Y-116993397D01*
X143995283Y-117034180D01*
X144196903Y-117168898D01*
X144420931Y-117261693D01*
X144658757Y-117309000D01*
X144901243Y-117309000D01*
X145139069Y-117261693D01*
X145363097Y-117168898D01*
X145478501Y-117091788D01*
X145478501Y-118850170D01*
X145476351Y-118872000D01*
X145484933Y-118959137D01*
X145510349Y-119042925D01*
X145551624Y-119120145D01*
X145593255Y-119170872D01*
X145593259Y-119170876D01*
X145607172Y-119187829D01*
X145624125Y-119201742D01*
X149403258Y-122980876D01*
X149417171Y-122997829D01*
X149432151Y-123010123D01*
X149438307Y-123041069D01*
X149531102Y-123265097D01*
X149665820Y-123466717D01*
X149837283Y-123638180D01*
X150038903Y-123772898D01*
X150262931Y-123865693D01*
X150500757Y-123913000D01*
X150743243Y-123913000D01*
X150981069Y-123865693D01*
X151205097Y-123772898D01*
X151406717Y-123638180D01*
X151578180Y-123466717D01*
X151712898Y-123265097D01*
X151805693Y-123041069D01*
X151853000Y-122803243D01*
X151853000Y-122560757D01*
X151805693Y-122322931D01*
X151712898Y-122098903D01*
X151578180Y-121897283D01*
X151406717Y-121725820D01*
X151205097Y-121591102D01*
X150981069Y-121498307D01*
X150743243Y-121451000D01*
X150500757Y-121451000D01*
X150262931Y-121498307D01*
X150038903Y-121591102D01*
X149837283Y-121725820D01*
X149665820Y-121897283D01*
X149630204Y-121950586D01*
X148260868Y-120581250D01*
X148314170Y-120586500D01*
X148314180Y-120586500D01*
X148336000Y-120588649D01*
X148357820Y-120586500D01*
X149473694Y-120586500D01*
X149531102Y-120725097D01*
X149665820Y-120926717D01*
X149837283Y-121098180D01*
X150038903Y-121232898D01*
X150262931Y-121325693D01*
X150500757Y-121373000D01*
X150743243Y-121373000D01*
X150981069Y-121325693D01*
X151205097Y-121232898D01*
X151406717Y-121098180D01*
X151578180Y-120926717D01*
X151712898Y-120725097D01*
X151805693Y-120501069D01*
X151853000Y-120263243D01*
X151853000Y-120020757D01*
X151805693Y-119782931D01*
X151712898Y-119558903D01*
X151578180Y-119357283D01*
X151406717Y-119185820D01*
X151205097Y-119051102D01*
X150981069Y-118958307D01*
X150743243Y-118911000D01*
X150500757Y-118911000D01*
X150262931Y-118958307D01*
X150038903Y-119051102D01*
X149837283Y-119185820D01*
X149665820Y-119357283D01*
X149531102Y-119558903D01*
X149473694Y-119697500D01*
X148520118Y-119697500D01*
X146646910Y-117824293D01*
X146646910Y-117480757D01*
X149391000Y-117480757D01*
X149391000Y-117723243D01*
X149438307Y-117961069D01*
X149531102Y-118185097D01*
X149665820Y-118386717D01*
X149837283Y-118558180D01*
X150038903Y-118692898D01*
X150262931Y-118785693D01*
X150500757Y-118833000D01*
X150743243Y-118833000D01*
X150981069Y-118785693D01*
X151205097Y-118692898D01*
X151406717Y-118558180D01*
X151578180Y-118386717D01*
X151712898Y-118185097D01*
X151805693Y-117961069D01*
X151853000Y-117723243D01*
X151853000Y-117480757D01*
X151805693Y-117242931D01*
X151712898Y-117018903D01*
X151578180Y-116817283D01*
X151406717Y-116645820D01*
X151205097Y-116511102D01*
X150981069Y-116418307D01*
X150743243Y-116371000D01*
X150500757Y-116371000D01*
X150262931Y-116418307D01*
X150038903Y-116511102D01*
X149837283Y-116645820D01*
X149665820Y-116817283D01*
X149531102Y-117018903D01*
X149438307Y-117242931D01*
X149391000Y-117480757D01*
X146646910Y-117480757D01*
X146646910Y-117108767D01*
X146736903Y-117168898D01*
X146960931Y-117261693D01*
X147198757Y-117309000D01*
X147441243Y-117309000D01*
X147679069Y-117261693D01*
X147903097Y-117168898D01*
X148104717Y-117034180D01*
X148276180Y-116862717D01*
X148410898Y-116661097D01*
X148503693Y-116437069D01*
X148551000Y-116199243D01*
X148551000Y-115956757D01*
X148503693Y-115718931D01*
X148410898Y-115494903D01*
X148333441Y-115378980D01*
X149432511Y-115378980D01*
X149456866Y-115459288D01*
X149556761Y-115678961D01*
X149697592Y-115874924D01*
X149873948Y-116039647D01*
X150079051Y-116166799D01*
X150305019Y-116251495D01*
X150495000Y-116191187D01*
X150495000Y-115189000D01*
X150749000Y-115189000D01*
X150749000Y-116191187D01*
X150938981Y-116251495D01*
X151164949Y-116166799D01*
X151370052Y-116039647D01*
X151546408Y-115874924D01*
X151687239Y-115678961D01*
X151787134Y-115459288D01*
X151811489Y-115378980D01*
X151750627Y-115189000D01*
X150749000Y-115189000D01*
X150495000Y-115189000D01*
X149493373Y-115189000D01*
X149432511Y-115378980D01*
X148333441Y-115378980D01*
X148276180Y-115293283D01*
X148104717Y-115121820D01*
X147903097Y-114987102D01*
X147679069Y-114894307D01*
X147441243Y-114847000D01*
X147198757Y-114847000D01*
X146960931Y-114894307D01*
X146736903Y-114987102D01*
X146646910Y-115047233D01*
X146646910Y-114745020D01*
X149432511Y-114745020D01*
X149493373Y-114935000D01*
X150495000Y-114935000D01*
X150495000Y-113932813D01*
X150749000Y-113932813D01*
X150749000Y-114935000D01*
X151750627Y-114935000D01*
X151811489Y-114745020D01*
X151787134Y-114664712D01*
X151687239Y-114445039D01*
X151546408Y-114249076D01*
X151370052Y-114084353D01*
X151164949Y-113957201D01*
X150938981Y-113872505D01*
X150749000Y-113932813D01*
X150495000Y-113932813D01*
X150305019Y-113872505D01*
X150079051Y-113957201D01*
X149873948Y-114084353D01*
X149697592Y-114249076D01*
X149556761Y-114445039D01*
X149456866Y-114664712D01*
X149432511Y-114745020D01*
X146646910Y-114745020D01*
X146646910Y-114460084D01*
X146649059Y-114438264D01*
X146646910Y-114416444D01*
X146646910Y-114416435D01*
X146640478Y-114351128D01*
X146615061Y-114267339D01*
X146573786Y-114190120D01*
X146533761Y-114141349D01*
X146532155Y-114139392D01*
X146532152Y-114139389D01*
X146518239Y-114122436D01*
X146501287Y-114108524D01*
X145819614Y-113426851D01*
X145840367Y-113358436D01*
X145848949Y-113271299D01*
X145840367Y-113184162D01*
X145814950Y-113100373D01*
X145773675Y-113023154D01*
X145718128Y-112955470D01*
X145650444Y-112899923D01*
X145573225Y-112858648D01*
X145508388Y-112838980D01*
X149432511Y-112838980D01*
X149456866Y-112919288D01*
X149556761Y-113138961D01*
X149697592Y-113334924D01*
X149873948Y-113499647D01*
X150079051Y-113626799D01*
X150305019Y-113711495D01*
X150495000Y-113651187D01*
X150495000Y-112649000D01*
X150749000Y-112649000D01*
X150749000Y-113651187D01*
X150938981Y-113711495D01*
X151164949Y-113626799D01*
X151370052Y-113499647D01*
X151546408Y-113334924D01*
X151687239Y-113138961D01*
X151787134Y-112919288D01*
X151811489Y-112838980D01*
X151750627Y-112649000D01*
X150749000Y-112649000D01*
X150495000Y-112649000D01*
X149493373Y-112649000D01*
X149432511Y-112838980D01*
X145508388Y-112838980D01*
X145489436Y-112833231D01*
X145424129Y-112826799D01*
X145322531Y-112826799D01*
X145300701Y-112824649D01*
X145278871Y-112826799D01*
X142538417Y-112826799D01*
X141916638Y-112205020D01*
X149432511Y-112205020D01*
X149493373Y-112395000D01*
X150495000Y-112395000D01*
X150495000Y-111392813D01*
X150749000Y-111392813D01*
X150749000Y-112395000D01*
X151750627Y-112395000D01*
X151811489Y-112205020D01*
X151787134Y-112124712D01*
X151687239Y-111905039D01*
X151546408Y-111709076D01*
X151370052Y-111544353D01*
X151164949Y-111417201D01*
X150938981Y-111332505D01*
X150749000Y-111392813D01*
X150495000Y-111392813D01*
X150305019Y-111332505D01*
X150079051Y-111417201D01*
X149873948Y-111544353D01*
X149697592Y-111709076D01*
X149556761Y-111905039D01*
X149456866Y-112124712D01*
X149432511Y-112205020D01*
X141916638Y-112205020D01*
X141886821Y-112175204D01*
X141932037Y-112129988D01*
X142007090Y-112017664D01*
X142058787Y-111892856D01*
X142085142Y-111760361D01*
X142085142Y-111625271D01*
X142058787Y-111492776D01*
X142007090Y-111367968D01*
X141932037Y-111255644D01*
X141836514Y-111160121D01*
X141724190Y-111085068D01*
X141599382Y-111033371D01*
X141466887Y-111007016D01*
X141331797Y-111007016D01*
X141199302Y-111033371D01*
X141170881Y-111045143D01*
X141176856Y-111037864D01*
X141202172Y-111007016D01*
X141214376Y-110992145D01*
X141255651Y-110914926D01*
X141281068Y-110831137D01*
X141287500Y-110765830D01*
X141287500Y-110765821D01*
X141289649Y-110744001D01*
X141287500Y-110722181D01*
X141287500Y-110498655D01*
X141706600Y-110498655D01*
X141706600Y-110633745D01*
X141732955Y-110766240D01*
X141784652Y-110891048D01*
X141859705Y-111003372D01*
X141955228Y-111098895D01*
X142067552Y-111173948D01*
X142192360Y-111225645D01*
X142324855Y-111252000D01*
X142459945Y-111252000D01*
X142592440Y-111225645D01*
X142717248Y-111173948D01*
X142829572Y-111098895D01*
X142925095Y-111003372D01*
X143000148Y-110891048D01*
X143051845Y-110766240D01*
X143078200Y-110633745D01*
X143078200Y-110498655D01*
X143051845Y-110366160D01*
X143000148Y-110241352D01*
X142925095Y-110129028D01*
X142829572Y-110033505D01*
X142717248Y-109958452D01*
X142592440Y-109906755D01*
X142459945Y-109880400D01*
X142324855Y-109880400D01*
X142192360Y-109906755D01*
X142067552Y-109958452D01*
X141955228Y-110033505D01*
X141859705Y-110129028D01*
X141784652Y-110241352D01*
X141732955Y-110366160D01*
X141706600Y-110498655D01*
X141287500Y-110498655D01*
X141287500Y-110253367D01*
X141375695Y-110165172D01*
X141450748Y-110052848D01*
X141502445Y-109928040D01*
X141528800Y-109795545D01*
X141528800Y-109660455D01*
X141502445Y-109527960D01*
X141450748Y-109403152D01*
X141375695Y-109290828D01*
X141280172Y-109195305D01*
X141204356Y-109144646D01*
X141265510Y-109144646D01*
X141329085Y-109132000D01*
X149389157Y-109132000D01*
X149389157Y-110832000D01*
X149396513Y-110906689D01*
X149418299Y-110978508D01*
X149453678Y-111044696D01*
X149501289Y-111102711D01*
X149559304Y-111150322D01*
X149625492Y-111185701D01*
X149697311Y-111207487D01*
X149772000Y-111214843D01*
X151472000Y-111214843D01*
X151546689Y-111207487D01*
X151618508Y-111185701D01*
X151684696Y-111150322D01*
X151742711Y-111102711D01*
X151790322Y-111044696D01*
X151825701Y-110978508D01*
X151847487Y-110906689D01*
X151854843Y-110832000D01*
X151854843Y-109132000D01*
X151847487Y-109057311D01*
X151825701Y-108985492D01*
X151790322Y-108919304D01*
X151742711Y-108861289D01*
X151684696Y-108813678D01*
X151618508Y-108778299D01*
X151546689Y-108756513D01*
X151472000Y-108749157D01*
X149772000Y-108749157D01*
X149697311Y-108756513D01*
X149625492Y-108778299D01*
X149559304Y-108813678D01*
X149501289Y-108861289D01*
X149453678Y-108919304D01*
X149418299Y-108985492D01*
X149396513Y-109057311D01*
X149389157Y-109132000D01*
X141329085Y-109132000D01*
X141398005Y-109118291D01*
X141522813Y-109066594D01*
X141635137Y-108991541D01*
X141730660Y-108896018D01*
X141805713Y-108783694D01*
X141857410Y-108658886D01*
X141883765Y-108526391D01*
X141883765Y-108391301D01*
X141857410Y-108258806D01*
X141805713Y-108133998D01*
X141730660Y-108021674D01*
X141718441Y-108009455D01*
X143573490Y-108009455D01*
X143573490Y-108144545D01*
X143599845Y-108277040D01*
X143651542Y-108401848D01*
X143726595Y-108514172D01*
X143822118Y-108609695D01*
X143934442Y-108684748D01*
X144059250Y-108736445D01*
X144191745Y-108762800D01*
X144326835Y-108762800D01*
X144459330Y-108736445D01*
X144584138Y-108684748D01*
X144696462Y-108609695D01*
X144791985Y-108514172D01*
X144867038Y-108401848D01*
X144918735Y-108277040D01*
X144945090Y-108144545D01*
X144945090Y-108009455D01*
X144918735Y-107876960D01*
X144867038Y-107752152D01*
X144791985Y-107639828D01*
X144696462Y-107544305D01*
X144584138Y-107469252D01*
X144459330Y-107417555D01*
X144326835Y-107391200D01*
X144191745Y-107391200D01*
X144059250Y-107417555D01*
X143934442Y-107469252D01*
X143822118Y-107544305D01*
X143726595Y-107639828D01*
X143651542Y-107752152D01*
X143599845Y-107876960D01*
X143573490Y-108009455D01*
X141718441Y-108009455D01*
X141704553Y-107995567D01*
X141755548Y-107919248D01*
X141807245Y-107794440D01*
X141833600Y-107661945D01*
X141833600Y-107526855D01*
X141807245Y-107394360D01*
X141755548Y-107269552D01*
X141704004Y-107192412D01*
X141718595Y-107177821D01*
X141793648Y-107065497D01*
X141845345Y-106940689D01*
X141871700Y-106808194D01*
X141871700Y-106673104D01*
X141845345Y-106540609D01*
X141793648Y-106415801D01*
X141718595Y-106303477D01*
X141623072Y-106207954D01*
X141510748Y-106132901D01*
X141385940Y-106081204D01*
X141253445Y-106054849D01*
X141118355Y-106054849D01*
X140985860Y-106081204D01*
X140861052Y-106132901D01*
X140748728Y-106207954D01*
X140653205Y-106303477D01*
X140578152Y-106415801D01*
X140526455Y-106540609D01*
X140500100Y-106673104D01*
X140500100Y-106808194D01*
X140514975Y-106882976D01*
X140455524Y-106871081D01*
X140138605Y-107188000D01*
X140455524Y-107504919D01*
X140466813Y-107502660D01*
X140462000Y-107526855D01*
X140462000Y-107661945D01*
X140488355Y-107794440D01*
X140540052Y-107919248D01*
X140615105Y-108031572D01*
X140641212Y-108057679D01*
X140590217Y-108133998D01*
X140575286Y-108170044D01*
X140455524Y-108146081D01*
X140138605Y-108463000D01*
X140455524Y-108779919D01*
X140577637Y-108755486D01*
X140578052Y-108754325D01*
X140590217Y-108783694D01*
X140665270Y-108896018D01*
X140760793Y-108991541D01*
X140836609Y-109042200D01*
X140775455Y-109042200D01*
X140642960Y-109068555D01*
X140518152Y-109120252D01*
X140405828Y-109195305D01*
X140310305Y-109290828D01*
X140235252Y-109403152D01*
X140183555Y-109527960D01*
X140157200Y-109660455D01*
X140157200Y-109795545D01*
X140183555Y-109928040D01*
X140235252Y-110052848D01*
X140310305Y-110165172D01*
X140398501Y-110253368D01*
X140398501Y-110559882D01*
X140163129Y-110795254D01*
X140146171Y-110809171D01*
X140132255Y-110826128D01*
X140090624Y-110876855D01*
X140063471Y-110927655D01*
X140049349Y-110954075D01*
X140023932Y-111037864D01*
X140017500Y-111103171D01*
X140017500Y-111103180D01*
X140015351Y-111125000D01*
X140017500Y-111146820D01*
X140017500Y-111208493D01*
X139978695Y-111150418D01*
X139883172Y-111054895D01*
X139770848Y-110979842D01*
X139646040Y-110928145D01*
X139513545Y-110901790D01*
X139378455Y-110901790D01*
X139245960Y-110928145D01*
X139121152Y-110979842D01*
X139044508Y-111031054D01*
X139016695Y-110989430D01*
X138921172Y-110893907D01*
X138808848Y-110818854D01*
X138684040Y-110767157D01*
X138551545Y-110740802D01*
X138416455Y-110740802D01*
X138283960Y-110767157D01*
X138159152Y-110818854D01*
X138046828Y-110893907D01*
X137951305Y-110989430D01*
X137876252Y-111101754D01*
X137824555Y-111226562D01*
X137798200Y-111359057D01*
X137798200Y-111494147D01*
X137824555Y-111626642D01*
X137876252Y-111751450D01*
X137951305Y-111863774D01*
X138046828Y-111959297D01*
X138159152Y-112034350D01*
X138283960Y-112086047D01*
X138416455Y-112112402D01*
X138551545Y-112112402D01*
X138684040Y-112086047D01*
X138808848Y-112034350D01*
X138885492Y-111983138D01*
X138913305Y-112024762D01*
X139008828Y-112120285D01*
X139121152Y-112195338D01*
X139245960Y-112247035D01*
X139378455Y-112273390D01*
X139513545Y-112273390D01*
X139646040Y-112247035D01*
X139770848Y-112195338D01*
X139883172Y-112120285D01*
X139978695Y-112024762D01*
X140017500Y-111966686D01*
X140017501Y-113389161D01*
X140017500Y-113389171D01*
X140017501Y-114151171D01*
X140015351Y-114173000D01*
X140023933Y-114260137D01*
X140049349Y-114343925D01*
X140090624Y-114421145D01*
X140132255Y-114471872D01*
X140132259Y-114471876D01*
X140146172Y-114488829D01*
X140163125Y-114502742D01*
X140525500Y-114865118D01*
X140525501Y-116432658D01*
X140402545Y-116408200D01*
X140267455Y-116408200D01*
X140134960Y-116434555D01*
X140131810Y-116435860D01*
X140131810Y-116378745D01*
X140105455Y-116246250D01*
X140053758Y-116121442D01*
X139978705Y-116009118D01*
X139883182Y-115913595D01*
X139878787Y-115910658D01*
X139858661Y-115844312D01*
X139817386Y-115767093D01*
X139817385Y-115767091D01*
X139775754Y-115716364D01*
X139775752Y-115716362D01*
X139761839Y-115699409D01*
X139744887Y-115685497D01*
X137477500Y-113418111D01*
X137477500Y-113025945D01*
X137998200Y-113025945D01*
X137998200Y-113161035D01*
X138024555Y-113293530D01*
X138076252Y-113418338D01*
X138151305Y-113530662D01*
X138246828Y-113626185D01*
X138359152Y-113701238D01*
X138483960Y-113752935D01*
X138616455Y-113779290D01*
X138751545Y-113779290D01*
X138884040Y-113752935D01*
X139008848Y-113701238D01*
X139121172Y-113626185D01*
X139216695Y-113530662D01*
X139291748Y-113418338D01*
X139343445Y-113293530D01*
X139369800Y-113161035D01*
X139369800Y-113025945D01*
X139343445Y-112893450D01*
X139291748Y-112768642D01*
X139216695Y-112656318D01*
X139121172Y-112560795D01*
X139008848Y-112485742D01*
X138884040Y-112434045D01*
X138751545Y-112407690D01*
X138616455Y-112407690D01*
X138483960Y-112434045D01*
X138359152Y-112485742D01*
X138246828Y-112560795D01*
X138151305Y-112656318D01*
X138076252Y-112768642D01*
X138024555Y-112893450D01*
X137998200Y-113025945D01*
X137477500Y-113025945D01*
X137477500Y-111203247D01*
X137479649Y-111181427D01*
X137477500Y-111159607D01*
X137477500Y-111159598D01*
X137471068Y-111094291D01*
X137445651Y-111010502D01*
X137404376Y-110933283D01*
X137404375Y-110933281D01*
X137362744Y-110882554D01*
X137362742Y-110882552D01*
X137348829Y-110865599D01*
X137331877Y-110851687D01*
X136825870Y-110345680D01*
X136849848Y-110335748D01*
X136962172Y-110260695D01*
X137057695Y-110165172D01*
X137132748Y-110052848D01*
X137184445Y-109928040D01*
X137210800Y-109795545D01*
X137210800Y-109747783D01*
X137363200Y-109747783D01*
X137363200Y-109882873D01*
X137389555Y-110015368D01*
X137441252Y-110140176D01*
X137516305Y-110252500D01*
X137611828Y-110348023D01*
X137724152Y-110423076D01*
X137848960Y-110474773D01*
X137981455Y-110501128D01*
X138116545Y-110501128D01*
X138249040Y-110474773D01*
X138373848Y-110423076D01*
X138486172Y-110348023D01*
X138581695Y-110252500D01*
X138656748Y-110140176D01*
X138708445Y-110015368D01*
X138734800Y-109882873D01*
X138734800Y-109747783D01*
X138717430Y-109660455D01*
X138760184Y-109660455D01*
X138760184Y-109795545D01*
X138786539Y-109928040D01*
X138838236Y-110052848D01*
X138913289Y-110165172D01*
X139008812Y-110260695D01*
X139121136Y-110335748D01*
X139245944Y-110387445D01*
X139378439Y-110413800D01*
X139513529Y-110413800D01*
X139646024Y-110387445D01*
X139770832Y-110335748D01*
X139883156Y-110260695D01*
X139978679Y-110165172D01*
X140053732Y-110052848D01*
X140105429Y-109928040D01*
X140131784Y-109795545D01*
X140131784Y-109660455D01*
X140105429Y-109527960D01*
X140053732Y-109403152D01*
X139978679Y-109290828D01*
X139883156Y-109195305D01*
X139770832Y-109120252D01*
X139747735Y-109110685D01*
X139792825Y-109126811D01*
X139925521Y-109146475D01*
X140059504Y-109139874D01*
X140189624Y-109107261D01*
X140251486Y-109081637D01*
X140275919Y-108959524D01*
X139959000Y-108642605D01*
X139642081Y-108959524D01*
X139665512Y-109076627D01*
X139646024Y-109068555D01*
X139513529Y-109042200D01*
X139378439Y-109042200D01*
X139245944Y-109068555D01*
X139121136Y-109120252D01*
X139008812Y-109195305D01*
X138913289Y-109290828D01*
X138838236Y-109403152D01*
X138786539Y-109527960D01*
X138760184Y-109660455D01*
X138717430Y-109660455D01*
X138708445Y-109615288D01*
X138656748Y-109490480D01*
X138581695Y-109378156D01*
X138486172Y-109282633D01*
X138373848Y-109207580D01*
X138249040Y-109155883D01*
X138116545Y-109129528D01*
X137981455Y-109129528D01*
X137848960Y-109155883D01*
X137724152Y-109207580D01*
X137611828Y-109282633D01*
X137516305Y-109378156D01*
X137441252Y-109490480D01*
X137389555Y-109615288D01*
X137363200Y-109747783D01*
X137210800Y-109747783D01*
X137210800Y-109660455D01*
X137184445Y-109527960D01*
X137132748Y-109403152D01*
X137057695Y-109290828D01*
X136962172Y-109195305D01*
X136849848Y-109120252D01*
X136725040Y-109068555D01*
X136592545Y-109042200D01*
X136457455Y-109042200D01*
X136324960Y-109068555D01*
X136200152Y-109120252D01*
X136087828Y-109195305D01*
X135992305Y-109290828D01*
X135953500Y-109348903D01*
X135953500Y-108959524D01*
X137092081Y-108959524D01*
X137116514Y-109081637D01*
X137242825Y-109126811D01*
X137375521Y-109146475D01*
X137509504Y-109139874D01*
X137639624Y-109107261D01*
X137701486Y-109081637D01*
X137725919Y-108959524D01*
X138367081Y-108959524D01*
X138391514Y-109081637D01*
X138517825Y-109126811D01*
X138650521Y-109146475D01*
X138784504Y-109139874D01*
X138914624Y-109107261D01*
X138976486Y-109081637D01*
X139000919Y-108959524D01*
X138684000Y-108642605D01*
X138367081Y-108959524D01*
X137725919Y-108959524D01*
X137409000Y-108642605D01*
X137092081Y-108959524D01*
X135953500Y-108959524D01*
X135953500Y-108852526D01*
X136060453Y-108873800D01*
X136195543Y-108873800D01*
X136328038Y-108847445D01*
X136452846Y-108795748D01*
X136565170Y-108720695D01*
X136660693Y-108625172D01*
X136730050Y-108521372D01*
X136732126Y-108563504D01*
X136764739Y-108693624D01*
X136790363Y-108755486D01*
X136912476Y-108779919D01*
X137229395Y-108463000D01*
X137588605Y-108463000D01*
X137905524Y-108779919D01*
X138027637Y-108755486D01*
X138045117Y-108706609D01*
X138065363Y-108755486D01*
X138187476Y-108779919D01*
X138504395Y-108463000D01*
X138863605Y-108463000D01*
X139180524Y-108779919D01*
X139302637Y-108755486D01*
X139320117Y-108706609D01*
X139340363Y-108755486D01*
X139462476Y-108779919D01*
X139779395Y-108463000D01*
X139462476Y-108146081D01*
X139340363Y-108170514D01*
X139322883Y-108219391D01*
X139302637Y-108170514D01*
X139180524Y-108146081D01*
X138863605Y-108463000D01*
X138504395Y-108463000D01*
X138187476Y-108146081D01*
X138065363Y-108170514D01*
X138047883Y-108219391D01*
X138027637Y-108170514D01*
X137905524Y-108146081D01*
X137588605Y-108463000D01*
X137229395Y-108463000D01*
X136912476Y-108146081D01*
X136813798Y-108165825D01*
X136813798Y-108120455D01*
X136787443Y-107987960D01*
X136735746Y-107863152D01*
X136660693Y-107750828D01*
X136594389Y-107684524D01*
X137092081Y-107684524D01*
X137116514Y-107806637D01*
X137165391Y-107824117D01*
X137116514Y-107844363D01*
X137092081Y-107966476D01*
X137409000Y-108283395D01*
X137725919Y-107966476D01*
X137701486Y-107844363D01*
X137652609Y-107826883D01*
X137701486Y-107806637D01*
X137725919Y-107684524D01*
X138367081Y-107684524D01*
X138391514Y-107806637D01*
X138440391Y-107824117D01*
X138391514Y-107844363D01*
X138367081Y-107966476D01*
X138684000Y-108283395D01*
X139000919Y-107966476D01*
X138976486Y-107844363D01*
X138927609Y-107826883D01*
X138976486Y-107806637D01*
X139000919Y-107684524D01*
X139642081Y-107684524D01*
X139666514Y-107806637D01*
X139715391Y-107824117D01*
X139666514Y-107844363D01*
X139642081Y-107966476D01*
X139959000Y-108283395D01*
X140275919Y-107966476D01*
X140251486Y-107844363D01*
X140202609Y-107826883D01*
X140251486Y-107806637D01*
X140275919Y-107684524D01*
X139959000Y-107367605D01*
X139642081Y-107684524D01*
X139000919Y-107684524D01*
X138684000Y-107367605D01*
X138367081Y-107684524D01*
X137725919Y-107684524D01*
X137409000Y-107367605D01*
X137092081Y-107684524D01*
X136594389Y-107684524D01*
X136565170Y-107655305D01*
X136489770Y-107604924D01*
X136519648Y-107592548D01*
X136631972Y-107517495D01*
X136727495Y-107421972D01*
X136755190Y-107380524D01*
X136764739Y-107418624D01*
X136790363Y-107480486D01*
X136912476Y-107504919D01*
X137229395Y-107188000D01*
X137588605Y-107188000D01*
X137905524Y-107504919D01*
X138027637Y-107480486D01*
X138045117Y-107431609D01*
X138065363Y-107480486D01*
X138187476Y-107504919D01*
X138504395Y-107188000D01*
X138863605Y-107188000D01*
X139180524Y-107504919D01*
X139302637Y-107480486D01*
X139320117Y-107431609D01*
X139340363Y-107480486D01*
X139462476Y-107504919D01*
X139779395Y-107188000D01*
X139462476Y-106871081D01*
X139340363Y-106895514D01*
X139322883Y-106944391D01*
X139302637Y-106895514D01*
X139180524Y-106871081D01*
X138863605Y-107188000D01*
X138504395Y-107188000D01*
X138187476Y-106871081D01*
X138065363Y-106895514D01*
X138047883Y-106944391D01*
X138027637Y-106895514D01*
X137905524Y-106871081D01*
X137588605Y-107188000D01*
X137229395Y-107188000D01*
X136912476Y-106871081D01*
X136872987Y-106878982D01*
X136854245Y-106784760D01*
X136802548Y-106659952D01*
X136727495Y-106547628D01*
X136631972Y-106452105D01*
X136568246Y-106409524D01*
X137092081Y-106409524D01*
X137116514Y-106531637D01*
X137165391Y-106549117D01*
X137116514Y-106569363D01*
X137092081Y-106691476D01*
X137409000Y-107008395D01*
X137725919Y-106691476D01*
X137701486Y-106569363D01*
X137652609Y-106551883D01*
X137701486Y-106531637D01*
X137725919Y-106409524D01*
X138367081Y-106409524D01*
X138391514Y-106531637D01*
X138440391Y-106549117D01*
X138391514Y-106569363D01*
X138367081Y-106691476D01*
X138684000Y-107008395D01*
X139000919Y-106691476D01*
X138976486Y-106569363D01*
X138927609Y-106551883D01*
X138976486Y-106531637D01*
X139000919Y-106409524D01*
X139642081Y-106409524D01*
X139666514Y-106531637D01*
X139715391Y-106549117D01*
X139666514Y-106569363D01*
X139642081Y-106691476D01*
X139959000Y-107008395D01*
X140275919Y-106691476D01*
X140251486Y-106569363D01*
X140202609Y-106551883D01*
X140251486Y-106531637D01*
X140275919Y-106409524D01*
X139959000Y-106092605D01*
X139642081Y-106409524D01*
X139000919Y-106409524D01*
X138684000Y-106092605D01*
X138367081Y-106409524D01*
X137725919Y-106409524D01*
X137409000Y-106092605D01*
X137092081Y-106409524D01*
X136568246Y-106409524D01*
X136519648Y-106377052D01*
X136508333Y-106372365D01*
X136581172Y-106323695D01*
X136676695Y-106228172D01*
X136751748Y-106115848D01*
X136755504Y-106106779D01*
X136764739Y-106143624D01*
X136790363Y-106205486D01*
X136912476Y-106229919D01*
X137229395Y-105913000D01*
X137588605Y-105913000D01*
X137905524Y-106229919D01*
X138027637Y-106205486D01*
X138045117Y-106156609D01*
X138065363Y-106205486D01*
X138187476Y-106229919D01*
X138504395Y-105913000D01*
X138863605Y-105913000D01*
X139180524Y-106229919D01*
X139302637Y-106205486D01*
X139320117Y-106156609D01*
X139340363Y-106205486D01*
X139462476Y-106229919D01*
X139779395Y-105913000D01*
X140138605Y-105913000D01*
X140455524Y-106229919D01*
X140577637Y-106205486D01*
X140622811Y-106079175D01*
X140642475Y-105946479D01*
X140635874Y-105812496D01*
X140603261Y-105682376D01*
X140577637Y-105620514D01*
X140455524Y-105596081D01*
X140138605Y-105913000D01*
X139779395Y-105913000D01*
X139462476Y-105596081D01*
X139340363Y-105620514D01*
X139322883Y-105669391D01*
X139302637Y-105620514D01*
X139180524Y-105596081D01*
X138863605Y-105913000D01*
X138504395Y-105913000D01*
X138187476Y-105596081D01*
X138065363Y-105620514D01*
X138047883Y-105669391D01*
X138027637Y-105620514D01*
X137905524Y-105596081D01*
X137588605Y-105913000D01*
X137229395Y-105913000D01*
X136912476Y-105596081D01*
X136808598Y-105616865D01*
X136803445Y-105590960D01*
X136751748Y-105466152D01*
X136718556Y-105416476D01*
X137092081Y-105416476D01*
X137409000Y-105733395D01*
X137725919Y-105416476D01*
X138367081Y-105416476D01*
X138684000Y-105733395D01*
X139000919Y-105416476D01*
X139642081Y-105416476D01*
X139959000Y-105733395D01*
X140275919Y-105416476D01*
X140251486Y-105294363D01*
X140125175Y-105249189D01*
X139992479Y-105229525D01*
X139858496Y-105236126D01*
X139728376Y-105268739D01*
X139666514Y-105294363D01*
X139642081Y-105416476D01*
X139000919Y-105416476D01*
X138976486Y-105294363D01*
X138850175Y-105249189D01*
X138717479Y-105229525D01*
X138583496Y-105236126D01*
X138453376Y-105268739D01*
X138391514Y-105294363D01*
X138367081Y-105416476D01*
X137725919Y-105416476D01*
X137701486Y-105294363D01*
X137575175Y-105249189D01*
X137442479Y-105229525D01*
X137308496Y-105236126D01*
X137178376Y-105268739D01*
X137116514Y-105294363D01*
X137092081Y-105416476D01*
X136718556Y-105416476D01*
X136676695Y-105353828D01*
X136670394Y-105347527D01*
X136688149Y-105329772D01*
X136763202Y-105217448D01*
X136786500Y-105161201D01*
X136832960Y-105180445D01*
X136965455Y-105206800D01*
X137100545Y-105206800D01*
X137233040Y-105180445D01*
X137357848Y-105128748D01*
X137470172Y-105053695D01*
X137565695Y-104958172D01*
X137640748Y-104845848D01*
X137692445Y-104721040D01*
X137718800Y-104588545D01*
X137718800Y-104453455D01*
X137692445Y-104320960D01*
X137640748Y-104196152D01*
X137604500Y-104141903D01*
X137604500Y-104072455D01*
X149301200Y-104072455D01*
X149301200Y-104207545D01*
X149327555Y-104340040D01*
X149379252Y-104464848D01*
X149454305Y-104577172D01*
X149549828Y-104672695D01*
X149662152Y-104747748D01*
X149786960Y-104799445D01*
X149919455Y-104825800D01*
X150054545Y-104825800D01*
X150187040Y-104799445D01*
X150311848Y-104747748D01*
X150424172Y-104672695D01*
X150519695Y-104577172D01*
X150594748Y-104464848D01*
X150646445Y-104340040D01*
X150672800Y-104207545D01*
X150672800Y-104072455D01*
X150646445Y-103939960D01*
X150594748Y-103815152D01*
X150519695Y-103702828D01*
X150424172Y-103607305D01*
X150311848Y-103532252D01*
X150187040Y-103480555D01*
X150054545Y-103454200D01*
X149919455Y-103454200D01*
X149786960Y-103480555D01*
X149662152Y-103532252D01*
X149549828Y-103607305D01*
X149454305Y-103702828D01*
X149379252Y-103815152D01*
X149327555Y-103939960D01*
X149301200Y-104072455D01*
X137604500Y-104072455D01*
X137604500Y-103907819D01*
X137606649Y-103885999D01*
X137604500Y-103864179D01*
X137604500Y-103864170D01*
X137598068Y-103798863D01*
X137572651Y-103715074D01*
X137531376Y-103637855D01*
X137520793Y-103624960D01*
X137489745Y-103587127D01*
X137489742Y-103587124D01*
X137475829Y-103570171D01*
X137458876Y-103556258D01*
X137162273Y-103259655D01*
X141478002Y-103259655D01*
X141478002Y-103394745D01*
X141504357Y-103527240D01*
X141556054Y-103652048D01*
X141631107Y-103764372D01*
X141726630Y-103859895D01*
X141838954Y-103934948D01*
X141963762Y-103986645D01*
X142096257Y-104013000D01*
X142231347Y-104013000D01*
X142363842Y-103986645D01*
X142488650Y-103934948D01*
X142600974Y-103859895D01*
X142696497Y-103764372D01*
X142771550Y-103652048D01*
X142823247Y-103527240D01*
X142849602Y-103394745D01*
X142849602Y-103259655D01*
X142823247Y-103127160D01*
X142771550Y-103002352D01*
X142696497Y-102890028D01*
X142600974Y-102794505D01*
X142488650Y-102719452D01*
X142363842Y-102667755D01*
X142231347Y-102641400D01*
X142096257Y-102641400D01*
X141963762Y-102667755D01*
X141838954Y-102719452D01*
X141726630Y-102794505D01*
X141631107Y-102890028D01*
X141556054Y-103002352D01*
X141504357Y-103127160D01*
X141478002Y-103259655D01*
X137162273Y-103259655D01*
X136346747Y-102444129D01*
X136332829Y-102427171D01*
X136265145Y-102371624D01*
X136263333Y-102370655D01*
X136728200Y-102370655D01*
X136728200Y-102505745D01*
X136754555Y-102638240D01*
X136806252Y-102763048D01*
X136881305Y-102875372D01*
X136976828Y-102970895D01*
X137089152Y-103045948D01*
X137213960Y-103097645D01*
X137346455Y-103124000D01*
X137481545Y-103124000D01*
X137614040Y-103097645D01*
X137738848Y-103045948D01*
X137851172Y-102970895D01*
X137901426Y-102920641D01*
X137961631Y-102960869D01*
X138086439Y-103012566D01*
X138218934Y-103038921D01*
X138354024Y-103038921D01*
X138486519Y-103012566D01*
X138611327Y-102960869D01*
X138723651Y-102885816D01*
X138819174Y-102790293D01*
X138894227Y-102677969D01*
X138945924Y-102553161D01*
X138972279Y-102420666D01*
X138972279Y-102285576D01*
X138945924Y-102153081D01*
X138894566Y-102029091D01*
X138984794Y-101938863D01*
X140081000Y-101938863D01*
X140081000Y-102073953D01*
X140107355Y-102206448D01*
X140159052Y-102331256D01*
X140234105Y-102443580D01*
X140329628Y-102539103D01*
X140441952Y-102614156D01*
X140566760Y-102665853D01*
X140699255Y-102692208D01*
X140834345Y-102692208D01*
X140966840Y-102665853D01*
X141091648Y-102614156D01*
X141203972Y-102539103D01*
X141299495Y-102443580D01*
X141374548Y-102331256D01*
X141426245Y-102206448D01*
X141452600Y-102073953D01*
X141452600Y-101938863D01*
X141426245Y-101806368D01*
X141374548Y-101681560D01*
X141299495Y-101569236D01*
X141203972Y-101473713D01*
X141091648Y-101398660D01*
X140966840Y-101346963D01*
X140834345Y-101320608D01*
X140699255Y-101320608D01*
X140566760Y-101346963D01*
X140441952Y-101398660D01*
X140329628Y-101473713D01*
X140234105Y-101569236D01*
X140159052Y-101681560D01*
X140107355Y-101806368D01*
X140081000Y-101938863D01*
X138984794Y-101938863D01*
X138988085Y-101935572D01*
X139063138Y-101823248D01*
X139114835Y-101698440D01*
X139141190Y-101565945D01*
X139141190Y-101430855D01*
X139114835Y-101298360D01*
X139103426Y-101270815D01*
X139226055Y-101295208D01*
X139361145Y-101295208D01*
X139493640Y-101268853D01*
X139618448Y-101217156D01*
X139730772Y-101142103D01*
X139826295Y-101046580D01*
X139901348Y-100934256D01*
X139953045Y-100809448D01*
X139979400Y-100676953D01*
X139979400Y-100541863D01*
X139953045Y-100409368D01*
X139932028Y-100358628D01*
X141015380Y-100358628D01*
X141015380Y-100493718D01*
X141041735Y-100626213D01*
X141093432Y-100751021D01*
X141168485Y-100863345D01*
X141264008Y-100958868D01*
X141376332Y-101033921D01*
X141501140Y-101085618D01*
X141633635Y-101111973D01*
X141768725Y-101111973D01*
X141901220Y-101085618D01*
X142026028Y-101033921D01*
X142138352Y-100958868D01*
X142233875Y-100863345D01*
X142308928Y-100751021D01*
X142360625Y-100626213D01*
X142386980Y-100493718D01*
X142386980Y-100358628D01*
X142360625Y-100226133D01*
X142308928Y-100101325D01*
X142233875Y-99989001D01*
X142138352Y-99893478D01*
X142026028Y-99818425D01*
X141932912Y-99779855D01*
X147269200Y-99779855D01*
X147269200Y-99914945D01*
X147295555Y-100047440D01*
X147347252Y-100172248D01*
X147422305Y-100284572D01*
X147517828Y-100380095D01*
X147630152Y-100455148D01*
X147754960Y-100506845D01*
X147887455Y-100533200D01*
X148022545Y-100533200D01*
X148155040Y-100506845D01*
X148279848Y-100455148D01*
X148392172Y-100380095D01*
X148487695Y-100284572D01*
X148562748Y-100172248D01*
X148614445Y-100047440D01*
X148640800Y-99914945D01*
X148640800Y-99779855D01*
X148614445Y-99647360D01*
X148562748Y-99522552D01*
X148487695Y-99410228D01*
X148392172Y-99314705D01*
X148279848Y-99239652D01*
X148155040Y-99187955D01*
X148022545Y-99161600D01*
X147887455Y-99161600D01*
X147754960Y-99187955D01*
X147630152Y-99239652D01*
X147517828Y-99314705D01*
X147422305Y-99410228D01*
X147347252Y-99522552D01*
X147295555Y-99647360D01*
X147269200Y-99779855D01*
X141932912Y-99779855D01*
X141901220Y-99766728D01*
X141768725Y-99740373D01*
X141633635Y-99740373D01*
X141501140Y-99766728D01*
X141376332Y-99818425D01*
X141264008Y-99893478D01*
X141168485Y-99989001D01*
X141093432Y-100101325D01*
X141041735Y-100226133D01*
X141015380Y-100358628D01*
X139932028Y-100358628D01*
X139901348Y-100284560D01*
X139826295Y-100172236D01*
X139730772Y-100076713D01*
X139728803Y-100075397D01*
X139748948Y-100045248D01*
X139800645Y-99920440D01*
X139827000Y-99787945D01*
X139827000Y-99652855D01*
X139800645Y-99520360D01*
X139748948Y-99395552D01*
X139673895Y-99283228D01*
X139578372Y-99187705D01*
X139466048Y-99112652D01*
X139341240Y-99060955D01*
X139208745Y-99034600D01*
X139073655Y-99034600D01*
X138941160Y-99060955D01*
X138816352Y-99112652D01*
X138704028Y-99187705D01*
X138608505Y-99283228D01*
X138533452Y-99395552D01*
X138481755Y-99520360D01*
X138455400Y-99652855D01*
X138455400Y-99787945D01*
X138481755Y-99920440D01*
X138533452Y-100045248D01*
X138608505Y-100157572D01*
X138704028Y-100253095D01*
X138705997Y-100254411D01*
X138685852Y-100284560D01*
X138634155Y-100409368D01*
X138607800Y-100541863D01*
X138607800Y-100676953D01*
X138634155Y-100809448D01*
X138645564Y-100836993D01*
X138522935Y-100812600D01*
X138387845Y-100812600D01*
X138255350Y-100838955D01*
X138130542Y-100890652D01*
X138018218Y-100965705D01*
X137922695Y-101061228D01*
X137847642Y-101173552D01*
X137795945Y-101298360D01*
X137769590Y-101430855D01*
X137769590Y-101565945D01*
X137795945Y-101698440D01*
X137847303Y-101822430D01*
X137799053Y-101870680D01*
X137738848Y-101830452D01*
X137614040Y-101778755D01*
X137481545Y-101752400D01*
X137346455Y-101752400D01*
X137213960Y-101778755D01*
X137089152Y-101830452D01*
X136976828Y-101905505D01*
X136881305Y-102001028D01*
X136806252Y-102113352D01*
X136754555Y-102238160D01*
X136728200Y-102370655D01*
X136263333Y-102370655D01*
X136187926Y-102330349D01*
X136104137Y-102304932D01*
X136038830Y-102298500D01*
X136038820Y-102298500D01*
X136017000Y-102296351D01*
X135995180Y-102298500D01*
X135276820Y-102298500D01*
X135255000Y-102296351D01*
X135233180Y-102298500D01*
X135233170Y-102298500D01*
X135167863Y-102304932D01*
X135084074Y-102330349D01*
X135006854Y-102371624D01*
X134956127Y-102413255D01*
X134956124Y-102413258D01*
X134939171Y-102427171D01*
X134925258Y-102444124D01*
X134194129Y-103175254D01*
X134177171Y-103189171D01*
X134163255Y-103206128D01*
X134121624Y-103256855D01*
X134092974Y-103310455D01*
X134080349Y-103334075D01*
X134054932Y-103417864D01*
X134048500Y-103483171D01*
X134048500Y-103483180D01*
X134046351Y-103505000D01*
X134048500Y-103526820D01*
X134048501Y-104499170D01*
X134046351Y-104521000D01*
X134054933Y-104608137D01*
X134080349Y-104691925D01*
X134121624Y-104769145D01*
X134163255Y-104819872D01*
X134163259Y-104819876D01*
X134177172Y-104836829D01*
X134194126Y-104850743D01*
X134302500Y-104959117D01*
X134302500Y-107014448D01*
X134281145Y-107010200D01*
X134146055Y-107010200D01*
X134013560Y-107036555D01*
X133888752Y-107088252D01*
X133776428Y-107163305D01*
X133680905Y-107258828D01*
X133605852Y-107371152D01*
X133554155Y-107495960D01*
X133527800Y-107628455D01*
X127406000Y-107628455D01*
X127406000Y-104199455D01*
X128727200Y-104199455D01*
X128727200Y-104334545D01*
X128753555Y-104467040D01*
X128805252Y-104591848D01*
X128880305Y-104704172D01*
X128975828Y-104799695D01*
X129088152Y-104874748D01*
X129212960Y-104926445D01*
X129345455Y-104952800D01*
X129480545Y-104952800D01*
X129613040Y-104926445D01*
X129737848Y-104874748D01*
X129850172Y-104799695D01*
X129945695Y-104704172D01*
X130020748Y-104591848D01*
X130072445Y-104467040D01*
X130098800Y-104334545D01*
X130098800Y-104199455D01*
X130072445Y-104066960D01*
X130020748Y-103942152D01*
X129945695Y-103829828D01*
X129850172Y-103734305D01*
X129737848Y-103659252D01*
X129613040Y-103607555D01*
X129480545Y-103581200D01*
X129345455Y-103581200D01*
X129212960Y-103607555D01*
X129088152Y-103659252D01*
X128975828Y-103734305D01*
X128880305Y-103829828D01*
X128805252Y-103942152D01*
X128753555Y-104066960D01*
X128727200Y-104199455D01*
X127406000Y-104199455D01*
X127406000Y-100821255D01*
X132765794Y-100821255D01*
X132765794Y-100956345D01*
X132792149Y-101088840D01*
X132843846Y-101213648D01*
X132918899Y-101325972D01*
X133014422Y-101421495D01*
X133126746Y-101496548D01*
X133251554Y-101548245D01*
X133384049Y-101574600D01*
X133519139Y-101574600D01*
X133651634Y-101548245D01*
X133776442Y-101496548D01*
X133888766Y-101421495D01*
X133984289Y-101325972D01*
X134059342Y-101213648D01*
X134103549Y-101106921D01*
X135751523Y-101106921D01*
X135751523Y-101242011D01*
X135777878Y-101374506D01*
X135829575Y-101499314D01*
X135904628Y-101611638D01*
X136000151Y-101707161D01*
X136112475Y-101782214D01*
X136237283Y-101833911D01*
X136369778Y-101860266D01*
X136504868Y-101860266D01*
X136637363Y-101833911D01*
X136762171Y-101782214D01*
X136874495Y-101707161D01*
X136970018Y-101611638D01*
X137045071Y-101499314D01*
X137096768Y-101374506D01*
X137123123Y-101242011D01*
X137123123Y-101106921D01*
X137096768Y-100974426D01*
X137045071Y-100849618D01*
X136970018Y-100737294D01*
X136874495Y-100641771D01*
X136762171Y-100566718D01*
X136637363Y-100515021D01*
X136504868Y-100488666D01*
X136369778Y-100488666D01*
X136237283Y-100515021D01*
X136112475Y-100566718D01*
X136000151Y-100641771D01*
X135904628Y-100737294D01*
X135829575Y-100849618D01*
X135777878Y-100974426D01*
X135751523Y-101106921D01*
X134103549Y-101106921D01*
X134111039Y-101088840D01*
X134137394Y-100956345D01*
X134137394Y-100821255D01*
X134111039Y-100688760D01*
X134059342Y-100563952D01*
X133984289Y-100451628D01*
X133888766Y-100356105D01*
X133776442Y-100281052D01*
X133651634Y-100229355D01*
X133519139Y-100203000D01*
X133384049Y-100203000D01*
X133251554Y-100229355D01*
X133126746Y-100281052D01*
X133014422Y-100356105D01*
X132918899Y-100451628D01*
X132843846Y-100563952D01*
X132792149Y-100688760D01*
X132765794Y-100821255D01*
X127406000Y-100821255D01*
X127406000Y-99576655D01*
X135458200Y-99576655D01*
X135458200Y-99711745D01*
X135484555Y-99844240D01*
X135536252Y-99969048D01*
X135611305Y-100081372D01*
X135706828Y-100176895D01*
X135819152Y-100251948D01*
X135943960Y-100303645D01*
X136076455Y-100330000D01*
X136211545Y-100330000D01*
X136344040Y-100303645D01*
X136468848Y-100251948D01*
X136581172Y-100176895D01*
X136676695Y-100081372D01*
X136751748Y-99969048D01*
X136803445Y-99844240D01*
X136829800Y-99711745D01*
X136829800Y-99576655D01*
X136803445Y-99444160D01*
X136751748Y-99319352D01*
X136726140Y-99281027D01*
X136773648Y-99261348D01*
X136885972Y-99186295D01*
X136981495Y-99090772D01*
X137056548Y-98978448D01*
X137061267Y-98967055D01*
X143383000Y-98967055D01*
X143383000Y-99102145D01*
X143409355Y-99234640D01*
X143461052Y-99359448D01*
X143536105Y-99471772D01*
X143631628Y-99567295D01*
X143743952Y-99642348D01*
X143868760Y-99694045D01*
X144001255Y-99720400D01*
X144136345Y-99720400D01*
X144268840Y-99694045D01*
X144393648Y-99642348D01*
X144505972Y-99567295D01*
X144601495Y-99471772D01*
X144676548Y-99359448D01*
X144728245Y-99234640D01*
X144754600Y-99102145D01*
X144754600Y-98967055D01*
X144728245Y-98834560D01*
X144676548Y-98709752D01*
X144601495Y-98597428D01*
X144505972Y-98501905D01*
X144393648Y-98426852D01*
X144268840Y-98375155D01*
X144136345Y-98348800D01*
X144001255Y-98348800D01*
X143868760Y-98375155D01*
X143743952Y-98426852D01*
X143631628Y-98501905D01*
X143536105Y-98597428D01*
X143461052Y-98709752D01*
X143409355Y-98834560D01*
X143383000Y-98967055D01*
X137061267Y-98967055D01*
X137108245Y-98853640D01*
X137134600Y-98721145D01*
X137134600Y-98586055D01*
X137108245Y-98453560D01*
X137056548Y-98328752D01*
X136981495Y-98216428D01*
X136885972Y-98120905D01*
X136773648Y-98045852D01*
X136648840Y-97994155D01*
X136516345Y-97967800D01*
X136381255Y-97967800D01*
X136248760Y-97994155D01*
X136123952Y-98045852D01*
X136011628Y-98120905D01*
X135916105Y-98216428D01*
X135841052Y-98328752D01*
X135789355Y-98453560D01*
X135763000Y-98586055D01*
X135763000Y-98721145D01*
X135789355Y-98853640D01*
X135841052Y-98978448D01*
X135866660Y-99016773D01*
X135819152Y-99036452D01*
X135706828Y-99111505D01*
X135611305Y-99207028D01*
X135536252Y-99319352D01*
X135484555Y-99444160D01*
X135458200Y-99576655D01*
X127406000Y-99576655D01*
X127406000Y-97341455D01*
X138379200Y-97341455D01*
X138379200Y-97476545D01*
X138405555Y-97609040D01*
X138457252Y-97733848D01*
X138532305Y-97846172D01*
X138627828Y-97941695D01*
X138740152Y-98016748D01*
X138864960Y-98068445D01*
X138997455Y-98094800D01*
X139132545Y-98094800D01*
X139265040Y-98068445D01*
X139389848Y-98016748D01*
X139502172Y-97941695D01*
X139597695Y-97846172D01*
X139672748Y-97733848D01*
X139724445Y-97609040D01*
X139750800Y-97476545D01*
X139750800Y-97341455D01*
X139724445Y-97208960D01*
X139672748Y-97084152D01*
X139597695Y-96971828D01*
X139502172Y-96876305D01*
X139389848Y-96801252D01*
X139265040Y-96749555D01*
X139132545Y-96723200D01*
X138997455Y-96723200D01*
X138864960Y-96749555D01*
X138740152Y-96801252D01*
X138627828Y-96876305D01*
X138532305Y-96971828D01*
X138457252Y-97084152D01*
X138405555Y-97208960D01*
X138379200Y-97341455D01*
X127406000Y-97341455D01*
X127406000Y-95944455D01*
X140157200Y-95944455D01*
X140157200Y-96079545D01*
X140183555Y-96212040D01*
X140235252Y-96336848D01*
X140310305Y-96449172D01*
X140405828Y-96544695D01*
X140518152Y-96619748D01*
X140642960Y-96671445D01*
X140775455Y-96697800D01*
X140910545Y-96697800D01*
X141043040Y-96671445D01*
X141167848Y-96619748D01*
X141280172Y-96544695D01*
X141375695Y-96449172D01*
X141450748Y-96336848D01*
X141502445Y-96212040D01*
X141528800Y-96079545D01*
X141528800Y-95944455D01*
X141502445Y-95811960D01*
X141450748Y-95687152D01*
X141446288Y-95680477D01*
X141483376Y-95655695D01*
X141578899Y-95560172D01*
X141653952Y-95447848D01*
X141705649Y-95323040D01*
X141732004Y-95190545D01*
X141732004Y-95055455D01*
X141705649Y-94922960D01*
X141653952Y-94798152D01*
X141578899Y-94685828D01*
X141483376Y-94590305D01*
X141371052Y-94515252D01*
X141246244Y-94463555D01*
X141113749Y-94437200D01*
X140978659Y-94437200D01*
X140846164Y-94463555D01*
X140721356Y-94515252D01*
X140609032Y-94590305D01*
X140513509Y-94685828D01*
X140438456Y-94798152D01*
X140386759Y-94922960D01*
X140360404Y-95055455D01*
X140360404Y-95190545D01*
X140386759Y-95323040D01*
X140438456Y-95447848D01*
X140442916Y-95454523D01*
X140405828Y-95479305D01*
X140310305Y-95574828D01*
X140235252Y-95687152D01*
X140183555Y-95811960D01*
X140157200Y-95944455D01*
X127406000Y-95944455D01*
X127406000Y-94674455D01*
X135890000Y-94674455D01*
X135890000Y-94809545D01*
X135916355Y-94942040D01*
X135968052Y-95066848D01*
X136043105Y-95179172D01*
X136138628Y-95274695D01*
X136250952Y-95349748D01*
X136375760Y-95401445D01*
X136508255Y-95427800D01*
X136643345Y-95427800D01*
X136775840Y-95401445D01*
X136900648Y-95349748D01*
X137012972Y-95274695D01*
X137108495Y-95179172D01*
X137183548Y-95066848D01*
X137235245Y-94942040D01*
X137261600Y-94809545D01*
X137261600Y-94674455D01*
X137235245Y-94541960D01*
X137183548Y-94417152D01*
X137108495Y-94304828D01*
X137012972Y-94209305D01*
X136900648Y-94134252D01*
X136775840Y-94082555D01*
X136643345Y-94056200D01*
X136508255Y-94056200D01*
X136375760Y-94082555D01*
X136250952Y-94134252D01*
X136138628Y-94209305D01*
X136043105Y-94304828D01*
X135968052Y-94417152D01*
X135916355Y-94541960D01*
X135890000Y-94674455D01*
X127406000Y-94674455D01*
X127406000Y-93220000D01*
X128574738Y-93220000D01*
X128591748Y-93392706D01*
X128642125Y-93558775D01*
X128723932Y-93711825D01*
X128834025Y-93845975D01*
X128968175Y-93956068D01*
X129121225Y-94037875D01*
X129287294Y-94088252D01*
X129416727Y-94101000D01*
X130103273Y-94101000D01*
X130232706Y-94088252D01*
X130398775Y-94037875D01*
X130551825Y-93956068D01*
X130685975Y-93845975D01*
X130796068Y-93711825D01*
X130877875Y-93558775D01*
X130928252Y-93392706D01*
X130945262Y-93220000D01*
X132504738Y-93220000D01*
X132521748Y-93392706D01*
X132572125Y-93558775D01*
X132653932Y-93711825D01*
X132764025Y-93845975D01*
X132898175Y-93956068D01*
X133051225Y-94037875D01*
X133217294Y-94088252D01*
X133346727Y-94101000D01*
X134533273Y-94101000D01*
X134662706Y-94088252D01*
X134828775Y-94037875D01*
X134981825Y-93956068D01*
X135115975Y-93845975D01*
X135226068Y-93711825D01*
X135307875Y-93558775D01*
X135358252Y-93392706D01*
X135375262Y-93220000D01*
X135358252Y-93047294D01*
X135307875Y-92881225D01*
X135226068Y-92728175D01*
X135134876Y-92617055D01*
X136499600Y-92617055D01*
X136499600Y-92752145D01*
X136525955Y-92884640D01*
X136577652Y-93009448D01*
X136652705Y-93121772D01*
X136748228Y-93217295D01*
X136860552Y-93292348D01*
X136985360Y-93344045D01*
X137117855Y-93370400D01*
X137252945Y-93370400D01*
X137385440Y-93344045D01*
X137510248Y-93292348D01*
X137622572Y-93217295D01*
X137718095Y-93121772D01*
X137793148Y-93009448D01*
X137844845Y-92884640D01*
X137871200Y-92752145D01*
X137871200Y-92617055D01*
X137865673Y-92589267D01*
X138372338Y-92589267D01*
X138482510Y-92782596D01*
X138728806Y-92898095D01*
X138992903Y-92963324D01*
X139264651Y-92975778D01*
X139533607Y-92934977D01*
X139789435Y-92842490D01*
X139901490Y-92782596D01*
X140011662Y-92589267D01*
X139192000Y-91769605D01*
X138372338Y-92589267D01*
X137865673Y-92589267D01*
X137844845Y-92484560D01*
X137793148Y-92359752D01*
X137718095Y-92247428D01*
X137622572Y-92151905D01*
X137510248Y-92076852D01*
X137385440Y-92025155D01*
X137252945Y-91998800D01*
X137117855Y-91998800D01*
X136985360Y-92025155D01*
X136860552Y-92076852D01*
X136748228Y-92151905D01*
X136652705Y-92247428D01*
X136577652Y-92359752D01*
X136525955Y-92484560D01*
X136499600Y-92617055D01*
X135134876Y-92617055D01*
X135115975Y-92594025D01*
X134981825Y-92483932D01*
X134828775Y-92402125D01*
X134662706Y-92351748D01*
X134533273Y-92339000D01*
X133859130Y-92339000D01*
X133860049Y-92338386D01*
X133958386Y-92240049D01*
X134035649Y-92124416D01*
X134088869Y-91995933D01*
X134116000Y-91859535D01*
X134116000Y-91720465D01*
X134104501Y-91662651D01*
X137806222Y-91662651D01*
X137847023Y-91931607D01*
X137939510Y-92187435D01*
X137999404Y-92299490D01*
X138192733Y-92409662D01*
X139012395Y-91590000D01*
X139371605Y-91590000D01*
X140191267Y-92409662D01*
X140384596Y-92299490D01*
X140500095Y-92053194D01*
X140565324Y-91789097D01*
X140577778Y-91517349D01*
X140568166Y-91453983D01*
X142311000Y-91453983D01*
X142311000Y-91726017D01*
X142364071Y-91992823D01*
X142468174Y-92244149D01*
X142619307Y-92470336D01*
X142811664Y-92662693D01*
X143037851Y-92813826D01*
X143289177Y-92917929D01*
X143555983Y-92971000D01*
X143828017Y-92971000D01*
X144094823Y-92917929D01*
X144346149Y-92813826D01*
X144572336Y-92662693D01*
X144645762Y-92589267D01*
X145556338Y-92589267D01*
X145666510Y-92782596D01*
X145912806Y-92898095D01*
X146176903Y-92963324D01*
X146448651Y-92975778D01*
X146717607Y-92934977D01*
X146973435Y-92842490D01*
X147085490Y-92782596D01*
X147195662Y-92589267D01*
X146376000Y-91769605D01*
X145556338Y-92589267D01*
X144645762Y-92589267D01*
X144764693Y-92470336D01*
X144915826Y-92244149D01*
X145019929Y-91992823D01*
X145031721Y-91933539D01*
X145123510Y-92187435D01*
X145183404Y-92299490D01*
X145376733Y-92409662D01*
X146196395Y-91590000D01*
X146555605Y-91590000D01*
X147375267Y-92409662D01*
X147568596Y-92299490D01*
X147684095Y-92053194D01*
X147749324Y-91789097D01*
X147761778Y-91517349D01*
X147720977Y-91248393D01*
X147628490Y-90992565D01*
X147568596Y-90880510D01*
X147375267Y-90770338D01*
X146555605Y-91590000D01*
X146196395Y-91590000D01*
X145376733Y-90770338D01*
X145183404Y-90880510D01*
X145067905Y-91126806D01*
X145034679Y-91261330D01*
X145019929Y-91187177D01*
X144915826Y-90935851D01*
X144764693Y-90709664D01*
X144645762Y-90590733D01*
X145556338Y-90590733D01*
X146376000Y-91410395D01*
X147195662Y-90590733D01*
X147085490Y-90397404D01*
X146839194Y-90281905D01*
X146575097Y-90216676D01*
X146303349Y-90204222D01*
X146034393Y-90245023D01*
X145778565Y-90337510D01*
X145666510Y-90397404D01*
X145556338Y-90590733D01*
X144645762Y-90590733D01*
X144572336Y-90517307D01*
X144346149Y-90366174D01*
X144094823Y-90262071D01*
X143828017Y-90209000D01*
X143555983Y-90209000D01*
X143289177Y-90262071D01*
X143037851Y-90366174D01*
X142811664Y-90517307D01*
X142619307Y-90709664D01*
X142468174Y-90935851D01*
X142364071Y-91187177D01*
X142311000Y-91453983D01*
X140568166Y-91453983D01*
X140536977Y-91248393D01*
X140444490Y-90992565D01*
X140384596Y-90880510D01*
X140191267Y-90770338D01*
X139371605Y-91590000D01*
X139012395Y-91590000D01*
X138192733Y-90770338D01*
X137999404Y-90880510D01*
X137883905Y-91126806D01*
X137818676Y-91390903D01*
X137806222Y-91662651D01*
X134104501Y-91662651D01*
X134088869Y-91584067D01*
X134035649Y-91455584D01*
X133958386Y-91339951D01*
X133860049Y-91241614D01*
X133744416Y-91164351D01*
X133615933Y-91111131D01*
X133479535Y-91084000D01*
X133340465Y-91084000D01*
X133204067Y-91111131D01*
X133075584Y-91164351D01*
X132959951Y-91241614D01*
X132861614Y-91339951D01*
X132784351Y-91455584D01*
X132731131Y-91584067D01*
X132704000Y-91720465D01*
X132704000Y-91859535D01*
X132731131Y-91995933D01*
X132784351Y-92124416D01*
X132861614Y-92240049D01*
X132959951Y-92338386D01*
X133054058Y-92401266D01*
X133051225Y-92402125D01*
X132898175Y-92483932D01*
X132764025Y-92594025D01*
X132653932Y-92728175D01*
X132572125Y-92881225D01*
X132521748Y-93047294D01*
X132504738Y-93220000D01*
X130945262Y-93220000D01*
X130928252Y-93047294D01*
X130877875Y-92881225D01*
X130796068Y-92728175D01*
X130685975Y-92594025D01*
X130551825Y-92483932D01*
X130398775Y-92402125D01*
X130232706Y-92351748D01*
X130103273Y-92339000D01*
X129416727Y-92339000D01*
X129287294Y-92351748D01*
X129121225Y-92402125D01*
X128968175Y-92483932D01*
X128834025Y-92594025D01*
X128723932Y-92728175D01*
X128642125Y-92881225D01*
X128591748Y-93047294D01*
X128574738Y-93220000D01*
X127406000Y-93220000D01*
X127406000Y-90590733D01*
X138372338Y-90590733D01*
X139192000Y-91410395D01*
X140011662Y-90590733D01*
X139901490Y-90397404D01*
X139655194Y-90281905D01*
X139391097Y-90216676D01*
X139119349Y-90204222D01*
X138850393Y-90245023D01*
X138594565Y-90337510D01*
X138482510Y-90397404D01*
X138372338Y-90590733D01*
X127406000Y-90590733D01*
X127406000Y-87816455D01*
X137617192Y-87816455D01*
X137617192Y-87951545D01*
X137643547Y-88084040D01*
X137695244Y-88208848D01*
X137770297Y-88321172D01*
X137865820Y-88416695D01*
X137978144Y-88491748D01*
X138080138Y-88533995D01*
X138024305Y-88589828D01*
X137949252Y-88702152D01*
X137897555Y-88826960D01*
X137871200Y-88959455D01*
X137871200Y-89094545D01*
X137897555Y-89227040D01*
X137949252Y-89351848D01*
X138024305Y-89464172D01*
X138119828Y-89559695D01*
X138232152Y-89634748D01*
X138356960Y-89686445D01*
X138489455Y-89712800D01*
X138624545Y-89712800D01*
X138757040Y-89686445D01*
X138881848Y-89634748D01*
X138994172Y-89559695D01*
X139089695Y-89464172D01*
X139164748Y-89351848D01*
X139216445Y-89227040D01*
X139242800Y-89094545D01*
X139242800Y-88959455D01*
X139216445Y-88826960D01*
X139164748Y-88702152D01*
X139089695Y-88589828D01*
X138994172Y-88494305D01*
X138881848Y-88419252D01*
X138779854Y-88377005D01*
X138835687Y-88321172D01*
X138910740Y-88208848D01*
X138962437Y-88084040D01*
X138988792Y-87951545D01*
X138988792Y-87816455D01*
X138962437Y-87683960D01*
X138910740Y-87559152D01*
X138835687Y-87446828D01*
X138740164Y-87351305D01*
X138627840Y-87276252D01*
X138503032Y-87224555D01*
X138370537Y-87198200D01*
X138235447Y-87198200D01*
X138102952Y-87224555D01*
X137978144Y-87276252D01*
X137865820Y-87351305D01*
X137770297Y-87446828D01*
X137695244Y-87559152D01*
X137643547Y-87683960D01*
X137617192Y-87816455D01*
X127406000Y-87816455D01*
X127406000Y-84580000D01*
X128574738Y-84580000D01*
X128591748Y-84752706D01*
X128642125Y-84918775D01*
X128723932Y-85071825D01*
X128834025Y-85205975D01*
X128968175Y-85316068D01*
X129121225Y-85397875D01*
X129287294Y-85448252D01*
X129416727Y-85461000D01*
X130103273Y-85461000D01*
X130232706Y-85448252D01*
X130398775Y-85397875D01*
X130551825Y-85316068D01*
X130685975Y-85205975D01*
X130796068Y-85071825D01*
X130877875Y-84918775D01*
X130928252Y-84752706D01*
X130945262Y-84580000D01*
X132504738Y-84580000D01*
X132521748Y-84752706D01*
X132572125Y-84918775D01*
X132653932Y-85071825D01*
X132764025Y-85205975D01*
X132898175Y-85316068D01*
X133051225Y-85397875D01*
X133054058Y-85398734D01*
X132959951Y-85461614D01*
X132861614Y-85559951D01*
X132784351Y-85675584D01*
X132731131Y-85804067D01*
X132704000Y-85940465D01*
X132704000Y-86079535D01*
X132731131Y-86215933D01*
X132784351Y-86344416D01*
X132861614Y-86460049D01*
X132959951Y-86558386D01*
X133075584Y-86635649D01*
X133204067Y-86688869D01*
X133340465Y-86716000D01*
X133479535Y-86716000D01*
X133615933Y-86688869D01*
X133744416Y-86635649D01*
X133860049Y-86558386D01*
X133958386Y-86460049D01*
X134035649Y-86344416D01*
X134088869Y-86215933D01*
X134114064Y-86089267D01*
X138372338Y-86089267D01*
X138482510Y-86282596D01*
X138728806Y-86398095D01*
X138992903Y-86463324D01*
X139264651Y-86475778D01*
X139533607Y-86434977D01*
X139789435Y-86342490D01*
X139901490Y-86282596D01*
X140011662Y-86089267D01*
X139192000Y-85269605D01*
X138372338Y-86089267D01*
X134114064Y-86089267D01*
X134116000Y-86079535D01*
X134116000Y-85940465D01*
X134088869Y-85804067D01*
X134035649Y-85675584D01*
X133958386Y-85559951D01*
X133860049Y-85461614D01*
X133859130Y-85461000D01*
X134533273Y-85461000D01*
X134662706Y-85448252D01*
X134828775Y-85397875D01*
X134981825Y-85316068D01*
X135115975Y-85205975D01*
X135151529Y-85162651D01*
X137806222Y-85162651D01*
X137847023Y-85431607D01*
X137939510Y-85687435D01*
X137999404Y-85799490D01*
X138192733Y-85909662D01*
X139012395Y-85090000D01*
X139371605Y-85090000D01*
X140191267Y-85909662D01*
X140384596Y-85799490D01*
X140500095Y-85553194D01*
X140565324Y-85289097D01*
X140577778Y-85017349D01*
X140568166Y-84953983D01*
X142311000Y-84953983D01*
X142311000Y-85226017D01*
X142364071Y-85492823D01*
X142468174Y-85744149D01*
X142619307Y-85970336D01*
X142811664Y-86162693D01*
X143037851Y-86313826D01*
X143289177Y-86417929D01*
X143555983Y-86471000D01*
X143828017Y-86471000D01*
X144094823Y-86417929D01*
X144346149Y-86313826D01*
X144572336Y-86162693D01*
X144645762Y-86089267D01*
X145556338Y-86089267D01*
X145666510Y-86282596D01*
X145912806Y-86398095D01*
X146176903Y-86463324D01*
X146448651Y-86475778D01*
X146717607Y-86434977D01*
X146973435Y-86342490D01*
X147085490Y-86282596D01*
X147195662Y-86089267D01*
X146376000Y-85269605D01*
X145556338Y-86089267D01*
X144645762Y-86089267D01*
X144764693Y-85970336D01*
X144915826Y-85744149D01*
X145019929Y-85492823D01*
X145031721Y-85433539D01*
X145123510Y-85687435D01*
X145183404Y-85799490D01*
X145376733Y-85909662D01*
X146196395Y-85090000D01*
X146555605Y-85090000D01*
X147375267Y-85909662D01*
X147568596Y-85799490D01*
X147684095Y-85553194D01*
X147749324Y-85289097D01*
X147761778Y-85017349D01*
X147720977Y-84748393D01*
X147628490Y-84492565D01*
X147568596Y-84380510D01*
X147375267Y-84270338D01*
X146555605Y-85090000D01*
X146196395Y-85090000D01*
X145376733Y-84270338D01*
X145183404Y-84380510D01*
X145067905Y-84626806D01*
X145034679Y-84761330D01*
X145019929Y-84687177D01*
X144915826Y-84435851D01*
X144764693Y-84209664D01*
X144645762Y-84090733D01*
X145556338Y-84090733D01*
X146376000Y-84910395D01*
X147195662Y-84090733D01*
X147085490Y-83897404D01*
X146839194Y-83781905D01*
X146575097Y-83716676D01*
X146303349Y-83704222D01*
X146034393Y-83745023D01*
X145778565Y-83837510D01*
X145666510Y-83897404D01*
X145556338Y-84090733D01*
X144645762Y-84090733D01*
X144572336Y-84017307D01*
X144346149Y-83866174D01*
X144094823Y-83762071D01*
X143828017Y-83709000D01*
X143555983Y-83709000D01*
X143289177Y-83762071D01*
X143037851Y-83866174D01*
X142811664Y-84017307D01*
X142619307Y-84209664D01*
X142468174Y-84435851D01*
X142364071Y-84687177D01*
X142311000Y-84953983D01*
X140568166Y-84953983D01*
X140536977Y-84748393D01*
X140444490Y-84492565D01*
X140384596Y-84380510D01*
X140191267Y-84270338D01*
X139371605Y-85090000D01*
X139012395Y-85090000D01*
X138192733Y-84270338D01*
X137999404Y-84380510D01*
X137883905Y-84626806D01*
X137818676Y-84890903D01*
X137806222Y-85162651D01*
X135151529Y-85162651D01*
X135226068Y-85071825D01*
X135307875Y-84918775D01*
X135358252Y-84752706D01*
X135375262Y-84580000D01*
X135358252Y-84407294D01*
X135307875Y-84241225D01*
X135227436Y-84090733D01*
X138372338Y-84090733D01*
X139192000Y-84910395D01*
X140011662Y-84090733D01*
X139901490Y-83897404D01*
X139655194Y-83781905D01*
X139391097Y-83716676D01*
X139119349Y-83704222D01*
X138850393Y-83745023D01*
X138594565Y-83837510D01*
X138482510Y-83897404D01*
X138372338Y-84090733D01*
X135227436Y-84090733D01*
X135226068Y-84088175D01*
X135115975Y-83954025D01*
X134981825Y-83843932D01*
X134828775Y-83762125D01*
X134662706Y-83711748D01*
X134533273Y-83699000D01*
X133346727Y-83699000D01*
X133217294Y-83711748D01*
X133051225Y-83762125D01*
X132898175Y-83843932D01*
X132764025Y-83954025D01*
X132653932Y-84088175D01*
X132572125Y-84241225D01*
X132521748Y-84407294D01*
X132504738Y-84580000D01*
X130945262Y-84580000D01*
X130928252Y-84407294D01*
X130877875Y-84241225D01*
X130796068Y-84088175D01*
X130685975Y-83954025D01*
X130551825Y-83843932D01*
X130398775Y-83762125D01*
X130232706Y-83711748D01*
X130103273Y-83699000D01*
X129416727Y-83699000D01*
X129287294Y-83711748D01*
X129121225Y-83762125D01*
X128968175Y-83843932D01*
X128834025Y-83954025D01*
X128723932Y-84088175D01*
X128642125Y-84241225D01*
X128591748Y-84407294D01*
X128574738Y-84580000D01*
X127406000Y-84580000D01*
X127406000Y-84347853D01*
X127429201Y-84111229D01*
X127492158Y-83902704D01*
X127594415Y-83710387D01*
X127732082Y-83541590D01*
X127899911Y-83402750D01*
X128091513Y-83299152D01*
X128299588Y-83234742D01*
X128534991Y-83210000D01*
X150856147Y-83210000D01*
X151092771Y-83233201D01*
G37*
%TD.AperFunction*%
%TD*%
M02*
