M48
; DRILL file {KiCad (5.1.9)-1} date 12/20/21 22:20:39
; FORMAT={-:-/ absolute / inch / decimal}
; #@! TF.CreationDate,2021-12-20T22:20:39-08:00
; #@! TF.GenerationSoftware,Kicad,Pcbnew,(5.1.9)-1
FMAT,2
INCH
T1C0.0120
T2C0.0138
T3C0.0236
T4C0.0394
T5C0.0433
T6C0.0256
%
G90
G05
T1
X5.027Y-4.882
X5.028Y-4.782
X5.065Y-4.17
X5.065Y-4.24
X5.093Y-3.434
X5.093Y-3.484
X5.093Y-3.539
X5.093Y-3.601
X5.095Y-3.392
X5.095Y-4.105
X5.1Y-3.93
X5.115Y-3.74
X5.115Y-3.865
X5.12Y-3.8
X5.12Y-4.775
X5.125Y-4.58
X5.13Y-4.68
X5.133Y-4.214
X5.135Y-4.445
X5.15Y-3.958
X5.15Y-4.033
X5.16Y-4.332
X5.168Y-4.429
X5.17Y-3.515
X5.175Y-4.009
X5.19Y-4.5
X5.21Y-3.414
X5.21Y-3.56
X5.211Y-3.628
X5.212Y-3.479
X5.221Y-4.43
X5.225Y-3.365
X5.235Y-4.735
X5.254Y-3.972
X5.254Y-3.781
X5.26Y-4.37
X5.265Y-4.81
X5.27Y-4.325
X5.284Y-4.24
X5.2845Y-4.272
X5.285Y-3.83
X5.285Y-4.865
X5.296Y-3.869
X5.297Y-3.779
X5.305Y-4.455
X5.32Y-4.1
X5.32Y-4.395
X5.34Y-4.07
X5.34Y-4.47
X5.34Y-4.865
X5.341Y-3.979
X5.354Y-3.635
X5.3594Y-4.2594
X5.36Y-3.923
X5.36Y-4.165
X5.3605Y-4.1296
X5.362Y-4.212
X5.366Y-3.834
X5.368Y-3.783
X5.3715Y-3.9832
X5.372Y-3.884
X5.375Y-4.32
X5.377Y-3.73
X5.385Y-4.815
X5.395Y-4.115
X5.4Y-4.865
X5.401Y-3.649
X5.41Y-4.033
X5.415Y-3.374
X5.423Y-3.576
X5.435Y-4.3234
X5.4443Y-4.0297
X5.445Y-3.46
X5.451Y-3.996
X5.4521Y-4.3869
X5.455Y-3.505
X5.458Y-3.679
X5.46Y-4.4525
X5.475Y-3.835
X5.478Y-3.926
X5.48Y-4.865
X5.484Y-3.961
X5.49Y-4.32
X5.49Y-4.3932
X5.49Y-4.5845
X5.5Y-3.875
X5.505Y-4.47
X5.525Y-4.61
X5.53Y-4.815
X5.542Y-4.016
X5.545Y-3.78
X5.545Y-4.32
X5.553Y-3.745
X5.557Y-4.236
X5.5585Y-4.2024
X5.559Y-4.27
X5.56Y-4.86
X5.562Y-4.482
X5.565Y-3.37
X5.5669Y-4.3974
X5.575Y-3.34
X5.5788Y-3.9538
X5.595Y-3.64
X5.595Y-4.48
X5.597Y-4.068
X5.605Y-3.98
X5.606Y-4.353
X5.61Y-3.673
X5.61Y-4.775
X5.625Y-3.795
X5.627Y-4.43
X5.63Y-4.82
X5.655Y-4.87
X5.6715Y-3.787
X5.672Y-3.899
X5.677Y-4.221
X5.6795Y-4.255
X5.682Y-4.4225
X5.705Y-4.305
X5.71Y-4.86
X5.73Y-3.842
X5.735Y-4.15
X5.735Y-4.8
X5.755Y-3.824
X5.785Y-4.64
X5.825Y-3.931
X5.829Y-3.816
X5.845Y-4.23
X5.85Y-4.515
X5.8505Y-4.39
X5.858Y-3.788
X5.86Y-3.355
X5.86Y-4.76
X5.865Y-4.06
X5.87Y-3.955
X5.875Y-3.83
X5.88Y-4.275
X5.885Y-3.56
X5.889Y-4.211
X5.905Y-4.1
X5.921Y-3.91
X5.925Y-3.675
X5.969Y-4.683
X5.97Y-4.778
X5.971Y-4.88
X5.977Y-3.669
T2
X5.4098Y-4.1698
X5.4098Y-4.22
X5.4098Y-4.2702
X5.46Y-4.1698
X5.46Y-4.22
X5.46Y-4.2702
X5.5102Y-4.1698
X5.5102Y-4.22
X5.5102Y-4.2702
T4
X5.07Y-4.33
X5.07Y-4.43
X5.07Y-4.53
X5.07Y-4.63
X5.07Y-4.73
X5.07Y-4.83
X5.07Y-4.93
X5.2Y-4.57
X5.3Y-4.57
X5.4Y-4.57
X5.6Y-4.57
X5.7Y-4.57
X5.8Y-4.57
X5.93Y-4.33
X5.93Y-4.43
X5.93Y-4.53
X5.93Y-4.63
X5.93Y-4.73
X5.93Y-4.83
X5.93Y-4.93
T5
X5.48Y-3.35
X5.48Y-3.6059
X5.6572Y-3.35
X5.6572Y-3.6059
X5.7628Y-3.35
X5.7628Y-3.6059
X5.94Y-3.35
X5.94Y-3.6059
T6
X5.2524Y-3.3862
X5.2524Y-3.6138
T3
G00X5.1205Y-3.3299
M15
G01X5.0969Y-3.3299
M16
G05
G00X5.1205Y-3.6701
M15
G01X5.0969Y-3.6701
M16
G05
G00X5.2949Y-3.3299
M15
G01X5.2516Y-3.3299
M16
G05
G00X5.2949Y-3.6701
M15
G01X5.2516Y-3.6701
M16
G05
T0
M30
