%TF.GenerationSoftware,KiCad,Pcbnew,(5.1.9)-1*%
%TF.CreationDate,2021-12-20T22:20:38-08:00*%
%TF.ProjectId,MCL-102-2,4d434c2d-3130-4322-9d32-2e6b69636164,rev?*%
%TF.SameCoordinates,Original*%
%TF.FileFunction,Legend,Top*%
%TF.FilePolarity,Positive*%
%FSLAX46Y46*%
G04 Gerber Fmt 4.6, Leading zero omitted, Abs format (unit mm)*
G04 Created by KiCad (PCBNEW (5.1.9)-1) date 2021-12-20 22:20:38*
%MOMM*%
%LPD*%
G01*
G04 APERTURE LIST*
%ADD10C,0.150000*%
%ADD11C,0.120000*%
%ADD12C,0.127000*%
G04 APERTURE END LIST*
D10*
X140972419Y-86650285D02*
X140933714Y-86688990D01*
X140817600Y-86727695D01*
X140740190Y-86727695D01*
X140624076Y-86688990D01*
X140546666Y-86611580D01*
X140507961Y-86534171D01*
X140469257Y-86379352D01*
X140469257Y-86263238D01*
X140507961Y-86108419D01*
X140546666Y-86031009D01*
X140624076Y-85953600D01*
X140740190Y-85914895D01*
X140817600Y-85914895D01*
X140933714Y-85953600D01*
X140972419Y-85992304D01*
X141282057Y-86495466D02*
X141669104Y-86495466D01*
X141204647Y-86727695D02*
X141475580Y-85914895D01*
X141746514Y-86727695D01*
X142017447Y-86727695D02*
X142017447Y-85914895D01*
X142481904Y-86727695D01*
X142481904Y-85914895D01*
X143256000Y-86727695D02*
X142868952Y-86727695D01*
X142868952Y-85914895D01*
X147707047Y-86650285D02*
X147668342Y-86688990D01*
X147552228Y-86727695D01*
X147474819Y-86727695D01*
X147358704Y-86688990D01*
X147281295Y-86611580D01*
X147242590Y-86534171D01*
X147203885Y-86379352D01*
X147203885Y-86263238D01*
X147242590Y-86108419D01*
X147281295Y-86031009D01*
X147358704Y-85953600D01*
X147474819Y-85914895D01*
X147552228Y-85914895D01*
X147668342Y-85953600D01*
X147707047Y-85992304D01*
X148016685Y-86495466D02*
X148403733Y-86495466D01*
X147939276Y-86727695D02*
X148210209Y-85914895D01*
X148481142Y-86727695D01*
X148752076Y-86727695D02*
X148752076Y-85914895D01*
X149216533Y-86727695D01*
X149216533Y-85914895D01*
X149603580Y-86727695D02*
X149603580Y-85914895D01*
X149603580Y-86301942D02*
X150068038Y-86301942D01*
X150068038Y-86727695D02*
X150068038Y-85914895D01*
D11*
%TO.C,R26*%
X150242000Y-103478359D02*
X150242000Y-103785641D01*
X151002000Y-103478359D02*
X151002000Y-103785641D01*
%TO.C,R2*%
X134847359Y-114553000D02*
X135154641Y-114553000D01*
X134847359Y-113793000D02*
X135154641Y-113793000D01*
%TO.C,D12*%
X149887000Y-99607000D02*
X149887000Y-101892000D01*
X151357000Y-99607000D02*
X149887000Y-99607000D01*
X151357000Y-101892000D02*
X151357000Y-99607000D01*
%TO.C,U1*%
X148791000Y-109518000D02*
X148561000Y-109518000D01*
X144071000Y-109518000D02*
X144301000Y-109518000D01*
X144071000Y-109518000D02*
X144071000Y-106798000D01*
X144071000Y-106798000D02*
X145381000Y-106798000D01*
X144301000Y-110658000D02*
X144301000Y-109518000D01*
X148791000Y-106798000D02*
X148791000Y-109518000D01*
X147481000Y-106798000D02*
X148791000Y-106798000D01*
%TO.C,D3*%
X136056000Y-93702000D02*
X136056000Y-91152000D01*
X137756000Y-93702000D02*
X137756000Y-91152000D01*
X136056000Y-93702000D02*
X137756000Y-93702000D01*
%TO.C,D2*%
X137987000Y-114773000D02*
X136137000Y-114773000D01*
X137987000Y-113573000D02*
X136137000Y-113573000D01*
X136137000Y-113573000D02*
X136137000Y-114773000D01*
%TO.C,D1*%
X148401000Y-114646000D02*
X146551000Y-114646000D01*
X148401000Y-113446000D02*
X146551000Y-113446000D01*
X146551000Y-113446000D02*
X146551000Y-114646000D01*
%TO.C,R4*%
X140969000Y-115797359D02*
X140969000Y-116104641D01*
X140209000Y-115797359D02*
X140209000Y-116104641D01*
%TO.C,R3*%
X139191000Y-115797359D02*
X139191000Y-116104641D01*
X138431000Y-115797359D02*
X138431000Y-116104641D01*
%TO.C,J12*%
X133233000Y-126557000D02*
X145913000Y-126557000D01*
X146613000Y-120337000D02*
X145333000Y-120337000D01*
X146613000Y-118737000D02*
X146613000Y-120337000D01*
X147633000Y-118737000D02*
X146613000Y-118737000D01*
X147633000Y-122987000D02*
X147633000Y-118737000D01*
X133813000Y-120337000D02*
X133813000Y-117447000D01*
X132533000Y-120337000D02*
X133813000Y-120337000D01*
X132533000Y-118737000D02*
X132533000Y-120337000D01*
X131513000Y-118737000D02*
X132533000Y-118737000D01*
X131513000Y-122987000D02*
X131513000Y-118737000D01*
%TO.C,C15*%
X141624164Y-97388000D02*
X141839836Y-97388000D01*
X141624164Y-96668000D02*
X141839836Y-96668000D01*
%TO.C,R31*%
X150468359Y-94868000D02*
X150775641Y-94868000D01*
X150468359Y-94108000D02*
X150775641Y-94108000D01*
%TO.C,R27*%
X128398000Y-103859359D02*
X128398000Y-104166641D01*
X129158000Y-103859359D02*
X129158000Y-104166641D01*
%TO.C,R25*%
X142162800Y-98654841D02*
X142162800Y-98347559D01*
X141402800Y-98654841D02*
X141402800Y-98347559D01*
%TO.C,R20*%
X137006359Y-86740000D02*
X137313641Y-86740000D01*
X137006359Y-85980000D02*
X137313641Y-85980000D01*
%TO.C,R19*%
X137313641Y-87250000D02*
X137006359Y-87250000D01*
X137313641Y-88010000D02*
X137006359Y-88010000D01*
%TO.C,R17*%
X137006359Y-112902000D02*
X137313641Y-112902000D01*
X137006359Y-112142000D02*
X137313641Y-112142000D01*
%TO.C,R16*%
X134974359Y-112902000D02*
X135281641Y-112902000D01*
X134974359Y-112142000D02*
X135281641Y-112142000D01*
%TO.C,R13*%
X145007359Y-114553000D02*
X145314641Y-114553000D01*
X145007359Y-113793000D02*
X145314641Y-113793000D01*
%TO.C,D13*%
X128043000Y-99607000D02*
X128043000Y-101892000D01*
X129513000Y-99607000D02*
X128043000Y-99607000D01*
X129513000Y-101892000D02*
X129513000Y-99607000D01*
%TO.C,C31*%
X131679836Y-109114000D02*
X131464164Y-109114000D01*
X131679836Y-109834000D02*
X131464164Y-109834000D01*
%TO.C,C30*%
X130958000Y-103524164D02*
X130958000Y-103739836D01*
X131678000Y-103524164D02*
X131678000Y-103739836D01*
%TO.C,C29*%
X143981900Y-108242980D02*
X143981900Y-107961820D01*
X142961900Y-108242980D02*
X142961900Y-107961820D01*
%TO.C,C27*%
X144648600Y-111842664D02*
X144648600Y-112058336D01*
X145368600Y-111842664D02*
X145368600Y-112058336D01*
%TO.C,C26*%
X141854600Y-102152564D02*
X141854600Y-102368236D01*
X142574600Y-102152564D02*
X142574600Y-102368236D01*
%TO.C,C24*%
X144987600Y-105505136D02*
X144987600Y-105289464D01*
X144267600Y-105505136D02*
X144267600Y-105289464D01*
%TO.C,C21*%
X132228000Y-103524164D02*
X132228000Y-103739836D01*
X132948000Y-103524164D02*
X132948000Y-103739836D01*
%TO.C,U8*%
X134874000Y-94151000D02*
X131274000Y-94151000D01*
X134874000Y-94151000D02*
X137074000Y-94151000D01*
X134874000Y-100921000D02*
X132674000Y-100921000D01*
X134874000Y-100921000D02*
X137074000Y-100921000D01*
%TO.C,R21*%
X137260359Y-90550000D02*
X137567641Y-90550000D01*
X137260359Y-89790000D02*
X137567641Y-89790000D01*
%TO.C,R1*%
X133122641Y-114680000D02*
X132815359Y-114680000D01*
X133122641Y-113920000D02*
X132815359Y-113920000D01*
%TO.C,J1*%
X128778000Y-108652000D02*
X130108000Y-108652000D01*
X130108000Y-108652000D02*
X130108000Y-109982000D01*
X130108000Y-111252000D02*
X130108000Y-126552000D01*
X127448000Y-126552000D02*
X130108000Y-126552000D01*
X127448000Y-111252000D02*
X127448000Y-126552000D01*
X127448000Y-111252000D02*
X130108000Y-111252000D01*
%TO.C,J8*%
X150622000Y-108652000D02*
X151952000Y-108652000D01*
X151952000Y-108652000D02*
X151952000Y-109982000D01*
X151952000Y-111252000D02*
X151952000Y-126552000D01*
X149292000Y-126552000D02*
X151952000Y-126552000D01*
X149292000Y-111252000D02*
X149292000Y-126552000D01*
X149292000Y-111252000D02*
X151952000Y-111252000D01*
%TO.C,Y1*%
X130596000Y-104850000D02*
X130596000Y-108850000D01*
X133896000Y-104850000D02*
X130596000Y-104850000D01*
%TO.C,U9*%
X142294000Y-110148000D02*
X142294000Y-110798000D01*
X142294000Y-110798000D02*
X141644000Y-110798000D01*
X135074000Y-104228000D02*
X135074000Y-103578000D01*
X135074000Y-103578000D02*
X135724000Y-103578000D01*
X135074000Y-110148000D02*
X135074000Y-110798000D01*
X135074000Y-110798000D02*
X135724000Y-110798000D01*
X142294000Y-104228000D02*
X142294000Y-103578000D01*
%TO.C,U7*%
X148515000Y-96081000D02*
X148515000Y-94406000D01*
X148775000Y-96081000D02*
X148515000Y-96081000D01*
X148775000Y-98806000D02*
X148775000Y-96081000D01*
X148775000Y-101531000D02*
X148515000Y-101531000D01*
X148775000Y-98806000D02*
X148775000Y-101531000D01*
X143325000Y-96081000D02*
X143585000Y-96081000D01*
X143325000Y-98806000D02*
X143325000Y-96081000D01*
X143325000Y-101531000D02*
X143585000Y-101531000D01*
X143325000Y-98806000D02*
X143325000Y-101531000D01*
%TO.C,U5*%
X142124000Y-93157400D02*
X139674000Y-93157400D01*
X140324000Y-96377400D02*
X142124000Y-96377400D01*
%TO.C,R30*%
X150775641Y-95378000D02*
X150468359Y-95378000D01*
X150775641Y-96138000D02*
X150468359Y-96138000D01*
%TO.C,R29*%
X132716000Y-109828359D02*
X132716000Y-110135641D01*
X133476000Y-109828359D02*
X133476000Y-110135641D01*
%TO.C,R24*%
X137059641Y-84710000D02*
X136752359Y-84710000D01*
X137059641Y-85470000D02*
X136752359Y-85470000D01*
%TO.C,R22*%
X137313641Y-88520000D02*
X137006359Y-88520000D01*
X137313641Y-89280000D02*
X137006359Y-89280000D01*
%TO.C,J7*%
X126910000Y-84200000D02*
X126910000Y-93600000D01*
X132710000Y-93600000D02*
X130710000Y-93600000D01*
X128810000Y-93600000D02*
X126910000Y-93600000D01*
X132710000Y-84200000D02*
X130710000Y-84200000D01*
X128810000Y-84200000D02*
X126910000Y-84200000D01*
%TO.C,C28*%
X143000000Y-110857420D02*
X143000000Y-111138580D01*
X144020000Y-110857420D02*
X144020000Y-111138580D01*
%TO.C,C25*%
X136036164Y-102036200D02*
X136251836Y-102036200D01*
X136036164Y-101316200D02*
X136251836Y-101316200D01*
%TO.C,C23*%
X133456000Y-112020236D02*
X133456000Y-111804564D01*
X132736000Y-112020236D02*
X132736000Y-111804564D01*
%TO.C,C22*%
X131464164Y-112196200D02*
X131679836Y-112196200D01*
X131464164Y-111476200D02*
X131679836Y-111476200D01*
%TO.C,C20*%
X133498000Y-103524164D02*
X133498000Y-103739836D01*
X134218000Y-103524164D02*
X134218000Y-103739836D01*
%TO.C,C19*%
X131464164Y-111104000D02*
X131679836Y-111104000D01*
X131464164Y-110384000D02*
X131679836Y-110384000D01*
%TO.C,C18*%
X139299836Y-112162000D02*
X139084164Y-112162000D01*
X139299836Y-112882000D02*
X139084164Y-112882000D01*
%TO.C,C17*%
X142650800Y-112058336D02*
X142650800Y-111842664D01*
X141930800Y-112058336D02*
X141930800Y-111842664D01*
%TO.C,C16*%
X133236580Y-101344000D02*
X132955420Y-101344000D01*
X133236580Y-102364000D02*
X132955420Y-102364000D01*
%TO.C,C12*%
X147179420Y-112524000D02*
X147460580Y-112524000D01*
X147179420Y-111504000D02*
X147460580Y-111504000D01*
%TO.C,C7*%
X147460580Y-104646000D02*
X147179420Y-104646000D01*
X147460580Y-105666000D02*
X147179420Y-105666000D01*
%TO.C,R26*%
D12*
X150897771Y-105928885D02*
X150607485Y-106132085D01*
X150897771Y-106277228D02*
X150288171Y-106277228D01*
X150288171Y-106045000D01*
X150317200Y-105986942D01*
X150346228Y-105957914D01*
X150404285Y-105928885D01*
X150491371Y-105928885D01*
X150549428Y-105957914D01*
X150578457Y-105986942D01*
X150607485Y-106045000D01*
X150607485Y-106277228D01*
X150346228Y-105696657D02*
X150317200Y-105667628D01*
X150288171Y-105609571D01*
X150288171Y-105464428D01*
X150317200Y-105406371D01*
X150346228Y-105377342D01*
X150404285Y-105348314D01*
X150462342Y-105348314D01*
X150549428Y-105377342D01*
X150897771Y-105725685D01*
X150897771Y-105348314D01*
X150288171Y-104825800D02*
X150288171Y-104941914D01*
X150317200Y-104999971D01*
X150346228Y-105029000D01*
X150433314Y-105087057D01*
X150549428Y-105116085D01*
X150781657Y-105116085D01*
X150839714Y-105087057D01*
X150868742Y-105058028D01*
X150897771Y-104999971D01*
X150897771Y-104883857D01*
X150868742Y-104825800D01*
X150839714Y-104796771D01*
X150781657Y-104767742D01*
X150636514Y-104767742D01*
X150578457Y-104796771D01*
X150549428Y-104825800D01*
X150520400Y-104883857D01*
X150520400Y-104999971D01*
X150549428Y-105058028D01*
X150578457Y-105087057D01*
X150636514Y-105116085D01*
%TO.C,R2*%
X135026400Y-111781771D02*
X134823200Y-111491485D01*
X134678057Y-111781771D02*
X134678057Y-111172171D01*
X134910285Y-111172171D01*
X134968342Y-111201200D01*
X134997371Y-111230228D01*
X135026400Y-111288285D01*
X135026400Y-111375371D01*
X134997371Y-111433428D01*
X134968342Y-111462457D01*
X134910285Y-111491485D01*
X134678057Y-111491485D01*
X135258628Y-111230228D02*
X135287657Y-111201200D01*
X135345714Y-111172171D01*
X135490857Y-111172171D01*
X135548914Y-111201200D01*
X135577942Y-111230228D01*
X135606971Y-111288285D01*
X135606971Y-111346342D01*
X135577942Y-111433428D01*
X135229600Y-111781771D01*
X135606971Y-111781771D01*
%TO.C,D12*%
X150897771Y-99292228D02*
X150288171Y-99292228D01*
X150288171Y-99147085D01*
X150317200Y-99060000D01*
X150375257Y-99001942D01*
X150433314Y-98972914D01*
X150549428Y-98943885D01*
X150636514Y-98943885D01*
X150752628Y-98972914D01*
X150810685Y-99001942D01*
X150868742Y-99060000D01*
X150897771Y-99147085D01*
X150897771Y-99292228D01*
X150897771Y-98363314D02*
X150897771Y-98711657D01*
X150897771Y-98537485D02*
X150288171Y-98537485D01*
X150375257Y-98595542D01*
X150433314Y-98653600D01*
X150462342Y-98711657D01*
X150346228Y-98131085D02*
X150317200Y-98102057D01*
X150288171Y-98044000D01*
X150288171Y-97898857D01*
X150317200Y-97840800D01*
X150346228Y-97811771D01*
X150404285Y-97782742D01*
X150462342Y-97782742D01*
X150549428Y-97811771D01*
X150897771Y-98160114D01*
X150897771Y-97782742D01*
%TO.C,U1*%
X142597171Y-108622457D02*
X143090657Y-108622457D01*
X143148714Y-108593428D01*
X143177742Y-108564400D01*
X143206771Y-108506342D01*
X143206771Y-108390228D01*
X143177742Y-108332171D01*
X143148714Y-108303142D01*
X143090657Y-108274114D01*
X142597171Y-108274114D01*
X143206771Y-107664514D02*
X143206771Y-108012857D01*
X143206771Y-107838685D02*
X142597171Y-107838685D01*
X142684257Y-107896742D01*
X142742314Y-107954800D01*
X142771342Y-108012857D01*
%TO.C,D3*%
X135331771Y-92651942D02*
X134722171Y-92651942D01*
X134722171Y-92506800D01*
X134751200Y-92419714D01*
X134809257Y-92361657D01*
X134867314Y-92332628D01*
X134983428Y-92303600D01*
X135070514Y-92303600D01*
X135186628Y-92332628D01*
X135244685Y-92361657D01*
X135302742Y-92419714D01*
X135331771Y-92506800D01*
X135331771Y-92651942D01*
X134722171Y-92100400D02*
X134722171Y-91723028D01*
X134954400Y-91926228D01*
X134954400Y-91839142D01*
X134983428Y-91781085D01*
X135012457Y-91752057D01*
X135070514Y-91723028D01*
X135215657Y-91723028D01*
X135273714Y-91752057D01*
X135302742Y-91781085D01*
X135331771Y-91839142D01*
X135331771Y-92013314D01*
X135302742Y-92071371D01*
X135273714Y-92100400D01*
%TO.C,D2*%
X138488057Y-114829771D02*
X138488057Y-114220171D01*
X138633200Y-114220171D01*
X138720285Y-114249200D01*
X138778342Y-114307257D01*
X138807371Y-114365314D01*
X138836400Y-114481428D01*
X138836400Y-114568514D01*
X138807371Y-114684628D01*
X138778342Y-114742685D01*
X138720285Y-114800742D01*
X138633200Y-114829771D01*
X138488057Y-114829771D01*
X139068628Y-114278228D02*
X139097657Y-114249200D01*
X139155714Y-114220171D01*
X139300857Y-114220171D01*
X139358914Y-114249200D01*
X139387942Y-114278228D01*
X139416971Y-114336285D01*
X139416971Y-114394342D01*
X139387942Y-114481428D01*
X139039600Y-114829771D01*
X139416971Y-114829771D01*
%TO.C,D1*%
X147632057Y-113178771D02*
X147632057Y-112569171D01*
X147777200Y-112569171D01*
X147864285Y-112598200D01*
X147922342Y-112656257D01*
X147951371Y-112714314D01*
X147980400Y-112830428D01*
X147980400Y-112917514D01*
X147951371Y-113033628D01*
X147922342Y-113091685D01*
X147864285Y-113149742D01*
X147777200Y-113178771D01*
X147632057Y-113178771D01*
X148560971Y-113178771D02*
X148212628Y-113178771D01*
X148386800Y-113178771D02*
X148386800Y-112569171D01*
X148328742Y-112656257D01*
X148270685Y-112714314D01*
X148212628Y-112743342D01*
%TO.C,R4*%
X140864771Y-114528600D02*
X140574485Y-114731800D01*
X140864771Y-114876942D02*
X140255171Y-114876942D01*
X140255171Y-114644714D01*
X140284200Y-114586657D01*
X140313228Y-114557628D01*
X140371285Y-114528600D01*
X140458371Y-114528600D01*
X140516428Y-114557628D01*
X140545457Y-114586657D01*
X140574485Y-114644714D01*
X140574485Y-114876942D01*
X140458371Y-114006085D02*
X140864771Y-114006085D01*
X140226142Y-114151228D02*
X140661571Y-114296371D01*
X140661571Y-113919000D01*
%TO.C,R3*%
X139848771Y-116052600D02*
X139558485Y-116255800D01*
X139848771Y-116400942D02*
X139239171Y-116400942D01*
X139239171Y-116168714D01*
X139268200Y-116110657D01*
X139297228Y-116081628D01*
X139355285Y-116052600D01*
X139442371Y-116052600D01*
X139500428Y-116081628D01*
X139529457Y-116110657D01*
X139558485Y-116168714D01*
X139558485Y-116400942D01*
X139239171Y-115849400D02*
X139239171Y-115472028D01*
X139471400Y-115675228D01*
X139471400Y-115588142D01*
X139500428Y-115530085D01*
X139529457Y-115501057D01*
X139587514Y-115472028D01*
X139732657Y-115472028D01*
X139790714Y-115501057D01*
X139819742Y-115530085D01*
X139848771Y-115588142D01*
X139848771Y-115762314D01*
X139819742Y-115820371D01*
X139790714Y-115849400D01*
%TO.C,J11*%
X141416314Y-89836171D02*
X141416314Y-90271600D01*
X141387285Y-90358685D01*
X141329228Y-90416742D01*
X141242142Y-90445771D01*
X141184085Y-90445771D01*
X142025914Y-90445771D02*
X141677571Y-90445771D01*
X141851742Y-90445771D02*
X141851742Y-89836171D01*
X141793685Y-89923257D01*
X141735628Y-89981314D01*
X141677571Y-90010342D01*
X142606485Y-90445771D02*
X142258142Y-90445771D01*
X142432314Y-90445771D02*
X142432314Y-89836171D01*
X142374257Y-89923257D01*
X142316200Y-89981314D01*
X142258142Y-90010342D01*
%TO.C,J12*%
X146445514Y-117649171D02*
X146445514Y-118084600D01*
X146416485Y-118171685D01*
X146358428Y-118229742D01*
X146271342Y-118258771D01*
X146213285Y-118258771D01*
X147055114Y-118258771D02*
X146706771Y-118258771D01*
X146880942Y-118258771D02*
X146880942Y-117649171D01*
X146822885Y-117736257D01*
X146764828Y-117794314D01*
X146706771Y-117823342D01*
X147287342Y-117707228D02*
X147316371Y-117678200D01*
X147374428Y-117649171D01*
X147519571Y-117649171D01*
X147577628Y-117678200D01*
X147606657Y-117707228D01*
X147635685Y-117765285D01*
X147635685Y-117823342D01*
X147606657Y-117910428D01*
X147258314Y-118258771D01*
X147635685Y-118258771D01*
%TO.C,C15*%
X139562114Y-97245714D02*
X139533085Y-97274742D01*
X139446000Y-97303771D01*
X139387942Y-97303771D01*
X139300857Y-97274742D01*
X139242800Y-97216685D01*
X139213771Y-97158628D01*
X139184742Y-97042514D01*
X139184742Y-96955428D01*
X139213771Y-96839314D01*
X139242800Y-96781257D01*
X139300857Y-96723200D01*
X139387942Y-96694171D01*
X139446000Y-96694171D01*
X139533085Y-96723200D01*
X139562114Y-96752228D01*
X140142685Y-97303771D02*
X139794342Y-97303771D01*
X139968514Y-97303771D02*
X139968514Y-96694171D01*
X139910457Y-96781257D01*
X139852400Y-96839314D01*
X139794342Y-96868342D01*
X140694228Y-96694171D02*
X140403942Y-96694171D01*
X140374914Y-96984457D01*
X140403942Y-96955428D01*
X140462000Y-96926400D01*
X140607142Y-96926400D01*
X140665200Y-96955428D01*
X140694228Y-96984457D01*
X140723257Y-97042514D01*
X140723257Y-97187657D01*
X140694228Y-97245714D01*
X140665200Y-97274742D01*
X140607142Y-97303771D01*
X140462000Y-97303771D01*
X140403942Y-97274742D01*
X140374914Y-97245714D01*
%TO.C,R31*%
X149627771Y-94371885D02*
X149337485Y-94575085D01*
X149627771Y-94720228D02*
X149018171Y-94720228D01*
X149018171Y-94488000D01*
X149047200Y-94429942D01*
X149076228Y-94400914D01*
X149134285Y-94371885D01*
X149221371Y-94371885D01*
X149279428Y-94400914D01*
X149308457Y-94429942D01*
X149337485Y-94488000D01*
X149337485Y-94720228D01*
X149018171Y-94168685D02*
X149018171Y-93791314D01*
X149250400Y-93994514D01*
X149250400Y-93907428D01*
X149279428Y-93849371D01*
X149308457Y-93820342D01*
X149366514Y-93791314D01*
X149511657Y-93791314D01*
X149569714Y-93820342D01*
X149598742Y-93849371D01*
X149627771Y-93907428D01*
X149627771Y-94081600D01*
X149598742Y-94139657D01*
X149569714Y-94168685D01*
X149627771Y-93210742D02*
X149627771Y-93559085D01*
X149627771Y-93384914D02*
X149018171Y-93384914D01*
X149105257Y-93442971D01*
X149163314Y-93501028D01*
X149192342Y-93559085D01*
%TO.C,R27*%
X130120571Y-104430285D02*
X129830285Y-104633485D01*
X130120571Y-104778628D02*
X129510971Y-104778628D01*
X129510971Y-104546400D01*
X129540000Y-104488342D01*
X129569028Y-104459314D01*
X129627085Y-104430285D01*
X129714171Y-104430285D01*
X129772228Y-104459314D01*
X129801257Y-104488342D01*
X129830285Y-104546400D01*
X129830285Y-104778628D01*
X129569028Y-104198057D02*
X129540000Y-104169028D01*
X129510971Y-104110971D01*
X129510971Y-103965828D01*
X129540000Y-103907771D01*
X129569028Y-103878742D01*
X129627085Y-103849714D01*
X129685142Y-103849714D01*
X129772228Y-103878742D01*
X130120571Y-104227085D01*
X130120571Y-103849714D01*
X129510971Y-103646514D02*
X129510971Y-103240114D01*
X130120571Y-103501371D01*
%TO.C,R25*%
X140888571Y-98893085D02*
X140598285Y-99096285D01*
X140888571Y-99241428D02*
X140278971Y-99241428D01*
X140278971Y-99009200D01*
X140308000Y-98951142D01*
X140337028Y-98922114D01*
X140395085Y-98893085D01*
X140482171Y-98893085D01*
X140540228Y-98922114D01*
X140569257Y-98951142D01*
X140598285Y-99009200D01*
X140598285Y-99241428D01*
X140337028Y-98660857D02*
X140308000Y-98631828D01*
X140278971Y-98573771D01*
X140278971Y-98428628D01*
X140308000Y-98370571D01*
X140337028Y-98341542D01*
X140395085Y-98312514D01*
X140453142Y-98312514D01*
X140540228Y-98341542D01*
X140888571Y-98689885D01*
X140888571Y-98312514D01*
X140278971Y-97760971D02*
X140278971Y-98051257D01*
X140569257Y-98080285D01*
X140540228Y-98051257D01*
X140511200Y-97993200D01*
X140511200Y-97848057D01*
X140540228Y-97790000D01*
X140569257Y-97760971D01*
X140627314Y-97731942D01*
X140772457Y-97731942D01*
X140830514Y-97760971D01*
X140859542Y-97790000D01*
X140888571Y-97848057D01*
X140888571Y-97993200D01*
X140859542Y-98051257D01*
X140830514Y-98080285D01*
%TO.C,R20*%
X138546114Y-86889771D02*
X138342914Y-86599485D01*
X138197771Y-86889771D02*
X138197771Y-86280171D01*
X138430000Y-86280171D01*
X138488057Y-86309200D01*
X138517085Y-86338228D01*
X138546114Y-86396285D01*
X138546114Y-86483371D01*
X138517085Y-86541428D01*
X138488057Y-86570457D01*
X138430000Y-86599485D01*
X138197771Y-86599485D01*
X138778342Y-86338228D02*
X138807371Y-86309200D01*
X138865428Y-86280171D01*
X139010571Y-86280171D01*
X139068628Y-86309200D01*
X139097657Y-86338228D01*
X139126685Y-86396285D01*
X139126685Y-86454342D01*
X139097657Y-86541428D01*
X138749314Y-86889771D01*
X139126685Y-86889771D01*
X139504057Y-86280171D02*
X139562114Y-86280171D01*
X139620171Y-86309200D01*
X139649200Y-86338228D01*
X139678228Y-86396285D01*
X139707257Y-86512400D01*
X139707257Y-86657542D01*
X139678228Y-86773657D01*
X139649200Y-86831714D01*
X139620171Y-86860742D01*
X139562114Y-86889771D01*
X139504057Y-86889771D01*
X139446000Y-86860742D01*
X139416971Y-86831714D01*
X139387942Y-86773657D01*
X139358914Y-86657542D01*
X139358914Y-86512400D01*
X139387942Y-86396285D01*
X139416971Y-86338228D01*
X139446000Y-86309200D01*
X139504057Y-86280171D01*
%TO.C,R19*%
X138292114Y-87905771D02*
X138088914Y-87615485D01*
X137943771Y-87905771D02*
X137943771Y-87296171D01*
X138176000Y-87296171D01*
X138234057Y-87325200D01*
X138263085Y-87354228D01*
X138292114Y-87412285D01*
X138292114Y-87499371D01*
X138263085Y-87557428D01*
X138234057Y-87586457D01*
X138176000Y-87615485D01*
X137943771Y-87615485D01*
X138872685Y-87905771D02*
X138524342Y-87905771D01*
X138698514Y-87905771D02*
X138698514Y-87296171D01*
X138640457Y-87383257D01*
X138582400Y-87441314D01*
X138524342Y-87470342D01*
X139162971Y-87905771D02*
X139279085Y-87905771D01*
X139337142Y-87876742D01*
X139366171Y-87847714D01*
X139424228Y-87760628D01*
X139453257Y-87644514D01*
X139453257Y-87412285D01*
X139424228Y-87354228D01*
X139395200Y-87325200D01*
X139337142Y-87296171D01*
X139221028Y-87296171D01*
X139162971Y-87325200D01*
X139133942Y-87354228D01*
X139104914Y-87412285D01*
X139104914Y-87557428D01*
X139133942Y-87615485D01*
X139162971Y-87644514D01*
X139221028Y-87673542D01*
X139337142Y-87673542D01*
X139395200Y-87644514D01*
X139424228Y-87615485D01*
X139453257Y-87557428D01*
%TO.C,R17*%
X136768114Y-111781771D02*
X136564914Y-111491485D01*
X136419771Y-111781771D02*
X136419771Y-111172171D01*
X136652000Y-111172171D01*
X136710057Y-111201200D01*
X136739085Y-111230228D01*
X136768114Y-111288285D01*
X136768114Y-111375371D01*
X136739085Y-111433428D01*
X136710057Y-111462457D01*
X136652000Y-111491485D01*
X136419771Y-111491485D01*
X137348685Y-111781771D02*
X137000342Y-111781771D01*
X137174514Y-111781771D02*
X137174514Y-111172171D01*
X137116457Y-111259257D01*
X137058400Y-111317314D01*
X137000342Y-111346342D01*
X137551885Y-111172171D02*
X137958285Y-111172171D01*
X137697028Y-111781771D01*
%TO.C,R16*%
X134736114Y-113813771D02*
X134532914Y-113523485D01*
X134387771Y-113813771D02*
X134387771Y-113204171D01*
X134620000Y-113204171D01*
X134678057Y-113233200D01*
X134707085Y-113262228D01*
X134736114Y-113320285D01*
X134736114Y-113407371D01*
X134707085Y-113465428D01*
X134678057Y-113494457D01*
X134620000Y-113523485D01*
X134387771Y-113523485D01*
X135316685Y-113813771D02*
X134968342Y-113813771D01*
X135142514Y-113813771D02*
X135142514Y-113204171D01*
X135084457Y-113291257D01*
X135026400Y-113349314D01*
X134968342Y-113378342D01*
X135839200Y-113204171D02*
X135723085Y-113204171D01*
X135665028Y-113233200D01*
X135636000Y-113262228D01*
X135577942Y-113349314D01*
X135548914Y-113465428D01*
X135548914Y-113697657D01*
X135577942Y-113755714D01*
X135606971Y-113784742D01*
X135665028Y-113813771D01*
X135781142Y-113813771D01*
X135839200Y-113784742D01*
X135868228Y-113755714D01*
X135897257Y-113697657D01*
X135897257Y-113552514D01*
X135868228Y-113494457D01*
X135839200Y-113465428D01*
X135781142Y-113436400D01*
X135665028Y-113436400D01*
X135606971Y-113465428D01*
X135577942Y-113494457D01*
X135548914Y-113552514D01*
%TO.C,R13*%
X144515114Y-113686771D02*
X144311914Y-113396485D01*
X144166771Y-113686771D02*
X144166771Y-113077171D01*
X144399000Y-113077171D01*
X144457057Y-113106200D01*
X144486085Y-113135228D01*
X144515114Y-113193285D01*
X144515114Y-113280371D01*
X144486085Y-113338428D01*
X144457057Y-113367457D01*
X144399000Y-113396485D01*
X144166771Y-113396485D01*
X145095685Y-113686771D02*
X144747342Y-113686771D01*
X144921514Y-113686771D02*
X144921514Y-113077171D01*
X144863457Y-113164257D01*
X144805400Y-113222314D01*
X144747342Y-113251342D01*
X145298885Y-113077171D02*
X145676257Y-113077171D01*
X145473057Y-113309400D01*
X145560142Y-113309400D01*
X145618200Y-113338428D01*
X145647228Y-113367457D01*
X145676257Y-113425514D01*
X145676257Y-113570657D01*
X145647228Y-113628714D01*
X145618200Y-113657742D01*
X145560142Y-113686771D01*
X145385971Y-113686771D01*
X145327914Y-113657742D01*
X145298885Y-113628714D01*
%TO.C,D13*%
X128291771Y-102891771D02*
X128291771Y-102282171D01*
X128436914Y-102282171D01*
X128524000Y-102311200D01*
X128582057Y-102369257D01*
X128611085Y-102427314D01*
X128640114Y-102543428D01*
X128640114Y-102630514D01*
X128611085Y-102746628D01*
X128582057Y-102804685D01*
X128524000Y-102862742D01*
X128436914Y-102891771D01*
X128291771Y-102891771D01*
X129220685Y-102891771D02*
X128872342Y-102891771D01*
X129046514Y-102891771D02*
X129046514Y-102282171D01*
X128988457Y-102369257D01*
X128930400Y-102427314D01*
X128872342Y-102456342D01*
X129423885Y-102282171D02*
X129801257Y-102282171D01*
X129598057Y-102514400D01*
X129685142Y-102514400D01*
X129743200Y-102543428D01*
X129772228Y-102572457D01*
X129801257Y-102630514D01*
X129801257Y-102775657D01*
X129772228Y-102833714D01*
X129743200Y-102862742D01*
X129685142Y-102891771D01*
X129510971Y-102891771D01*
X129452914Y-102862742D01*
X129423885Y-102833714D01*
%TO.C,C31*%
X131180114Y-112993714D02*
X131151085Y-113022742D01*
X131064000Y-113051771D01*
X131005942Y-113051771D01*
X130918857Y-113022742D01*
X130860800Y-112964685D01*
X130831771Y-112906628D01*
X130802742Y-112790514D01*
X130802742Y-112703428D01*
X130831771Y-112587314D01*
X130860800Y-112529257D01*
X130918857Y-112471200D01*
X131005942Y-112442171D01*
X131064000Y-112442171D01*
X131151085Y-112471200D01*
X131180114Y-112500228D01*
X131383314Y-112442171D02*
X131760685Y-112442171D01*
X131557485Y-112674400D01*
X131644571Y-112674400D01*
X131702628Y-112703428D01*
X131731657Y-112732457D01*
X131760685Y-112790514D01*
X131760685Y-112935657D01*
X131731657Y-112993714D01*
X131702628Y-113022742D01*
X131644571Y-113051771D01*
X131470400Y-113051771D01*
X131412342Y-113022742D01*
X131383314Y-112993714D01*
X132341257Y-113051771D02*
X131992914Y-113051771D01*
X132167085Y-113051771D02*
X132167085Y-112442171D01*
X132109028Y-112529257D01*
X132050971Y-112587314D01*
X131992914Y-112616342D01*
%TO.C,C30*%
X131535714Y-101991885D02*
X131564742Y-102020914D01*
X131593771Y-102108000D01*
X131593771Y-102166057D01*
X131564742Y-102253142D01*
X131506685Y-102311200D01*
X131448628Y-102340228D01*
X131332514Y-102369257D01*
X131245428Y-102369257D01*
X131129314Y-102340228D01*
X131071257Y-102311200D01*
X131013200Y-102253142D01*
X130984171Y-102166057D01*
X130984171Y-102108000D01*
X131013200Y-102020914D01*
X131042228Y-101991885D01*
X130984171Y-101788685D02*
X130984171Y-101411314D01*
X131216400Y-101614514D01*
X131216400Y-101527428D01*
X131245428Y-101469371D01*
X131274457Y-101440342D01*
X131332514Y-101411314D01*
X131477657Y-101411314D01*
X131535714Y-101440342D01*
X131564742Y-101469371D01*
X131593771Y-101527428D01*
X131593771Y-101701600D01*
X131564742Y-101759657D01*
X131535714Y-101788685D01*
X130984171Y-101033942D02*
X130984171Y-100975885D01*
X131013200Y-100917828D01*
X131042228Y-100888800D01*
X131100285Y-100859771D01*
X131216400Y-100830742D01*
X131361542Y-100830742D01*
X131477657Y-100859771D01*
X131535714Y-100888800D01*
X131564742Y-100917828D01*
X131593771Y-100975885D01*
X131593771Y-101033942D01*
X131564742Y-101092000D01*
X131535714Y-101121028D01*
X131477657Y-101150057D01*
X131361542Y-101179085D01*
X131216400Y-101179085D01*
X131100285Y-101150057D01*
X131042228Y-101121028D01*
X131013200Y-101092000D01*
X130984171Y-101033942D01*
%TO.C,C29*%
X143727714Y-106055885D02*
X143756742Y-106084914D01*
X143785771Y-106172000D01*
X143785771Y-106230057D01*
X143756742Y-106317142D01*
X143698685Y-106375200D01*
X143640628Y-106404228D01*
X143524514Y-106433257D01*
X143437428Y-106433257D01*
X143321314Y-106404228D01*
X143263257Y-106375200D01*
X143205200Y-106317142D01*
X143176171Y-106230057D01*
X143176171Y-106172000D01*
X143205200Y-106084914D01*
X143234228Y-106055885D01*
X143234228Y-105823657D02*
X143205200Y-105794628D01*
X143176171Y-105736571D01*
X143176171Y-105591428D01*
X143205200Y-105533371D01*
X143234228Y-105504342D01*
X143292285Y-105475314D01*
X143350342Y-105475314D01*
X143437428Y-105504342D01*
X143785771Y-105852685D01*
X143785771Y-105475314D01*
X143785771Y-105185028D02*
X143785771Y-105068914D01*
X143756742Y-105010857D01*
X143727714Y-104981828D01*
X143640628Y-104923771D01*
X143524514Y-104894742D01*
X143292285Y-104894742D01*
X143234228Y-104923771D01*
X143205200Y-104952800D01*
X143176171Y-105010857D01*
X143176171Y-105126971D01*
X143205200Y-105185028D01*
X143234228Y-105214057D01*
X143292285Y-105243085D01*
X143437428Y-105243085D01*
X143495485Y-105214057D01*
X143524514Y-105185028D01*
X143553542Y-105126971D01*
X143553542Y-105010857D01*
X143524514Y-104952800D01*
X143495485Y-104923771D01*
X143437428Y-104894742D01*
%TO.C,C27*%
X146013714Y-112151885D02*
X146042742Y-112180914D01*
X146071771Y-112268000D01*
X146071771Y-112326057D01*
X146042742Y-112413142D01*
X145984685Y-112471200D01*
X145926628Y-112500228D01*
X145810514Y-112529257D01*
X145723428Y-112529257D01*
X145607314Y-112500228D01*
X145549257Y-112471200D01*
X145491200Y-112413142D01*
X145462171Y-112326057D01*
X145462171Y-112268000D01*
X145491200Y-112180914D01*
X145520228Y-112151885D01*
X145520228Y-111919657D02*
X145491200Y-111890628D01*
X145462171Y-111832571D01*
X145462171Y-111687428D01*
X145491200Y-111629371D01*
X145520228Y-111600342D01*
X145578285Y-111571314D01*
X145636342Y-111571314D01*
X145723428Y-111600342D01*
X146071771Y-111948685D01*
X146071771Y-111571314D01*
X145462171Y-111368114D02*
X145462171Y-110961714D01*
X146071771Y-111222971D01*
%TO.C,C26*%
X142457714Y-100721885D02*
X142486742Y-100750914D01*
X142515771Y-100838000D01*
X142515771Y-100896057D01*
X142486742Y-100983142D01*
X142428685Y-101041200D01*
X142370628Y-101070228D01*
X142254514Y-101099257D01*
X142167428Y-101099257D01*
X142051314Y-101070228D01*
X141993257Y-101041200D01*
X141935200Y-100983142D01*
X141906171Y-100896057D01*
X141906171Y-100838000D01*
X141935200Y-100750914D01*
X141964228Y-100721885D01*
X141964228Y-100489657D02*
X141935200Y-100460628D01*
X141906171Y-100402571D01*
X141906171Y-100257428D01*
X141935200Y-100199371D01*
X141964228Y-100170342D01*
X142022285Y-100141314D01*
X142080342Y-100141314D01*
X142167428Y-100170342D01*
X142515771Y-100518685D01*
X142515771Y-100141314D01*
X141906171Y-99618800D02*
X141906171Y-99734914D01*
X141935200Y-99792971D01*
X141964228Y-99822000D01*
X142051314Y-99880057D01*
X142167428Y-99909085D01*
X142399657Y-99909085D01*
X142457714Y-99880057D01*
X142486742Y-99851028D01*
X142515771Y-99792971D01*
X142515771Y-99676857D01*
X142486742Y-99618800D01*
X142457714Y-99589771D01*
X142399657Y-99560742D01*
X142254514Y-99560742D01*
X142196457Y-99589771D01*
X142167428Y-99618800D01*
X142138400Y-99676857D01*
X142138400Y-99792971D01*
X142167428Y-99851028D01*
X142196457Y-99880057D01*
X142254514Y-99909085D01*
%TO.C,C24*%
X145759714Y-105039885D02*
X145788742Y-105068914D01*
X145817771Y-105156000D01*
X145817771Y-105214057D01*
X145788742Y-105301142D01*
X145730685Y-105359200D01*
X145672628Y-105388228D01*
X145556514Y-105417257D01*
X145469428Y-105417257D01*
X145353314Y-105388228D01*
X145295257Y-105359200D01*
X145237200Y-105301142D01*
X145208171Y-105214057D01*
X145208171Y-105156000D01*
X145237200Y-105068914D01*
X145266228Y-105039885D01*
X145266228Y-104807657D02*
X145237200Y-104778628D01*
X145208171Y-104720571D01*
X145208171Y-104575428D01*
X145237200Y-104517371D01*
X145266228Y-104488342D01*
X145324285Y-104459314D01*
X145382342Y-104459314D01*
X145469428Y-104488342D01*
X145817771Y-104836685D01*
X145817771Y-104459314D01*
X145411371Y-103936800D02*
X145817771Y-103936800D01*
X145179142Y-104081942D02*
X145614571Y-104227085D01*
X145614571Y-103849714D01*
%TO.C,C21*%
X133567714Y-104023885D02*
X133596742Y-104052914D01*
X133625771Y-104140000D01*
X133625771Y-104198057D01*
X133596742Y-104285142D01*
X133538685Y-104343200D01*
X133480628Y-104372228D01*
X133364514Y-104401257D01*
X133277428Y-104401257D01*
X133161314Y-104372228D01*
X133103257Y-104343200D01*
X133045200Y-104285142D01*
X133016171Y-104198057D01*
X133016171Y-104140000D01*
X133045200Y-104052914D01*
X133074228Y-104023885D01*
X133074228Y-103791657D02*
X133045200Y-103762628D01*
X133016171Y-103704571D01*
X133016171Y-103559428D01*
X133045200Y-103501371D01*
X133074228Y-103472342D01*
X133132285Y-103443314D01*
X133190342Y-103443314D01*
X133277428Y-103472342D01*
X133625771Y-103820685D01*
X133625771Y-103443314D01*
X133625771Y-102862742D02*
X133625771Y-103211085D01*
X133625771Y-103036914D02*
X133016171Y-103036914D01*
X133103257Y-103094971D01*
X133161314Y-103153028D01*
X133190342Y-103211085D01*
%TO.C,U8*%
X138829142Y-99894571D02*
X138829142Y-100388057D01*
X138858171Y-100446114D01*
X138887200Y-100475142D01*
X138945257Y-100504171D01*
X139061371Y-100504171D01*
X139119428Y-100475142D01*
X139148457Y-100446114D01*
X139177485Y-100388057D01*
X139177485Y-99894571D01*
X139554857Y-100155828D02*
X139496800Y-100126800D01*
X139467771Y-100097771D01*
X139438742Y-100039714D01*
X139438742Y-100010685D01*
X139467771Y-99952628D01*
X139496800Y-99923600D01*
X139554857Y-99894571D01*
X139670971Y-99894571D01*
X139729028Y-99923600D01*
X139758057Y-99952628D01*
X139787085Y-100010685D01*
X139787085Y-100039714D01*
X139758057Y-100097771D01*
X139729028Y-100126800D01*
X139670971Y-100155828D01*
X139554857Y-100155828D01*
X139496800Y-100184857D01*
X139467771Y-100213885D01*
X139438742Y-100271942D01*
X139438742Y-100388057D01*
X139467771Y-100446114D01*
X139496800Y-100475142D01*
X139554857Y-100504171D01*
X139670971Y-100504171D01*
X139729028Y-100475142D01*
X139758057Y-100446114D01*
X139787085Y-100388057D01*
X139787085Y-100271942D01*
X139758057Y-100213885D01*
X139729028Y-100184857D01*
X139670971Y-100155828D01*
%TO.C,R21*%
X138800114Y-90191771D02*
X138596914Y-89901485D01*
X138451771Y-90191771D02*
X138451771Y-89582171D01*
X138684000Y-89582171D01*
X138742057Y-89611200D01*
X138771085Y-89640228D01*
X138800114Y-89698285D01*
X138800114Y-89785371D01*
X138771085Y-89843428D01*
X138742057Y-89872457D01*
X138684000Y-89901485D01*
X138451771Y-89901485D01*
X139032342Y-89640228D02*
X139061371Y-89611200D01*
X139119428Y-89582171D01*
X139264571Y-89582171D01*
X139322628Y-89611200D01*
X139351657Y-89640228D01*
X139380685Y-89698285D01*
X139380685Y-89756342D01*
X139351657Y-89843428D01*
X139003314Y-90191771D01*
X139380685Y-90191771D01*
X139961257Y-90191771D02*
X139612914Y-90191771D01*
X139787085Y-90191771D02*
X139787085Y-89582171D01*
X139729028Y-89669257D01*
X139670971Y-89727314D01*
X139612914Y-89756342D01*
%TO.C,J10*%
X147893314Y-89861571D02*
X147893314Y-90297000D01*
X147864285Y-90384085D01*
X147806228Y-90442142D01*
X147719142Y-90471171D01*
X147661085Y-90471171D01*
X148502914Y-90471171D02*
X148154571Y-90471171D01*
X148328742Y-90471171D02*
X148328742Y-89861571D01*
X148270685Y-89948657D01*
X148212628Y-90006714D01*
X148154571Y-90035742D01*
X148880285Y-89861571D02*
X148938342Y-89861571D01*
X148996400Y-89890600D01*
X149025428Y-89919628D01*
X149054457Y-89977685D01*
X149083485Y-90093800D01*
X149083485Y-90238942D01*
X149054457Y-90355057D01*
X149025428Y-90413114D01*
X148996400Y-90442142D01*
X148938342Y-90471171D01*
X148880285Y-90471171D01*
X148822228Y-90442142D01*
X148793200Y-90413114D01*
X148764171Y-90355057D01*
X148735142Y-90238942D01*
X148735142Y-90093800D01*
X148764171Y-89977685D01*
X148793200Y-89919628D01*
X148822228Y-89890600D01*
X148880285Y-89861571D01*
%TO.C,R1*%
X133121400Y-113559771D02*
X132918200Y-113269485D01*
X132773057Y-113559771D02*
X132773057Y-112950171D01*
X133005285Y-112950171D01*
X133063342Y-112979200D01*
X133092371Y-113008228D01*
X133121400Y-113066285D01*
X133121400Y-113153371D01*
X133092371Y-113211428D01*
X133063342Y-113240457D01*
X133005285Y-113269485D01*
X132773057Y-113269485D01*
X133701971Y-113559771D02*
X133353628Y-113559771D01*
X133527800Y-113559771D02*
X133527800Y-112950171D01*
X133469742Y-113037257D01*
X133411685Y-113095314D01*
X133353628Y-113124342D01*
%TO.C,J1*%
X128447800Y-107616171D02*
X128447800Y-108051600D01*
X128418771Y-108138685D01*
X128360714Y-108196742D01*
X128273628Y-108225771D01*
X128215571Y-108225771D01*
X129057400Y-108225771D02*
X128709057Y-108225771D01*
X128883228Y-108225771D02*
X128883228Y-107616171D01*
X128825171Y-107703257D01*
X128767114Y-107761314D01*
X128709057Y-107790342D01*
%TO.C,J8*%
X150418800Y-107616171D02*
X150418800Y-108051600D01*
X150389771Y-108138685D01*
X150331714Y-108196742D01*
X150244628Y-108225771D01*
X150186571Y-108225771D01*
X150796171Y-107877428D02*
X150738114Y-107848400D01*
X150709085Y-107819371D01*
X150680057Y-107761314D01*
X150680057Y-107732285D01*
X150709085Y-107674228D01*
X150738114Y-107645200D01*
X150796171Y-107616171D01*
X150912285Y-107616171D01*
X150970342Y-107645200D01*
X150999371Y-107674228D01*
X151028400Y-107732285D01*
X151028400Y-107761314D01*
X150999371Y-107819371D01*
X150970342Y-107848400D01*
X150912285Y-107877428D01*
X150796171Y-107877428D01*
X150738114Y-107906457D01*
X150709085Y-107935485D01*
X150680057Y-107993542D01*
X150680057Y-108109657D01*
X150709085Y-108167714D01*
X150738114Y-108196742D01*
X150796171Y-108225771D01*
X150912285Y-108225771D01*
X150970342Y-108196742D01*
X150999371Y-108167714D01*
X151028400Y-108109657D01*
X151028400Y-107993542D01*
X150999371Y-107935485D01*
X150970342Y-107906457D01*
X150912285Y-107877428D01*
%TO.C,Y1*%
X134351485Y-107140285D02*
X134641771Y-107140285D01*
X134032171Y-107343485D02*
X134351485Y-107140285D01*
X134032171Y-106937085D01*
X134641771Y-106414571D02*
X134641771Y-106762914D01*
X134641771Y-106588742D02*
X134032171Y-106588742D01*
X134119257Y-106646800D01*
X134177314Y-106704857D01*
X134206342Y-106762914D01*
%TO.C,U9*%
X140251542Y-111426171D02*
X140251542Y-111919657D01*
X140280571Y-111977714D01*
X140309600Y-112006742D01*
X140367657Y-112035771D01*
X140483771Y-112035771D01*
X140541828Y-112006742D01*
X140570857Y-111977714D01*
X140599885Y-111919657D01*
X140599885Y-111426171D01*
X140919200Y-112035771D02*
X141035314Y-112035771D01*
X141093371Y-112006742D01*
X141122400Y-111977714D01*
X141180457Y-111890628D01*
X141209485Y-111774514D01*
X141209485Y-111542285D01*
X141180457Y-111484228D01*
X141151428Y-111455200D01*
X141093371Y-111426171D01*
X140977257Y-111426171D01*
X140919200Y-111455200D01*
X140890171Y-111484228D01*
X140861142Y-111542285D01*
X140861142Y-111687428D01*
X140890171Y-111745485D01*
X140919200Y-111774514D01*
X140977257Y-111803542D01*
X141093371Y-111803542D01*
X141151428Y-111774514D01*
X141180457Y-111745485D01*
X141209485Y-111687428D01*
%TO.C,U7*%
X142922171Y-102826457D02*
X143415657Y-102826457D01*
X143473714Y-102797428D01*
X143502742Y-102768400D01*
X143531771Y-102710342D01*
X143531771Y-102594228D01*
X143502742Y-102536171D01*
X143473714Y-102507142D01*
X143415657Y-102478114D01*
X142922171Y-102478114D01*
X142922171Y-102245885D02*
X142922171Y-101839485D01*
X143531771Y-102100742D01*
%TO.C,U5*%
X140759542Y-92122171D02*
X140759542Y-92615657D01*
X140788571Y-92673714D01*
X140817600Y-92702742D01*
X140875657Y-92731771D01*
X140991771Y-92731771D01*
X141049828Y-92702742D01*
X141078857Y-92673714D01*
X141107885Y-92615657D01*
X141107885Y-92122171D01*
X141688457Y-92122171D02*
X141398171Y-92122171D01*
X141369142Y-92412457D01*
X141398171Y-92383428D01*
X141456228Y-92354400D01*
X141601371Y-92354400D01*
X141659428Y-92383428D01*
X141688457Y-92412457D01*
X141717485Y-92470514D01*
X141717485Y-92615657D01*
X141688457Y-92673714D01*
X141659428Y-92702742D01*
X141601371Y-92731771D01*
X141456228Y-92731771D01*
X141398171Y-92702742D01*
X141369142Y-92673714D01*
%TO.C,R30*%
X149627771Y-96403885D02*
X149337485Y-96607085D01*
X149627771Y-96752228D02*
X149018171Y-96752228D01*
X149018171Y-96520000D01*
X149047200Y-96461942D01*
X149076228Y-96432914D01*
X149134285Y-96403885D01*
X149221371Y-96403885D01*
X149279428Y-96432914D01*
X149308457Y-96461942D01*
X149337485Y-96520000D01*
X149337485Y-96752228D01*
X149018171Y-96200685D02*
X149018171Y-95823314D01*
X149250400Y-96026514D01*
X149250400Y-95939428D01*
X149279428Y-95881371D01*
X149308457Y-95852342D01*
X149366514Y-95823314D01*
X149511657Y-95823314D01*
X149569714Y-95852342D01*
X149598742Y-95881371D01*
X149627771Y-95939428D01*
X149627771Y-96113600D01*
X149598742Y-96171657D01*
X149569714Y-96200685D01*
X149018171Y-95445942D02*
X149018171Y-95387885D01*
X149047200Y-95329828D01*
X149076228Y-95300800D01*
X149134285Y-95271771D01*
X149250400Y-95242742D01*
X149395542Y-95242742D01*
X149511657Y-95271771D01*
X149569714Y-95300800D01*
X149598742Y-95329828D01*
X149627771Y-95387885D01*
X149627771Y-95445942D01*
X149598742Y-95504000D01*
X149569714Y-95533028D01*
X149511657Y-95562057D01*
X149395542Y-95591085D01*
X149250400Y-95591085D01*
X149134285Y-95562057D01*
X149076228Y-95533028D01*
X149047200Y-95504000D01*
X149018171Y-95445942D01*
%TO.C,R29*%
X134541771Y-110373885D02*
X134251485Y-110577085D01*
X134541771Y-110722228D02*
X133932171Y-110722228D01*
X133932171Y-110490000D01*
X133961200Y-110431942D01*
X133990228Y-110402914D01*
X134048285Y-110373885D01*
X134135371Y-110373885D01*
X134193428Y-110402914D01*
X134222457Y-110431942D01*
X134251485Y-110490000D01*
X134251485Y-110722228D01*
X133990228Y-110141657D02*
X133961200Y-110112628D01*
X133932171Y-110054571D01*
X133932171Y-109909428D01*
X133961200Y-109851371D01*
X133990228Y-109822342D01*
X134048285Y-109793314D01*
X134106342Y-109793314D01*
X134193428Y-109822342D01*
X134541771Y-110170685D01*
X134541771Y-109793314D01*
X134541771Y-109503028D02*
X134541771Y-109386914D01*
X134512742Y-109328857D01*
X134483714Y-109299828D01*
X134396628Y-109241771D01*
X134280514Y-109212742D01*
X134048285Y-109212742D01*
X133990228Y-109241771D01*
X133961200Y-109270800D01*
X133932171Y-109328857D01*
X133932171Y-109444971D01*
X133961200Y-109503028D01*
X133990228Y-109532057D01*
X134048285Y-109561085D01*
X134193428Y-109561085D01*
X134251485Y-109532057D01*
X134280514Y-109503028D01*
X134309542Y-109444971D01*
X134309542Y-109328857D01*
X134280514Y-109270800D01*
X134251485Y-109241771D01*
X134193428Y-109212742D01*
%TO.C,R24*%
X136768114Y-84603771D02*
X136564914Y-84313485D01*
X136419771Y-84603771D02*
X136419771Y-83994171D01*
X136652000Y-83994171D01*
X136710057Y-84023200D01*
X136739085Y-84052228D01*
X136768114Y-84110285D01*
X136768114Y-84197371D01*
X136739085Y-84255428D01*
X136710057Y-84284457D01*
X136652000Y-84313485D01*
X136419771Y-84313485D01*
X137000342Y-84052228D02*
X137029371Y-84023200D01*
X137087428Y-83994171D01*
X137232571Y-83994171D01*
X137290628Y-84023200D01*
X137319657Y-84052228D01*
X137348685Y-84110285D01*
X137348685Y-84168342D01*
X137319657Y-84255428D01*
X136971314Y-84603771D01*
X137348685Y-84603771D01*
X137871200Y-84197371D02*
X137871200Y-84603771D01*
X137726057Y-83965142D02*
X137580914Y-84400571D01*
X137958285Y-84400571D01*
%TO.C,R22*%
X138292114Y-89175771D02*
X138088914Y-88885485D01*
X137943771Y-89175771D02*
X137943771Y-88566171D01*
X138176000Y-88566171D01*
X138234057Y-88595200D01*
X138263085Y-88624228D01*
X138292114Y-88682285D01*
X138292114Y-88769371D01*
X138263085Y-88827428D01*
X138234057Y-88856457D01*
X138176000Y-88885485D01*
X137943771Y-88885485D01*
X138524342Y-88624228D02*
X138553371Y-88595200D01*
X138611428Y-88566171D01*
X138756571Y-88566171D01*
X138814628Y-88595200D01*
X138843657Y-88624228D01*
X138872685Y-88682285D01*
X138872685Y-88740342D01*
X138843657Y-88827428D01*
X138495314Y-89175771D01*
X138872685Y-89175771D01*
X139104914Y-88624228D02*
X139133942Y-88595200D01*
X139192000Y-88566171D01*
X139337142Y-88566171D01*
X139395200Y-88595200D01*
X139424228Y-88624228D01*
X139453257Y-88682285D01*
X139453257Y-88740342D01*
X139424228Y-88827428D01*
X139075885Y-89175771D01*
X139453257Y-89175771D01*
%TO.C,J7*%
X131521200Y-83232171D02*
X131521200Y-83667600D01*
X131492171Y-83754685D01*
X131434114Y-83812742D01*
X131347028Y-83841771D01*
X131288971Y-83841771D01*
X131753428Y-83232171D02*
X132159828Y-83232171D01*
X131898571Y-83841771D01*
%TO.C,C28*%
X143727714Y-113675885D02*
X143756742Y-113704914D01*
X143785771Y-113792000D01*
X143785771Y-113850057D01*
X143756742Y-113937142D01*
X143698685Y-113995200D01*
X143640628Y-114024228D01*
X143524514Y-114053257D01*
X143437428Y-114053257D01*
X143321314Y-114024228D01*
X143263257Y-113995200D01*
X143205200Y-113937142D01*
X143176171Y-113850057D01*
X143176171Y-113792000D01*
X143205200Y-113704914D01*
X143234228Y-113675885D01*
X143234228Y-113443657D02*
X143205200Y-113414628D01*
X143176171Y-113356571D01*
X143176171Y-113211428D01*
X143205200Y-113153371D01*
X143234228Y-113124342D01*
X143292285Y-113095314D01*
X143350342Y-113095314D01*
X143437428Y-113124342D01*
X143785771Y-113472685D01*
X143785771Y-113095314D01*
X143437428Y-112746971D02*
X143408400Y-112805028D01*
X143379371Y-112834057D01*
X143321314Y-112863085D01*
X143292285Y-112863085D01*
X143234228Y-112834057D01*
X143205200Y-112805028D01*
X143176171Y-112746971D01*
X143176171Y-112630857D01*
X143205200Y-112572800D01*
X143234228Y-112543771D01*
X143292285Y-112514742D01*
X143321314Y-112514742D01*
X143379371Y-112543771D01*
X143408400Y-112572800D01*
X143437428Y-112630857D01*
X143437428Y-112746971D01*
X143466457Y-112805028D01*
X143495485Y-112834057D01*
X143553542Y-112863085D01*
X143669657Y-112863085D01*
X143727714Y-112834057D01*
X143756742Y-112805028D01*
X143785771Y-112746971D01*
X143785771Y-112630857D01*
X143756742Y-112572800D01*
X143727714Y-112543771D01*
X143669657Y-112514742D01*
X143553542Y-112514742D01*
X143495485Y-112543771D01*
X143466457Y-112572800D01*
X143437428Y-112630857D01*
%TO.C,C25*%
X137530114Y-101817714D02*
X137501085Y-101846742D01*
X137414000Y-101875771D01*
X137355942Y-101875771D01*
X137268857Y-101846742D01*
X137210800Y-101788685D01*
X137181771Y-101730628D01*
X137152742Y-101614514D01*
X137152742Y-101527428D01*
X137181771Y-101411314D01*
X137210800Y-101353257D01*
X137268857Y-101295200D01*
X137355942Y-101266171D01*
X137414000Y-101266171D01*
X137501085Y-101295200D01*
X137530114Y-101324228D01*
X137762342Y-101324228D02*
X137791371Y-101295200D01*
X137849428Y-101266171D01*
X137994571Y-101266171D01*
X138052628Y-101295200D01*
X138081657Y-101324228D01*
X138110685Y-101382285D01*
X138110685Y-101440342D01*
X138081657Y-101527428D01*
X137733314Y-101875771D01*
X138110685Y-101875771D01*
X138662228Y-101266171D02*
X138371942Y-101266171D01*
X138342914Y-101556457D01*
X138371942Y-101527428D01*
X138430000Y-101498400D01*
X138575142Y-101498400D01*
X138633200Y-101527428D01*
X138662228Y-101556457D01*
X138691257Y-101614514D01*
X138691257Y-101759657D01*
X138662228Y-101817714D01*
X138633200Y-101846742D01*
X138575142Y-101875771D01*
X138430000Y-101875771D01*
X138371942Y-101846742D01*
X138342914Y-101817714D01*
%TO.C,C23*%
X134202714Y-112405885D02*
X134231742Y-112434914D01*
X134260771Y-112522000D01*
X134260771Y-112580057D01*
X134231742Y-112667142D01*
X134173685Y-112725200D01*
X134115628Y-112754228D01*
X133999514Y-112783257D01*
X133912428Y-112783257D01*
X133796314Y-112754228D01*
X133738257Y-112725200D01*
X133680200Y-112667142D01*
X133651171Y-112580057D01*
X133651171Y-112522000D01*
X133680200Y-112434914D01*
X133709228Y-112405885D01*
X133709228Y-112173657D02*
X133680200Y-112144628D01*
X133651171Y-112086571D01*
X133651171Y-111941428D01*
X133680200Y-111883371D01*
X133709228Y-111854342D01*
X133767285Y-111825314D01*
X133825342Y-111825314D01*
X133912428Y-111854342D01*
X134260771Y-112202685D01*
X134260771Y-111825314D01*
X133651171Y-111622114D02*
X133651171Y-111244742D01*
X133883400Y-111447942D01*
X133883400Y-111360857D01*
X133912428Y-111302800D01*
X133941457Y-111273771D01*
X133999514Y-111244742D01*
X134144657Y-111244742D01*
X134202714Y-111273771D01*
X134231742Y-111302800D01*
X134260771Y-111360857D01*
X134260771Y-111535028D01*
X134231742Y-111593085D01*
X134202714Y-111622114D01*
%TO.C,C22*%
X131180114Y-114517714D02*
X131151085Y-114546742D01*
X131064000Y-114575771D01*
X131005942Y-114575771D01*
X130918857Y-114546742D01*
X130860800Y-114488685D01*
X130831771Y-114430628D01*
X130802742Y-114314514D01*
X130802742Y-114227428D01*
X130831771Y-114111314D01*
X130860800Y-114053257D01*
X130918857Y-113995200D01*
X131005942Y-113966171D01*
X131064000Y-113966171D01*
X131151085Y-113995200D01*
X131180114Y-114024228D01*
X131412342Y-114024228D02*
X131441371Y-113995200D01*
X131499428Y-113966171D01*
X131644571Y-113966171D01*
X131702628Y-113995200D01*
X131731657Y-114024228D01*
X131760685Y-114082285D01*
X131760685Y-114140342D01*
X131731657Y-114227428D01*
X131383314Y-114575771D01*
X131760685Y-114575771D01*
X131992914Y-114024228D02*
X132021942Y-113995200D01*
X132080000Y-113966171D01*
X132225142Y-113966171D01*
X132283200Y-113995200D01*
X132312228Y-114024228D01*
X132341257Y-114082285D01*
X132341257Y-114140342D01*
X132312228Y-114227428D01*
X131963885Y-114575771D01*
X132341257Y-114575771D01*
%TO.C,C20*%
X134837714Y-104023885D02*
X134866742Y-104052914D01*
X134895771Y-104140000D01*
X134895771Y-104198057D01*
X134866742Y-104285142D01*
X134808685Y-104343200D01*
X134750628Y-104372228D01*
X134634514Y-104401257D01*
X134547428Y-104401257D01*
X134431314Y-104372228D01*
X134373257Y-104343200D01*
X134315200Y-104285142D01*
X134286171Y-104198057D01*
X134286171Y-104140000D01*
X134315200Y-104052914D01*
X134344228Y-104023885D01*
X134344228Y-103791657D02*
X134315200Y-103762628D01*
X134286171Y-103704571D01*
X134286171Y-103559428D01*
X134315200Y-103501371D01*
X134344228Y-103472342D01*
X134402285Y-103443314D01*
X134460342Y-103443314D01*
X134547428Y-103472342D01*
X134895771Y-103820685D01*
X134895771Y-103443314D01*
X134286171Y-103065942D02*
X134286171Y-103007885D01*
X134315200Y-102949828D01*
X134344228Y-102920800D01*
X134402285Y-102891771D01*
X134518400Y-102862742D01*
X134663542Y-102862742D01*
X134779657Y-102891771D01*
X134837714Y-102920800D01*
X134866742Y-102949828D01*
X134895771Y-103007885D01*
X134895771Y-103065942D01*
X134866742Y-103124000D01*
X134837714Y-103153028D01*
X134779657Y-103182057D01*
X134663542Y-103211085D01*
X134518400Y-103211085D01*
X134402285Y-103182057D01*
X134344228Y-103153028D01*
X134315200Y-103124000D01*
X134286171Y-103065942D01*
%TO.C,C19*%
X131180114Y-113755714D02*
X131151085Y-113784742D01*
X131064000Y-113813771D01*
X131005942Y-113813771D01*
X130918857Y-113784742D01*
X130860800Y-113726685D01*
X130831771Y-113668628D01*
X130802742Y-113552514D01*
X130802742Y-113465428D01*
X130831771Y-113349314D01*
X130860800Y-113291257D01*
X130918857Y-113233200D01*
X131005942Y-113204171D01*
X131064000Y-113204171D01*
X131151085Y-113233200D01*
X131180114Y-113262228D01*
X131760685Y-113813771D02*
X131412342Y-113813771D01*
X131586514Y-113813771D02*
X131586514Y-113204171D01*
X131528457Y-113291257D01*
X131470400Y-113349314D01*
X131412342Y-113378342D01*
X132050971Y-113813771D02*
X132167085Y-113813771D01*
X132225142Y-113784742D01*
X132254171Y-113755714D01*
X132312228Y-113668628D01*
X132341257Y-113552514D01*
X132341257Y-113320285D01*
X132312228Y-113262228D01*
X132283200Y-113233200D01*
X132225142Y-113204171D01*
X132109028Y-113204171D01*
X132050971Y-113233200D01*
X132021942Y-113262228D01*
X131992914Y-113320285D01*
X131992914Y-113465428D01*
X132021942Y-113523485D01*
X132050971Y-113552514D01*
X132109028Y-113581542D01*
X132225142Y-113581542D01*
X132283200Y-113552514D01*
X132312228Y-113523485D01*
X132341257Y-113465428D01*
%TO.C,C18*%
X138800114Y-113755714D02*
X138771085Y-113784742D01*
X138684000Y-113813771D01*
X138625942Y-113813771D01*
X138538857Y-113784742D01*
X138480800Y-113726685D01*
X138451771Y-113668628D01*
X138422742Y-113552514D01*
X138422742Y-113465428D01*
X138451771Y-113349314D01*
X138480800Y-113291257D01*
X138538857Y-113233200D01*
X138625942Y-113204171D01*
X138684000Y-113204171D01*
X138771085Y-113233200D01*
X138800114Y-113262228D01*
X139380685Y-113813771D02*
X139032342Y-113813771D01*
X139206514Y-113813771D02*
X139206514Y-113204171D01*
X139148457Y-113291257D01*
X139090400Y-113349314D01*
X139032342Y-113378342D01*
X139729028Y-113465428D02*
X139670971Y-113436400D01*
X139641942Y-113407371D01*
X139612914Y-113349314D01*
X139612914Y-113320285D01*
X139641942Y-113262228D01*
X139670971Y-113233200D01*
X139729028Y-113204171D01*
X139845142Y-113204171D01*
X139903200Y-113233200D01*
X139932228Y-113262228D01*
X139961257Y-113320285D01*
X139961257Y-113349314D01*
X139932228Y-113407371D01*
X139903200Y-113436400D01*
X139845142Y-113465428D01*
X139729028Y-113465428D01*
X139670971Y-113494457D01*
X139641942Y-113523485D01*
X139612914Y-113581542D01*
X139612914Y-113697657D01*
X139641942Y-113755714D01*
X139670971Y-113784742D01*
X139729028Y-113813771D01*
X139845142Y-113813771D01*
X139903200Y-113784742D01*
X139932228Y-113755714D01*
X139961257Y-113697657D01*
X139961257Y-113581542D01*
X139932228Y-113523485D01*
X139903200Y-113494457D01*
X139845142Y-113465428D01*
%TO.C,C17*%
X142457714Y-114183885D02*
X142486742Y-114212914D01*
X142515771Y-114300000D01*
X142515771Y-114358057D01*
X142486742Y-114445142D01*
X142428685Y-114503200D01*
X142370628Y-114532228D01*
X142254514Y-114561257D01*
X142167428Y-114561257D01*
X142051314Y-114532228D01*
X141993257Y-114503200D01*
X141935200Y-114445142D01*
X141906171Y-114358057D01*
X141906171Y-114300000D01*
X141935200Y-114212914D01*
X141964228Y-114183885D01*
X142515771Y-113603314D02*
X142515771Y-113951657D01*
X142515771Y-113777485D02*
X141906171Y-113777485D01*
X141993257Y-113835542D01*
X142051314Y-113893600D01*
X142080342Y-113951657D01*
X141906171Y-113400114D02*
X141906171Y-112993714D01*
X142515771Y-113254971D01*
%TO.C,C16*%
X134990114Y-102579714D02*
X134961085Y-102608742D01*
X134874000Y-102637771D01*
X134815942Y-102637771D01*
X134728857Y-102608742D01*
X134670800Y-102550685D01*
X134641771Y-102492628D01*
X134612742Y-102376514D01*
X134612742Y-102289428D01*
X134641771Y-102173314D01*
X134670800Y-102115257D01*
X134728857Y-102057200D01*
X134815942Y-102028171D01*
X134874000Y-102028171D01*
X134961085Y-102057200D01*
X134990114Y-102086228D01*
X135570685Y-102637771D02*
X135222342Y-102637771D01*
X135396514Y-102637771D02*
X135396514Y-102028171D01*
X135338457Y-102115257D01*
X135280400Y-102173314D01*
X135222342Y-102202342D01*
X136093200Y-102028171D02*
X135977085Y-102028171D01*
X135919028Y-102057200D01*
X135890000Y-102086228D01*
X135831942Y-102173314D01*
X135802914Y-102289428D01*
X135802914Y-102521657D01*
X135831942Y-102579714D01*
X135860971Y-102608742D01*
X135919028Y-102637771D01*
X136035142Y-102637771D01*
X136093200Y-102608742D01*
X136122228Y-102579714D01*
X136151257Y-102521657D01*
X136151257Y-102376514D01*
X136122228Y-102318457D01*
X136093200Y-102289428D01*
X136035142Y-102260400D01*
X135919028Y-102260400D01*
X135860971Y-102289428D01*
X135831942Y-102318457D01*
X135802914Y-102376514D01*
%TO.C,C12*%
X145912114Y-113120714D02*
X145883085Y-113149742D01*
X145796000Y-113178771D01*
X145737942Y-113178771D01*
X145650857Y-113149742D01*
X145592800Y-113091685D01*
X145563771Y-113033628D01*
X145534742Y-112917514D01*
X145534742Y-112830428D01*
X145563771Y-112714314D01*
X145592800Y-112656257D01*
X145650857Y-112598200D01*
X145737942Y-112569171D01*
X145796000Y-112569171D01*
X145883085Y-112598200D01*
X145912114Y-112627228D01*
X146492685Y-113178771D02*
X146144342Y-113178771D01*
X146318514Y-113178771D02*
X146318514Y-112569171D01*
X146260457Y-112656257D01*
X146202400Y-112714314D01*
X146144342Y-112743342D01*
X146724914Y-112627228D02*
X146753942Y-112598200D01*
X146812000Y-112569171D01*
X146957142Y-112569171D01*
X147015200Y-112598200D01*
X147044228Y-112627228D01*
X147073257Y-112685285D01*
X147073257Y-112743342D01*
X147044228Y-112830428D01*
X146695885Y-113178771D01*
X147073257Y-113178771D01*
%TO.C,C7*%
X147218400Y-104103714D02*
X147189371Y-104132742D01*
X147102285Y-104161771D01*
X147044228Y-104161771D01*
X146957142Y-104132742D01*
X146899085Y-104074685D01*
X146870057Y-104016628D01*
X146841028Y-103900514D01*
X146841028Y-103813428D01*
X146870057Y-103697314D01*
X146899085Y-103639257D01*
X146957142Y-103581200D01*
X147044228Y-103552171D01*
X147102285Y-103552171D01*
X147189371Y-103581200D01*
X147218400Y-103610228D01*
X147421600Y-103552171D02*
X147828000Y-103552171D01*
X147566742Y-104161771D01*
%TD*%
M02*
